<svg xmlns="http://www.w3.org/2000/svg" width="127.871" height="127.986" viewBox="0 0 127.871 127.986">
  <g id="programmer_11068842" transform="translate(-6.5 -6.384)">
    <g id="Grupo_1224793" data-name="Grupo 1224793" transform="translate(29.652 7.5)">
      <g id="Grupo_1224788" data-name="Grupo 1224788" transform="translate(2.217 44.368)">
        <path id="Trazado_1051745" data-name="Trazado 1051745" d="M179.337,206.21a10.685,10.685,0,0,1,.058,1.109,10.331,10.331,0,0,1-10.329,10.332H115.507a10.331,10.331,0,0,1-10.329-10.332,10.692,10.692,0,0,1,.058-1.109c.061-.572.928-1.13,1.079-1.671.206-.738-.267-1.444.088-2.106a7.15,7.15,0,0,1,.734-11.681c.543-.334,1.135.162,1.761-.018s1.289-1.035,1.972-1.035l0,0a7.151,7.151,0,0,1,6.677-7l49-.015A7.15,7.15,0,0,1,173.7,189.7l0,0c.642,0,1.265.844,1.857,1,.668.179,1.3-.306,1.873.048a7.151,7.151,0,0,1,.736,11.684c.306.571-.2,1.174,0,1.8S179.265,205.53,179.337,206.21Z" transform="translate(-103.72 -182.688)" fill="#bc7c63"/>
      </g>
      <g id="Grupo_1224791" data-name="Grupo 1224791" transform="translate(9.588)">
        <g id="Grupo_1224789" data-name="Grupo 1224789" transform="translate(23.216 60.26)">
          <path id="Trazado_1051746" data-name="Trazado 1051746" d="M224.494,267.515V245.438h15.958v22.077Z" transform="translate(-224.494 -245.438)" fill="#efb9af"/>
        </g>
        <path id="Trazado_1051747" data-name="Trazado 1051747" d="M200.314,29.236l1.017,18.693H145.215V28.219A20.7,20.7,0,0,1,171.374,8.251c.519.142,1.038,1.4,1.557,1.584a.991.991,0,0,0,.683,0c.519-.187,1.038-1.443,1.557-1.584,1.838-.509,3.68,0,5.487,0C191.633,8.251,200.314,17.4,200.314,29.236Z" transform="translate(-142.078 -7.502)" fill="#c68d7a"/>
        <path id="Trazado_1051748" data-name="Trazado 1051748" d="M289.655,28.217V42.176l-5.457-4.66V31.879c0-22.292-20.7-23.629-20.7-23.629a20.647,20.647,0,0,1,26.159,19.968Z" transform="translate(-230.403 -7.5)" fill="#bc7c63"/>
        <g id="Grupo_1224790" data-name="Grupo 1224790" transform="translate(29.296 0.749)">
          <path id="Trazado_1051749" data-name="Trazado 1051749" d="M252.3,10.458V25.252a1.9,1.9,0,0,1-3.8,0V10.458q.778.213,1.557.494a.991.991,0,0,0,.683,0Q251.523,10.671,252.3,10.458Z" transform="translate(-248.504 -10.458)" fill="#bc7c63"/>
        </g>
        <path id="Trazado_1051750" data-name="Trazado 1051750" d="M183.941,141.781H144.1a11.275,11.275,0,0,1-11.275-11.275h0a4.486,4.486,0,0,1,4.486-4.486h53.419a4.486,4.486,0,0,1,4.486,4.486h0A11.276,11.276,0,0,1,183.941,141.781Z" transform="translate(-132.827 -96.004)" fill="#efb9af"/>
        <path id="Trazado_1051751" data-name="Trazado 1051751" d="M189.362,107.855a14.478,14.478,0,0,0,9.923-3.921l7.62-7.137a15.986,15.986,0,0,0,5.058-11.667V69.261h0a4.009,4.009,0,0,1-3.786-2.693h0A23.482,23.482,0,0,0,196,53.034L189.777,50.1a1.011,1.011,0,0,0-.827,0l-6.227,2.934a23.481,23.481,0,0,0-12.173,13.535h0a4.008,4.008,0,0,1-3.786,2.693h0V85.13A15.986,15.986,0,0,0,171.82,96.8l7.62,7.137A14.474,14.474,0,0,0,189.362,107.855Z" transform="translate(-158.168 -39.245)" fill="#f3c6bd"/>
      </g>
      <g id="Grupo_1224792" data-name="Grupo 1224792" transform="translate(0 77.84)">
        <path id="Trazado_1051752" data-name="Trazado 1051752" d="M180.212,360.34l.334-40.266a4.5,4.5,0,0,0-4.5-4.5l-5.926-.725H109.134a4.5,4.5,0,0,0-4.5,4.5v40.99h75.574Z" transform="translate(-102.189 -314.853)" fill="#918291"/>
        <path id="Trazado_1051753" data-name="Trazado 1051753" d="M173.864,478.794l-7.374-.536H96.834a1.867,1.867,0,0,0-1.867,1.867h0a4.779,4.779,0,0,0,4.779,4.779h65.609l5.852-.787c2.639,0,4.524-.816,4.524-3.455h0A1.867,1.867,0,0,0,173.864,478.794Z" transform="translate(-94.967 -436.874)" fill="#7a6d79"/>
        <path id="Trazado_1051754" data-name="Trazado 1051754" d="M367.217,314.854h-7.594a4.5,4.5,0,0,1,4.5,4.5v40.99h7.594V319.35A4.5,4.5,0,0,0,367.217,314.854Z" transform="translate(-292.596 -314.854)" fill="#7a6d79"/>
        <path id="Trazado_1051755" data-name="Trazado 1051755" d="M380.563,478.258h-8.177v4.953a1.692,1.692,0,0,1-1.692,1.692h6.957a4.779,4.779,0,0,0,4.779-4.779h0A1.867,1.867,0,0,0,380.563,478.258Z" transform="translate(-300.863 -436.874)" fill="#685e68"/>
      </g>
    </g>
    <g id="Grupo_1224810" data-name="Grupo 1224810" transform="translate(7.5 7.499)">
      <g id="Grupo_1224796" data-name="Grupo 1224796" transform="translate(24.345 44.625)">
        <path id="Trazado_1051756" data-name="Trazado 1051756" d="M116.127,183.7a7.158,7.158,0,0,0-5.343,6.786h0a7.154,7.154,0,0,0-4.468,12.742,10.34,10.34,0,0,0,3.283,13.426" transform="translate(-103.625 -183.7)" fill="none" stroke="#000" stroke-linecap="round" stroke-linejoin="round" stroke-miterlimit="10" stroke-width="2"/>
        <g id="Grupo_1224794" data-name="Grupo 1224794" transform="translate(2.686 6.924)">
          <path id="Trazado_1051757" data-name="Trazado 1051757" d="M134.237,216.353a7.137,7.137,0,0,1-2.361-5.312" transform="translate(-127.407 -211.041)" fill="none" stroke="#000" stroke-linecap="round" stroke-linejoin="round" stroke-miterlimit="10" stroke-width="2"/>
          <path id="Trazado_1051758" data-name="Trazado 1051758" d="M118.7,262.377a7.126,7.126,0,0,1-4.469-1.567" transform="translate(-114.23 -248.205)" fill="none" stroke="#000" stroke-linecap="round" stroke-linejoin="round" stroke-miterlimit="10" stroke-width="2"/>
        </g>
        <path id="Trazado_1051759" data-name="Trazado 1051759" d="M365.359,216.779a10.34,10.34,0,0,0,3.469-13.551,7.154,7.154,0,0,0-4.468-12.742h0a7.158,7.158,0,0,0-5.343-6.786" transform="translate(-294.333 -183.701)" fill="none" stroke="#000" stroke-linecap="round" stroke-linejoin="round" stroke-miterlimit="10" stroke-width="2"/>
        <g id="Grupo_1224795" data-name="Grupo 1224795" transform="translate(67.665 6.924)">
          <path id="Trazado_1051760" data-name="Trazado 1051760" d="M370.8,216.353a7.137,7.137,0,0,0,2.361-5.312" transform="translate(-370.801 -211.041)" fill="none" stroke="#000" stroke-linecap="round" stroke-linejoin="round" stroke-miterlimit="10" stroke-width="2"/>
          <path id="Trazado_1051761" data-name="Trazado 1051761" d="M380.123,262.377a7.125,7.125,0,0,0,4.469-1.567" transform="translate(-377.762 -248.205)" fill="none" stroke="#000" stroke-linecap="round" stroke-linejoin="round" stroke-miterlimit="10" stroke-width="2"/>
        </g>
      </g>
      <g id="Grupo_1224802" data-name="Grupo 1224802" transform="translate(31.722 0)">
        <g id="Grupo_1224797" data-name="Grupo 1224797" transform="translate(23.229 66.772)">
          <line id="Línea_1819" data-name="Línea 1819" y2="10.483" transform="translate(15.968)" fill="none" stroke="#000" stroke-linecap="round" stroke-linejoin="round" stroke-miterlimit="10" stroke-width="2"/>
          <line id="Línea_1820" data-name="Línea 1820" y1="10.483" fill="none" stroke="#000" stroke-linecap="round" stroke-linejoin="round" stroke-miterlimit="10" stroke-width="2"/>
        </g>
        <path id="Trazado_1051762" data-name="Trazado 1051762" d="M353.06,43.82a20.5,20.5,0,0,1,3.493,11.531v9.3" transform="translate(-297.265 -34.621)" fill="none" stroke="#000" stroke-linecap="round" stroke-linejoin="round" stroke-miterlimit="10" stroke-width="2"/>
        <path id="Trazado_1051763" data-name="Trazado 1051763" d="M145.15,37.3V28.229A20.712,20.712,0,0,1,172.882,8.743a.992.992,0,0,0,.684,0A20.532,20.532,0,0,1,191.4,10.567" transform="translate(-142.011 -7.499)" fill="none" stroke="#000" stroke-linecap="round" stroke-linejoin="round" stroke-miterlimit="10" stroke-width="2"/>
        <path id="Trazado_1051764" data-name="Trazado 1051764" d="M345.292,126.089H349.4a4.488,4.488,0,0,1,4.488,4.488h0a11.287,11.287,0,0,1-8.18,10.85" transform="translate(-291.465 -96.055)" fill="none" stroke="#000" stroke-linecap="round" stroke-linejoin="round" stroke-miterlimit="10" stroke-width="2"/>
        <path id="Trazado_1051765" data-name="Trazado 1051765" d="M140.927,141.425a11.287,11.287,0,0,1-8.172-10.848h0a4.488,4.488,0,0,1,4.488-4.488h4.111" transform="translate(-132.755 -96.055)" fill="none" stroke="#000" stroke-linecap="round" stroke-linejoin="round" stroke-miterlimit="10" stroke-width="2"/>
        <path id="Trazado_1051766" data-name="Trazado 1051766" d="M172.925,61.617A23.366,23.366,0,0,0,170.5,66.6,4.015,4.015,0,0,1,166.71,69.3V85.176a15.993,15.993,0,0,0,5.06,11.675l7.626,7.139a14.517,14.517,0,0,0,19.856,0l7.626-7.139a15.993,15.993,0,0,0,5.06-11.675V69.3a4.015,4.015,0,0,1-3.789-2.695,23.477,23.477,0,0,0-12.179-13.542l-6.233-2.935a1,1,0,0,0-.826,0l-6.233,2.935a23.379,23.379,0,0,0-3.639,2.135" transform="translate(-158.111 -39.264)" fill="none" stroke="#000" stroke-linecap="round" stroke-linejoin="round" stroke-miterlimit="10" stroke-width="2"/>
        <g id="Grupo_1224801" data-name="Grupo 1224801" transform="translate(18.674 30.303)">
          <g id="Grupo_1224798" data-name="Grupo 1224798">
            <path id="Trazado_1051767" data-name="Trazado 1051767" d="M245.842,196.5a5.667,5.667,0,0,0,5.145,0" transform="translate(-235.875 -178.938)" fill="none" stroke="#000" stroke-linecap="round" stroke-linejoin="round" stroke-miterlimit="10" stroke-width="2"/>
            <path id="Trazado_1051768" data-name="Trazado 1051768" d="M206.489,128.05a7.262,7.262,0,0,1,7,0" transform="translate(-206.489 -127.152)" fill="none" stroke="#000" stroke-linecap="round" stroke-linejoin="round" stroke-miterlimit="10" stroke-width="2"/>
            <path id="Trazado_1051769" data-name="Trazado 1051769" d="M277.887,128.05a7.262,7.262,0,0,1,7,0" transform="translate(-259.805 -127.152)" fill="none" stroke="#000" stroke-linecap="round" stroke-linejoin="round" stroke-miterlimit="10" stroke-width="2"/>
          </g>
          <g id="Grupo_1224799" data-name="Grupo 1224799" transform="translate(7.849 26.236)">
            <path id="Trazado_1051770" data-name="Trazado 1051770" d="M237.48,230.746a10.332,10.332,0,0,0,9.381,0" transform="translate(-237.48 -230.746)" fill="none" stroke="#000" stroke-linecap="round" stroke-linejoin="round" stroke-miterlimit="10" stroke-width="2"/>
          </g>
          <g id="Grupo_1224800" data-name="Grupo 1224800" transform="translate(3.495 6.641)">
            <line id="Línea_1821" data-name="Línea 1821" y2="3.657" transform="translate(18.089)" fill="none" stroke="#000" stroke-linecap="round" stroke-linejoin="round" stroke-miterlimit="10" stroke-width="2"/>
            <line id="Línea_1822" data-name="Línea 1822" y2="3.657" fill="none" stroke="#000" stroke-linecap="round" stroke-linejoin="round" stroke-miterlimit="10" stroke-width="2"/>
          </g>
        </g>
        <line id="Línea_1823" data-name="Línea 1823" y1="8.017" transform="translate(31.213 2.258)" fill="none" stroke="#000" stroke-linecap="round" stroke-linejoin="round" stroke-miterlimit="10" stroke-width="2"/>
      </g>
      <g id="Grupo_1224807" data-name="Grupo 1224807" transform="translate(0 58.127)">
        <g id="Grupo_1224804" data-name="Grupo 1224804" transform="translate(108.618)">
          <g id="Grupo_1224803" data-name="Grupo 1224803">
            <path id="Trazado_1051771" data-name="Trazado 1051771" d="M440.469,237.015h0a4.091,4.091,0,0,0-4.091,4.091v4.83a4.091,4.091,0,0,0,4.091,4.091h0a4.091,4.091,0,0,0,4.091-4.091v-4.83A4.091,4.091,0,0,0,440.469,237.015Z" transform="translate(-436.378 -237.015)" fill="none" stroke="#000" stroke-linecap="round" stroke-linejoin="round" stroke-miterlimit="10" stroke-width="2"/>
            <path id="Trazado_1051772" data-name="Trazado 1051772" d="M476.287,318.916h0a4.091,4.091,0,0,0-4.091,4.091v4.83a4.091,4.091,0,0,0,4.091,4.091h0a4.091,4.091,0,0,0,4.091-4.091v-4.83A4.091,4.091,0,0,0,476.287,318.916Z" transform="translate(-463.125 -298.174)" fill="none" stroke="#000" stroke-linecap="round" stroke-linejoin="round" stroke-miterlimit="10" stroke-width="2"/>
            <line id="Línea_1824" data-name="Línea 1824" y2="13.011" transform="translate(0 20.742)" fill="none" stroke="#000" stroke-linecap="round" stroke-linejoin="round" stroke-miterlimit="10" stroke-width="2"/>
            <line id="Línea_1825" data-name="Línea 1825" y1="13.011" transform="translate(17.253)" fill="none" stroke="#000" stroke-linecap="round" stroke-linejoin="round" stroke-miterlimit="10" stroke-width="2"/>
          </g>
        </g>
        <g id="Grupo_1224806" data-name="Grupo 1224806">
          <g id="Grupo_1224805" data-name="Grupo 1224805">
            <path id="Trazado_1051773" data-name="Trazado 1051773" d="M47.409,237.015h0a4.091,4.091,0,0,1,4.091,4.091v4.83a4.091,4.091,0,0,1-4.091,4.091h0a4.091,4.091,0,0,1-4.091-4.091v-4.83A4.091,4.091,0,0,1,47.409,237.015Z" transform="translate(-34.247 -237.015)" fill="none" stroke="#000" stroke-linecap="round" stroke-linejoin="round" stroke-miterlimit="10" stroke-width="2"/>
            <path id="Trazado_1051774" data-name="Trazado 1051774" d="M11.591,318.916h0a4.091,4.091,0,0,1,4.091,4.091v4.83a4.091,4.091,0,0,1-4.091,4.091h0A4.091,4.091,0,0,1,7.5,327.837v-4.83A4.091,4.091,0,0,1,11.591,318.916Z" transform="translate(-7.5 -298.174)" fill="none" stroke="#000" stroke-linecap="round" stroke-linejoin="round" stroke-miterlimit="10" stroke-width="2"/>
            <line id="Línea_1826" data-name="Línea 1826" y2="13.011" transform="translate(17.253 20.742)" fill="none" stroke="#000" stroke-linecap="round" stroke-linejoin="round" stroke-miterlimit="10" stroke-width="2"/>
            <line id="Línea_1827" data-name="Línea 1827" y1="13.011" fill="none" stroke="#000" stroke-linecap="round" stroke-linejoin="round" stroke-miterlimit="10" stroke-width="2"/>
          </g>
        </g>
      </g>
      <g id="Grupo_1224809" data-name="Grupo 1224809" transform="translate(22.128 77.812)">
        <line id="Línea_1828" data-name="Línea 1828" y1="9.594" transform="translate(2.451 31.394)" fill="none" stroke="#000" stroke-linecap="round" stroke-linejoin="round" stroke-miterlimit="10" stroke-width="2"/>
        <path id="Trazado_1051775" data-name="Trazado 1051775" d="M362.79,314.74H369.6a4.5,4.5,0,0,1,4.5,4.5V355.5" transform="translate(-294.937 -314.74)" fill="none" stroke="#000" stroke-linecap="round" stroke-linejoin="round" stroke-miterlimit="10" stroke-width="2"/>
        <path id="Trazado_1051776" data-name="Trazado 1051776" d="M104.55,337.27V319.24a4.5,4.5,0,0,1,4.5-4.5h52.04" transform="translate(-102.099 -314.74)" fill="none" stroke="#000" stroke-linecap="round" stroke-linejoin="round" stroke-miterlimit="10" stroke-width="2"/>
        <g id="Grupo_1224808" data-name="Grupo 1224808" transform="translate(24.359 12.549)">
          <path id="Trazado_1051777" data-name="Trazado 1051777" d="M197.473,383.347l-6.419-6.419,6.419-6.419" transform="translate(-191.054 -368.933)" fill="none" stroke="#000" stroke-linecap="round" stroke-linejoin="round" stroke-miterlimit="10" stroke-width="2"/>
          <path id="Trazado_1051778" data-name="Trazado 1051778" d="M295.6,383.347l6.419-6.419-6.419-6.419" transform="translate(-269.123 -368.933)" fill="none" stroke="#000" stroke-linecap="round" stroke-linejoin="round" stroke-miterlimit="10" stroke-width="2"/>
          <line id="Línea_1829" data-name="Línea 1829" y1="15.99" x2="5.773" transform="translate(13.562)" fill="none" stroke="#000" stroke-linecap="round" stroke-linejoin="round" stroke-miterlimit="10" stroke-width="2"/>
        </g>
        <path id="Trazado_1051779" data-name="Trazado 1051779" d="M174.62,478.244H96.742a1.868,1.868,0,0,0-1.868,1.868h0a4.782,4.782,0,0,0,4.782,4.782h72.051a4.782,4.782,0,0,0,4.782-4.782h0A1.868,1.868,0,0,0,174.62,478.244Z" transform="translate(-94.874 -436.835)" fill="none" stroke="#000" stroke-linecap="round" stroke-linejoin="round" stroke-miterlimit="10" stroke-width="2"/>
      </g>
    </g>
  </g>
</svg>
