<svg xmlns="http://www.w3.org/2000/svg" xmlns:xlink="http://www.w3.org/1999/xlink" width="108" height="108" viewBox="0 0 108 108">
  <defs>
    <filter id="Trazado_904820" x="0" y="0" width="108" height="108" filterUnits="userSpaceOnUse">
      <feOffset dy="3" input="SourceAlpha"/>
      <feGaussianBlur stdDeviation="3" result="blur"/>
      <feFlood flood-opacity="0.161"/>
      <feComposite operator="in" in2="blur"/>
      <feComposite in="SourceGraphic"/>
    </filter>
  </defs>
  <g id="Grupo_1226094" data-name="Grupo 1226094" transform="translate(9 6)">
    <g id="Grupo_1173585" data-name="Grupo 1173585" transform="translate(0 0)">
      <g id="Grupo_1173428" data-name="Grupo 1173428">
        <g id="Grupo_1171958" data-name="Grupo 1171958">
          <g id="Grupo_1167341" data-name="Grupo 1167341">
            <g id="Grupo_1166792" data-name="Grupo 1166792">
              <g transform="matrix(1, 0, 0, 1, -9, -6)" filter="url(#Trazado_904820)">
                <g id="Trazado_904820-2" data-name="Trazado 904820" transform="translate(9 6)" fill="#e5ebfb">
                  <path d="M 44.99999618530273 88.5 C 39.12687301635742 88.5 33.43022155761719 87.35008239746094 28.06829643249512 85.08216857910156 C 22.88852119445801 82.89131927490234 18.23629570007324 79.75459289550781 14.24084663391113 75.75914001464844 C 10.24540901184082 71.76369476318359 7.108683586120605 67.11146545410156 4.917821407318115 61.93170547485352 C 2.649921178817749 56.56976699829102 1.499996185302734 50.87312698364258 1.499996185302734 45.00000381469727 C 1.499996185302734 39.12688064575195 2.649921178817749 33.43022918701172 4.917821407318115 28.06830406188965 C 7.108683586120605 22.88852882385254 10.24540901184082 18.23630332946777 14.24084663391113 14.24085426330566 C 18.23629570007324 10.24541664123535 22.88852119445801 7.108691215515137 28.06829643249512 4.917829036712646 C 33.43022155761719 2.64992880821228 39.12687301635742 1.500003814697266 44.99999618530273 1.500003814697266 C 50.87311935424805 1.500003814697266 56.56977081298828 2.64992880821228 61.93169784545898 4.917829036712646 C 67.11147308349609 7.108691215515137 71.76369476318359 10.24541664123535 75.75914764404297 14.24085426330566 C 79.75458526611328 18.23630332946777 82.89131164550781 22.88852882385254 85.08216857910156 28.06830406188965 C 87.35007476806641 33.43022918701172 88.5 39.12688064575195 88.5 45.00000381469727 C 88.5 50.87312698364258 87.35007476806641 56.56976699829102 85.08216857910156 61.93170547485352 C 82.89131164550781 67.11146545410156 79.75458526611328 71.76369476318359 75.75914764404297 75.75914001464844 C 71.76369476318359 79.75459289550781 67.11147308349609 82.89131927490234 61.93169784545898 85.08216857910156 C 56.56977081298828 87.35008239746094 50.87311935424805 88.5 44.99999618530273 88.5 Z" stroke="none"/>
                  <path d="M 44.99999618530273 3.000007629394531 C 39.32870864868164 3.000007629394531 33.82865142822266 4.110061645507812 28.65262603759766 6.299346923828125 C 23.65165710449219 8.414573669433594 19.15968322753906 11.44334411621094 15.301513671875 15.30152130126953 C 11.44333648681641 19.15969085693359 8.414566040039062 23.65166473388672 6.299339294433594 28.65263366699219 C 4.110054016113281 33.82865905761719 2.999992370605469 39.32871627807617 2.999992370605469 45.00000381469727 C 2.999992370605469 50.67129135131836 4.110054016113281 56.17133331298828 6.299339294433594 61.34737396240234 C 8.414566040039062 66.34834289550781 11.44333648681641 70.84030151367188 15.301513671875 74.698486328125 C 19.15968322753906 78.55666351318359 23.65165710449219 81.58543395996094 28.65262603759766 83.70066070556641 C 33.82865142822266 85.88994598388672 39.32870864868164 87 44.99999618530273 87 C 50.67128372192383 87 56.17134094238281 85.88994598388672 61.34736633300781 83.70066070556641 C 66.34834289550781 81.58543395996094 70.84030914306641 78.55666351318359 74.69847869873047 74.698486328125 C 78.55665588378906 70.84030151367188 81.58542633056641 66.34834289550781 83.70065307617188 61.34737396240234 C 85.88993835449219 56.17133331298828 87 50.67129135131836 87 45.00000381469727 C 87 39.32871627807617 85.88993835449219 33.82865905761719 83.70065307617188 28.65263366699219 C 81.58542633056641 23.65166473388672 78.55665588378906 19.15969085693359 74.69847869873047 15.30152130126953 C 70.84030914306641 11.44334411621094 66.34834289550781 8.414573669433594 61.34736633300781 6.299346923828125 C 56.17134094238281 4.110061645507812 50.67128372192383 3.000007629394531 44.99999618530273 3.000007629394531 M 44.99999618530273 7.62939453125e-06 C 69.85281372070312 7.62939453125e-06 90 20.14718627929688 90 45.00000381469727 C 90 69.85280609130859 69.85281372070312 90 44.99999618530273 90 C 20.14717864990234 90 -7.62939453125e-06 69.85280609130859 -7.62939453125e-06 45.00000381469727 C -7.62939453125e-06 20.14718627929688 20.14717864990234 7.62939453125e-06 44.99999618530273 7.62939453125e-06 Z" stroke="none" fill="#0b47db"/>
                </g>
              </g>
            </g>
          </g>
        </g>
      </g>
    </g>
    <g id="programmer_360487_1_" data-name="programmer_360487 (1)" transform="translate(17.332 17.315)">
      <g id="Grupo_1225645" data-name="Grupo 1225645" transform="translate(44.495 24.906)">
        <path id="Trazado_1053084" data-name="Trazado 1053084" d="M421.411,231.713v1.353H411.7v-1.353a1.426,1.426,0,0,1,1.426-1.427h6.858a1.427,1.427,0,0,1,1.426,1.427Z" transform="translate(-411.7 -230.286)" fill="#ecebed"/>
        <path id="Trazado_1053085" data-name="Trazado 1053085" d="M413.177,347.646h8.233v1.737a1.427,1.427,0,0,1-1.426,1.427h-6.858a1.426,1.426,0,0,1-1.426-1.427v-1.737Z" transform="translate(-411.699 -334.962)" fill="#ecebed"/>
      </g>
      <g id="Grupo_1225646" data-name="Grupo 1225646" transform="translate(1.135 23.934)">
        <rect id="Rectángulo_422196" data-name="Rectángulo 422196" width="9.711" height="9.904" transform="translate(43.361 3.752)" fill="#27b5f7"/>
        <path id="Trazado_1053086" data-name="Trazado 1053086" d="M37.241,222.819v17.322H10.5V222.819a1.494,1.494,0,0,1,1.458-1.527H35.783a1.494,1.494,0,0,1,1.458,1.527Z" transform="translate(-10.499 -221.292)" fill="#27b5f7"/>
      </g>
      <path id="Trazado_1053087" data-name="Trazado 1053087" d="M123.722,319.126v2.2a1.821,1.821,0,0,1-1.12,1.681l-7.267,3.028a4.46,4.46,0,0,0-2.535,4.042v8.764h30.948v-8.764a4.46,4.46,0,0,0-2.535-4.042l-7.267-3.028a1.82,1.82,0,0,1-1.12-1.681v-2.2Z" transform="translate(-100.608 -284.619)" fill="#febba0"/>
      <path id="Trazado_1053088" data-name="Trazado 1053088" d="M141.21,345.961l-7.267-3.028a1.82,1.82,0,0,1-1.106-1.466v1.385a4.58,4.58,0,0,1-4.567,4.567h0a4.58,4.58,0,0,1-4.567-4.567v-1.357a1.82,1.82,0,0,1-1.1,1.438l-7.267,3.028A4.46,4.46,0,0,0,112.8,350v8.764h30.948V350A4.459,4.459,0,0,0,141.21,345.961Z" transform="translate(-100.606 -304.545)" fill="#89cd37"/>
      <path id="Trazado_1053089" data-name="Trazado 1053089" d="M161.394,88.313v-3.29a10.143,10.143,0,1,0-20.286,0h-.04v3.29a2.529,2.529,0,0,0,0,5.059V95.26a4.961,4.961,0,0,0,2.074,3.787l6.114,3.5a3.508,3.508,0,0,0,3.948,0l6.1-3.5a4.979,4.979,0,0,0,2.092-3.787V93.372a2.529,2.529,0,1,0,0-5.059Z" transform="translate(-123.566 -66.77)" fill="#febba0"/>
      <path id="Trazado_1053090" data-name="Trazado 1053090" d="M165.521,34.8c-1.913-2.438-3.937-2.959-5.439-2.227a8.644,8.644,0,0,0-5.957-2.035A9.977,9.977,0,0,0,143.708,40.3a16.143,16.143,0,0,0,1.971,8.022s.734-5.154,5.779-5.154a8.412,8.412,0,0,0,6.823-2.982c.6,1.57,3.521,2.23,4.668,3.243A13.549,13.549,0,0,1,166,47S169.579,39.971,165.521,34.8Z" transform="translate(-128.176 -27.221)" fill="#703e41"/>
      <path id="Trazado_1053091" data-name="Trazado 1053091" d="M104.125,252h-.015a1.129,1.129,0,1,1,0-2.258h.015a1.129,1.129,0,1,1,0,2.258Z" transform="translate(-91.851 -222.73)"/>
      <path id="Trazado_1053092" data-name="Trazado 1053092" d="M43.719,252H40.5a1.129,1.129,0,1,1,0-2.258h3.222a1.129,1.129,0,0,1,0,2.258Z" transform="translate(-35.113 -222.73)"/>
      <path id="Trazado_1053093" data-name="Trazado 1053093" d="M49.619,312.942H40.5a1.129,1.129,0,1,1,0-2.258h9.122a1.129,1.129,0,0,1,0,2.258Z" transform="translate(-35.113 -277.089)"/>
      <path id="Trazado_1053094" data-name="Trazado 1053094" d="M104.125,282.468h-.015a1.129,1.129,0,1,1,0-2.258h.015a1.129,1.129,0,1,1,0,2.258Z" transform="translate(-91.851 -249.909)"/>
      <path id="Trazado_1053095" data-name="Trazado 1053095" d="M43.719,282.469H40.5a1.129,1.129,0,1,1,0-2.258h3.222a1.129,1.129,0,0,1,0,2.258Z" transform="translate(-35.113 -249.909)"/>
      <path id="Trazado_1053096" data-name="Trazado 1053096" d="M134.634,282.469h-.105a1.129,1.129,0,1,1,0-2.258h.105a1.129,1.129,0,1,1,0,2.258Z" transform="translate(-118.982 -249.909)"/>
      <path id="Trazado_1053097" data-name="Trazado 1053097" d="M1.144,493.343H1.129a1.129,1.129,0,0,1,0-2.258h.015a1.129,1.129,0,0,1,0,2.258Z" transform="translate(0 -437.993)"/>
      <path id="Trazado_1053098" data-name="Trazado 1053098" d="M492.06,493.343h-.015a1.129,1.129,0,0,1,0-2.258h.015a1.129,1.129,0,0,1,0,2.258Z" transform="translate(-437.859 -437.993)"/>
      <path id="Trazado_1053099" data-name="Trazado 1053099" d="M283.66,214.649a1.262,1.262,0,1,1,1.262-1.262A1.264,1.264,0,0,1,283.66,214.649Z" transform="translate(-251.877 -189.182)"/>
      <path id="Trazado_1053100" data-name="Trazado 1053100" d="M207.455,214.649a1.262,1.262,0,1,1,1.262-1.262A1.264,1.264,0,0,1,207.455,214.649Z" transform="translate(-183.908 -189.182)"/>
      <path id="Trazado_1053101" data-name="Trazado 1053101" d="M237.593,264.712a2.235,2.235,0,0,1-2.233-2.233,1.129,1.129,0,0,1,1.129-1.129H238.7a1.129,1.129,0,0,1,1.129,1.129A2.235,2.235,0,0,1,237.593,264.712Z" transform="translate(-209.923 -233.087)"/>
      <path id="Trazado_1053102" data-name="Trazado 1053102" d="M192.672,418.622a1.126,1.126,0,0,1-.8-.331l-2.536-2.536a1.129,1.129,0,0,1,0-1.6l2.536-2.536a1.129,1.129,0,0,1,1.6,1.6l-1.738,1.738,1.738,1.738a1.129,1.129,0,0,1-.8,1.928Z" transform="translate(-168.58 -366.823)"/>
      <path id="Trazado_1053103" data-name="Trazado 1053103" d="M279.411,418.621a1.129,1.129,0,0,1-.8-1.928l1.738-1.738-1.738-1.738a1.129,1.129,0,0,1,1.6-1.6l2.536,2.536a1.129,1.129,0,0,1,0,1.6l-2.536,2.536A1.125,1.125,0,0,1,279.411,418.621Z" transform="translate(-248.206 -366.822)"/>
      <path id="Trazado_1053104" data-name="Trazado 1053104" d="M242.5,418.408a1.13,1.13,0,0,1-1.112-1.334l.938-5.1a1.129,1.129,0,0,1,2.221.409l-.938,5.1A1.13,1.13,0,0,1,242.5,418.408Z" transform="translate(-215.282 -366.609)"/>
      <path id="Trazado_1053105" data-name="Trazado 1053105" d="M53.592,73.465a3.41,3.41,0,0,1-3.406-3.406V67.838a3.406,3.406,0,1,1,6.813,0v2.221A3.41,3.41,0,0,1,53.592,73.465Zm0-6.775a1.149,1.149,0,0,0-1.148,1.148v2.221a1.148,1.148,0,1,0,2.3,0V67.838A1.149,1.149,0,0,0,53.592,66.69Z" transform="translate(-44.762 -57.451)"/>
      <path id="Trazado_1053106" data-name="Trazado 1053106" d="M3.474,73.466a1.129,1.129,0,0,1-1.129-1.129V68.288l-.367.367a1.129,1.129,0,0,1-1.6-1.6l2.294-2.294a1.129,1.129,0,0,1,1.928.8v6.775A1.129,1.129,0,0,1,3.474,73.466Z" transform="translate(-0.045 -57.452)"/>
      <path id="Trazado_1053107" data-name="Trazado 1053107" d="M402.742,9.052a3.41,3.41,0,0,1-3.406-3.406V3.425a3.406,3.406,0,0,1,6.813,0V5.646A3.41,3.41,0,0,1,402.742,9.052Zm0-6.775a1.149,1.149,0,0,0-1.148,1.148V5.646a1.148,1.148,0,1,0,2.3,0V3.425A1.149,1.149,0,0,0,402.742,2.277Z" transform="translate(-356.177)"/>
      <path id="Trazado_1053108" data-name="Trazado 1053108" d="M473.3,9.052a1.129,1.129,0,0,1-1.129-1.129V3.874l-.367.367a1.129,1.129,0,0,1-1.6-1.6L472.5.35a1.129,1.129,0,0,1,1.928.8V7.924A1.129,1.129,0,0,1,473.3,9.052Z" transform="translate(-419.091 0)"/>
      <path id="Trazado_1053109" data-name="Trazado 1053109" d="M410.665,219.838h-6.858a2.559,2.559,0,0,0-2.556,2.556v12.995a2.559,2.559,0,0,0,2.556,2.556h6.858a2.559,2.559,0,0,0,2.556-2.556V222.394A2.559,2.559,0,0,0,410.665,219.838Zm-7.155,5.038h7.453v7.646H403.51Zm0-2.482a.3.3,0,0,1,.3-.3h6.858a.3.3,0,0,1,.3.3v.224H403.51v-.224Zm7.453,12.995a.3.3,0,0,1-.3.3h-6.858a.3.3,0,0,1-.3-.3v-.608h7.453v.608Z" transform="translate(-357.885 -196.061)"/>
      <path id="Trazado_1053110" data-name="Trazado 1053110" d="M50.579,70.994H44.314V63.359a5.564,5.564,0,0,0-3.23-5.084l-7.267-3.028a.689.689,0,0,1-.417-.531c0-.005,0-.011,0-.016a.679.679,0,0,1-.007-.091V52.85l2.952-1.692.061-.037A6.1,6.1,0,0,0,39,46.478c0-.029,0-.057,0-.086v-.937a3.659,3.659,0,0,0,0-6.961v-.56c.644-1.4,3.319-8-.724-13.149-1.868-2.381-4.109-3.392-6.127-2.813a9.981,9.981,0,0,0-6.158-1.881A11.105,11.105,0,0,0,14.448,30.976a18.238,18.238,0,0,0,1.63,7.649,3.678,3.678,0,0,0-1.96,2.081H2.638A2.625,2.625,0,0,0,.051,43.362V60.684A1.129,1.129,0,0,0,1.18,61.814H7.546v2.292H6.713a1.129,1.129,0,1,0,0,2.258h4.394v4.63H4.843a1.129,1.129,0,0,0,0,2.258H50.579a1.129,1.129,0,1,0,0-2.258ZM39.273,41.974a1.4,1.4,0,0,1-1.4,1.4A1.129,1.129,0,0,0,36.744,44.5v1.843a3.886,3.886,0,0,1-1.558,2.872l-6.063,3.476-.061.037a2.389,2.389,0,0,1-2.7,0c-.02-.013-.041-.026-.062-.038l-6.08-3.476a3.827,3.827,0,0,1-1.54-2.872V44.5a1.129,1.129,0,0,0-1.129-1.129,1.4,1.4,0,0,1-.229-2.78l1.25.632a4.684,4.684,0,0,0,9.14,2.054,4.684,4.684,0,0,0,9.143-2.04l1.254-.646A1.4,1.4,0,0,1,39.273,41.974ZM31.133,54.146v2.063a3.422,3.422,0,1,1-6.844,0V54.147l.858.491a4.644,4.644,0,0,0,5.129,0Zm1.143-16.59A4.692,4.692,0,0,0,27.709,41.2a4.681,4.681,0,0,0-8.132-1.994l-.832-.421a4.677,4.677,0,0,1,4.582-3.811,9.654,9.654,0,0,0,6.715-2.392,10.777,10.777,0,0,0,2.466,1.485,8.245,8.245,0,0,1,1.562.885,14.116,14.116,0,0,1,2.673,3.032v.772l-.894.46A4.675,4.675,0,0,0,32.276,37.555ZM34.7,42.24a2.426,2.426,0,1,1-2.426-2.426A2.429,2.429,0,0,1,34.7,42.24Zm-9.134,0a2.426,2.426,0,1,1-2.426-2.426A2.429,2.429,0,0,1,25.569,42.24Zm.426-19.891a7.477,7.477,0,0,1,5.223,1.764,1.129,1.129,0,0,0,1.228.157c1.159-.564,2.676.149,4.057,1.909h0c2.372,3.022,1.754,6.877,1.071,9.126a19.168,19.168,0,0,0-2.006-2.046A9.3,9.3,0,0,0,33.5,32.036c-.925-.45-2.075-1.011-2.293-1.578a1.129,1.129,0,0,0-1.909-.333,7.335,7.335,0,0,1-5.968,2.591,6.468,6.468,0,0,0-5.736,3.1c-.04.063-.078.125-.115.188a16.566,16.566,0,0,1-.77-5.03C16.706,26.735,20.18,22.349,25.994,22.349ZM11.107,63.359v.747H9.8V61.814h1.522A5.643,5.643,0,0,0,11.107,63.359Zm1.458-3.8H2.309V43.363a.373.373,0,0,1,.328-.4H14.029a3.673,3.673,0,0,0,2.39,2.49v.937c0,.029,0,.057,0,.086A6.091,6.091,0,0,0,19,51.121l.062.038,2.969,1.7v1.753a.69.69,0,0,1-.425.638l-7.267,3.028A4.951,4.951,0,0,0,12.565,59.555ZM42.056,70.994H13.366V63.359a3.347,3.347,0,0,1,1.84-3l6.948-2.895a5.695,5.695,0,0,0,11.11,0l6.951,2.9a3.347,3.347,0,0,1,1.84,3v7.635Z" transform="translate(-0.045 -17.902)"/>
    </g>
  </g>
</svg>
