<svg xmlns="http://www.w3.org/2000/svg" xmlns:xlink="http://www.w3.org/1999/xlink" width="113" height="113" viewBox="0 0 113 113">
  <defs>
    <filter id="Trazado_982547" x="0" y="0" width="113" height="113" filterUnits="userSpaceOnUse">
      <feOffset dy="3" input="SourceAlpha"/>
      <feGaussianBlur stdDeviation="3" result="blur"/>
      <feFlood flood-opacity="0.161"/>
      <feComposite operator="in" in2="blur"/>
      <feComposite in="SourceGraphic"/>
    </filter>
  </defs>
  <g id="Grupo_1226213" data-name="Grupo 1226213" transform="translate(-8041.51 -1262.135)">
    <g id="Grupo_1226090" data-name="Grupo 1226090" transform="translate(8050.51 1268.135)">
      <g id="Grupo_1225264" data-name="Grupo 1225264" transform="translate(0 0)">
        <g id="Grupo_1224575" data-name="Grupo 1224575">
          <g id="Grupo_1224449" data-name="Grupo 1224449" transform="translate(0)">
            <g id="Grupo_1224084" data-name="Grupo 1224084">
              <g id="Grupo_1223183" data-name="Grupo 1223183">
                <g id="Grupo_1211217" data-name="Grupo 1211217">
                  <g id="Grupo_1210736" data-name="Grupo 1210736">
                    <g id="Grupo_1210537" data-name="Grupo 1210537">
                      <g id="Grupo_1164202" data-name="Grupo 1164202">
                        <g id="Grupo_1158168" data-name="Grupo 1158168">
                          <g id="Grupo_1152576" data-name="Grupo 1152576">
                            <g id="Grupo_1148633" data-name="Grupo 1148633">
                              <g id="Grupo_1148525" data-name="Grupo 1148525">
                                <g transform="matrix(1, 0, 0, 1, -9, -6)" filter="url(#Trazado_982547)">
                                  <g id="Trazado_982547-2" data-name="Trazado 982547" transform="translate(9 6)" fill="#fef9e5">
                                    <path d="M 47.49999237060547 93.49999237060547 C 41.28937911987305 93.49999237060547 35.26532745361328 92.28396606445312 29.59519195556641 89.88569641113281 C 24.11772537231445 87.56892395019531 19.19813919067383 84.251953125 14.97309875488281 80.02690124511719 C 10.74804592132568 75.80185699462891 7.431072235107422 70.88227081298828 5.114298820495605 65.40480804443359 C 2.716032266616821 59.73465728759766 1.500005722045898 53.71060562133789 1.500005722045898 47.49999237060547 C 1.500005722045898 41.28937911987305 2.716032266616821 35.26532745361328 5.114298820495605 29.59517860412598 C 7.431072235107422 24.11771202087402 10.74804592132568 19.1981258392334 14.97309875488281 14.97308540344238 C 19.19813919067383 10.74804592132568 24.11772537231445 7.431072235107422 29.59519195556641 5.114298820495605 C 35.26532745361328 2.716032266616821 41.28937911987305 1.500005722045898 47.49999237060547 1.500005722045898 C 53.71062088012695 1.500005722045898 59.73465728759766 2.716032266616821 65.40480804443359 5.114298820495605 C 70.88227081298828 7.431072235107422 75.80185699462891 10.74804592132568 80.02690124511719 14.97308540344238 C 84.251953125 19.1981258392334 87.56892395019531 24.11771202087402 89.88569641113281 29.59517860412598 C 92.28396606445312 35.26532745361328 93.49999237060547 41.28937911987305 93.49999237060547 47.49999237060547 C 93.49999237060547 53.71062088012695 92.28396606445312 59.73465728759766 89.88569641113281 65.40480804443359 C 87.56892395019531 70.88227081298828 84.251953125 75.80185699462891 80.02690124511719 80.02690124511719 C 75.80185699462891 84.251953125 70.88227081298828 87.56892395019531 65.40480804443359 89.88569641113281 C 59.73465728759766 92.28396606445312 53.71062088012695 93.49999237060547 47.49999237060547 93.49999237060547 Z" stroke="none"/>
                                    <path d="M 47.49999237060547 2.999992370605469 C 41.49120712280273 2.999992370605469 35.66376113891602 4.1761474609375 30.17951202392578 6.49578857421875 C 24.88083648681641 8.736946105957031 20.12151336669922 11.94597625732422 16.03374481201172 16.03374481201172 C 11.94597625732422 20.12151336669922 8.736946105957031 24.88083648681641 6.49578857421875 30.17949676513672 C 4.1761474609375 35.66376113891602 2.999992370605469 41.49120712280273 2.999992370605469 47.49999237060547 C 2.999992370605469 53.5087776184082 4.1761474609375 59.33622360229492 6.49578857421875 64.82046508789062 C 8.736946105957031 70.11914825439453 11.94597625732422 74.87847137451172 16.03374481201172 78.96623992919922 C 20.12151336669922 83.05400848388672 24.88083648681641 86.26303863525391 30.17951202392578 88.50418090820312 C 35.66376113891602 90.82382202148438 41.49120712280273 91.99997711181641 47.49999237060547 91.99997711181641 C 53.5087776184082 91.99997711181641 59.33622360229492 90.82382202148438 64.82046508789062 88.50418090820312 C 70.11914825439453 86.26303863525391 74.87847137451172 83.05400848388672 78.96623992919922 78.96623992919922 C 83.05400848388672 74.87847137451172 86.26303863525391 70.11914825439453 88.50418090820312 64.82046508789062 C 90.82382202148438 59.33622360229492 91.99997711181641 53.5087776184082 91.99997711181641 47.49999237060547 C 91.99997711181641 41.49120712280273 90.82382202148438 35.66376113891602 88.50418090820312 30.17949676513672 C 86.26303863525391 24.88083648681641 83.05400848388672 20.12151336669922 78.96623992919922 16.03374481201172 C 74.87847137451172 11.94597625732422 70.11914825439453 8.736946105957031 64.82046508789062 6.49578857421875 C 59.33622360229492 4.1761474609375 53.5087776184082 2.999992370605469 47.49999237060547 2.999992370605469 M 47.49999237060547 -7.62939453125e-06 C 73.73351287841797 -7.62939453125e-06 94.99997711181641 21.26647186279297 94.99997711181641 47.49999237060547 C 94.99997711181641 73.73351287841797 73.73351287841797 94.99997711181641 47.49999237060547 94.99997711181641 C 21.26648712158203 94.99997711181641 -7.62939453125e-06 73.73351287841797 -7.62939453125e-06 47.49999237060547 C -7.62939453125e-06 21.26647186279297 21.26648712158203 -7.62939453125e-06 47.49999237060547 -7.62939453125e-06 Z" stroke="none" fill="#f6c810"/>
                                  </g>
                                </g>
                              </g>
                            </g>
                          </g>
                        </g>
                      </g>
                    </g>
                  </g>
                </g>
              </g>
            </g>
          </g>
        </g>
      </g>
    </g>
    <g id="speedometer_2337808" transform="translate(8067 1286)">
      <g id="Flat">
        <path id="Trazado_1055118" data-name="Trazado 1055118" d="M61,35.032V41H3V7A2,2,0,0,1,5,5H59a2,2,0,0,1,2,2Z" fill="#026eaa"/>
        <path id="Trazado_1055119" data-name="Trazado 1055119" d="M49.96,5l-36,36H3V7A2.006,2.006,0,0,1,5,5Z" fill="#0c84c1"/>
        <path id="Trazado_1055120" data-name="Trazado 1055120" d="M41,59H23l3-12H38Z" fill="#c4c4c4"/>
        <path id="Trazado_1055121" data-name="Trazado 1055121" d="M19,59H45" fill="none" stroke="#ccc" stroke-linecap="round" stroke-linejoin="round" stroke-width="2"/>
        <path id="Trazado_1055122" data-name="Trazado 1055122" d="M3,41H61v4a2,2,0,0,1-2,2H5a2,2,0,0,1-2-2Z" fill="#ccc"/>
        <path id="Trazado_1055123" data-name="Trazado 1055123" d="M31,44h2" fill="none" stroke="#f2f2f2" stroke-linejoin="round" stroke-width="2"/>
        <path id="Trazado_1055124" data-name="Trazado 1055124" d="M6,9H8" fill="none" stroke="#c1272d" stroke-linejoin="round" stroke-width="2"/>
        <path id="Trazado_1055125" data-name="Trazado 1055125" d="M10,9h2" fill="none" stroke="#f15a24" stroke-linejoin="round" stroke-width="2"/>
        <path id="Trazado_1055126" data-name="Trazado 1055126" d="M14,9h2" fill="none" stroke="#009245" stroke-linejoin="round" stroke-width="2"/>
        <path id="Trazado_1055127" data-name="Trazado 1055127" d="M43,9H58" fill="none" stroke="#b7b7b7" stroke-linejoin="round" stroke-width="2"/>
        <path id="Trazado_1055128" data-name="Trazado 1055128" d="M46,23a14,14,0,0,1-8,12.649L36.35,32A10.015,10.015,0,0,0,42,23c0-.27-.01-.53-.03-.79A10,10,0,1,0,27.65,32l-.634,1.4L26,35.65A14,14,0,1,1,45.88,21.21,13.234,13.234,0,0,1,46,23Z" fill="#33a9dd"/>
        <path id="Trazado_1055129" data-name="Trazado 1055129" d="M29.7,24.439a3,3,0,1,1,4.153-.086,3,3,0,0,1-4.153.086Z" fill="#616263"/>
        <path id="Trazado_1055130" data-name="Trazado 1055130" d="M46,23a14,14,0,0,1-8,12.649L36.35,32A10.015,10.015,0,0,0,42,23c0-.27-.01-.53-.03-.79l3.91-1A13.235,13.235,0,0,1,46,23Z" fill="#c1272d"/>
        <g id="Grupo_1226212" data-name="Grupo 1226212">
          <path id="Trazado_1055131" data-name="Trazado 1055131" d="M6,19H9" fill="none" stroke="#023b5b" stroke-linejoin="round" stroke-width="2"/>
          <path id="Trazado_1055132" data-name="Trazado 1055132" d="M13,27h2" fill="none" stroke="#023b5b" stroke-linejoin="round" stroke-width="2"/>
          <path id="Trazado_1055133" data-name="Trazado 1055133" d="M11,19h4" fill="none" stroke="#023b5b" stroke-linejoin="round" stroke-width="2"/>
          <path id="Trazado_1055134" data-name="Trazado 1055134" d="M6,27h5" fill="none" stroke="#023b5b" stroke-linejoin="round" stroke-width="2"/>
          <path id="Trazado_1055135" data-name="Trazado 1055135" d="M6,23h9" fill="none" stroke="#023b5b" stroke-linejoin="round" stroke-width="2"/>
          <path id="Trazado_1055136" data-name="Trazado 1055136" d="M6,31h9" fill="none" stroke="#023b5b" stroke-linejoin="round" stroke-width="2"/>
          <path id="Trazado_1055137" data-name="Trazado 1055137" d="M49,19h3" fill="none" stroke="#023b5b" stroke-linejoin="round" stroke-width="2"/>
          <path id="Trazado_1055138" data-name="Trazado 1055138" d="M56,27h2" fill="none" stroke="#023b5b" stroke-linejoin="round" stroke-width="2"/>
          <path id="Trazado_1055139" data-name="Trazado 1055139" d="M54,19h4" fill="none" stroke="#023b5b" stroke-linejoin="round" stroke-width="2"/>
          <path id="Trazado_1055140" data-name="Trazado 1055140" d="M49,27h5" fill="none" stroke="#023b5b" stroke-linejoin="round" stroke-width="2"/>
          <path id="Trazado_1055141" data-name="Trazado 1055141" d="M49,23h9" fill="none" stroke="#023b5b" stroke-linejoin="round" stroke-width="2"/>
          <path id="Trazado_1055142" data-name="Trazado 1055142" d="M49,31h9" fill="none" stroke="#023b5b" stroke-linejoin="round" stroke-width="2"/>
        </g>
        <path id="Trazado_1055143" data-name="Trazado 1055143" d="M39,51H25l1-4H38Z" fill="#b2b2b2"/>
        <path id="Trazado_1055144" data-name="Trazado 1055144" d="M32.058,25.3A2.975,2.975,0,0,0,34.8,22.558L40.3,30.8Z" fill="#f6be31"/>
      </g>
      <g id="Outline">
        <path id="Trazado_1055145" data-name="Trazado 1055145" d="M60,31h2v2.032H60Z"/>
        <path id="Trazado_1055146" data-name="Trazado 1055146" d="M59,4H5A3,3,0,0,0,2,7V45a3,3,0,0,0,3,3H24.72l-2.5,10H19a1,1,0,0,0,0,2H45a1,1,0,0,0,0-2H41.78l-2.5-10H59a3,3,0,0,0,3-3V35.032H60V40H4V7A1,1,0,0,1,5,6H59a1,1,0,0,1,1,1V29h2V7a3,3,0,0,0-3-3ZM39.719,58H24.281l2.5-10H37.219ZM60,42v3a1,1,0,0,1-1,1H5a1,1,0,0,1-1-1V42Z"/>
        <path id="Trazado_1055147" data-name="Trazado 1055147" d="M31,43h2v2H31Z"/>
        <path id="Trazado_1055148" data-name="Trazado 1055148" d="M6,8H8v2H6Z"/>
        <path id="Trazado_1055149" data-name="Trazado 1055149" d="M10,8h2v2H10Z"/>
        <path id="Trazado_1055150" data-name="Trazado 1055150" d="M14,8h2v2H14Z"/>
        <path id="Trazado_1055151" data-name="Trazado 1055151" d="M43,8H58v2H43Z"/>
        <path id="Trazado_1055152" data-name="Trazado 1055152" d="M35.438,32.412l1.651,3.651a1,1,0,0,0,.567.527,1.021,1.021,0,0,0,.344.06,1.01,1.01,0,0,0,.43-.1A15.085,15.085,0,0,0,47,23c0-.328-.011-.649-.032-.968s-.053-.636-.1-.957a15,15,0,1,0-21.3,15.483,1,1,0,0,0,1.341-.491l1.651-3.651a1,1,0,0,0-.475-1.311,9,9,0,1,1,12.886-8.812c.018.233.027.468.027.711a8.981,8.981,0,0,1-1.454,4.867L35.79,22.238a3.939,3.939,0,0,0-1.144-2.749,4,4,0,1,0-5.657,5.657,3.956,3.956,0,0,0,2.787,1.168l5.69,3.8a8.894,8.894,0,0,1-1.553.989A1,1,0,0,0,35.438,32.412ZM32,12a11,11,0,0,0-5.644,20.435l-.831,1.837a13,13,0,1,1,19.212-13.8l-1.932.494A11.067,11.067,0,0,0,32,12Zm-1.6,8.9a2,2,0,1,1,1.563,3.4,1.937,1.937,0,0,1-1.563-.574,2,2,0,0,1,0-2.826Zm3.8,4.627a4.061,4.061,0,0,0,.828-.828l1.66,2.488Zm5.547,6.106a1,1,0,0,0,1.387-1.387l-.4-.6A11.017,11.017,0,0,0,43,23v-.021l1.983-.508c.007.176.017.35.017.529a13.08,13.08,0,0,1-6.525,11.272l-.831-1.836A10.944,10.944,0,0,0,39.2,31.271Z"/>
        <path id="Trazado_1055153" data-name="Trazado 1055153" d="M6,18H9v2H6Z"/>
        <path id="Trazado_1055154" data-name="Trazado 1055154" d="M13,26h2v2H13Z"/>
        <path id="Trazado_1055155" data-name="Trazado 1055155" d="M11,18h4v2H11Z"/>
        <path id="Trazado_1055156" data-name="Trazado 1055156" d="M6,26h5v2H6Z"/>
        <path id="Trazado_1055157" data-name="Trazado 1055157" d="M6,22h9v2H6Z"/>
        <path id="Trazado_1055158" data-name="Trazado 1055158" d="M6,30h9v2H6Z"/>
        <path id="Trazado_1055159" data-name="Trazado 1055159" d="M49,18h3v2H49Z"/>
        <path id="Trazado_1055160" data-name="Trazado 1055160" d="M56,26h2v2H56Z"/>
        <path id="Trazado_1055161" data-name="Trazado 1055161" d="M54,18h4v2H54Z"/>
        <path id="Trazado_1055162" data-name="Trazado 1055162" d="M49,26h5v2H49Z"/>
        <path id="Trazado_1055163" data-name="Trazado 1055163" d="M49,22h9v2H49Z"/>
        <path id="Trazado_1055164" data-name="Trazado 1055164" d="M49,30h9v2H49Z"/>
      </g>
    </g>
  </g>
</svg>
