<svg xmlns="http://www.w3.org/2000/svg" xmlns:xlink="http://www.w3.org/1999/xlink" width="113" height="113" viewBox="0 0 113 113">
  <defs>
    <filter id="Trazado_982547" x="0" y="0" width="113" height="113" filterUnits="userSpaceOnUse">
      <feOffset dy="3" input="SourceAlpha"/>
      <feGaussianBlur stdDeviation="3" result="blur"/>
      <feFlood flood-opacity="0.161"/>
      <feComposite operator="in" in2="blur"/>
      <feComposite in="SourceGraphic"/>
    </filter>
  </defs>
  <g id="Grupo_1226215" data-name="Grupo 1226215" transform="translate(-7685.51 -1620.135)">
    <g id="Grupo_1226091" data-name="Grupo 1226091" transform="translate(7694.51 1626.135)">
      <g id="Grupo_1225264" data-name="Grupo 1225264" transform="translate(0 0)">
        <g id="Grupo_1224575" data-name="Grupo 1224575">
          <g id="Grupo_1224449" data-name="Grupo 1224449" transform="translate(0)">
            <g id="Grupo_1224084" data-name="Grupo 1224084">
              <g id="Grupo_1223183" data-name="Grupo 1223183">
                <g id="Grupo_1211217" data-name="Grupo 1211217">
                  <g id="Grupo_1210736" data-name="Grupo 1210736">
                    <g id="Grupo_1210537" data-name="Grupo 1210537">
                      <g id="Grupo_1164202" data-name="Grupo 1164202">
                        <g id="Grupo_1158168" data-name="Grupo 1158168">
                          <g id="Grupo_1152576" data-name="Grupo 1152576">
                            <g id="Grupo_1148633" data-name="Grupo 1148633">
                              <g id="Grupo_1148525" data-name="Grupo 1148525">
                                <g transform="matrix(1, 0, 0, 1, -9, -6)" filter="url(#Trazado_982547)">
                                  <g id="Trazado_982547-2" data-name="Trazado 982547" transform="translate(9 6)" fill="#fef9e5">
                                    <path d="M 47.49999237060547 93.49999237060547 C 41.28937911987305 93.49999237060547 35.26532745361328 92.28396606445312 29.59519195556641 89.88569641113281 C 24.11772537231445 87.56892395019531 19.19813919067383 84.251953125 14.97309875488281 80.02690124511719 C 10.74804592132568 75.80185699462891 7.431072235107422 70.88227081298828 5.114298820495605 65.40480804443359 C 2.716032266616821 59.73465728759766 1.500005722045898 53.71060562133789 1.500005722045898 47.49999237060547 C 1.500005722045898 41.28937911987305 2.716032266616821 35.26532745361328 5.114298820495605 29.59517860412598 C 7.431072235107422 24.11771202087402 10.74804592132568 19.1981258392334 14.97309875488281 14.97308540344238 C 19.19813919067383 10.74804592132568 24.11772537231445 7.431072235107422 29.59519195556641 5.114298820495605 C 35.26532745361328 2.716032266616821 41.28937911987305 1.500005722045898 47.49999237060547 1.500005722045898 C 53.71062088012695 1.500005722045898 59.73465728759766 2.716032266616821 65.40480804443359 5.114298820495605 C 70.88227081298828 7.431072235107422 75.80185699462891 10.74804592132568 80.02690124511719 14.97308540344238 C 84.251953125 19.1981258392334 87.56892395019531 24.11771202087402 89.88569641113281 29.59517860412598 C 92.28396606445312 35.26532745361328 93.49999237060547 41.28937911987305 93.49999237060547 47.49999237060547 C 93.49999237060547 53.71062088012695 92.28396606445312 59.73465728759766 89.88569641113281 65.40480804443359 C 87.56892395019531 70.88227081298828 84.251953125 75.80185699462891 80.02690124511719 80.02690124511719 C 75.80185699462891 84.251953125 70.88227081298828 87.56892395019531 65.40480804443359 89.88569641113281 C 59.73465728759766 92.28396606445312 53.71062088012695 93.49999237060547 47.49999237060547 93.49999237060547 Z" stroke="none"/>
                                    <path d="M 47.49999237060547 2.999992370605469 C 41.49120712280273 2.999992370605469 35.66376113891602 4.1761474609375 30.17951202392578 6.49578857421875 C 24.88083648681641 8.736946105957031 20.12151336669922 11.94597625732422 16.03374481201172 16.03374481201172 C 11.94597625732422 20.12151336669922 8.736946105957031 24.88083648681641 6.49578857421875 30.17949676513672 C 4.1761474609375 35.66376113891602 2.999992370605469 41.49120712280273 2.999992370605469 47.49999237060547 C 2.999992370605469 53.5087776184082 4.1761474609375 59.33622360229492 6.49578857421875 64.82046508789062 C 8.736946105957031 70.11914825439453 11.94597625732422 74.87847137451172 16.03374481201172 78.96623992919922 C 20.12151336669922 83.05400848388672 24.88083648681641 86.26303863525391 30.17951202392578 88.50418090820312 C 35.66376113891602 90.82382202148438 41.49120712280273 91.99997711181641 47.49999237060547 91.99997711181641 C 53.5087776184082 91.99997711181641 59.33622360229492 90.82382202148438 64.82046508789062 88.50418090820312 C 70.11914825439453 86.26303863525391 74.87847137451172 83.05400848388672 78.96623992919922 78.96623992919922 C 83.05400848388672 74.87847137451172 86.26303863525391 70.11914825439453 88.50418090820312 64.82046508789062 C 90.82382202148438 59.33622360229492 91.99997711181641 53.5087776184082 91.99997711181641 47.49999237060547 C 91.99997711181641 41.49120712280273 90.82382202148438 35.66376113891602 88.50418090820312 30.17949676513672 C 86.26303863525391 24.88083648681641 83.05400848388672 20.12151336669922 78.96623992919922 16.03374481201172 C 74.87847137451172 11.94597625732422 70.11914825439453 8.736946105957031 64.82046508789062 6.49578857421875 C 59.33622360229492 4.1761474609375 53.5087776184082 2.999992370605469 47.49999237060547 2.999992370605469 M 47.49999237060547 -7.62939453125e-06 C 73.73351287841797 -7.62939453125e-06 94.99997711181641 21.26647186279297 94.99997711181641 47.49999237060547 C 94.99997711181641 73.73351287841797 73.73351287841797 94.99997711181641 47.49999237060547 94.99997711181641 C 21.26648712158203 94.99997711181641 -7.62939453125e-06 73.73351287841797 -7.62939453125e-06 47.49999237060547 C -7.62939453125e-06 21.26647186279297 21.26648712158203 -7.62939453125e-06 47.49999237060547 -7.62939453125e-06 Z" stroke="none" fill="#f6c810"/>
                                  </g>
                                </g>
                              </g>
                            </g>
                          </g>
                        </g>
                      </g>
                    </g>
                  </g>
                </g>
              </g>
            </g>
          </g>
        </g>
      </g>
    </g>
    <g id="devops_17656798" transform="translate(7698.817 1639.541)">
      <g id="Grupo_1226214" data-name="Grupo 1226214" transform="translate(18.308 4.916)">
        <path id="Trazado_1055165" data-name="Trazado 1055165" d="M99.786,322.78l-6.875,19.247-5.177-6.234-8.067.758,8.761-18.561Z" transform="translate(-77.939 -277.672)" fill="#fcdb35" fill-rule="evenodd"/>
        <path id="Trazado_1055166" data-name="Trazado 1055166" d="M97.284,340.4l-3.828-4.609-1.349-1.624-5.853.55,7.9-16.729,9.681,4.083Z" transform="translate(-83.661 -277.672)" fill="#ffeb87" fill-rule="evenodd"/>
        <path id="Trazado_1055167" data-name="Trazado 1055167" d="M279.151,322.454l6.875,19.247,5.177-6.234,8.067.758-8.761-18.561Z" transform="translate(-251.226 -277.389)" fill="#fcdb35" fill-rule="evenodd"/>
        <path id="Trazado_1055168" data-name="Trazado 1055168" d="M279.151,327.062l6.2,17.366,3.776-4.547,8.067.758-8.341-17.67Z" transform="translate(-251.226 -281.996)" fill="#ffeb87" fill-rule="evenodd"/>
        <path id="Trazado_1055169" data-name="Trazado 1055169" d="M116.281,35.863v3.173a1.172,1.172,0,0,1-.952,1.159l-3.424.675-2.467,5.955,1.944,2.9a1.172,1.172,0,0,1-.146,1.493L106.749,55.7a1.172,1.172,0,0,1-1.493.146l-2.9-1.944L96.4,56.372,95.726,59.8a1.172,1.172,0,0,1-1.159.952H88.222a1.172,1.172,0,0,1-1.159-.952l-.675-3.424L80.433,53.9l-2.9,1.944a1.172,1.172,0,0,1-1.493-.146l-4.487-4.487a1.172,1.172,0,0,1-.146-1.493l1.944-2.9-2.467-5.955-3.424-.675a1.172,1.172,0,0,1-.953-1.159V32.69a1.172,1.172,0,0,1,.953-1.159l3.424-.675L73.353,24.9,71.409,22a1.172,1.172,0,0,1,.146-1.493l4.487-4.487a1.172,1.172,0,0,1,1.493-.146l2.9,1.944,5.955-2.467.675-3.424a1.172,1.172,0,0,1,1.159-.952h6.345a1.172,1.172,0,0,1,1.159.952l.675,3.424,5.955,2.467,2.9-1.944a1.172,1.172,0,0,1,1.493.146l4.487,4.487A1.172,1.172,0,0,1,111.381,22l-1.944,2.9,2.467,5.955,3.424.675a1.172,1.172,0,0,1,.952,1.159v3.173Z" transform="translate(-66.509 -10.977)" fill="#837683" fill-rule="evenodd"/>
        <path id="Trazado_1055170" data-name="Trazado 1055170" d="M114.377,35.863V32.69a1.172,1.172,0,0,0-.952-1.159L110,30.856,107.533,24.9l1.944-2.9a1.172,1.172,0,0,0-.146-1.493L104.923,16.1l-3.293,2.208L94.5,15.354l-.675-3.424a1.172,1.172,0,0,0-1.159-.952H88.222a1.172,1.172,0,0,0-1.159.952l-.675,3.424-7.132,2.955L75.964,16.1l-4.409,4.409A1.172,1.172,0,0,0,71.409,22l1.944,2.9-2.467,5.955-3.424.675a1.172,1.172,0,0,0-.953,1.159v6.345a1.172,1.172,0,0,0,.953,1.159l3.424.675,2.467,5.955-1.944,2.9a1.172,1.172,0,0,0,.146,1.493l4.409,4.409,3.293-2.208,7.132,2.955.675,3.424a1.172,1.172,0,0,0,1.159.952h4.441a1.172,1.172,0,0,0,1.159-.952l.675-3.424,7.132-2.955,3.293,2.208,4.409-4.409a1.172,1.172,0,0,0,.146-1.493l-1.944-2.9L110,40.869l3.424-.675a1.172,1.172,0,0,0,.952-1.159Z" transform="translate(-66.509 -10.977)" fill="#a79ba7" fill-rule="evenodd"/>
        <path id="Trazado_1055171" data-name="Trazado 1055171" d="M142.717,101.525l3.429-2.58,2.427,3.138c0-.024,0-.049,0-.073a9.022,9.022,0,0,1,8.949-9.022l3.138-2.427-2.58-3.429q-.242-.008-.486-.008a14.886,14.886,0,0,0-14.878,14.4Z" transform="translate(-132.709 -77.125)" fill="#ffeb87" fill-rule="evenodd"/>
        <path id="Trazado_1055172" data-name="Trazado 1055172" d="M256.014,87.183l2.58,3.429-3.138,2.427h.073a9.022,9.022,0,0,1,9.022,8.949l2.427,3.138,3.429-2.58q.008-.242.008-.486a14.886,14.886,0,0,0-14.4-14.878Z" transform="translate(-230.642 -77.175)" fill="#88f288" fill-rule="evenodd"/>
        <path id="Trazado_1055173" data-name="Trazado 1055173" d="M256.014,87.183l2.58,3.429-3.138,2.427h.073a9.022,9.022,0,0,1,9.022,8.949l2.427,3.138,1.969-1.481A15.188,15.188,0,0,0,257.3,87.281c-.425-.051-.856-.084-1.291-.1Z" transform="translate(-230.642 -77.175)" fill="#adffad" fill-rule="evenodd"/>
        <path id="Trazado_1055174" data-name="Trazado 1055174" d="M250.611,200.48l-3.429,2.58-2.427-3.138q0,.036,0,.073a9.022,9.022,0,0,1-8.949,9.022l-3.138,2.427,2.58,3.429q.242.008.486.008a14.886,14.886,0,0,0,14.878-14.4Z" transform="translate(-210.846 -175.108)" fill="#4eb1fc" fill-rule="evenodd"/>
        <path id="Trazado_1055175" data-name="Trazado 1055175" d="M249.149,201.578l-1.969,1.481-2.427-3.138q0,.036,0,.073a9.022,9.022,0,0,1-8.949,9.022l-3.138,2.427,2.58,3.429q.242.008.486.008a13.319,13.319,0,0,0,13.418-13.3Z" transform="translate(-210.846 -175.108)" fill="#85caff" fill-rule="evenodd"/>
        <path id="Trazado_1055176" data-name="Trazado 1055176" d="M157.058,195.077l-2.58-3.429,3.138-2.427h-.073a9.022,9.022,0,0,1-9.022-8.949l-2.427-3.138-3.429,2.58q-.008.242-.008.486a14.886,14.886,0,0,0,14.4,14.878Z" transform="translate(-132.658 -155.313)" fill="#ff6b84" fill-rule="evenodd"/>
      </g>
      <circle id="Elipse_13370" data-name="Elipse 13370" cx="9.022" cy="9.022" r="9.022" transform="translate(31.946 23.775) rotate(-16.858)" fill="#fff"/>
      <path id="Trazado_1055177" data-name="Trazado 1055177" d="M56.938,32.289,55.2,33.6a.924.924,0,0,1-1.285-.172l-1.044-1.353a9.955,9.955,0,0,1-9.273,7.656l-2.19,1.69,1.766,2.344H43.2A13.99,13.99,0,0,0,56.938,32.289ZM40.7,43.543,39.392,41.8a.917.917,0,0,1,.177-1.279l1.348-1.047A9.955,9.955,0,0,1,33.264,30.2l-1.69-2.185-2.348,1.764V29.8A13.992,13.992,0,0,0,40.7,43.543ZM29.447,27.31,31.194,26a.917.917,0,0,1,1.279.172l1.044,1.353a9.956,9.956,0,0,1,9.28-7.656l2.184-1.69-1.766-2.346H43.2A13.992,13.992,0,0,0,29.447,27.31ZM51.3,29.8a8.1,8.1,0,1,1-8.1-8.1,8.115,8.115,0,0,1,8.1,8.1ZM45.684,16.056l1.31,1.741a.918.918,0,0,1-.171,1.28l-1.355,1.047A9.947,9.947,0,0,1,53.121,29.4l1.69,2.185,2.348-1.763V29.8A13.985,13.985,0,0,0,45.683,16.056ZM43.2,45.6A15.806,15.806,0,1,1,59,29.8,15.823,15.823,0,0,1,43.2,45.6ZM64.831,62.684,59.046,50.42a2.079,2.079,0,0,1-2.507.124l-2.488-1.671-5.045,2.091-.513,2.606L53.431,67.4,57.577,62.4a.911.911,0,0,1,.791-.327l6.463.607ZM46.62,53.549a.252.252,0,0,1-.253.21H40.024a.254.254,0,0,1-.259-.21l-.677-3.424a.917.917,0,0,0-.544-.671l-5.956-2.467a.946.946,0,0,0-.354-.07.934.934,0,0,0-.513.156l-2.893,1.944a.259.259,0,0,1-.336-.033L24.01,44.5a.247.247,0,0,1-.032-.331l1.943-2.9A.913.913,0,0,0,26,40.406l-2.462-5.953a.927.927,0,0,0-.677-.55l-3.418-.675a.252.252,0,0,1-.215-.257V26.627a.252.252,0,0,1,.215-.256l3.418-.675a.929.929,0,0,0,.677-.55L26,19.192a.91.91,0,0,0-.082-.863l-1.943-2.9a.245.245,0,0,1,.032-.33l4.482-4.486a.259.259,0,0,1,.336-.032l2.893,1.944a.927.927,0,0,0,.867.085l5.956-2.466a.921.921,0,0,0,.544-.671l.677-3.424a.254.254,0,0,1,.259-.211h6.343a.252.252,0,0,1,.253.211L47.3,9.474a.915.915,0,0,0,.551.671l5.95,2.466a.927.927,0,0,0,.867-.085l2.9-1.944a.251.251,0,0,1,.329.032L62.375,15.1a.255.255,0,0,1,.038.331l-1.943,2.9a.9.9,0,0,0-.089.863l2.469,5.954a.909.909,0,0,0,.671.55l3.424.675a.252.252,0,0,1,.209.256V32.97a.253.253,0,0,1-.209.257l-3.424.675a.906.906,0,0,0-.671.55l-2.469,5.953a.9.9,0,0,0,.089.864l1.943,2.9a.255.255,0,0,1-.038.331l-4.482,4.485a.251.251,0,0,1-.329.033l-2.9-1.944a.927.927,0,0,0-.867-.087l-5.95,2.467a.911.911,0,0,0-.551.671l-.677,3.424ZM37.9,53.6l-.513-2.634L32.34,48.874l-2.494,1.671a2.072,2.072,0,0,1-2.488-.113l-5.8,12.3,6.463-.608a.912.912,0,0,1,.791.328l4.146,4.993L37.9,53.6Zm29.282,9.76a.917.917,0,0,1-.912,1.308l-7.589-.713-4.861,5.861a.93.93,0,0,1-.709.332,1.009,1.009,0,0,1-.165-.014.924.924,0,0,1-.7-.6L47.2,55.427a2.117,2.117,0,0,1-.835.171H40.024a2.132,2.132,0,0,1-.829-.165L34.144,69.578a.913.913,0,0,1-.7.595.882.882,0,0,1-.165.014.917.917,0,0,1-.7-.332L27.707,64l-7.583.713a.917.917,0,0,1-.918-1.308l6.767-14.338L22.706,45.8a2.088,2.088,0,0,1-.259-2.655l1.671-2.488-2.089-5.044-2.937-.581a2.077,2.077,0,0,1-1.7-2.06V26.628a2.079,2.079,0,0,1,1.7-2.06l2.937-.579,2.089-5.044-1.671-2.49a2.086,2.086,0,0,1,.259-2.654l4.488-4.486a2.077,2.077,0,0,1,2.652-.259l2.494,1.669,5.045-2.089.576-2.94A2.08,2.08,0,0,1,40.025,4h6.343a2.078,2.078,0,0,1,2.057,1.694l.582,2.94,5.045,2.089,2.488-1.669a2.076,2.076,0,0,1,2.652.259L63.68,13.8a2.086,2.086,0,0,1,.259,2.654l-1.671,2.49,2.089,5.044,2.943.579a2.079,2.079,0,0,1,1.69,2.06v6.343a2.077,2.077,0,0,1-1.69,2.06l-2.943.581-2.089,5.044,1.671,2.488A2.088,2.088,0,0,1,63.68,45.8l-3.254,3.249L67.18,63.358ZM70.459,49.03a.919.919,0,1,1,.418,1.79l-4.494,1.052a.873.873,0,0,1-.209.025.919.919,0,0,1-.918-.931l.057-4.312a.918.918,0,1,1,1.836.024l-.019,1.753a30.339,30.339,0,0,0-5.583-42.78A.92.92,0,0,1,62.66,4.188a32.5,32.5,0,0,1,9.248,11.09A32.2,32.2,0,0,1,68.667,49.45l1.791-.42ZM21.56,5.987a32.167,32.167,0,0,0-2.177,45.445.921.921,0,0,0,.684.3.906.906,0,0,0,.614-.239.916.916,0,0,0,.063-1.3A30.334,30.334,0,0,1,22.9,7.26l-.329,1.722a.918.918,0,1,0,1.8.347l.817-4.236A.925.925,0,0,0,24.232,4l-4.608.248a.919.919,0,0,0,.1,1.836l1.836-.1Z" transform="translate(0)" fill-rule="evenodd"/>
    </g>
  </g>
</svg>
