<svg xmlns="http://www.w3.org/2000/svg" xmlns:xlink="http://www.w3.org/1999/xlink" width="113" height="113" viewBox="0 0 113 113">
  <defs>
    <filter id="Trazado_982547" x="0" y="0" width="113" height="113" filterUnits="userSpaceOnUse">
      <feOffset dy="3" input="SourceAlpha"/>
      <feGaussianBlur stdDeviation="3" result="blur"/>
      <feFlood flood-opacity="0.161"/>
      <feComposite operator="in" in2="blur"/>
      <feComposite in="SourceGraphic"/>
    </filter>
  </defs>
  <g id="Grupo_1226145" data-name="Grupo 1226145" transform="translate(-1648 -4934.487)">
    <g id="Grupo_1225524" data-name="Grupo 1225524" transform="translate(974 3320.352)">
      <g id="Grupo_1224583" data-name="Grupo 1224583" transform="translate(0 -5449.616)">
        <g id="Grupo_1224450" data-name="Grupo 1224450" transform="translate(683 7069.751)">
          <g id="Grupo_1224085" data-name="Grupo 1224085" transform="translate(0 0)">
            <g id="Grupo_1223184" data-name="Grupo 1223184">
              <g id="Grupo_1211216" data-name="Grupo 1211216">
                <g id="Grupo_1210737" data-name="Grupo 1210737">
                  <g id="Grupo_1210537" data-name="Grupo 1210537">
                    <g id="Grupo_1164202" data-name="Grupo 1164202">
                      <g id="Grupo_1158168" data-name="Grupo 1158168">
                        <g id="Grupo_1152576" data-name="Grupo 1152576">
                          <g id="Grupo_1148633" data-name="Grupo 1148633">
                            <g id="Grupo_1148525" data-name="Grupo 1148525">
                              <g transform="matrix(1, 0, 0, 1, -9, -6)" filter="url(#Trazado_982547)">
                                <g id="Trazado_982547-2" data-name="Trazado 982547" transform="translate(9 6)" fill="#fef9e5">
                                  <path d="M 47.49999618530273 93.5 C 41.28936767578125 93.5 35.26533126831055 92.28396606445312 29.59518241882324 89.88570404052734 C 24.11771583557129 87.56893157958984 19.19812965393066 84.251953125 14.97308921813965 80.02690124511719 C 10.74803638458252 75.80186462402344 7.431062698364258 70.88227844238281 5.114289283752441 65.40480804443359 C 2.716022968292236 59.73466110229492 1.499996185302734 53.71062469482422 1.499996185302734 47.49999618530273 C 1.499996185302734 41.28936767578125 2.716022968292236 35.26533126831055 5.114289283752441 29.59518241882324 C 7.431062698364258 24.11771583557129 10.74803638458252 19.19812965393066 14.97308921813965 14.97308921813965 C 19.19812965393066 10.74803638458252 24.11771583557129 7.431062698364258 29.59518241882324 5.114289283752441 C 35.26533126831055 2.716022968292236 41.28936767578125 1.499996185302734 47.49999618530273 1.499996185302734 C 53.71062469482422 1.499996185302734 59.73466110229492 2.716022968292236 65.40480804443359 5.114289283752441 C 70.88227844238281 7.431062698364258 75.80186462402344 10.74803638458252 80.02690124511719 14.97308921813965 C 84.251953125 19.19812965393066 87.56893157958984 24.11771583557129 89.88570404052734 29.59518241882324 C 92.28396606445312 35.26533126831055 93.5 41.28936767578125 93.5 47.49999618530273 C 93.5 53.71062469482422 92.28396606445312 59.73466110229492 89.88570404052734 65.40480804443359 C 87.56893157958984 70.88227844238281 84.251953125 75.80186462402344 80.02690124511719 80.02690124511719 C 75.80186462402344 84.251953125 70.88227844238281 87.56893157958984 65.40480804443359 89.88570404052734 C 59.73466110229492 92.28396606445312 53.71062469482422 93.5 47.49999618530273 93.5 Z" stroke="none"/>
                                  <path d="M 47.49999618530273 2.999992370605469 C 41.4912109375 2.999992370605469 35.66376495361328 4.1761474609375 30.17950439453125 6.495796203613281 C 24.88084411621094 8.736953735351562 20.12152099609375 11.94598388671875 16.03375244140625 16.03375244140625 C 11.94598388671875 20.12152099609375 8.736953735351562 24.88084411621094 6.495796203613281 30.17950439453125 C 4.1761474609375 35.66376495361328 2.999992370605469 41.4912109375 2.999992370605469 47.49999618530273 C 2.999992370605469 53.50878143310547 4.1761474609375 59.33622741699219 6.495796203613281 64.82048797607422 C 8.736953735351562 70.11914825439453 11.94598388671875 74.87847137451172 16.03375244140625 78.96623992919922 C 20.12152099609375 83.05400848388672 24.88084411621094 86.26304626464844 30.17950439453125 88.50419616699219 C 35.66376495361328 90.82384490966797 41.4912109375 92 47.49999618530273 92 C 53.50878143310547 92 59.33622741699219 90.82384490966797 64.82048797607422 88.50419616699219 C 70.11914825439453 86.26304626464844 74.87847137451172 83.05400848388672 78.96623992919922 78.96623992919922 C 83.05400848388672 74.87847137451172 86.26304626464844 70.11914825439453 88.50419616699219 64.82048797607422 C 90.82384490966797 59.33622741699219 92 53.50878143310547 92 47.49999618530273 C 92 41.4912109375 90.82384490966797 35.66376495361328 88.50419616699219 30.17950439453125 C 86.26304626464844 24.88084411621094 83.05400848388672 20.12152099609375 78.96623992919922 16.03375244140625 C 74.87847137451172 11.94598388671875 70.11914825439453 8.736953735351562 64.82048797607422 6.495796203613281 C 59.33622741699219 4.1761474609375 53.50878143310547 2.999992370605469 47.49999618530273 2.999992370605469 M 47.49999618530273 -7.62939453125e-06 C 73.7335205078125 -7.62939453125e-06 95 21.26647186279297 95 47.49999618530273 C 95 73.7335205078125 73.7335205078125 95 47.49999618530273 95 C 21.26647186279297 95 -7.62939453125e-06 73.7335205078125 -7.62939453125e-06 47.49999618530273 C -7.62939453125e-06 21.26647186279297 21.26647186279297 -7.62939453125e-06 47.49999618530273 -7.62939453125e-06 Z" stroke="none" fill="#f6c810"/>
                                </g>
                              </g>
                            </g>
                          </g>
                        </g>
                      </g>
                    </g>
                  </g>
                </g>
              </g>
            </g>
          </g>
        </g>
      </g>
    </g>
    <g id="coding_3316287_1_" data-name="coding_3316287 (1)" transform="translate(1673 4954)">
      <g id="Grupo_1226143" data-name="Grupo 1226143">
        <g id="Grupo_1226133" data-name="Grupo 1226133">
          <path id="Trazado_1054555" data-name="Trazado 1054555" d="M49,36H62v4H47.12l2.56-2.57-.81-1.35Z" fill="#b4dd7f"/>
        </g>
        <g id="Grupo_1226134" data-name="Grupo 1226134">
          <path id="Trazado_1054556" data-name="Trazado 1054556" d="M14.32,37.43,16.88,40H2V36H15l.13.08Z" fill="#b4dd7f"/>
        </g>
        <g id="Grupo_1226135" data-name="Grupo 1226135">
          <path id="Trazado_1054557" data-name="Trazado 1054557" d="M62,40V58H40V42.31a19.07,19.07,0,0,0,3.37-1.87l2.07,1.24L47.12,40Z" fill="#e6e9ed"/>
        </g>
        <g id="Grupo_1226136" data-name="Grupo 1226136">
          <path id="Trazado_1054558" data-name="Trazado 1054558" d="M24,42.31V58H2V40H16.88l1.68,1.68,2.07-1.24A19.07,19.07,0,0,0,24,42.31Z" fill="#e6e9ed"/>
        </g>
        <g id="Grupo_1226137" data-name="Grupo 1226137">
          <path id="Trazado_1054559" data-name="Trazado 1054559" d="M44,44H58v6H44Z" fill="#ff826e"/>
        </g>
        <g id="Grupo_1226138" data-name="Grupo 1226138">
          <path id="Trazado_1054560" data-name="Trazado 1054560" d="M6,44H20v6H6Z" fill="#ff826e"/>
        </g>
        <g id="Grupo_1226139" data-name="Grupo 1226139">
          <path id="Trazado_1054561" data-name="Trazado 1054561" d="M51.66,20.42a19.853,19.853,0,0,0-3.22-7.79l1.24-2.07L45.44,6.32,43.37,7.56a19.853,19.853,0,0,0-7.79-3.22L35,2H29l-.58,2.34a19.853,19.853,0,0,0-7.79,3.22L18.56,6.32l-4.24,4.24,1.24,2.07a19.853,19.853,0,0,0-3.22,7.79L10,21v6l2.34.58a19.853,19.853,0,0,0,3.22,7.79l-.43.71-.81,1.35L16.88,40l1.68,1.68,2.07-1.24A19.07,19.07,0,0,0,24,42.31a19.42,19.42,0,0,0,4,1.27h8a19.42,19.42,0,0,0,4-1.27,19.07,19.07,0,0,0,3.37-1.87l2.07,1.24L47.12,40l2.56-2.57-.81-1.35-.43-.71a19.853,19.853,0,0,0,3.22-7.79L54,27V21Z" fill="#ffc729"/>
        </g>
        <g id="Grupo_1226140" data-name="Grupo 1226140">
          <path id="Trazado_1054562" data-name="Trazado 1054562" d="M32,40a16,16,0,0,0,4-.5V58a4,4,0,0,1-8,0V39.5A16,16,0,0,0,32,40Z" fill="#969faa"/>
        </g>
        <g id="Grupo_1226141" data-name="Grupo 1226141">
          <path id="Trazado_1054563" data-name="Trazado 1054563" d="M32,40a15.964,15.964,0,1,1,4-.5A16,16,0,0,1,32,40Z" fill="#fcd770"/>
        </g>
        <g id="Grupo_1226142" data-name="Grupo 1226142">
          <circle id="Elipse_13337" data-name="Elipse 13337" cx="12" cy="12" r="12" transform="translate(20 12)" fill="#ffeaa7"/>
        </g>
      </g>
      <g id="Grupo_1226144" data-name="Grupo 1226144">
        <path id="Trazado_1054564" data-name="Trazado 1054564" d="M32,11A13,13,0,1,0,45,24,13.015,13.015,0,0,0,32,11Zm0,24A11,11,0,1,1,43,24,11.013,11.013,0,0,1,32,35Z"/>
        <path id="Trazado_1054565" data-name="Trazado 1054565" d="M49.861,35a20.714,20.714,0,0,0,2.659-6.6L55,27.78V20.22L52.52,19.6a20.715,20.715,0,0,0-2.9-7l1.312-2.187L45.59,5.063,43.4,6.375a20.742,20.742,0,0,0-7-2.9L35.781,1H28.219L27.6,3.479a20.722,20.722,0,0,0-7,2.9L18.41,5.063,13.063,10.41,14.375,12.6a20.715,20.715,0,0,0-2.9,7L9,20.22v7.561l2.48.621A20.7,20.7,0,0,0,14.139,35H1V59H25V43.766q.981.345,2,.6V58a5,5,0,0,0,10,0V44.361a20.83,20.83,0,0,0,2-.6V59H63V35ZM61,39H49.527l1.41-1.41L50.583,37H61ZM13.417,37l-.354.59L14.473,39H3V37ZM23,57H3V41H16.473l1.937,1.937L20.6,41.625A20.794,20.794,0,0,0,23,42.942V57Zm9-18A15,15,0,1,1,47,24,15.017,15.017,0,0,1,32,39Zm0,22a3,3,0,0,1-3-3V40.719a16.155,16.155,0,0,0,6,0V58A3,3,0,0,1,32,61Zm5-20.753a17,17,0,1,0-10,0V42.3a18.76,18.76,0,0,1-5.805-2.676l-.53-.367L18.72,40.419l-3.139-3.14,1.167-1.944-.368-.53a18.79,18.79,0,0,1-3.059-7.4l-.115-.635L11,26.22V21.78l2.207-.552.115-.635a18.763,18.763,0,0,1,3.059-7.4l.368-.53-1.167-1.944,3.139-3.14,1.945,1.167.531-.367a18.784,18.784,0,0,1,7.4-3.059l.635-.115L29.781,3h4.438l.552,2.207.635.115a18.769,18.769,0,0,1,7.4,3.059l.531.367L45.28,7.581l3.139,3.14-1.167,1.944.368.53a18.79,18.79,0,0,1,3.059,7.4l.115.635L53,21.78v4.439l-2.207.552-.115.635a18.763,18.763,0,0,1-3.059,7.4l-.368.53,1.167,1.944-3.139,3.14-1.945-1.167-.53.367A18.737,18.737,0,0,1,37,42.294V40.247ZM41,57V42.942a20.793,20.793,0,0,0,2.4-1.317l2.187,1.312L47.527,41H61V57Z"/>
        <path id="Trazado_1054566" data-name="Trazado 1054566" d="M22.78,23H41.219v2H22.78Z" transform="matrix(0.217, -0.976, 0.976, 0.217, 1.633, 50.035)"/>
        <path id="Trazado_1054567" data-name="Trazado 1054567" d="M36.781,18.375l-1.562,1.25L38.719,24l-3.5,4.375,1.562,1.25L41.281,24Z"/>
        <path id="Trazado_1054568" data-name="Trazado 1054568" d="M27.219,18.375,22.719,24l4.5,5.625,1.562-1.25L25.281,24l3.5-4.375Z"/>
        <circle id="Elipse_13338" data-name="Elipse 13338" cx="1" cy="1" r="1" transform="translate(31 57)"/>
        <path id="Trazado_1054569" data-name="Trazado 1054569" d="M5,51H21V43H5Zm2-6H19v4H7Z"/>
        <path id="Trazado_1054570" data-name="Trazado 1054570" d="M5,53H17v2H5Z"/>
        <path id="Trazado_1054571" data-name="Trazado 1054571" d="M19,53h2v2H19Z"/>
        <path id="Trazado_1054572" data-name="Trazado 1054572" d="M43,51H59V43H43Zm2-6H57v4H45Z"/>
        <path id="Trazado_1054573" data-name="Trazado 1054573" d="M43,53H55v2H43Z"/>
        <path id="Trazado_1054574" data-name="Trazado 1054574" d="M57,53h2v2H57Z"/>
      </g>
    </g>
  </g>
</svg>
