<svg xmlns="http://www.w3.org/2000/svg" xmlns:xlink="http://www.w3.org/1999/xlink" width="113" height="113" viewBox="0 0 113 113">
  <defs>
    <filter id="Trazado_982547" x="0" y="-0.001" width="113" height="113" filterUnits="userSpaceOnUse">
      <feOffset dy="3" input="SourceAlpha"/>
      <feGaussianBlur stdDeviation="3" result="blur"/>
      <feFlood flood-opacity="0.161"/>
      <feComposite operator="in" in2="blur"/>
      <feComposite in="SourceGraphic"/>
    </filter>
  </defs>
  <g id="Grupo_1226187" data-name="Grupo 1226187" transform="translate(-1216.232 -10517.926)">
    <g id="Grupo_1225531" data-name="Grupo 1225531" transform="translate(0 9222.583)">
      <g id="Grupo_1225179" data-name="Grupo 1225179" transform="translate(0 -3445.654)">
        <g id="Grupo_1224650" data-name="Grupo 1224650" transform="translate(0 1927)">
          <g id="Grupo_1224294" data-name="Grupo 1224294" transform="translate(0.723 859.245)">
            <g id="Grupo_1224094" data-name="Grupo 1224094" transform="translate(541.51 -2620.317)">
              <g id="Grupo_1223184" data-name="Grupo 1223184" transform="translate(683 4581.069)">
                <g id="Grupo_1211216" data-name="Grupo 1211216" transform="translate(0)">
                  <g id="Grupo_1210737" data-name="Grupo 1210737">
                    <g id="Grupo_1210537" data-name="Grupo 1210537">
                      <g id="Grupo_1164202" data-name="Grupo 1164202">
                        <g id="Grupo_1158168" data-name="Grupo 1158168">
                          <g id="Grupo_1152576" data-name="Grupo 1152576">
                            <g id="Grupo_1148633" data-name="Grupo 1148633">
                              <g id="Grupo_1148525" data-name="Grupo 1148525">
                                <g transform="matrix(1, 0, 0, 1, -9, -6)" filter="url(#Trazado_982547)">
                                  <g id="Trazado_982547-2" data-name="Trazado 982547" transform="translate(9 6)" fill="#fef9e5">
                                    <path d="M 47.49999618530273 93.5 C 41.28936767578125 93.5 35.26533126831055 92.28396606445312 29.59518241882324 89.88570404052734 C 24.11771583557129 87.56893157958984 19.19812965393066 84.251953125 14.97308921813965 80.02690124511719 C 10.74803638458252 75.80186462402344 7.431062698364258 70.88227844238281 5.114289283752441 65.40480804443359 C 2.716022968292236 59.73466110229492 1.499996185302734 53.71062469482422 1.499996185302734 47.49999618530273 C 1.499996185302734 41.28936767578125 2.716022968292236 35.26533126831055 5.114289283752441 29.59518241882324 C 7.431062698364258 24.11771583557129 10.74803638458252 19.19812965393066 14.97308921813965 14.97308921813965 C 19.19812965393066 10.74803638458252 24.11771583557129 7.431062698364258 29.59518241882324 5.114289283752441 C 35.26533126831055 2.716022968292236 41.28936767578125 1.499996185302734 47.49999618530273 1.499996185302734 C 53.71062469482422 1.499996185302734 59.73466110229492 2.716022968292236 65.40480804443359 5.114289283752441 C 70.88227844238281 7.431062698364258 75.80186462402344 10.74803638458252 80.02690124511719 14.97308921813965 C 84.251953125 19.19812965393066 87.56893157958984 24.11771583557129 89.88570404052734 29.59518241882324 C 92.28396606445312 35.26533126831055 93.5 41.28936767578125 93.5 47.49999618530273 C 93.5 53.71062469482422 92.28396606445312 59.73466110229492 89.88570404052734 65.40480804443359 C 87.56893157958984 70.88227844238281 84.251953125 75.80186462402344 80.02690124511719 80.02690124511719 C 75.80186462402344 84.251953125 70.88227844238281 87.56893157958984 65.40480804443359 89.88570404052734 C 59.73466110229492 92.28396606445312 53.71062469482422 93.5 47.49999618530273 93.5 Z" stroke="none"/>
                                    <path d="M 47.49999618530273 2.999992370605469 C 41.4912109375 2.999992370605469 35.66376495361328 4.1761474609375 30.17950439453125 6.495796203613281 C 24.88084411621094 8.736953735351562 20.12152099609375 11.94598388671875 16.03375244140625 16.03375244140625 C 11.94598388671875 20.12152099609375 8.736953735351562 24.88084411621094 6.495796203613281 30.17950439453125 C 4.1761474609375 35.66376495361328 2.999992370605469 41.4912109375 2.999992370605469 47.49999618530273 C 2.999992370605469 53.50878143310547 4.1761474609375 59.33622741699219 6.495796203613281 64.82048797607422 C 8.736953735351562 70.11914825439453 11.94598388671875 74.87847137451172 16.03375244140625 78.96623992919922 C 20.12152099609375 83.05400848388672 24.88084411621094 86.26304626464844 30.17950439453125 88.50419616699219 C 35.66376495361328 90.82384490966797 41.4912109375 92 47.49999618530273 92 C 53.50878143310547 92 59.33622741699219 90.82384490966797 64.82048797607422 88.50419616699219 C 70.11914825439453 86.26304626464844 74.87847137451172 83.05400848388672 78.96623992919922 78.96623992919922 C 83.05400848388672 74.87847137451172 86.26304626464844 70.11914825439453 88.50419616699219 64.82048797607422 C 90.82384490966797 59.33622741699219 92 53.50878143310547 92 47.49999618530273 C 92 41.4912109375 90.82384490966797 35.66376495361328 88.50419616699219 30.17950439453125 C 86.26304626464844 24.88084411621094 83.05400848388672 20.12152099609375 78.96623992919922 16.03375244140625 C 74.87847137451172 11.94598388671875 70.11914825439453 8.736953735351562 64.82048797607422 6.495796203613281 C 59.33622741699219 4.1761474609375 53.50878143310547 2.999992370605469 47.49999618530273 2.999992370605469 M 47.49999618530273 -7.62939453125e-06 C 73.7335205078125 -7.62939453125e-06 95 21.26647186279297 95 47.49999618530273 C 95 73.7335205078125 73.7335205078125 95 47.49999618530273 95 C 21.26647186279297 95 -7.62939453125e-06 73.7335205078125 -7.62939453125e-06 47.49999618530273 C -7.62939453125e-06 21.26647186279297 21.26647186279297 -7.62939453125e-06 47.49999618530273 -7.62939453125e-06 Z" stroke="none" fill="#f6c810"/>
                                  </g>
                                </g>
                              </g>
                            </g>
                          </g>
                        </g>
                      </g>
                    </g>
                  </g>
                </g>
              </g>
            </g>
          </g>
        </g>
      </g>
    </g>
    <g id="policy_17773169" transform="translate(1219.331 10510.97)">
      <g id="Grupo_1226186" data-name="Grupo 1226186" transform="translate(25.744 34.054)">
        <path id="Trazado_1054931" data-name="Trazado 1054931" d="M35.267,90.715h32.9a3.42,3.42,0,0,0,3.409-3.409V43.577a3.418,3.418,0,0,0-3.409-3.407h-32.9a3.415,3.415,0,0,0-3.407,3.407V87.306a3.417,3.417,0,0,0,3.407,3.409Z" transform="translate(-31.86 -40.17)" fill="#ffddaf" fill-rule="evenodd"/>
        <path id="Trazado_1054932" data-name="Trazado 1054932" d="M82.2,89.159a3.387,3.387,0,0,0,.552-1.853V43.577a3.418,3.418,0,0,0-3.409-3.407h-32.9a3.378,3.378,0,0,0-1.792.511c2.676,11.65,9.271,23.843,19.42,34.341A80.535,80.535,0,0,0,82.2,89.159Z" transform="translate(-43.036 -40.17)" fill="#ffecca" fill-rule="evenodd"/>
        <path id="Trazado_1054933" data-name="Trazado 1054933" d="M238.5,235.79h2.379a1.265,1.265,0,0,1,1.266,1.263v.926a1.25,1.25,0,0,0,.938,1.221,12.877,12.877,0,0,1,3.148,1.306,1.255,1.255,0,0,0,1.527-.2l.655-.655a1.261,1.261,0,0,1,1.785,0l1.685,1.681a1.272,1.272,0,0,1,0,1.789l-.655.655a1.248,1.248,0,0,0-.2,1.525,13.074,13.074,0,0,1,1.306,3.152,1.253,1.253,0,0,0,1.221.938h.926a1.266,1.266,0,0,1,1.263,1.263v2.379a1.268,1.268,0,0,1-1.266,1.266h-.923a1.25,1.25,0,0,0-1.221.938,13.027,13.027,0,0,1-1.306,3.148,1.25,1.25,0,0,0,.2,1.527l.655.655a1.268,1.268,0,0,1,0,1.785l-1.685,1.685a1.268,1.268,0,0,1-1.785,0l-.655-.655a1.252,1.252,0,0,0-1.527-.2,13.047,13.047,0,0,1-3.148,1.306,1.249,1.249,0,0,0-.938,1.221v.923a1.268,1.268,0,0,1-1.266,1.266H238.5a1.269,1.269,0,0,1-1.263-1.266v-.923a1.25,1.25,0,0,0-.938-1.221,13.116,13.116,0,0,1-3.152-1.306,1.247,1.247,0,0,0-1.525.2l-.655.655a1.272,1.272,0,0,1-1.789,0l-1.681-1.685a1.261,1.261,0,0,1,0-1.785l.655-.655a1.257,1.257,0,0,0,.2-1.527,12.946,12.946,0,0,1-1.306-3.148,1.249,1.249,0,0,0-1.221-.938H224.9a1.269,1.269,0,0,1-1.263-1.266v-2.379a1.268,1.268,0,0,1,1.263-1.263h.928a1.25,1.25,0,0,0,1.221-.938,12.924,12.924,0,0,1,1.306-3.152,1.252,1.252,0,0,0-.2-1.525l-.655-.655a1.265,1.265,0,0,1,0-1.789l1.681-1.681a1.265,1.265,0,0,1,1.789,0l.655.655a1.253,1.253,0,0,0,1.525.2A12.974,12.974,0,0,1,236.3,239.2a1.249,1.249,0,0,0,.938-1.221v-.926A1.265,1.265,0,0,1,238.5,235.79Z" transform="translate(-199.434 -211.099)" fill="#499cb9" fill-rule="evenodd"/>
        <path id="Trazado_1054934" data-name="Trazado 1054934" d="M288.919,291.61a8.969,8.969,0,1,1-8.969,8.969A8.97,8.97,0,0,1,288.919,291.61Z" transform="translate(-248.636 -259.873)" fill="#b3b4b4" fill-rule="evenodd"/>
        <path id="Trazado_1054935" data-name="Trazado 1054935" d="M306.453,311.99a8.968,8.968,0,1,1-6.874-3.21A8.9,8.9,0,0,1,306.453,311.99Z" transform="translate(-257.951 -274.876)" fill="#e6e6e6" fill-rule="evenodd"/>
        <path id="Trazado_1054936" data-name="Trazado 1054936" d="M182.12,313.578a17,17,0,0,0-14.96,5.106q3.274-9.817,14.96-12.534V303.8l8.647,6.2-8.647,6.2Z" transform="translate(-150.082 -270.525)" fill="#ffc908" fill-rule="evenodd"/>
        <path id="Trazado_1054937" data-name="Trazado 1054937" d="M182.12,352.946a17,17,0,0,0-14.96,5.106q6.059-11.614,23.435-8.562l-8.476,6.075Z" transform="translate(-150.082 -309.892)" fill="#fdb614" fill-rule="evenodd"/>
        <path id="Trazado_1054938" data-name="Trazado 1054938" d="M112.957,93.393c-10.373-3.852-14.047-13.839-10.78-22.576a15.766,15.766,0,0,0,10.78-4.107,15.773,15.773,0,0,0,10.78,4.107C127,79.554,123.329,89.541,112.957,93.393Z" transform="translate(-92.291 -63.36)" fill="#498daa" fill-rule="evenodd"/>
        <path id="Trazado_1054939" data-name="Trazado 1054939" d="M146.352,97.028a19.307,19.307,0,0,1-7.113-4.5,43.549,43.549,0,0,1,6.022-18.9q.822-1.422,1.71-2.755a15.667,15.667,0,0,0,10.161,3.581C160.4,83.189,156.725,93.176,146.352,97.028Z" transform="translate(-125.686 -66.995)" fill="#499cb9" fill-rule="evenodd"/>
        <path id="Trazado_1054940" data-name="Trazado 1054940" d="M134.468,113.966c-7.67-2.848-10.39-10.236-7.975-16.7a11.662,11.662,0,0,0,7.975-3.038,11.683,11.683,0,0,0,7.975,3.038C144.858,103.729,142.142,111.118,134.468,113.966Z" transform="translate(-113.802 -87.407)" fill="#bad2d6" fill-rule="evenodd"/>
        <path id="Trazado_1054941" data-name="Trazado 1054941" d="M147.769,97.011a11.857,11.857,0,0,0,5.4-2.781,11.683,11.683,0,0,0,7.975,3.038,12.569,12.569,0,0,1-6,15.81A12.628,12.628,0,0,1,147.769,97.011Z" transform="translate(-132.499 -87.407)" fill="#e3f3f4" fill-rule="evenodd"/>
      </g>
      <path id="Trazado_1054942" data-name="Trazado 1054942" d="M29.658,68.727a.88.88,0,1,1,0-1.76H32.4a.88.88,0,1,1,0,1.76Zm5.378,0a.88.88,0,1,1,0-1.76H48.553a.88.88,0,1,1,0,1.76ZM29.658,79.818a.884.884,0,1,1,0-1.767H41.046a.884.884,0,1,1,0,1.767Zm0-5.541a.884.884,0,1,1,0-1.767h8.77a.884.884,0,1,1,0,1.767Zm12.652,0a.884.884,0,0,1,0-1.767h2.863a.884.884,0,1,1,0,1.767ZM42.3,51a.88.88,0,0,1,1.414-1.048l1.47,1.989,3.982-4.376a.881.881,0,0,1,1.3,1.188l-4.7,5.166a.889.889,0,0,1-1.359-.068ZM46.1,61.44a14.14,14.14,0,0,1-8.265-7.467,13.684,13.684,0,0,1-.226-10.365.879.879,0,0,1,.855-.573,10.829,10.829,0,0,0,7.356-2.812.881.881,0,0,1,1.18,0,10.826,10.826,0,0,0,7.367,2.808.878.878,0,0,1,.848.6,13.684,13.684,0,0,1-.232,10.34,14.136,14.136,0,0,1-8.269,7.467A.88.88,0,0,1,46.1,61.44Zm-6.658-8.175a12.334,12.334,0,0,0,6.966,6.408,12.322,12.322,0,0,0,6.966-6.408,11.848,11.848,0,0,0,.379-8.476,12.478,12.478,0,0,1-7.346-2.758,12.467,12.467,0,0,1-7.346,2.758A11.882,11.882,0,0,0,39.443,53.264ZM46.1,64.913a18.822,18.822,0,0,1-11-9.928A18.2,18.2,0,0,1,34.806,41.2a.876.876,0,0,1,.855-.573,14.435,14.435,0,0,0,5.377-.955,15.419,15.419,0,0,0,4.784-2.927.881.881,0,0,1,1.18,0A14.914,14.914,0,0,0,57.174,40.63a.885.885,0,0,1,.855.608,18.181,18.181,0,0,1-.312,13.747,18.81,18.81,0,0,1-11,9.928.873.873,0,0,1-.612,0ZM36.71,54.273a17.015,17.015,0,0,0,9.7,8.873,17.019,17.019,0,0,0,9.7-8.873,16.373,16.373,0,0,0,.458-11.886A16.585,16.585,0,0,1,46.41,38.562a16.582,16.582,0,0,1-10.158,3.824A16.373,16.373,0,0,0,36.71,54.273Zm19.972,23.6a18.311,18.311,0,0,0-2.5-.035c.014.039.025.082.035.121A12.106,12.106,0,0,0,55.429,80.9a2.133,2.133,0,0,1-.34,2.59l-.655.655a.387.387,0,0,0,0,.54l1.685,1.681a.382.382,0,0,0,.536,0c.612-.612,1.016-1.149,1.9-1.266a2.152,2.152,0,0,1,1.352.275,12.054,12.054,0,0,0,2.937,1.213,2.143,2.143,0,0,1,1.592,2.075v.923a.382.382,0,0,0,.379.382H67.19a.383.383,0,0,0,.382-.382,3.185,3.185,0,0,1,.441-2.229,2.157,2.157,0,0,1,1.152-.769A12.1,12.1,0,0,0,72.1,85.375a2.137,2.137,0,0,1,2.59.336l.655.655a.387.387,0,0,0,.54,0l1.681-1.681h0a.377.377,0,0,0,.111-.271h0c0-.48-1.205-.87-1.377-2.161a2.148,2.148,0,0,1,.275-1.353,12.016,12.016,0,0,0,1.213-2.937,2.14,2.14,0,0,1,2.075-1.592v0h.926v0a.382.382,0,0,0,.379-.382V73.608a.381.381,0,0,0-.379-.379,3.192,3.192,0,0,1-2.233-.444,2.129,2.129,0,0,1-.769-1.152A12.069,12.069,0,0,0,76.579,68.7a2.144,2.144,0,0,1,.336-2.594l.655-.655a.382.382,0,0,0,0-.536l-1.681-1.685a.387.387,0,0,0-.54,0c-.608.612-1.012,1.152-1.893,1.266a2.14,2.14,0,0,1-1.352-.271,12.127,12.127,0,0,0-2.937-1.217,2.132,2.132,0,0,1-1.592-2.071v-.926a.382.382,0,0,0-.382-.379H64.814a.381.381,0,0,0-.379.379h0v.926h0a2.136,2.136,0,0,1-1.592,2.071,12.106,12.106,0,0,0-2.937,1.217,2.139,2.139,0,0,1-2.594-.34l-.655-.655a.382.382,0,0,0-.536,0l-1.685,1.685v0a.391.391,0,0,0,0,.54l.655.655v0a2.132,2.132,0,0,1,.34,2.59c-.158.271-.3.554-.444.844.616-.2,1.256-.386,1.911-.554V67.329a.886.886,0,0,1,1.424-.7l1.123.805a9.851,9.851,0,1,1-1.377,13.131.891.891,0,0,1-1.17-.837V78.463c-.08-.193-.151-.39-.216-.587Zm-4.726.24a16.244,16.244,0,0,0-8.509,4.716.881.881,0,0,1-1.441-.952A18.267,18.267,0,0,1,47.63,73.5a20.6,20.6,0,0,1,5.117-3.109,13.794,13.794,0,0,1,1.159-2.572.37.37,0,0,0-.061-.462h0c-.669-.669-1.281-1.131-1.281-2.172a2.142,2.142,0,0,1,.63-1.517h0l1.685-1.685a2.148,2.148,0,0,1,3.034,0l.655.655a.366.366,0,0,0,.462.064,13.9,13.9,0,0,1,3.364-1.4.364.364,0,0,0,.283-.369h0v-.926h0a2.155,2.155,0,0,1,1.911-2.136V37.46a2.533,2.533,0,0,0-2.526-2.522H29.15a2.532,2.532,0,0,0-2.522,2.522V81.189a2.533,2.533,0,0,0,2.522,2.526H52.675c.379-1.106,1.546-1.385,1.231-1.932a13.814,13.814,0,0,1-1.4-3.366C52.42,78.087,52.134,78.155,51.956,78.116Zm8.963-9.624,6.022,4.318a.883.883,0,0,1-.014,1.445l-7.4,5.31a8.086,8.086,0,1,0,1.395-11.073ZM49.376,76.982a18.53,18.53,0,0,1,8.021-.809l.419.05a.881.881,0,0,1,.848.884V78l5.915-4.24v-.476l-5.915-4.24v.63a.881.881,0,0,1-.687.858c-5.295,1.223-10.008,3.778-12.795,8.555a17.387,17.387,0,0,1,4.193-2.11Zm16.97-19.121a2.816,2.816,0,0,1,2.369.63c1.2,1.2.186,2.619.909,2.812a13.765,13.765,0,0,1,3.366,1.4.361.361,0,0,0,.458-.064c.669-.669,1.135-1.281,2.175-1.281a2.138,2.138,0,0,1,1.517.626l1.681,1.685a2.148,2.148,0,0,1,0,3.034l-.655.655a.366.366,0,0,0-.061.462A13.724,13.724,0,0,1,79.5,71.18a.362.362,0,0,0,.369.283c.944,0,1.706-.107,2.444.63a2.155,2.155,0,0,1,.63,1.517v2.379A2.154,2.154,0,0,1,80.8,78.14v0h-.926v0a.362.362,0,0,0-.369.279,13.94,13.94,0,0,1-1.395,3.366.36.36,0,0,0,.061.458c.673.669,1.285,1.135,1.285,2.172h0a2.141,2.141,0,0,1-.626,1.517v0L77.14,87.618a2.152,2.152,0,0,1-3.038,0l-.655-.655a.36.36,0,0,0-.458-.061,13.965,13.965,0,0,1-3.366,1.4.362.362,0,0,0-.279.369c0,.944.1,1.706-.63,2.444a2.157,2.157,0,0,1-1.521.63H64.814a2.152,2.152,0,0,1-2.147-2.151v-.923a.362.362,0,0,0-.283-.369,13.959,13.959,0,0,1-3.364-1.4.366.366,0,0,0-.462.061c-.669.669-1.131,1.285-2.172,1.285a2.136,2.136,0,0,1-1.517-.63l-1.685-1.681a2.315,2.315,0,0,1-.343-.451H29.15a4.3,4.3,0,0,1-4.29-4.294V37.46a4.3,4.3,0,0,1,4.29-4.29h32.9a4.3,4.3,0,0,1,4.294,4.29Z"/>
    </g>
  </g>
</svg>
