<svg xmlns="http://www.w3.org/2000/svg" xmlns:xlink="http://www.w3.org/1999/xlink" width="103" height="103" viewBox="0 0 103 103">
  <defs>
    <filter id="Trazado_982547" x="0" y="0" width="103" height="103" filterUnits="userSpaceOnUse">
      <feOffset dy="3" input="SourceAlpha"/>
      <feGaussianBlur stdDeviation="3" result="blur"/>
      <feFlood flood-opacity="0.161"/>
      <feComposite operator="in" in2="blur"/>
      <feComposite in="SourceGraphic"/>
    </filter>
    <clipPath id="clip-path">
      <path id="path8349" d="M0-682.665H51.8v51.8H0Z" transform="translate(0 682.665)"/>
    </clipPath>
  </defs>
  <g id="Grupo_1226200" data-name="Grupo 1226200" transform="translate(-611 -4537)">
    <g id="Grupo_1225641" data-name="Grupo 1225641" transform="translate(620 4543)">
      <g id="Grupo_1225483" data-name="Grupo 1225483">
        <g id="Grupo_1210960" data-name="Grupo 1210960">
          <g id="Grupo_1210290" data-name="Grupo 1210290">
            <g id="Grupo_1207485" data-name="Grupo 1207485">
              <g id="Grupo_1207313" data-name="Grupo 1207313">
                <g id="Grupo_1202212" data-name="Grupo 1202212">
                  <g id="Grupo_1174813" data-name="Grupo 1174813">
                    <g id="Grupo_1201680" data-name="Grupo 1201680">
                      <g id="Grupo_1201330" data-name="Grupo 1201330">
                        <g id="Grupo_1172010" data-name="Grupo 1172010">
                          <g id="Grupo_1171046" data-name="Grupo 1171046">
                            <g id="Grupo_1148525" data-name="Grupo 1148525">
                              <g transform="matrix(1, 0, 0, 1, -9, -6)" filter="url(#Trazado_982547)">
                                <g id="Trazado_982547-2" data-name="Trazado 982547" transform="translate(9 6)" fill="#f6ecfe">
                                  <path d="M 42.5 83.5 C 36.96437835693359 83.5 31.59512901306152 82.41617584228516 26.54141235351562 80.27863311767578 C 21.65934181213379 78.21369171142578 17.27447128295898 75.25723266601562 13.50862312316895 71.49137878417969 C 9.742764472961426 67.72553253173828 6.786305904388428 63.34066009521484 4.721364498138428 58.45858764648438 C 2.583823442459106 53.40486907958984 1.5 48.03562164306641 1.5 42.5 C 1.5 36.96437835693359 2.583823442459106 31.59512901306152 4.721364498138428 26.54141235351562 C 6.786305904388428 21.65934181213379 9.742764472961426 17.27448272705078 13.50862312316895 13.50862312316895 C 17.27447128295898 9.742776870727539 21.65934181213379 6.786305904388428 26.54141235351562 4.721364498138428 C 31.59512901306152 2.583823442459106 36.96437835693359 1.5 42.5 1.5 C 48.03562164306641 1.5 53.40486907958984 2.583823442459106 58.45858764648438 4.721364498138428 C 63.34066009521484 6.786305904388428 67.72553253173828 9.742776870727539 71.49137878417969 13.50862312316895 C 75.25723266601562 17.27448272705078 78.21369171142578 21.65934181213379 80.27863311767578 26.54141235351562 C 82.41617584228516 31.59512901306152 83.5 36.96437835693359 83.5 42.5 C 83.5 48.03562164306641 82.41617584228516 53.40486907958984 80.27863311767578 58.45858764648438 C 78.21369171142578 63.34066009521484 75.25723266601562 67.72553253173828 71.49137878417969 71.49137878417969 C 67.72553253173828 75.25723266601562 63.34066009521484 78.21369171142578 58.45858764648438 80.27863311767578 C 53.40486907958984 82.41617584228516 48.03562164306641 83.5 42.5 83.5 Z" stroke="none"/>
                                  <path d="M 42.5 3 C 37.16621398925781 3 31.99356079101562 4.043960571289062 27.125732421875 6.102882385253906 C 22.42246627807617 8.092185974121094 18.19785308837891 10.94070434570312 14.56928253173828 14.56928253173828 C 10.94070434570312 18.19785308837891 8.092185974121094 22.42246627807617 6.102882385253906 27.125732421875 C 4.043960571289062 31.99356079101562 3 37.16621398925781 3 42.5 C 3 47.83378601074219 4.043960571289062 53.00643920898438 6.102882385253906 57.874267578125 C 8.092185974121094 62.57753372192383 10.94070434570312 66.80214691162109 14.56928253173828 70.43071746826172 C 18.19785308837891 74.05929565429688 22.42246627807617 76.90781402587891 27.125732421875 78.89711761474609 C 31.99356079101562 80.95603942871094 37.16621398925781 82 42.5 82 C 47.83378601074219 82 53.00643920898438 80.95603942871094 57.874267578125 78.89711761474609 C 62.57753372192383 76.90781402587891 66.80214691162109 74.05929565429688 70.43071746826172 70.43071746826172 C 74.05929565429688 66.80214691162109 76.90781402587891 62.57753372192383 78.89711761474609 57.874267578125 C 80.95603942871094 53.00643920898438 82 47.83378601074219 82 42.5 C 82 37.16621398925781 80.95603942871094 31.99356079101562 78.89711761474609 27.125732421875 C 76.90781402587891 22.42246627807617 74.05929565429688 18.19785308837891 70.43071746826172 14.56928253173828 C 66.80214691162109 10.94070434570312 62.57753372192383 8.092185974121094 57.874267578125 6.102882385253906 C 53.00643920898438 4.043960571289062 47.83378601074219 3 42.5 3 M 42.5 0 C 65.97210693359375 0 85 19.02789306640625 85 42.5 C 85 65.97210693359375 65.97210693359375 85 42.5 85 C 19.02789306640625 85 0 65.97210693359375 0 42.5 C 0 19.02789306640625 19.02789306640625 0 42.5 0 Z" stroke="none" fill="#aa52f9"/>
                                </g>
                              </g>
                            </g>
                          </g>
                        </g>
                      </g>
                    </g>
                  </g>
                </g>
              </g>
            </g>
          </g>
        </g>
      </g>
    </g>
    <g id="g8343" transform="translate(636.598 5244.263)">
      <g id="g8345" transform="translate(0 -682.665)">
        <g id="g8347" clip-path="url(#clip-path)">
          <g id="g8353" transform="translate(2.548 38.072)">
            <path id="path8355" d="M-157.984-78.992a6.487,6.487,0,0,0-6.487-6.487,6.487,6.487,0,0,0-6.487,6.487,6.486,6.486,0,0,0,6.487,6.487,6.487,6.487,0,0,0,6.487-6.487" transform="translate(170.957 85.478)" fill="#9be69d"/>
          </g>
          <g id="g8357" transform="translate(2.548 38.072)">
            <path id="path8359" d="M-101.665-154.684a6.5,6.5,0,0,1-1.862.271,6.487,6.487,0,0,1-6.487-6.487,6.487,6.487,0,0,1,6.487-6.487,6.5,6.5,0,0,1,1.862.271,6.49,6.49,0,0,0-4.625,6.215,6.49,6.49,0,0,0,4.625,6.215" transform="translate(110.013 167.386)" fill="#6fd7a3"/>
          </g>
          <g id="g8361" transform="translate(2.548 38.072)">
            <path id="path8363" d="M-157.984-78.992a6.487,6.487,0,0,0-6.487-6.487,6.487,6.487,0,0,0-6.487,6.487,6.486,6.486,0,0,0,6.487,6.487A6.487,6.487,0,0,0-157.984-78.992Z" transform="translate(170.957 85.478)" fill="none" stroke="#000" stroke-linecap="round" stroke-linejoin="round" stroke-miterlimit="10" stroke-width="1.5"/>
          </g>
          <g id="g8365" transform="translate(19.415 38.072)">
            <path id="path8367" d="M-157.984-78.992a6.487,6.487,0,0,0-6.487-6.487,6.487,6.487,0,0,0-6.487,6.487,6.487,6.487,0,0,0,6.487,6.487,6.487,6.487,0,0,0,6.487-6.487" transform="translate(170.957 85.478)" fill="#9be69d"/>
          </g>
          <g id="g8369" transform="translate(19.415 38.072)">
            <path id="path8371" d="M-101.665-154.684a6.5,6.5,0,0,1-1.862.271,6.487,6.487,0,0,1-6.487-6.487,6.487,6.487,0,0,1,6.487-6.487,6.5,6.5,0,0,1,1.862.271,6.49,6.49,0,0,0-4.625,6.215,6.49,6.49,0,0,0,4.625,6.215" transform="translate(110.013 167.386)" fill="#6fd7a3"/>
          </g>
          <g id="g8373" transform="translate(19.415 38.072)">
            <path id="path8375" d="M-157.984-78.992a6.487,6.487,0,0,0-6.487-6.487,6.487,6.487,0,0,0-6.487,6.487,6.487,6.487,0,0,0,6.487,6.487A6.487,6.487,0,0,0-157.984-78.992Z" transform="translate(170.957 85.478)" fill="none" stroke="#000" stroke-linecap="round" stroke-linejoin="round" stroke-miterlimit="10" stroke-width="1.5"/>
          </g>
          <g id="g8377" transform="translate(36.283 38.072)">
            <path id="path8379" d="M-157.984-78.992a6.487,6.487,0,0,0-6.487-6.487,6.487,6.487,0,0,0-6.487,6.487,6.487,6.487,0,0,0,6.487,6.487,6.487,6.487,0,0,0,6.487-6.487" transform="translate(170.957 85.478)" fill="#9be69d"/>
          </g>
          <g id="g8381" transform="translate(36.283 38.072)">
            <path id="path8383" d="M-101.665-154.684a6.5,6.5,0,0,1-1.862.271,6.487,6.487,0,0,1-6.487-6.487,6.487,6.487,0,0,1,6.487-6.487,6.5,6.5,0,0,1,1.862.271,6.49,6.49,0,0,0-4.625,6.215,6.49,6.49,0,0,0,4.625,6.215" transform="translate(110.013 167.386)" fill="#6fd7a3"/>
          </g>
          <g id="g8385" transform="translate(36.283 38.072)">
            <path id="path8387" d="M-25.444-137.052a6.459,6.459,0,0,0,4.4,1.719,6.486,6.486,0,0,0,6.487-6.487,6.486,6.486,0,0,0-6.487-6.487,6.487,6.487,0,0,0-6.487,6.487,6.45,6.45,0,0,0,.254,1.8" transform="translate(27.533 148.306)" fill="none" stroke="#000" stroke-linecap="round" stroke-linejoin="round" stroke-miterlimit="10" stroke-width="1.5"/>
          </g>
          <g id="g8389" transform="translate(25.902 29.337)">
            <path id="path8391" d="M0-106.375v-8.735" transform="translate(0 115.11)" fill="none" stroke="#000" stroke-linecap="round" stroke-linejoin="round" stroke-miterlimit="10" stroke-width="1.5"/>
          </g>
          <g id="g8393" transform="translate(9.034 33.279)">
            <path id="path8395" d="M-410.831-58.366v-3.453a1.34,1.34,0,0,0-1.34-1.34h-31.056a1.34,1.34,0,0,0-1.34,1.34v3.453" transform="translate(444.567 63.159)" fill="none" stroke="#000" stroke-linecap="round" stroke-linejoin="round" stroke-miterlimit="10" stroke-width="1.5"/>
          </g>
          <g id="g8397" transform="translate(13.032 19.566)">
            <path id="path8399" d="M-293.386,0H-315.83a1.648,1.648,0,0,0-1.648,1.648V8.122A1.648,1.648,0,0,0-315.83,9.77h22.444a1.648,1.648,0,0,0,1.648-1.648V1.648A1.648,1.648,0,0,0-293.386,0" transform="translate(317.478 0)" fill="#82aee3"/>
          </g>
          <g id="g8401" transform="translate(13.032 19.567)">
            <path id="path8403" d="M-52.982-118.989h-2.7a1.648,1.648,0,0,1-1.648-1.648v-6.474a1.648,1.648,0,0,1,1.648-1.648h2.7a1.648,1.648,0,0,0-1.648,1.648v6.474a1.648,1.648,0,0,0,1.648,1.648" transform="translate(57.333 128.76)" fill="#528fd8"/>
          </g>
          <g id="g8405" transform="translate(13.032 19.566)">
            <path id="path8407" d="M-74.545-118.989h17.97a1.648,1.648,0,0,0,1.648-1.648v-6.474a1.648,1.648,0,0,0-1.648-1.648H-79.018a1.648,1.648,0,0,0-1.648,1.648v6.474a1.648,1.648,0,0,0,1.648,1.648h.932" transform="translate(80.666 128.76)" fill="none" stroke="#000" stroke-linecap="round" stroke-linejoin="round" stroke-miterlimit="10" stroke-width="1.5"/>
          </g>
          <g id="g8409" transform="translate(31.191 0.759)">
            <path id="path8411" d="M-21.257-160.152H-5.808A1.746,1.746,0,0,0-4.062-161.9v-9.66A1.746,1.746,0,0,0-5.808-173.3H-21.257A1.746,1.746,0,0,0-23-171.558v9.66a1.746,1.746,0,0,0,1.746,1.746" transform="translate(23.003 173.304)" fill="#fe646f"/>
          </g>
          <g id="g8413" transform="translate(31.191 0.759)">
            <path id="path8415" d="M-51.541-160.155h-2.487a1.746,1.746,0,0,1-1.745-1.745v-9.661a1.745,1.745,0,0,1,1.745-1.745h2.487a1.746,1.746,0,0,0-1.746,1.745v9.661a1.746,1.746,0,0,0,1.746,1.745" transform="translate(55.773 173.306)" fill="#fd4755"/>
          </g>
          <g id="g8417" transform="translate(31.191 0.759)">
            <path id="path8419" d="M-103.722-160.155h8.678A1.746,1.746,0,0,0-93.3-161.9v-9.661a1.746,1.746,0,0,0-1.745-1.745h-15.45a1.745,1.745,0,0,0-1.745,1.745v9.661a1.746,1.746,0,0,0,1.745,1.745h3.231" transform="translate(112.24 173.306)" fill="none" stroke="#000" stroke-linecap="round" stroke-linejoin="round" stroke-miterlimit="10" stroke-width="1.5"/>
          </g>
          <g id="g8421" transform="translate(38.772 13.91)">
            <path id="path8423" d="M-55.669,0V9.2a1.34,1.34,0,0,1-1.34,1.34H-60.24" transform="translate(60.24)" fill="none" stroke="#000" stroke-linecap="round" stroke-linejoin="round" stroke-miterlimit="10" stroke-width="1.5"/>
          </g>
          <g id="g8425" transform="translate(1.673 0.759)">
            <path id="path8427" d="M-209.4-160.152h-15.449a1.746,1.746,0,0,1-1.746-1.746v-9.66a1.746,1.746,0,0,1,1.746-1.746H-209.4a1.746,1.746,0,0,1,1.746,1.746v9.66a1.746,1.746,0,0,1-1.746,1.746" transform="translate(226.594 173.304)" fill="#ffe177"/>
          </g>
          <g id="g8429" transform="translate(1.673 0.759)">
            <path id="path8431" d="M-51.541-160.155h-2.487a1.746,1.746,0,0,1-1.745-1.745v-9.661a1.745,1.745,0,0,1,1.745-1.745h2.487a1.746,1.746,0,0,0-1.746,1.745v9.661a1.746,1.746,0,0,0,1.746,1.745" transform="translate(55.773 173.306)" fill="#ffd15b"/>
          </g>
          <g id="g8433" transform="translate(1.673 0.759)">
            <path id="path8435" d="M-209.4-160.152h-15.449a1.746,1.746,0,0,1-1.746-1.746v-9.66a1.746,1.746,0,0,1,1.746-1.746H-209.4a1.746,1.746,0,0,1,1.746,1.746v9.66A1.746,1.746,0,0,1-209.4-160.152Z" transform="translate(226.594 173.304)" fill="none" stroke="#000" stroke-linecap="round" stroke-linejoin="round" stroke-miterlimit="10" stroke-width="1.5"/>
          </g>
          <g id="g8437" transform="translate(8.461 13.91)">
            <path id="path8439" d="M-55.669-128.377H-58.9a1.34,1.34,0,0,1-1.34-1.34v-9.2" transform="translate(60.24 138.918)" fill="none" stroke="#000" stroke-linecap="round" stroke-linejoin="round" stroke-miterlimit="10" stroke-width="1.5"/>
          </g>
          <g id="g8441" transform="translate(6.075 41.83)">
            <path id="path8443" d="M0-27.587,2.574-24.4l3.344-5.456" transform="translate(0 29.852)" fill="none" stroke="#000" stroke-linecap="round" stroke-linejoin="round" stroke-miterlimit="10" stroke-width="1.5"/>
          </g>
          <g id="g8445" transform="translate(22.943 41.83)">
            <path id="path8447" d="M0-27.587,2.574-24.4l3.344-5.456" transform="translate(0 29.852)" fill="none" stroke="#000" stroke-linecap="round" stroke-linejoin="round" stroke-miterlimit="10" stroke-width="1.5"/>
          </g>
          <g id="g8449" transform="translate(39.811 41.83)">
            <path id="path8451" d="M0-27.587,2.574-24.4l3.344-5.456" transform="translate(0 29.852)" fill="none" stroke="#000" stroke-linecap="round" stroke-linejoin="round" stroke-miterlimit="10" stroke-width="1.5"/>
          </g>
          <g id="g8453" transform="translate(5.207 4.425)">
            <path id="path8455" d="M0,0H11.872" fill="none" stroke="#000" stroke-linecap="round" stroke-linejoin="round" stroke-miterlimit="10" stroke-width="1.5"/>
          </g>
          <g id="g8457" transform="translate(5.207 7.854)">
            <path id="path8459" d="M0,0H8.462" fill="none" stroke="#000" stroke-linecap="round" stroke-linejoin="round" stroke-miterlimit="10" stroke-width="1.5"/>
          </g>
          <g id="g8461" transform="translate(37.938 4.611)">
            <path id="path8463" d="M0,0,5.447,5.447" fill="none" stroke="#000" stroke-linecap="round" stroke-linejoin="round" stroke-miterlimit="10" stroke-width="1.5"/>
          </g>
          <g id="g8465" transform="translate(37.938 4.611)">
            <path id="path8467" d="M-66.33,0l-5.447,5.447" transform="translate(71.777)" fill="none" stroke="#000" stroke-linecap="round" stroke-linejoin="round" stroke-miterlimit="10" stroke-width="1.5"/>
          </g>
          <g id="g8469" transform="translate(23.595 25.099)">
            <path id="path8471" d="M0-.123v-.01" transform="translate(0 0.133)" fill="none" stroke="#000" stroke-linecap="round" stroke-linejoin="round" stroke-miterlimit="10" stroke-width="1.5"/>
          </g>
          <g id="g8473" transform="translate(25.896 25.099)">
            <path id="path8475" d="M0-.123v-.01" transform="translate(0 0.133)" fill="none" stroke="#000" stroke-linecap="round" stroke-linejoin="round" stroke-miterlimit="10" stroke-width="1.5"/>
          </g>
          <g id="g8477" transform="translate(28.209 25.099)">
            <path id="path8479" d="M0-.123v-.01" transform="translate(0 0.133)" fill="none" stroke="#000" stroke-linecap="round" stroke-linejoin="round" stroke-miterlimit="10" stroke-width="1.5"/>
          </g>
        </g>
      </g>
    </g>
  </g>
</svg>
