<svg xmlns="http://www.w3.org/2000/svg" xmlns:xlink="http://www.w3.org/1999/xlink" width="103" height="103" viewBox="0 0 103 103">
  <defs>
    <filter id="Trazado_982547" x="0" y="0" width="103" height="103" filterUnits="userSpaceOnUse">
      <feOffset dy="3" input="SourceAlpha"/>
      <feGaussianBlur stdDeviation="3" result="blur"/>
      <feFlood flood-opacity="0.161"/>
      <feComposite operator="in" in2="blur"/>
      <feComposite in="SourceGraphic"/>
    </filter>
  </defs>
  <g id="Grupo_1226199" data-name="Grupo 1226199" transform="translate(-191 -4537)">
    <g id="Grupo_1225608" data-name="Grupo 1225608" transform="translate(200 4543)">
      <g id="Grupo_1225482" data-name="Grupo 1225482">
        <g id="Grupo_1210959" data-name="Grupo 1210959">
          <g id="Grupo_1210290" data-name="Grupo 1210290">
            <g id="Grupo_1207485" data-name="Grupo 1207485">
              <g id="Grupo_1207313" data-name="Grupo 1207313">
                <g id="Grupo_1202212" data-name="Grupo 1202212">
                  <g id="Grupo_1174813" data-name="Grupo 1174813">
                    <g id="Grupo_1201680" data-name="Grupo 1201680">
                      <g id="Grupo_1201330" data-name="Grupo 1201330">
                        <g id="Grupo_1172010" data-name="Grupo 1172010">
                          <g id="Grupo_1171046" data-name="Grupo 1171046">
                            <g id="Grupo_1148525" data-name="Grupo 1148525">
                              <g transform="matrix(1, 0, 0, 1, -9, -6)" filter="url(#Trazado_982547)">
                                <g id="Trazado_982547-2" data-name="Trazado 982547" transform="translate(9 6)" fill="#f6ecfe">
                                  <path d="M 42.5 83.5 C 36.96437835693359 83.5 31.59512901306152 82.41617584228516 26.54141235351562 80.27863311767578 C 21.65934181213379 78.21369171142578 17.27447128295898 75.25723266601562 13.50862312316895 71.49137878417969 C 9.742764472961426 67.72553253173828 6.786305904388428 63.34066009521484 4.721364498138428 58.45858764648438 C 2.583823442459106 53.40486907958984 1.5 48.03562164306641 1.5 42.5 C 1.5 36.96437835693359 2.583823442459106 31.59512901306152 4.721364498138428 26.54141235351562 C 6.786305904388428 21.65934181213379 9.742764472961426 17.27448272705078 13.50862312316895 13.50862312316895 C 17.27447128295898 9.742776870727539 21.65934181213379 6.786305904388428 26.54141235351562 4.721364498138428 C 31.59512901306152 2.583823442459106 36.96437835693359 1.5 42.5 1.5 C 48.03562164306641 1.5 53.40486907958984 2.583823442459106 58.45858764648438 4.721364498138428 C 63.34066009521484 6.786305904388428 67.72553253173828 9.742776870727539 71.49137878417969 13.50862312316895 C 75.25723266601562 17.27448272705078 78.21369171142578 21.65934181213379 80.27863311767578 26.54141235351562 C 82.41617584228516 31.59512901306152 83.5 36.96437835693359 83.5 42.5 C 83.5 48.03562164306641 82.41617584228516 53.40486907958984 80.27863311767578 58.45858764648438 C 78.21369171142578 63.34066009521484 75.25723266601562 67.72553253173828 71.49137878417969 71.49137878417969 C 67.72553253173828 75.25723266601562 63.34066009521484 78.21369171142578 58.45858764648438 80.27863311767578 C 53.40486907958984 82.41617584228516 48.03562164306641 83.5 42.5 83.5 Z" stroke="none"/>
                                  <path d="M 42.5 3 C 37.16621398925781 3 31.99356079101562 4.043960571289062 27.125732421875 6.102882385253906 C 22.42246627807617 8.092185974121094 18.19785308837891 10.94070434570312 14.56928253173828 14.56928253173828 C 10.94070434570312 18.19785308837891 8.092185974121094 22.42246627807617 6.102882385253906 27.125732421875 C 4.043960571289062 31.99356079101562 3 37.16621398925781 3 42.5 C 3 47.83378601074219 4.043960571289062 53.00643920898438 6.102882385253906 57.874267578125 C 8.092185974121094 62.57753372192383 10.94070434570312 66.80214691162109 14.56928253173828 70.43071746826172 C 18.19785308837891 74.05929565429688 22.42246627807617 76.90781402587891 27.125732421875 78.89711761474609 C 31.99356079101562 80.95603942871094 37.16621398925781 82 42.5 82 C 47.83378601074219 82 53.00643920898438 80.95603942871094 57.874267578125 78.89711761474609 C 62.57753372192383 76.90781402587891 66.80214691162109 74.05929565429688 70.43071746826172 70.43071746826172 C 74.05929565429688 66.80214691162109 76.90781402587891 62.57753372192383 78.89711761474609 57.874267578125 C 80.95603942871094 53.00643920898438 82 47.83378601074219 82 42.5 C 82 37.16621398925781 80.95603942871094 31.99356079101562 78.89711761474609 27.125732421875 C 76.90781402587891 22.42246627807617 74.05929565429688 18.19785308837891 70.43071746826172 14.56928253173828 C 66.80214691162109 10.94070434570312 62.57753372192383 8.092185974121094 57.874267578125 6.102882385253906 C 53.00643920898438 4.043960571289062 47.83378601074219 3 42.5 3 M 42.5 0 C 65.97210693359375 0 85 19.02789306640625 85 42.5 C 85 65.97210693359375 65.97210693359375 85 42.5 85 C 19.02789306640625 85 0 65.97210693359375 0 42.5 C 0 19.02789306640625 19.02789306640625 0 42.5 0 Z" stroke="none" fill="#aa52f9"/>
                                </g>
                              </g>
                            </g>
                          </g>
                        </g>
                      </g>
                    </g>
                  </g>
                </g>
              </g>
            </g>
          </g>
        </g>
      </g>
    </g>
    <g id="file_10988080" transform="translate(175.672 4550)">
      <path id="Trazado_1055003" data-name="Trazado 1055003" d="M86.023,26V60.426h-38.1a1.6,1.6,0,0,1-1.6-1.6V9.1a1.6,1.6,0,0,1,1.6-1.6h19.6c3.53,0,7.5,2.229,9.994,4.726l3.78,3.78C83.793,18.5,86.023,22.469,86.023,26Z" fill="#6ed5a1"/>
      <path id="Trazado_1055004" data-name="Trazado 1055004" d="M81.3,69.5l-2.13-2.13c2.5,2.5,4.726,6.463,4.726,9.994v33.362a1.065,1.065,0,0,1-1.065,1.065h-36.5v.532a1.6,1.6,0,0,0,1.6,1.6h38.1V79.5C86.023,75.966,83.793,72,81.3,69.5Z" transform="translate(0 -53.497)" fill="#46cc8d"/>
      <path id="Trazado_1055005" data-name="Trazado 1055005" d="M256.181,11.4a13.311,13.311,0,0,0-9.413-3.9H245.36a6.922,6.922,0,0,1,6.922,6.922V17.48a1.6,1.6,0,0,0,1.6,1.6h3.058A6.922,6.922,0,0,1,263.86,26V24.591a13.311,13.311,0,0,0-3.9-9.413Z" transform="translate(-177.837)" fill="#91deb6"/>
      <path id="Trazado_1055006" data-name="Trazado 1055006" d="M211.26,244.795a4.951,4.951,0,0,0-3.9,1.491.266.266,0,0,1-.293.063l-11.135-4.64a.265.265,0,0,1-.15-.328,4.987,4.987,0,0,0,0-3.12.265.265,0,0,1,.15-.328l11.135-4.64a.266.266,0,0,1,.293.063,4.962,4.962,0,1,0-1.4-3.459q0,.047,0,.094a.265.265,0,0,1-.163.249l-12.317,5.132a.268.268,0,0,1-.221-.008,4.962,4.962,0,1,0,0,8.912.267.267,0,0,1,.221-.008l12.318,5.132a.265.265,0,0,1,.163.249c0,.031,0,.063,0,.094a4.962,4.962,0,1,0,5.3-4.95Z" transform="translate(-124.896 -194.281)" fill="#685e68"/>
      <path id="Trazado_1055007" data-name="Trazado 1055007" d="M386.321,418.333a4.96,4.96,0,0,1-6.829,6.832,4.961,4.961,0,1,0,6.829-6.832Z" transform="translate(-297.685 -367.083)" fill="#554e56"/>
      <path id="Trazado_1055008" data-name="Trazado 1055008" d="M256.181,11.4a13.311,13.311,0,0,0-9.413-3.9H245.36a6.922,6.922,0,0,1,6.922,6.922V17.48a1.6,1.6,0,0,0,1.6,1.6h3.058A6.922,6.922,0,0,1,263.86,26V24.591a13.311,13.311,0,0,0-3.9-9.413Z" transform="translate(-177.837)" fill="none" stroke="#000" stroke-linecap="round" stroke-linejoin="round" stroke-miterlimit="10" stroke-width="1.2"/>
      <path id="Trazado_1055009" data-name="Trazado 1055009" d="M214.1,226.1a4.962,4.962,0,0,0-8.148,3.8q0,.047,0,.094a.265.265,0,0,1-.163.249l-12.317,5.132a.268.268,0,0,1-.221-.008,4.962,4.962,0,1,0,0,8.912.267.267,0,0,1,.221-.008l12.318,5.132a.265.265,0,0,1,.163.249c0,.031,0,.063,0,.094a4.962,4.962,0,1,0,1.4-3.459.266.266,0,0,1-.293.063l-11.135-4.64a.265.265,0,0,1-.15-.328,4.987,4.987,0,0,0,0-3.12.265.265,0,0,1,.15-.328l11.135-4.64a.266.266,0,0,1,.293.063,4.962,4.962,0,0,0,8.516-3.266,5.029,5.029,0,0,0-.019-.667" transform="translate(-124.896 -194.283)" fill="none" stroke="#000" stroke-linecap="round" stroke-linejoin="round" stroke-miterlimit="10" stroke-width="1.2"/>
      <path id="Trazado_1055010" data-name="Trazado 1055010" d="M46.328,454.609v3.716a1.6,1.6,0,0,0,1.6,1.6h38.1" transform="translate(0 -399.496)" fill="none" stroke="#000" stroke-linecap="round" stroke-linejoin="round" stroke-miterlimit="10" stroke-width="1.2"/>
      <path id="Trazado_1055011" data-name="Trazado 1055011" d="M67.523,7.5h-19.6a1.6,1.6,0,0,0-1.6,1.6V51.386" fill="none" stroke="#000" stroke-linecap="round" stroke-linejoin="round" stroke-miterlimit="10" stroke-width="1.2"/>
      <line id="Línea_2673" data-name="Línea 2673" y1="4.656" transform="translate(86.023 26)" fill="none" stroke="#000" stroke-linecap="round" stroke-linejoin="round" stroke-miterlimit="10" stroke-width="1.2"/>
      <line id="Línea_2674" data-name="Línea 2674" y1="9.924" transform="translate(86.023 40.579)" fill="none" stroke="#000" stroke-linecap="round" stroke-linejoin="round" stroke-miterlimit="10" stroke-width="1.2"/>
      <g id="Grupo_1226193" data-name="Grupo 1226193" transform="translate(54.751 23.975)">
        <path id="Trazado_1055012" data-name="Trazado 1055012" d="M129.132,167.526a.532.532,0,0,1,0-.639l1.526-2.035a1.653,1.653,0,0,0-2.645-1.984l-2.056,2.741a2.661,2.661,0,0,0,0,3.193l2.056,2.741a1.653,1.653,0,0,0,2.645-1.984Z" transform="translate(-125.425 -162.207)" fill="#fff"/>
      </g>
      <g id="Grupo_1226194" data-name="Grupo 1226194" transform="translate(72.036 23.975)">
        <path id="Trazado_1055013" data-name="Trazado 1055013" d="M289.591,167.526a.532.532,0,0,0,0-.639l-1.526-2.035a1.653,1.653,0,0,1,2.645-1.984l2.056,2.741a2.661,2.661,0,0,1,0,3.193l-2.056,2.741a1.653,1.653,0,0,1-2.645-1.984Z" transform="translate(-287.734 -162.207)" fill="#fff"/>
      </g>
      <g id="Grupo_1226195" data-name="Grupo 1226195" transform="translate(63.625 23.975)">
        <path id="Trazado_1055014" data-name="Trazado 1055014" d="M210.6,163.433l-1.793,6.692a1.653,1.653,0,0,0,1.6,2.081h0a1.653,1.653,0,0,0,1.6-1.225l1.793-6.692a1.653,1.653,0,0,0-1.6-2.081h0A1.653,1.653,0,0,0,210.6,163.433Z" transform="translate(-208.752 -162.208)" fill="#fff"/>
      </g>
      <g id="Grupo_1226196" data-name="Grupo 1226196" transform="translate(54.751 23.975)">
        <path id="Trazado_1055015" data-name="Trazado 1055015" d="M129.132,167.526a.532.532,0,0,1,0-.639l1.526-2.035a1.653,1.653,0,0,0-2.645-1.984l-2.056,2.741a2.661,2.661,0,0,0,0,3.193l2.056,2.741a1.653,1.653,0,0,0,2.645-1.984Z" transform="translate(-125.425 -162.207)" fill="none" stroke="#000" stroke-linecap="round" stroke-linejoin="round" stroke-miterlimit="10" stroke-width="1.2"/>
      </g>
      <g id="Grupo_1226197" data-name="Grupo 1226197" transform="translate(72.036 23.975)">
        <path id="Trazado_1055016" data-name="Trazado 1055016" d="M289.591,167.526a.532.532,0,0,0,0-.639l-1.526-2.035a1.653,1.653,0,0,1,2.645-1.984l2.056,2.741a2.661,2.661,0,0,1,0,3.193l-2.056,2.741a1.653,1.653,0,0,1-2.645-1.984Z" transform="translate(-287.734 -162.207)" fill="none" stroke="#000" stroke-linecap="round" stroke-linejoin="round" stroke-miterlimit="10" stroke-width="1.2"/>
      </g>
      <g id="Grupo_1226198" data-name="Grupo 1226198" transform="translate(63.625 23.975)">
        <path id="Trazado_1055017" data-name="Trazado 1055017" d="M213.342,165.986l.455-1.7a1.653,1.653,0,0,0-1.6-2.081h0a1.653,1.653,0,0,0-1.6,1.225l-1.793,6.692a1.653,1.653,0,0,0,1.6,2.081h0a1.653,1.653,0,0,0,1.6-1.225l.341-1.274" transform="translate(-208.752 -162.209)" fill="none" stroke="#000" stroke-linecap="round" stroke-linejoin="round" stroke-miterlimit="10" stroke-width="1.2"/>
      </g>
    </g>
  </g>
</svg>
