<svg xmlns="http://www.w3.org/2000/svg" xmlns:xlink="http://www.w3.org/1999/xlink" width="103" height="103" viewBox="0 0 103 103">
  <defs>
    <filter id="Trazado_982547" x="0" y="0" width="103" height="103" filterUnits="userSpaceOnUse">
      <feOffset dy="3" input="SourceAlpha"/>
      <feGaussianBlur stdDeviation="3" result="blur"/>
      <feFlood flood-opacity="0.161"/>
      <feComposite operator="in" in2="blur"/>
      <feComposite in="SourceGraphic"/>
    </filter>
  </defs>
  <g id="Grupo_1226205" data-name="Grupo 1226205" transform="translate(-1035 -4537)">
    <g id="Grupo_1225643" data-name="Grupo 1225643" transform="translate(1044 4543)">
      <g id="Grupo_1225484" data-name="Grupo 1225484">
        <g id="Grupo_1210961" data-name="Grupo 1210961">
          <g id="Grupo_1210290" data-name="Grupo 1210290">
            <g id="Grupo_1207485" data-name="Grupo 1207485">
              <g id="Grupo_1207313" data-name="Grupo 1207313">
                <g id="Grupo_1202212" data-name="Grupo 1202212">
                  <g id="Grupo_1174813" data-name="Grupo 1174813">
                    <g id="Grupo_1201680" data-name="Grupo 1201680">
                      <g id="Grupo_1201330" data-name="Grupo 1201330">
                        <g id="Grupo_1172010" data-name="Grupo 1172010">
                          <g id="Grupo_1171046" data-name="Grupo 1171046">
                            <g id="Grupo_1148525" data-name="Grupo 1148525">
                              <g transform="matrix(1, 0, 0, 1, -9, -6)" filter="url(#Trazado_982547)">
                                <g id="Trazado_982547-2" data-name="Trazado 982547" transform="translate(9 6)" fill="#f6ecfe">
                                  <path d="M 42.5 83.5 C 36.96437835693359 83.5 31.59512901306152 82.41617584228516 26.54141235351562 80.27863311767578 C 21.65934181213379 78.21369171142578 17.27447128295898 75.25723266601562 13.50862312316895 71.49137878417969 C 9.742764472961426 67.72553253173828 6.786305904388428 63.34066009521484 4.721364498138428 58.45858764648438 C 2.583823442459106 53.40486907958984 1.5 48.03562164306641 1.5 42.5 C 1.5 36.96437835693359 2.583823442459106 31.59512901306152 4.721364498138428 26.54141235351562 C 6.786305904388428 21.65934181213379 9.742764472961426 17.27448272705078 13.50862312316895 13.50862312316895 C 17.27447128295898 9.742776870727539 21.65934181213379 6.786305904388428 26.54141235351562 4.721364498138428 C 31.59512901306152 2.583823442459106 36.96437835693359 1.5 42.5 1.5 C 48.03562164306641 1.5 53.40486907958984 2.583823442459106 58.45858764648438 4.721364498138428 C 63.34066009521484 6.786305904388428 67.72553253173828 9.742776870727539 71.49137878417969 13.50862312316895 C 75.25723266601562 17.27448272705078 78.21369171142578 21.65934181213379 80.27863311767578 26.54141235351562 C 82.41617584228516 31.59512901306152 83.5 36.96437835693359 83.5 42.5 C 83.5 48.03562164306641 82.41617584228516 53.40486907958984 80.27863311767578 58.45858764648438 C 78.21369171142578 63.34066009521484 75.25723266601562 67.72553253173828 71.49137878417969 71.49137878417969 C 67.72553253173828 75.25723266601562 63.34066009521484 78.21369171142578 58.45858764648438 80.27863311767578 C 53.40486907958984 82.41617584228516 48.03562164306641 83.5 42.5 83.5 Z" stroke="none"/>
                                  <path d="M 42.5 3 C 37.16621398925781 3 31.99356079101562 4.043960571289062 27.125732421875 6.102882385253906 C 22.42246627807617 8.092185974121094 18.19785308837891 10.94070434570312 14.56928253173828 14.56928253173828 C 10.94070434570312 18.19785308837891 8.092185974121094 22.42246627807617 6.102882385253906 27.125732421875 C 4.043960571289062 31.99356079101562 3 37.16621398925781 3 42.5 C 3 47.83378601074219 4.043960571289062 53.00643920898438 6.102882385253906 57.874267578125 C 8.092185974121094 62.57753372192383 10.94070434570312 66.80214691162109 14.56928253173828 70.43071746826172 C 18.19785308837891 74.05929565429688 22.42246627807617 76.90781402587891 27.125732421875 78.89711761474609 C 31.99356079101562 80.95603942871094 37.16621398925781 82 42.5 82 C 47.83378601074219 82 53.00643920898438 80.95603942871094 57.874267578125 78.89711761474609 C 62.57753372192383 76.90781402587891 66.80214691162109 74.05929565429688 70.43071746826172 70.43071746826172 C 74.05929565429688 66.80214691162109 76.90781402587891 62.57753372192383 78.89711761474609 57.874267578125 C 80.95603942871094 53.00643920898438 82 47.83378601074219 82 42.5 C 82 37.16621398925781 80.95603942871094 31.99356079101562 78.89711761474609 27.125732421875 C 76.90781402587891 22.42246627807617 74.05929565429688 18.19785308837891 70.43071746826172 14.56928253173828 C 66.80214691162109 10.94070434570312 62.57753372192383 8.092185974121094 57.874267578125 6.102882385253906 C 53.00643920898438 4.043960571289062 47.83378601074219 3 42.5 3 M 42.5 0 C 65.97210693359375 0 85 19.02789306640625 85 42.5 C 85 65.97210693359375 65.97210693359375 85 42.5 85 C 19.02789306640625 85 0 65.97210693359375 0 42.5 C 0 19.02789306640625 19.02789306640625 0 42.5 0 Z" stroke="none" fill="#aa52f9"/>
                                </g>
                              </g>
                            </g>
                          </g>
                        </g>
                      </g>
                    </g>
                  </g>
                </g>
              </g>
            </g>
          </g>
        </g>
      </g>
    </g>
    <g id="parsing_17359338_1_" data-name="parsing_17359338 (1)" transform="translate(1053.152 4557.535)">
      <g id="Grupo_1226204" data-name="Grupo 1226204" transform="translate(9.502 1.821)">
        <g id="Grupo_1226201" data-name="Grupo 1226201" transform="translate(0 12.56)">
          <path id="Trazado_1055018" data-name="Trazado 1055018" d="M142.681,435.519l-15.623.2-3.471,5.956a.364.364,0,0,0,.315.549h22.051a.364.364,0,0,0,.315-.549Z" transform="translate(-112.442 -403.798)" fill="#003748" fill-rule="evenodd"/>
          <path id="Trazado_1055019" data-name="Trazado 1055019" d="M292.354,435.518l-1.807.023,3.574,6.133a.364.364,0,0,1-.315.549h1.821a.364.364,0,0,0,.315-.549Z" transform="translate(-262.115 -403.797)" fill="#00242f" fill-rule="evenodd"/>
          <path id="Trazado_1055020" data-name="Trazado 1055020" d="M59.3,129.971a2.355,2.355,0,0,1,2.348,2.348v27.352a2.355,2.355,0,0,1-2.348,2.348H19.027a2.355,2.355,0,0,1-2.348-2.348V132.319a2.355,2.355,0,0,1,2.348-2.348Z" transform="translate(-16.679 -129.971)" fill="#e6f8ff" fill-rule="evenodd"/>
          <path id="Trazado_1055021" data-name="Trazado 1055021" d="M403.678,129.971a2.355,2.355,0,0,1,2.348,2.348v27.352a2.355,2.355,0,0,1-2.348,2.348h-2.731a2.355,2.355,0,0,0,2.348-2.348V132.319a2.355,2.355,0,0,0-2.348-2.348Z" transform="translate(-361.054 -129.971)" fill="#d0f1ff" fill-rule="evenodd"/>
          <path id="Trazado_1055022" data-name="Trazado 1055022" d="M61.651,409.569H16.679v1.583a2.355,2.355,0,0,0,2.348,2.348H59.3a2.355,2.355,0,0,0,2.348-2.348Z" transform="translate(-16.679 -380.542)" fill="#004960" fill-rule="evenodd"/>
          <path id="Trazado_1055023" data-name="Trazado 1055023" d="M406.026,409.569h-2.731v1.583a2.355,2.355,0,0,1-2.348,2.348h2.731a2.355,2.355,0,0,0,2.348-2.348Z" transform="translate(-361.054 -380.542)" fill="#003748" fill-rule="evenodd"/>
        </g>
        <g id="Grupo_1226202" data-name="Grupo 1226202" transform="translate(9.179)">
          <path id="Trazado_1055024" data-name="Trazado 1055024" d="M106.4,45.656h24a1.311,1.311,0,0,0,1.308-1.308V16.314a1.264,1.264,0,0,0-.383-.925l-6.017-6.018a1.264,1.264,0,0,0-.925-.383H106.4a1.311,1.311,0,0,0-1.308,1.308V44.347a1.311,1.311,0,0,0,1.308,1.309Z" transform="translate(-105.091 -8.988)" fill="#eff4f7" fill-rule="evenodd"/>
          <path id="Trazado_1055025" data-name="Trazado 1055025" d="M106.4,48.946h24a1.311,1.311,0,0,0,1.308-1.308V19.6a1.264,1.264,0,0,0-.383-.925l-6.018-6.018,0,0,4.381,4.381a1.264,1.264,0,0,1,.383.925V46a1.311,1.311,0,0,1-1.309,1.308H105.091v.33a1.311,1.311,0,0,0,1.308,1.308Z" transform="translate(-105.091 -12.278)" fill="#dee8ee" fill-rule="evenodd"/>
          <path id="Trazado_1055026" data-name="Trazado 1055026" d="M296.494,10.351l6.017,6.018a1.311,1.311,0,0,1,.27.383h-5.489a1.184,1.184,0,0,1-1.181-1.181V10.081a1.31,1.31,0,0,1,.383.27Z" transform="translate(-276.28 -9.968)" fill="#dee8ee" fill-rule="evenodd"/>
          <path id="Trazado_1055027" data-name="Trazado 1055027" d="M299.776,12.654l6.018,6.018a1.31,1.31,0,0,1,.27.383h-1.525v-1.1a1.264,1.264,0,0,0-.383-.925l-4.382-4.382Z" transform="translate(-279.562 -12.271)" fill="#cedde5" fill-rule="evenodd"/>
        </g>
        <g id="Grupo_1226203" data-name="Grupo 1226203" transform="translate(19.804 21.405)">
          <path id="Trazado_1055028" data-name="Trazado 1055028" d="M380.381,390.224l1.6-1.713-3.24-3.24-1.718,1.6Z" transform="translate(-359.421 -367.612)" fill="#b4d2d7" fill-rule="evenodd"/>
          <path id="Trazado_1055029" data-name="Trazado 1055029" d="M380.381,397.944l1.6-1.713-.017-.017-.9.959-3.287-3.286-.757.7Z" transform="translate(-359.421 -375.333)" fill="#9bb9c3" fill-rule="evenodd"/>
          <path id="Trazado_1055030" data-name="Trazado 1055030" d="M399.841,404.844l-2.665,2.665a.19.19,0,0,0,0,.268l6.763,6.762a2.074,2.074,0,0,0,2.933-2.933l-6.763-6.762A.19.19,0,0,0,399.841,404.844Z" transform="translate(-377.429 -385.103)" fill="#8d9ca8" fill-rule="evenodd"/>
          <path id="Trazado_1055031" data-name="Trazado 1055031" d="M397.678,426.153l-.5.5a.19.19,0,0,0,0,.268l6.763,6.763a2.073,2.073,0,0,0,3.163-.274,2.082,2.082,0,0,1-2.659-.23l-6.763-6.763a.19.19,0,0,1,0-.267Z" transform="translate(-377.429 -404.25)" fill="#7a8c98" fill-rule="evenodd"/>
          <path id="Trazado_1055032" data-name="Trazado 1055032" d="M397.176,407.508a.19.19,0,0,0,0,.268l1.755,1.755,2.933-2.933-1.755-1.755a.19.19,0,0,0-.268,0Z" transform="translate(-377.429 -385.103)" fill="#7a8c98" fill-rule="evenodd"/>
          <path id="Trazado_1055033" data-name="Trazado 1055033" d="M397.176,426.655a.19.19,0,0,0,0,.268l1.755,1.755.5-.5-1.755-1.755a.19.19,0,0,1,0-.267Z" transform="translate(-377.429 -404.25)" fill="#596c76" fill-rule="evenodd"/>
          <circle id="Elipse_13365" data-name="Elipse 13365" cx="9.821" cy="9.821" r="9.821" transform="translate(0 18.797) rotate(-73.142)" fill="#64b5f6"/>
          <path id="Trazado_1055034" data-name="Trazado 1055034" d="M270.27,256.923a9.82,9.82,0,1,1-12.89,14.729,9.82,9.82,0,0,0,12.89-14.729Z" transform="translate(-252.196 -252.589)" fill="#42a5f5" fill-rule="evenodd"/>
          <circle id="Elipse_13366" data-name="Elipse 13366" cx="7.073" cy="7.073" r="7.073" transform="translate(5.169 5.163)" fill="#e6f8ff"/>
          <path id="Trazado_1055035" data-name="Trazado 1055035" d="M264.311,264.9a7.058,7.058,0,0,1,5.432,2.544,7.072,7.072,0,0,0-9.961,9.961,7.073,7.073,0,0,1,4.529-12.5Z" transform="translate(-252.069 -259.742)" fill="#cbf0ff" fill-rule="evenodd"/>
          <path id="Trazado_1055036" data-name="Trazado 1055036" d="M287.511,298.937a1.333,1.333,0,1,1,1.891,1.88l-4.453,4.495a1.333,1.333,0,0,1-1.875.015l-2.2-2.147a1.333,1.333,0,0,1,1.859-1.911l1.257,1.225Z" transform="translate(-272.886 -289.888)" fill="#64b5f6" fill-rule="evenodd"/>
          <path id="Trazado_1055037" data-name="Trazado 1055037" d="M306.585,300.084a1.334,1.334,0,0,1,.312,2.113l-4.453,4.495a1.333,1.333,0,0,1-1.875.015l-.2-.2a1.334,1.334,0,0,0,1.639-.2l4.453-4.495a1.333,1.333,0,0,0,.127-1.733Zm-6.6,2.381,1.055,1.029.024-.024-.843-.821A1.334,1.334,0,0,0,299.989,302.465Z" transform="translate(-290.381 -291.269)" fill="#42a5f5" fill-rule="evenodd"/>
        </g>
      </g>
      <path id="Trazado_1055038" data-name="Trazado 1055038" d="M40.619,37.9l4.452-4.493a.507.507,0,0,0,.147-.357.5.5,0,0,0-.5-.5h0a.5.5,0,0,0-.355.147l-3.523,3.557a.83.83,0,0,1-1.169.01L38.41,35.041a.5.5,0,0,0-.35-.142h-.007a.5.5,0,0,0-.344.863l2.2,2.149a.5.5,0,0,0,.706-.007Zm1.179,1.17a2.171,2.171,0,0,1-3.044.027l-2.2-2.148a2.164,2.164,0,1,1,3.018-3.1l.668.651,2.944-2.971h0a2.153,2.153,0,0,1,1.528-.638h.006a2.164,2.164,0,0,1,1.535,3.69Zm-.411,2.637A6.408,6.408,0,1,1,47.8,35.3,6.415,6.415,0,0,1,41.388,41.711Zm0,1.661a8.069,8.069,0,1,1,8.07-8.07A8.078,8.078,0,0,1,41.388,43.372ZM58,50.156,53.58,45.737l-1.758,1.758,4.422,4.42A1.243,1.243,0,1,0,58,50.156Zm-9.514-3.647-.192-.19a1.01,1.01,0,0,1-.07-1.346l-.859-.86a10.627,10.627,0,0,1-11.766.126H10.332v.753a1.519,1.519,0,0,0,1.518,1.517H48.487Zm-8.5,1.661H23.991l-2.219,3.807H42.2ZM10.332,16.73V42.578H33.617a10.682,10.682,0,0,1-2.093-3.258H19.989a2.141,2.141,0,0,1-2.139-2.139V15.212h-6A1.52,1.52,0,0,0,10.332,16.73Zm9.179,20.451V3.131a.479.479,0,0,1,.478-.478H37.681V7.424a2.014,2.014,0,0,0,2.012,2.012h4.771V25.105a10.631,10.631,0,0,0-9.242,1.516H34.8a.831.831,0,0,0-.83.83A.8.8,0,0,0,34,27.64a10.709,10.709,0,0,0-2.2,3.035H27.2a.831.831,0,1,0,0,1.661h3.954a10.588,10.588,0,0,0-.4,2.393H30.4a.831.831,0,0,0,0,1.661h.389A10.714,10.714,0,0,0,31,37.659H19.989a.478.478,0,0,1-.478-.478ZM39.342,3.827v3.6a.351.351,0,0,0,.351.351h3.6Zm6.784,11.384V25.765A10.641,10.641,0,0,1,50.2,41.28l.86.859a1.005,1.005,0,0,1,1.345.072l1.241,1.24V16.73a1.52,1.52,0,0,0-1.518-1.518h-6ZM50.648,46.32l-.714-.714,1.758-1.759.714.714ZM48.67,43.068l.726.727.484-.484-.727-.727c-.156.166-.316.328-.483.484Zm-7.282,1.225a8.99,8.99,0,1,1,8.99-8.99A9,9,0,0,1,41.388,44.293Zm17.789,8.8a2.906,2.906,0,0,1-4.107,0l-4.92-4.919H41.908l2.139,3.671a1.179,1.179,0,0,1,.007,1.193,1.2,1.2,0,0,1-1.04.6H20.963a1.2,1.2,0,0,1-1.04-.6,1.179,1.179,0,0,1,.007-1.193l2.139-3.671H11.85a3.182,3.182,0,0,1-3.179-3.178V16.73a3.183,3.183,0,0,1,3.179-3.179h6V3.131A2.142,2.142,0,0,1,19.989.991H37.97a2.092,2.092,0,0,1,1.511.627L45.5,7.636a2.1,2.1,0,0,1,.626,1.512v4.4h6A3.182,3.182,0,0,1,55.3,16.73V45.109l3.873,3.873a2.91,2.91,0,0,1,0,4.107ZM27.294,9.226a.805.805,0,0,0,.245.038.83.83,0,0,0,.793-.586l1.348-4.36a.83.83,0,1,0-1.586-.491L26.746,8.188a.829.829,0,0,0,.548,1.038Zm2.794-.7a.832.832,0,0,0,1.174.038l1.644-1.545a.83.83,0,0,0,.045-1.166L31.428,4.184A.831.831,0,0,0,30.2,5.3l.97,1.06-1.048.983a.83.83,0,0,0-.036,1.174ZM25,8.321A.83.83,0,1,0,26.224,7.2l-.968-1.06L26.3,5.156a.83.83,0,1,0-1.137-1.21L23.521,5.489a.831.831,0,0,0-.045,1.166Zm-2.456,7.8a.831.831,0,1,1,0-1.661h1.071a.831.831,0,0,1,0,1.661Zm0-4.055h5.882a.831.831,0,1,0,0-1.661H22.543a.831.831,0,1,0,0,1.661Zm0,24.325a.831.831,0,1,1,0-1.661h3.916a.831.831,0,0,1,0,1.661Zm0-8.108a.831.831,0,1,1,0-1.661h9.031a.831.831,0,0,1,0,1.661Zm0,4.054a.831.831,0,1,1,0-1.661H24.52a.831.831,0,0,1,0,1.661Zm0-12.162a.831.831,0,1,1,0-1.661h8.424a.831.831,0,0,1,0,1.661Zm0,4.054a.83.83,0,1,1,0-1.661h1.57a.83.83,0,0,1,0,1.661Zm4.3-1.661h2.991a.83.83,0,1,1,0,1.661H26.846a.83.83,0,1,1,0-1.661ZM31.07,11.234a.831.831,0,0,0,.83.831h1.848a.831.831,0,0,0,0-1.661H31.9a.831.831,0,0,0-.83.83Zm4.911,11.333a.83.83,0,0,1,0,1.661H32.836a.83.83,0,1,1,0-1.661Zm4.9,0H38.848a.83.83,0,1,0,0,1.661h2.038a.83.83,0,1,0,0-1.661ZM38.163,16.12h2.723a.831.831,0,1,0,0-1.661H38.163a.831.831,0,0,0,0,1.661Zm2.723,2.393a.831.831,0,1,1,0,1.661H33.9a.831.831,0,1,1,0-1.661ZM26.73,14.459h8.536a.831.831,0,0,1,0,1.661H26.73a.831.831,0,1,1,0-1.661Z" fill-rule="evenodd"/>
    </g>
  </g>
</svg>
