<svg xmlns="http://www.w3.org/2000/svg" width="400" height="155" viewBox="0 0 400 155">
  <g id="Grupo_1225647" data-name="Grupo 1225647" transform="translate(-1020 -12152)">
    <g id="Grupo_1225644" data-name="Grupo 1225644" transform="translate(0)">
      <rect id="equipo-de-desarrolladores-haciendo-una-tormenta-de-ideas-para-optimizar-el-codigo" width="400" height="96" rx="5" transform="translate(1020 12204)" fill="#4f3864"/>
      <rect id="equipo-de-desarrolladores-haciendo-una-tormenta-de-ideas-para-optimizar-el-codigo-2" data-name="equipo-de-desarrolladores-haciendo-una-tormenta-de-ideas-para-optimizar-el-codigo" width="326" height="110" rx="5" transform="translate(1057 12197)" fill="#11f5d8"/>
    </g>
    <g id="programmer_360487_1_" data-name="programmer_360487 (1)" transform="translate(1142 12151.981)">
      <g id="Grupo_1225645" data-name="Grupo 1225645" transform="translate(124.635 69.729)">
        <path id="Trazado_1053084" data-name="Trazado 1053084" d="M438.9,234.282v3.791H411.7v-3.791a4,4,0,0,1,4-4h19.211a4,4,0,0,1,4,4Z" transform="translate(-411.7 -230.286)" fill="#ecebed"/>
        <path id="Trazado_1053085" data-name="Trazado 1053085" d="M415.839,347.646H438.9v4.866a4,4,0,0,1-4,4H415.695a4,4,0,0,1-4-4v-4.866Z" transform="translate(-411.699 -312.117)" fill="#ecebed"/>
      </g>
      <g id="Grupo_1225646" data-name="Grupo 1225646" transform="translate(3.178 67.006)">
        <rect id="Rectángulo_422196" data-name="Rectángulo 422196" width="27.201" height="27.742" transform="translate(121.458 10.509)" fill="#27b5f7"/>
        <path id="Trazado_1053086" data-name="Trazado 1053086" d="M85.405,225.57v48.52H10.5V225.57a4.184,4.184,0,0,1,4.083-4.278h66.74a4.184,4.184,0,0,1,4.083,4.278Z" transform="translate(-10.499 -221.292)" fill="#27b5f7"/>
      </g>
      <path id="Trazado_1053087" data-name="Trazado 1053087" d="M143.395,319.126v6.162a5.1,5.1,0,0,1-3.138,4.707L119.9,338.476c-4.3,1.792-7.1,6.663-7.1,11.321v24.549h86.689V349.8c0-4.659-2.8-9.53-7.1-11.321l-20.356-8.481a5.1,5.1,0,0,1-3.138-4.707v-6.162Z" transform="translate(-78.651 -222.502)" fill="#febba0"/>
      <path id="Trazado_1053088" data-name="Trazado 1053088" d="M192.384,354.054l-20.356-8.481a5.1,5.1,0,0,1-3.1-4.105v3.88a12.83,12.83,0,0,1-12.792,12.792h0a12.829,12.829,0,0,1-12.792-12.792v-3.8a5.1,5.1,0,0,1-3.09,4.027L119.9,354.053c-4.3,1.792-7.1,6.663-7.1,11.321v24.549h86.689V365.375C199.486,360.717,196.684,355.846,192.384,354.054Z" transform="translate(-78.649 -238.08)" fill="#89cd37"/>
      <path id="Trazado_1053089" data-name="Trazado 1053089" d="M202.557,112.507v-9.216a28.411,28.411,0,0,0-56.822,0h-.111v9.216a7.085,7.085,0,1,0,0,14.17v5.289a13.9,13.9,0,0,0,5.81,10.607l17.127,9.791a9.827,9.827,0,0,0,11.06,0l17.076-9.791a13.946,13.946,0,0,0,5.861-10.607v-5.289a7.085,7.085,0,1,0,0-14.17Z" transform="translate(-96.599 -52.198)" fill="#febba0"/>
      <path id="Trazado_1053090" data-name="Trazado 1053090" d="M204.809,42.478c-5.36-6.83-11.028-8.288-15.236-6.239-3.337-2.852-8.336-5.7-16.686-5.7-18.859,0-29.179,14.469-29.179,27.329,0,13.724,5.521,22.47,5.521,22.47S151.285,65.9,165.417,65.9c9.447,0,15.14-3.751,19.113-8.353,1.688,4.4,9.864,6.246,13.075,9.085,6.357,5.618,8.552,10.015,8.552,10.015S216.174,56.958,204.809,42.478Z" transform="translate(-100.203 -21.281)" fill="#703e41"/>
      <path id="Trazado_1053091" data-name="Trazado 1053091" d="M106.185,256.064h-.041a3.163,3.163,0,1,1,0-6.326h.041a3.163,3.163,0,1,1,0,6.326Z" transform="translate(-71.805 -174.12)"/>
      <path id="Trazado_1053092" data-name="Trazado 1053092" d="M51.556,256.064H42.531a3.163,3.163,0,1,1,0-6.326h9.025a3.163,3.163,0,1,1,0,6.326Z" transform="translate(-27.45 -174.12)"/>
      <path id="Trazado_1053093" data-name="Trazado 1053093" d="M68.081,317.01H42.531a3.163,3.163,0,0,1,0-6.326h25.55a3.163,3.163,0,0,1,0,6.326Z" transform="translate(-27.45 -216.616)"/>
      <path id="Trazado_1053094" data-name="Trazado 1053094" d="M106.185,286.536h-.041a3.163,3.163,0,0,1,0-6.326h.041a3.163,3.163,0,0,1,0,6.326Z" transform="translate(-71.805 -195.368)"/>
      <path id="Trazado_1053095" data-name="Trazado 1053095" d="M51.556,286.537H42.531a3.163,3.163,0,1,1,0-6.326h9.025a3.163,3.163,0,1,1,0,6.326Z" transform="translate(-27.45 -195.368)"/>
      <path id="Trazado_1053096" data-name="Trazado 1053096" d="M136.857,286.537h-.3a3.163,3.163,0,1,1,0-6.326h.3a3.163,3.163,0,1,1,0,6.326Z" transform="translate(-93.015 -195.368)"/>
      <path id="Trazado_1053097" data-name="Trazado 1053097" d="M3.2,497.411H3.163a3.163,3.163,0,0,1,0-6.326H3.2a3.163,3.163,0,0,1,0,6.326Z" transform="translate(0 -342.403)"/>
      <path id="Trazado_1053098" data-name="Trazado 1053098" d="M494.12,497.411h-.041a3.163,3.163,0,0,1,0-6.326h.041a3.163,3.163,0,0,1,0,6.326Z" transform="translate(-342.299 -342.403)"/>
      <path id="Trazado_1053099" data-name="Trazado 1053099" d="M285.934,219.2a3.535,3.535,0,1,1,3.536-3.535A3.539,3.539,0,0,1,285.934,219.2Z" transform="translate(-196.906 -147.894)"/>
      <path id="Trazado_1053100" data-name="Trazado 1053100" d="M209.729,219.2a3.535,3.535,0,1,1,3.536-3.535A3.54,3.54,0,0,1,209.729,219.2Z" transform="translate(-143.771 -147.894)"/>
      <path id="Trazado_1053101" data-name="Trazado 1053101" d="M241.614,270.767a6.261,6.261,0,0,1-6.254-6.254,3.163,3.163,0,0,1,3.163-3.163H244.7a3.163,3.163,0,0,1,3.163,3.163A6.26,6.26,0,0,1,241.614,270.767Z" transform="translate(-164.108 -182.217)"/>
      <path id="Trazado_1053102" data-name="Trazado 1053102" d="M199.274,431.825a3.153,3.153,0,0,1-2.237-.926l-7.1-7.1a3.164,3.164,0,0,1,0-4.474l7.1-7.1a3.163,3.163,0,1,1,4.473,4.474l-4.867,4.867,4.867,4.867a3.163,3.163,0,0,1-2.237,5.4Z" transform="translate(-131.788 -286.766)"/>
      <path id="Trazado_1053103" data-name="Trazado 1053103" d="M281.445,431.824a3.163,3.163,0,0,1-2.237-5.4l4.867-4.867-4.867-4.867a3.163,3.163,0,0,1,4.474-4.474l7.1,7.1a3.164,3.164,0,0,1,0,4.473l-7.1,7.1A3.153,3.153,0,0,1,281.445,431.824Z" transform="translate(-194.036 -286.765)"/>
      <path id="Trazado_1053104" data-name="Trazado 1053104" d="M244.536,431.658a3.2,3.2,0,0,1-.576-.053,3.163,3.163,0,0,1-2.538-3.683l2.628-14.28a3.163,3.163,0,0,1,6.221,1.145l-2.628,14.28A3.165,3.165,0,0,1,244.536,431.658Z" transform="translate(-168.298 -286.599)"/>
      <path id="Trazado_1053105" data-name="Trazado 1053105" d="M59.728,89.735a9.552,9.552,0,0,1-9.542-9.542v-6.22a9.542,9.542,0,1,1,19.083,0v6.221A9.552,9.552,0,0,1,59.728,89.735Zm0-18.978a3.219,3.219,0,0,0-3.216,3.216v6.221a3.216,3.216,0,0,0,6.431,0v-6.22A3.22,3.22,0,0,0,59.728,70.758Z" transform="translate(-34.993 -44.913)"/>
      <path id="Trazado_1053106" data-name="Trazado 1053106" d="M9.64,89.736a3.163,3.163,0,0,1-3.163-3.163V75.231L5.45,76.259A3.163,3.163,0,0,1,.976,71.785L7.4,65.359A3.163,3.163,0,0,1,12.8,67.6V86.573A3.163,3.163,0,0,1,9.64,89.736Z" transform="translate(-0.035 -44.913)"/>
      <path id="Trazado_1053107" data-name="Trazado 1053107" d="M408.878,25.322a9.552,9.552,0,0,1-9.542-9.542V9.561a9.542,9.542,0,0,1,19.083,0v6.221A9.552,9.552,0,0,1,408.878,25.322Zm0-18.978a3.219,3.219,0,0,0-3.216,3.216v6.221a3.216,3.216,0,0,0,6.431,0V9.561A3.219,3.219,0,0,0,408.878,6.345Z" transform="translate(-278.443)"/>
      <path id="Trazado_1053108" data-name="Trazado 1053108" d="M479.464,25.322A3.163,3.163,0,0,1,476.3,22.16V10.818l-1.027,1.028A3.163,3.163,0,1,1,470.8,7.372L477.227.945a3.163,3.163,0,0,1,5.4,2.237V22.16A3.162,3.162,0,0,1,479.464,25.322Z" transform="translate(-327.627 0)"/>
      <path id="Trazado_1053109" data-name="Trazado 1053109" d="M427.62,219.838H408.409A7.167,7.167,0,0,0,401.251,227v36.4a7.167,7.167,0,0,0,7.158,7.159H427.62a7.167,7.167,0,0,0,7.158-7.159V227A7.167,7.167,0,0,0,427.62,219.838Zm-20.043,14.113h20.875v21.416H407.577Zm0-6.954a.834.834,0,0,1,.833-.833H427.62a.834.834,0,0,1,.833.833v.628H407.578V227Zm20.875,36.4a.834.834,0,0,1-.833.833H408.409a.834.834,0,0,1-.833-.833v-1.7h20.875v1.7Z" transform="translate(-279.779 -153.272)"/>
      <path id="Trazado_1053110" data-name="Trazado 1053110" d="M141.583,162.676H124.035V141.29c0-6.165-3.721-12.021-9.048-14.241l-20.356-8.481a1.929,1.929,0,0,1-1.168-1.488c0-.015,0-.03,0-.045a1.9,1.9,0,0,1-.019-.254v-4.925l8.268-4.741c.058-.033.114-.068.17-.1A17.081,17.081,0,0,0,109.149,94c.006-.08.009-.161.009-.241V91.137a10.249,10.249,0,0,0,0-19.5V70.07c1.8-3.927,9.3-22.4-2.027-36.831-5.233-6.668-11.509-9.5-17.161-7.88-4.781-3.543-10.444-5.269-17.248-5.269-20.244,0-32.342,15.5-32.342,30.492a51.085,51.085,0,0,0,4.567,21.425,10.3,10.3,0,0,0-5.489,5.83H7.3A7.354,7.354,0,0,0,.051,85.278V133.8a3.163,3.163,0,0,0,3.163,3.163H21.045v6.421H18.712a3.163,3.163,0,1,0,0,6.326H31.021v12.968H13.473a3.163,3.163,0,0,0,0,6.326h128.11a3.163,3.163,0,1,0,0-6.325ZM109.916,81.389a3.926,3.926,0,0,1-3.922,3.922,3.163,3.163,0,0,0-3.163,3.163v5.162a10.886,10.886,0,0,1-4.365,8.045l-16.982,9.737c-.058.033-.114.068-.17.1a6.692,6.692,0,0,1-7.574,0c-.057-.038-.114-.073-.173-.107l-17.031-9.736a10.721,10.721,0,0,1-4.312-8.043V88.473a3.163,3.163,0,0,0-3.163-3.163,3.919,3.919,0,0,1-.641-7.786l3.5,1.771a13.12,13.12,0,0,0,25.6,5.753,13.12,13.12,0,0,0,25.61-5.714l3.513-1.808A3.925,3.925,0,0,1,109.916,81.389Zm-22.8,34.094v5.78a9.586,9.586,0,1,1-19.171,0v-5.776l2.4,1.374a13.007,13.007,0,0,0,14.366,0Zm3.2-46.47A13.143,13.143,0,0,0,77.523,79.219a13.111,13.111,0,0,0-22.778-5.585l-2.33-1.179c.731-2.9,3.558-10.676,12.835-10.676,7.575,0,13.764-2.2,18.81-6.7a30.187,30.187,0,0,0,6.908,4.158,23.1,23.1,0,0,1,4.375,2.479,39.539,39.539,0,0,1,7.488,8.493v2.163l-2.5,1.29A13.094,13.094,0,0,0,90.315,69.012Zm6.8,13.122a6.8,6.8,0,1,1-6.8-6.8A6.8,6.8,0,0,1,97.112,82.134Zm-25.584,0a6.8,6.8,0,1,1-6.8-6.8A6.8,6.8,0,0,1,71.528,82.134Zm1.193-55.717c7.932,0,12.148,2.82,14.63,4.941a3.164,3.164,0,0,0,3.439.44c3.247-1.581,7.5.418,11.364,5.347h0c6.644,8.465,4.912,19.264,3,25.564a53.692,53.692,0,0,0-5.62-5.73,26.043,26.043,0,0,0-5.795-3.427c-2.59-1.261-5.812-2.831-6.423-4.421a3.163,3.163,0,0,0-5.347-.933c-4.274,4.951-9.586,7.257-16.718,7.257a18.118,18.118,0,0,0-16.067,8.691c-.111.176-.218.351-.322.526A46.4,46.4,0,0,1,46.7,50.583C46.7,38.7,56.435,26.416,72.721,26.416ZM31.02,141.29v2.092H27.371v-6.421h4.262A15.806,15.806,0,0,0,31.02,141.29ZM35.1,130.636H6.377V85.278a1.046,1.046,0,0,1,.92-1.115H39.2A10.288,10.288,0,0,0,45.9,91.137v2.626c0,.08,0,.161.009.241a17.061,17.061,0,0,0,7.221,13.006q.085.056.173.107l8.315,4.754v4.91a1.932,1.932,0,0,1-1.192,1.787l-20.356,8.482A13.87,13.87,0,0,0,35.1,130.636Zm82.606,32.04H37.346V141.29c0-3.565,2.216-7.177,5.155-8.4l19.462-8.109a15.951,15.951,0,0,0,31.119,0l19.47,8.113c2.939,1.225,5.155,4.837,5.155,8.4v21.386Z" transform="translate(-0.036 -13.995)"/>
    </g>
  </g>
</svg>
