<svg xmlns="http://www.w3.org/2000/svg" xmlns:xlink="http://www.w3.org/1999/xlink" width="113" height="113" viewBox="0 0 113 113">
  <defs>
    <filter id="Trazado_982547" x="0" y="0" width="113" height="113" filterUnits="userSpaceOnUse">
      <feOffset dy="3" input="SourceAlpha"/>
      <feGaussianBlur stdDeviation="3" result="blur"/>
      <feFlood flood-opacity="0.161"/>
      <feComposite operator="in" in2="blur"/>
      <feComposite in="SourceGraphic"/>
    </filter>
  </defs>
  <g id="Grupo_1226129" data-name="Grupo 1226129" transform="translate(-355.49 -4934.487)">
    <g id="Grupo_1225522" data-name="Grupo 1225522" transform="translate(0 3320.352)">
      <g id="Grupo_1224582" data-name="Grupo 1224582" transform="translate(0 -5449.616)">
        <g id="Grupo_1224449" data-name="Grupo 1224449" transform="translate(364.49 7069.751)">
          <g id="Grupo_1224084" data-name="Grupo 1224084" transform="translate(0 0)">
            <g id="Grupo_1223183" data-name="Grupo 1223183">
              <g id="Grupo_1211217" data-name="Grupo 1211217">
                <g id="Grupo_1210736" data-name="Grupo 1210736">
                  <g id="Grupo_1210537" data-name="Grupo 1210537">
                    <g id="Grupo_1164202" data-name="Grupo 1164202">
                      <g id="Grupo_1158168" data-name="Grupo 1158168">
                        <g id="Grupo_1152576" data-name="Grupo 1152576">
                          <g id="Grupo_1148633" data-name="Grupo 1148633">
                            <g id="Grupo_1148525" data-name="Grupo 1148525">
                              <g transform="matrix(1, 0, 0, 1, -9, -6)" filter="url(#Trazado_982547)">
                                <g id="Trazado_982547-2" data-name="Trazado 982547" transform="translate(9 6)" fill="#fef9e5">
                                  <path d="M 47.49999618530273 93.5 C 41.28936767578125 93.5 35.26533126831055 92.28396606445312 29.59518241882324 89.88570404052734 C 24.11771583557129 87.56893157958984 19.19812965393066 84.251953125 14.97308921813965 80.02690124511719 C 10.74803638458252 75.80186462402344 7.431062698364258 70.88227844238281 5.114289283752441 65.40480804443359 C 2.716022968292236 59.73466110229492 1.499996185302734 53.71062469482422 1.499996185302734 47.49999618530273 C 1.499996185302734 41.28936767578125 2.716022968292236 35.26533126831055 5.114289283752441 29.59518241882324 C 7.431062698364258 24.11771583557129 10.74803638458252 19.19812965393066 14.97308921813965 14.97308921813965 C 19.19812965393066 10.74803638458252 24.11771583557129 7.431062698364258 29.59518241882324 5.114289283752441 C 35.26533126831055 2.716022968292236 41.28936767578125 1.499996185302734 47.49999618530273 1.499996185302734 C 53.71062469482422 1.499996185302734 59.73466110229492 2.716022968292236 65.40480804443359 5.114289283752441 C 70.88227844238281 7.431062698364258 75.80186462402344 10.74803638458252 80.02690124511719 14.97308921813965 C 84.251953125 19.19812965393066 87.56893157958984 24.11771583557129 89.88570404052734 29.59518241882324 C 92.28396606445312 35.26533126831055 93.5 41.28936767578125 93.5 47.49999618530273 C 93.5 53.71062469482422 92.28396606445312 59.73466110229492 89.88570404052734 65.40480804443359 C 87.56893157958984 70.88227844238281 84.251953125 75.80186462402344 80.02690124511719 80.02690124511719 C 75.80186462402344 84.251953125 70.88227844238281 87.56893157958984 65.40480804443359 89.88570404052734 C 59.73466110229492 92.28396606445312 53.71062469482422 93.5 47.49999618530273 93.5 Z" stroke="none"/>
                                  <path d="M 47.49999618530273 2.999992370605469 C 41.4912109375 2.999992370605469 35.66376495361328 4.1761474609375 30.17950439453125 6.495796203613281 C 24.88084411621094 8.736953735351562 20.12152099609375 11.94598388671875 16.03375244140625 16.03375244140625 C 11.94598388671875 20.12152099609375 8.736953735351562 24.88084411621094 6.495796203613281 30.17950439453125 C 4.1761474609375 35.66376495361328 2.999992370605469 41.4912109375 2.999992370605469 47.49999618530273 C 2.999992370605469 53.50878143310547 4.1761474609375 59.33622741699219 6.495796203613281 64.82048797607422 C 8.736953735351562 70.11914825439453 11.94598388671875 74.87847137451172 16.03375244140625 78.96623992919922 C 20.12152099609375 83.05400848388672 24.88084411621094 86.26304626464844 30.17950439453125 88.50419616699219 C 35.66376495361328 90.82384490966797 41.4912109375 92 47.49999618530273 92 C 53.50878143310547 92 59.33622741699219 90.82384490966797 64.82048797607422 88.50419616699219 C 70.11914825439453 86.26304626464844 74.87847137451172 83.05400848388672 78.96623992919922 78.96623992919922 C 83.05400848388672 74.87847137451172 86.26304626464844 70.11914825439453 88.50419616699219 64.82048797607422 C 90.82384490966797 59.33622741699219 92 53.50878143310547 92 47.49999618530273 C 92 41.4912109375 90.82384490966797 35.66376495361328 88.50419616699219 30.17950439453125 C 86.26304626464844 24.88084411621094 83.05400848388672 20.12152099609375 78.96623992919922 16.03375244140625 C 74.87847137451172 11.94598388671875 70.11914825439453 8.736953735351562 64.82048797607422 6.495796203613281 C 59.33622741699219 4.1761474609375 53.50878143310547 2.999992370605469 47.49999618530273 2.999992370605469 M 47.49999618530273 -7.62939453125e-06 C 73.7335205078125 -7.62939453125e-06 95 21.26647186279297 95 47.49999618530273 C 95 73.7335205078125 73.7335205078125 95 47.49999618530273 95 C 21.26647186279297 95 -7.62939453125e-06 73.7335205078125 -7.62939453125e-06 47.49999618530273 C -7.62939453125e-06 21.26647186279297 21.26647186279297 -7.62939453125e-06 47.49999618530273 -7.62939453125e-06 Z" stroke="none" fill="#f6c810"/>
                                </g>
                              </g>
                            </g>
                          </g>
                        </g>
                      </g>
                    </g>
                  </g>
                </g>
              </g>
            </g>
          </g>
        </g>
      </g>
    </g>
    <g id="project-management_16135288" transform="translate(382.456 4955.98)">
      <g id="Grupo_1226128" data-name="Grupo 1226128" transform="translate(1.898 7.202)">
        <g id="Grupo_1226125" data-name="Grupo 1226125" transform="translate(0 0)">
          <path id="Trazado_1054530" data-name="Trazado 1054530" d="M140.016,316.15l3.511.84-6.746,19.377h-3.8Zm13.765-.518-3.657.42,7.072,20.315H161Z" transform="translate(-118.861 -281.316)" fill="#da8c36" fill-rule="evenodd"/>
          <path id="Trazado_1054531" data-name="Trazado 1054531" d="M160.61,316.15l3.511.84-6.746,19.377h-1.157l6.746-19.377-2.443-.584Zm13.765-.518-1.112.128,7.174,20.607h1.157Z" transform="translate(-139.455 -281.316)" fill="#c97629" fill-rule="evenodd"/>
          <path id="Trazado_1054532" data-name="Trazado 1054532" d="M76.17,49.716v-33.6a1.826,1.826,0,0,0-1.822-1.822h-49.4a1.826,1.826,0,0,0-1.822,1.822V48.663Z" transform="translate(-21.522 -14.293)" fill="#eff4f7" fill-rule="evenodd"/>
          <path id="Trazado_1054533" data-name="Trazado 1054533" d="M456.719,49.716v-33.6a1.826,1.826,0,0,0-1.822-1.822h-2.314a1.826,1.826,0,0,1,1.822,1.822V49.67Z" transform="translate(-402.07 -14.293)" fill="#ddd" fill-rule="evenodd"/>
          <path id="Trazado_1054534" data-name="Trazado 1054534" d="M64.8,307.96H9.49a.476.476,0,0,1-.475-.475v-2.511a.476.476,0,0,1,.475-.475H64.8a.476.476,0,0,1,.475.475v2.511A.477.477,0,0,1,64.8,307.96Z" transform="translate(-9.015 -271.451)" fill="#8d9ca8" fill-rule="evenodd"/>
          <path id="Trazado_1054535" data-name="Trazado 1054535" d="M64.8,307.961H9.49a.476.476,0,0,1-.475-.475V306.8H63.639a.476.476,0,0,0,.475-.475V304.5H64.8a.476.476,0,0,1,.475.475v2.511a.476.476,0,0,1-.475.475Z" transform="translate(-9.015 -271.452)" fill="#7a8c98" fill-rule="evenodd"/>
        </g>
        <g id="Grupo_1226126" data-name="Grupo 1226126" transform="translate(7.202 5.12)">
          <path id="Trazado_1054536" data-name="Trazado 1054536" d="M81.757,59.257h3.806v1.91A9.628,9.628,0,0,1,89.027,62.6l1.351-1.351,2.691,2.691-1.351,1.351a9.628,9.628,0,0,1,1.436,3.464h1.91v3.806h-1.91a9.627,9.627,0,0,1-1.436,3.464l1.351,1.351L90.378,80.07l-1.351-1.351a9.628,9.628,0,0,1-3.464,1.436v1.91H81.757v-1.91a9.627,9.627,0,0,1-3.464-1.436L76.942,80.07,74.25,77.379,75.6,76.028a9.629,9.629,0,0,1-1.436-3.464h-1.91V68.758h1.91A9.629,9.629,0,0,1,75.6,65.294L74.25,63.943l2.691-2.691L78.293,62.6a9.626,9.626,0,0,1,3.464-1.436v-1.91Z" transform="translate(-72.256 -59.257)" fill="#ffda2d" fill-rule="evenodd"/>
          <path id="Trazado_1054537" data-name="Trazado 1054537" d="M177.751,61.165a9.644,9.644,0,0,1,4.209,1.985l.548-.548a9.626,9.626,0,0,0-3.464-1.436v-1.91h-1.293Zm6.156,4.127a9.626,9.626,0,0,1,1.436,3.465h1.292a9.628,9.628,0,0,0-1.436-3.464l1.351-1.351-2.691-2.691-.676.676,2.074,2.016Zm1.436,7.271a9.63,9.63,0,0,1-1.436,3.465l1.35,1.35-2.045,2.045.647.647,2.691-2.691L185.2,76.028a9.629,9.629,0,0,0,1.436-3.464h-1.292Zm-3.384,5.607a9.644,9.644,0,0,1-4.209,1.985v1.909h1.293v-1.91a9.629,9.629,0,0,0,3.464-1.436Zm5.292-5.607h1.293V68.758h-1.293Z" transform="translate(-165.737 -59.257)" fill="#ffc700" fill-rule="evenodd"/>
          <circle id="Elipse_13335" data-name="Elipse 13335" cx="5.91" cy="5.91" r="5.91" transform="translate(5.291 17.117) rotate(-88.108)" fill="#eff4f7"/>
          <path id="Trazado_1054538" data-name="Trazado 1054538" d="M126.407,107.5a5.887,5.887,0,0,1,3.835,1.414,5.911,5.911,0,0,0-6.629,9.706,5.911,5.911,0,0,1,2.794-11.12Z" transform="translate(-115.003 -102.004)" fill="#e2e3e3" fill-rule="evenodd"/>
        </g>
        <g id="Grupo_1226127" data-name="Grupo 1226127" transform="translate(42.449 3.078)">
          <path id="Trazado_1054539" data-name="Trazado 1054539" d="M382.275,61.606h5.6a.5.5,0,0,1,.5.5v5.6a.5.5,0,0,1-.5.5h-5.6a.5.5,0,0,1-.5-.5v-5.6a.5.5,0,0,1,.5-.5Zm0-20.288h5.6a.5.5,0,0,1,.5.5v5.6a.5.5,0,0,1-.5.5h-5.6a.5.5,0,0,1-.5-.5v-5.6A.5.5,0,0,1,382.275,41.318Zm0,10.144h5.6a.5.5,0,0,1,.5.5v5.6a.5.5,0,0,1-.5.5h-5.6a.5.5,0,0,1-.5-.5v-5.6A.5.5,0,0,1,382.275,51.462Z" transform="translate(-381.773 -41.318)" fill="#64b5f6" fill-rule="evenodd"/>
          <path id="Trazado_1054540" data-name="Trazado 1054540" d="M387.238,61.606h.637a.5.5,0,0,1,.5.5v5.6a.5.5,0,0,1-.5.5h-5.6a.5.5,0,0,1-.5-.5v-.637h4.964a.5.5,0,0,0,.5-.5V61.606Zm0-20.288h.637a.5.5,0,0,1,.5.5v5.6a.5.5,0,0,1-.5.5h-5.6a.5.5,0,0,1-.5-.5v-.637h4.964a.5.5,0,0,0,.5-.5V41.318Zm0,10.144h.637a.5.5,0,0,1,.5.5v5.6a.5.5,0,0,1-.5.5h-5.6a.5.5,0,0,1-.5-.5v-.637h4.964a.5.5,0,0,0,.5-.5V51.462Z" transform="translate(-381.772 -41.318)" fill="#42a5f5" fill-rule="evenodd"/>
        </g>
      </g>
      <path id="Trazado_1054541" data-name="Trazado 1054541" d="M39.036,14.493v8.322h2.455a.911.911,0,1,1,0,1.822H39.036v8.321h2.455a.911.911,0,1,1,0,1.822H38.123a.91.91,0,0,1-.908-.911V24.638H34.761a.911.911,0,1,1,0-1.822h2.455V13.582a.91.91,0,0,1,.908-.911h3.368a.911.911,0,1,1,0,1.822Zm11.005,1.481H45.256V11.191h4.786Zm.408-6.605h-5.6a1.414,1.414,0,0,0-1.413,1.414v5.6A1.415,1.415,0,0,0,44.848,17.8h5.6a1.415,1.415,0,0,0,1.413-1.413v-5.6A1.414,1.414,0,0,0,50.45,9.369Zm-4.684,4.8.892.87a.912.912,0,0,0,1.284-.012l1.6-1.616a.911.911,0,1,0-1.294-1.282l-.967.973-.242-.239a.912.912,0,0,0-1.273,1.305Zm4.275,11.946H45.256V21.335h4.786Zm.408-6.6h-5.6a1.413,1.413,0,0,0-1.413,1.412v5.6a1.414,1.414,0,0,0,1.413,1.413h5.6a1.414,1.414,0,0,0,1.413-1.413v-5.6a1.413,1.413,0,0,0-1.413-1.412Zm-4.684,4.8.892.87a.912.912,0,0,0,1.284-.011l1.6-1.616a.911.911,0,1,0-1.294-1.282l-.967.974-.242-.24a.912.912,0,0,0-1.273,1.305Zm4.275,11.945H45.256V31.478h4.786Zm.408-6.6h-5.6a1.415,1.415,0,0,0-1.413,1.413v5.6a1.414,1.414,0,0,0,1.413,1.412h5.6a1.414,1.414,0,0,0,1.413-1.412v-5.6a1.415,1.415,0,0,0-1.413-1.413Zm-4.684,4.8.892.871a.912.912,0,0,0,1.284-.011l1.6-1.616a.911.911,0,1,0-1.294-1.282l-.967.974-.242-.24a.911.911,0,1,0-1.273,1.3ZM20.5,28.537a4.811,4.811,0,1,1,4.812-4.81A4.817,4.817,0,0,1,20.5,28.537Zm0-11.444a6.633,6.633,0,1,0,6.633,6.634A6.641,6.641,0,0,0,20.5,17.093ZM31,24.718V22.735H30A.906.906,0,0,1,29.106,22,8.7,8.7,0,0,0,27.8,18.865a.906.906,0,0,1,.118-1.15l.7-.707-1.4-1.4-.709.706a.91.91,0,0,1-1.149.114,8.645,8.645,0,0,0-3.137-1.3.91.91,0,0,1-.731-.893v-1H19.507v1a.91.91,0,0,1-.73.893,8.687,8.687,0,0,0-3.137,1.3.91.91,0,0,1-1.149-.114l-.709-.706-1.4,1.4.709.707a.911.911,0,0,1,.113,1.15A8.7,8.7,0,0,0,11.9,22a.916.916,0,0,1-.9.734h-.994v1.984H11a.915.915,0,0,1,.9.733,8.688,8.688,0,0,0,1.3,3.137.911.911,0,0,1-.113,1.149l-.709.707,1.4,1.4.709-.707a.91.91,0,0,1,1.149-.114,8.7,8.7,0,0,0,3.137,1.3.911.911,0,0,1,.73.894v1h1.987v-1a.911.911,0,0,1,.731-.894,8.654,8.654,0,0,0,3.137-1.3.91.91,0,0,1,1.149.114l.709.707,1.4-1.4-.7-.707a.913.913,0,0,1-.118-1.151,8.7,8.7,0,0,0,1.305-3.136A.9.9,0,0,1,30,24.718Zm.908-3.806H30.717a10.419,10.419,0,0,0-1-2.419l.843-.842a.913.913,0,0,0,0-1.288l-2.691-2.691a.91.91,0,0,0-1.289,0l-.843.842a10.419,10.419,0,0,0-2.417-1V12.323a.911.911,0,0,0-.913-.911H18.6a.912.912,0,0,0-.913.911v1.189a10.518,10.518,0,0,0-2.417,1l-.843-.842a.9.9,0,0,0-1.284,0l-2.7,2.691a.919.919,0,0,0,0,1.288l.843.842a10.662,10.662,0,0,0-1,2.419H9.1a.912.912,0,0,0-.913.911v3.805a.912.912,0,0,0,.913.911h1.187a10.649,10.649,0,0,0,1,2.418l-.843.842a.914.914,0,0,0,0,1.289l2.7,2.691a.891.891,0,0,0,.639.266.9.9,0,0,0,.645-.266l.843-.842a10.513,10.513,0,0,0,2.417,1V35.13a.912.912,0,0,0,.913.911h3.8a.912.912,0,0,0,.913-.911V33.94a10.411,10.411,0,0,0,2.417-1l.843.842a.912.912,0,0,0,1.289,0l2.691-2.691a.914.914,0,0,0,0-1.289l-.843-.842a10.44,10.44,0,0,0,1-2.418H31.9a.912.912,0,0,0,.913-.911V21.824a.912.912,0,0,0-.913-.911ZM57.239,42.8H2.809V41.162h54.43ZM39.81,52.878H37.935l-2.879-8.256h1.874Zm2.943,8.463H40.879L38.569,54.7h1.874ZM24.046,52.878H36l-2.873-8.256H26.92Zm-4.877,8.463H17.295L19.61,54.7h1.869Zm3.948-16.719h1.874l-2.873,8.256H20.243Zm-18.7-35.6V39.339H55.633V9.024a.911.911,0,0,0-.908-.911H5.328A.912.912,0,0,0,4.415,9.024ZM57.7,39.339h-.236V9.024a2.739,2.739,0,0,0-2.734-2.733H5.328A2.735,2.735,0,0,0,2.594,9.024V39.339H2.353a1.372,1.372,0,0,0-1.37,1.366v2.55a1.371,1.371,0,0,0,1.37,1.366H21.189l-2.873,8.256H15.759a.911.911,0,0,0,0,1.822h1.917l-2.524,7.253a.909.909,0,0,0,.118.827.918.918,0,0,0,.741.384h3.808a.913.913,0,0,0,.859-.612L23.412,54.7H36.636l2.739,7.852a.908.908,0,0,0,.859.612h3.8a.912.912,0,0,0,.859-1.211L42.372,54.7h1.917a.911.911,0,1,0,0-1.822H41.738l-2.873-8.256H57.7a1.368,1.368,0,0,0,1.37-1.366v-2.55a1.368,1.368,0,0,0-1.37-1.366Z" transform="translate(0 0)" fill-rule="evenodd"/>
    </g>
  </g>
</svg>
