<svg xmlns="http://www.w3.org/2000/svg" xmlns:xlink="http://www.w3.org/1999/xlink" width="113" height="113" viewBox="0 0 113 113">
  <defs>
    <filter id="Trazado_982547" x="0" y="0" width="113" height="113" filterUnits="userSpaceOnUse">
      <feOffset dy="3" input="SourceAlpha"/>
      <feGaussianBlur stdDeviation="3" result="blur"/>
      <feFlood flood-opacity="0.161"/>
      <feComposite operator="in" in2="blur"/>
      <feComposite in="SourceGraphic"/>
    </filter>
  </defs>
  <g id="Grupo_1226132" data-name="Grupo 1226132" transform="translate(-674 -4934.487)">
    <g id="Grupo_1225521" data-name="Grupo 1225521" transform="translate(0 3320.352)">
      <g id="Grupo_1224583" data-name="Grupo 1224583" transform="translate(0 -5449.616)">
        <g id="Grupo_1224450" data-name="Grupo 1224450" transform="translate(683 7069.751)">
          <g id="Grupo_1224085" data-name="Grupo 1224085" transform="translate(0 0)">
            <g id="Grupo_1223184" data-name="Grupo 1223184">
              <g id="Grupo_1211216" data-name="Grupo 1211216">
                <g id="Grupo_1210737" data-name="Grupo 1210737">
                  <g id="Grupo_1210537" data-name="Grupo 1210537">
                    <g id="Grupo_1164202" data-name="Grupo 1164202">
                      <g id="Grupo_1158168" data-name="Grupo 1158168">
                        <g id="Grupo_1152576" data-name="Grupo 1152576">
                          <g id="Grupo_1148633" data-name="Grupo 1148633">
                            <g id="Grupo_1148525" data-name="Grupo 1148525">
                              <g transform="matrix(1, 0, 0, 1, -9, -6)" filter="url(#Trazado_982547)">
                                <g id="Trazado_982547-2" data-name="Trazado 982547" transform="translate(9 6)" fill="#fef9e5">
                                  <path d="M 47.49999618530273 93.5 C 41.28936767578125 93.5 35.26533126831055 92.28396606445312 29.59518241882324 89.88570404052734 C 24.11771583557129 87.56893157958984 19.19812965393066 84.251953125 14.97308921813965 80.02690124511719 C 10.74803638458252 75.80186462402344 7.431062698364258 70.88227844238281 5.114289283752441 65.40480804443359 C 2.716022968292236 59.73466110229492 1.499996185302734 53.71062469482422 1.499996185302734 47.49999618530273 C 1.499996185302734 41.28936767578125 2.716022968292236 35.26533126831055 5.114289283752441 29.59518241882324 C 7.431062698364258 24.11771583557129 10.74803638458252 19.19812965393066 14.97308921813965 14.97308921813965 C 19.19812965393066 10.74803638458252 24.11771583557129 7.431062698364258 29.59518241882324 5.114289283752441 C 35.26533126831055 2.716022968292236 41.28936767578125 1.499996185302734 47.49999618530273 1.499996185302734 C 53.71062469482422 1.499996185302734 59.73466110229492 2.716022968292236 65.40480804443359 5.114289283752441 C 70.88227844238281 7.431062698364258 75.80186462402344 10.74803638458252 80.02690124511719 14.97308921813965 C 84.251953125 19.19812965393066 87.56893157958984 24.11771583557129 89.88570404052734 29.59518241882324 C 92.28396606445312 35.26533126831055 93.5 41.28936767578125 93.5 47.49999618530273 C 93.5 53.71062469482422 92.28396606445312 59.73466110229492 89.88570404052734 65.40480804443359 C 87.56893157958984 70.88227844238281 84.251953125 75.80186462402344 80.02690124511719 80.02690124511719 C 75.80186462402344 84.251953125 70.88227844238281 87.56893157958984 65.40480804443359 89.88570404052734 C 59.73466110229492 92.28396606445312 53.71062469482422 93.5 47.49999618530273 93.5 Z" stroke="none"/>
                                  <path d="M 47.49999618530273 2.999992370605469 C 41.4912109375 2.999992370605469 35.66376495361328 4.1761474609375 30.17950439453125 6.495796203613281 C 24.88084411621094 8.736953735351562 20.12152099609375 11.94598388671875 16.03375244140625 16.03375244140625 C 11.94598388671875 20.12152099609375 8.736953735351562 24.88084411621094 6.495796203613281 30.17950439453125 C 4.1761474609375 35.66376495361328 2.999992370605469 41.4912109375 2.999992370605469 47.49999618530273 C 2.999992370605469 53.50878143310547 4.1761474609375 59.33622741699219 6.495796203613281 64.82048797607422 C 8.736953735351562 70.11914825439453 11.94598388671875 74.87847137451172 16.03375244140625 78.96623992919922 C 20.12152099609375 83.05400848388672 24.88084411621094 86.26304626464844 30.17950439453125 88.50419616699219 C 35.66376495361328 90.82384490966797 41.4912109375 92 47.49999618530273 92 C 53.50878143310547 92 59.33622741699219 90.82384490966797 64.82048797607422 88.50419616699219 C 70.11914825439453 86.26304626464844 74.87847137451172 83.05400848388672 78.96623992919922 78.96623992919922 C 83.05400848388672 74.87847137451172 86.26304626464844 70.11914825439453 88.50419616699219 64.82048797607422 C 90.82384490966797 59.33622741699219 92 53.50878143310547 92 47.49999618530273 C 92 41.4912109375 90.82384490966797 35.66376495361328 88.50419616699219 30.17950439453125 C 86.26304626464844 24.88084411621094 83.05400848388672 20.12152099609375 78.96623992919922 16.03375244140625 C 74.87847137451172 11.94598388671875 70.11914825439453 8.736953735351562 64.82048797607422 6.495796203613281 C 59.33622741699219 4.1761474609375 53.50878143310547 2.999992370605469 47.49999618530273 2.999992370605469 M 47.49999618530273 -7.62939453125e-06 C 73.7335205078125 -7.62939453125e-06 95 21.26647186279297 95 47.49999618530273 C 95 73.7335205078125 73.7335205078125 95 47.49999618530273 95 C 21.26647186279297 95 -7.62939453125e-06 73.7335205078125 -7.62939453125e-06 47.49999618530273 C -7.62939453125e-06 21.26647186279297 21.26647186279297 -7.62939453125e-06 47.49999618530273 -7.62939453125e-06 Z" stroke="none" fill="#f6c810"/>
                                </g>
                              </g>
                            </g>
                          </g>
                        </g>
                      </g>
                    </g>
                  </g>
                </g>
              </g>
            </g>
          </g>
        </g>
      </g>
    </g>
    <g id="setting_15576087" transform="translate(697.248 4954.628)">
      <g id="Color" transform="translate(2.595 4.589)">
        <path id="Trazado_1054542" data-name="Trazado 1054542" d="M63.314,24a8.747,8.747,0,0,1-8.759,8.759h-43.8A8.757,8.757,0,0,1,2,24H28.277a4.38,4.38,0,0,0,8.759,0Z" transform="translate(-2 19.801)" fill="#43b3ff"/>
        <path id="Trazado_1054543" data-name="Trazado 1054543" d="M22.759,24a4.366,4.366,0,0,1-7.467,3.088A4.281,4.281,0,0,1,14,24Z" transform="translate(12.277 19.801)" fill="#f45151"/>
        <path id="Trazado_1054544" data-name="Trazado 1054544" d="M59.935,8V43.037H3V8H22.423c0,.022-.022.066-.022.088l-1.774.5a11.17,11.17,0,0,0,0,3.2l1.774.5a9.625,9.625,0,0,0,1.161,2.825l-.9,1.62a10.39,10.39,0,0,0,2.256,2.234l1.62-.876a9.626,9.626,0,0,0,2.825,1.161l.5,1.774a11.179,11.179,0,0,0,3.2,0l.5-1.774a9.626,9.626,0,0,0,2.825-1.161l1.62.876a10.39,10.39,0,0,0,2.256-2.234l-.9-1.62a9.625,9.625,0,0,0,1.161-2.825l1.774-.5a11.17,11.17,0,0,0,0-3.2l-1.774-.5c0-.022-.022-.066-.022-.088H59.935Z" transform="translate(-0.81 0.765)" fill="#f2f2f2"/>
        <g id="Grupo_1226130" data-name="Grupo 1226130" transform="translate(19.703)">
          <path id="Trazado_1054545" data-name="Trazado 1054545" d="M32.791,13.353l-1.774-.5c0-.022-.022-.066-.022-.088a9.662,9.662,0,0,0-1.139-2.737l.9-1.62A11.009,11.009,0,0,0,28.5,6.149l-1.62.9a9.619,9.619,0,0,0-2.825-1.161l-.5-1.774a11.169,11.169,0,0,0-3.2,0l-.5,1.774a9.619,9.619,0,0,0-2.825,1.161l-1.62-.9A11.009,11.009,0,0,0,13.149,8.4l.9,1.62a9.662,9.662,0,0,0-1.139,2.737c0,.022-.022.066-.022.088l-1.774.5a11.17,11.17,0,0,0,0,3.2l1.774.5a9.625,9.625,0,0,0,1.161,2.825l-.9,1.62A10.39,10.39,0,0,0,15.4,23.733l1.62-.876a9.626,9.626,0,0,0,2.825,1.161l.5,1.774a11.179,11.179,0,0,0,3.2,0l.5-1.774a9.626,9.626,0,0,0,2.825-1.161l1.62.876A10.39,10.39,0,0,0,30.755,21.5l-.9-1.62a9.625,9.625,0,0,0,1.161-2.825l1.774-.5a11.17,11.17,0,0,0,0-3.2ZM21.952,19.332a4.373,4.373,0,1,1,4.38-4.38A4.393,4.393,0,0,1,21.952,19.332Z" transform="translate(-10.997 -3.997)" fill="#ffc943" fill-rule="evenodd"/>
          <path id="Trazado_1054546" data-name="Trazado 1054546" d="M22.759,10.19A4.38,4.38,0,1,1,14.591,8h7.577A4.367,4.367,0,0,1,22.759,10.19Z" transform="translate(-7.425 0.765)" fill="#f2f2f2" fill-rule="evenodd"/>
        </g>
      </g>
      <g id="Outline" transform="translate(1.5 3.5)">
        <g id="Grupo_1226131" data-name="Grupo 1226131">
          <path id="Trazado_1054547" data-name="Trazado 1054547" d="M63.909,42.537H62.814V8.595A1.094,1.094,0,0,0,61.719,7.5H48.58a1.095,1.095,0,0,0,0,2.19H60.624V42.537H5.88V39.252a1.095,1.095,0,0,0-2.19,0v3.285H2.595A1.094,1.094,0,0,0,1.5,43.632a9.865,9.865,0,0,0,9.854,9.854h43.8A9.865,9.865,0,0,0,65,43.632,1.094,1.094,0,0,0,63.909,42.537ZM36.35,44.726a3.286,3.286,0,0,1-6.2,0ZM55.15,51.3h-43.8a7.675,7.675,0,0,1-7.586-6.569H27.888a5.474,5.474,0,0,0,10.727,0H62.736A7.675,7.675,0,0,1,55.15,51.3Z" transform="translate(-1.5 1.259)"/>
          <path id="Trazado_1054548" data-name="Trazado 1054548" d="M16.734,7.5H3.595A1.094,1.094,0,0,0,2.5,8.595v21.9a1.095,1.095,0,0,0,2.19,0V9.69H16.734a1.095,1.095,0,1,0,0-2.19Z" transform="translate(-0.31 1.259)"/>
          <path id="Trazado_1054549" data-name="Trazado 1054549" d="M11.391,12.9a1.1,1.1,0,0,0-.779.912,13.448,13.448,0,0,0,0,3.456,1.1,1.1,0,0,0,.779.912l1.185.345a10.727,10.727,0,0,0,.8,1.953l-.589,1.085a1.094,1.094,0,0,0,.083,1.175,11.939,11.939,0,0,0,2.473,2.472,1.089,1.089,0,0,0,1.174.083l1.085-.589a10.727,10.727,0,0,0,1.953.8L19.9,26.7a1.1,1.1,0,0,0,.912.779,13.48,13.48,0,0,0,3.456,0,1.1,1.1,0,0,0,.912-.779l.345-1.185a10.727,10.727,0,0,0,1.953-.8l1.085.589a1.088,1.088,0,0,0,1.174-.083,11.938,11.938,0,0,0,2.473-2.472,1.094,1.094,0,0,0,.083-1.175l-.589-1.085a10.727,10.727,0,0,0,.8-1.953l1.185-.345a1.1,1.1,0,0,0,.779-.912,13.448,13.448,0,0,0,0-3.456A1.1,1.1,0,0,0,33.7,12.9l-1.185-.345a10.727,10.727,0,0,0-.8-1.953L32.3,9.519a1.094,1.094,0,0,0-.083-1.175,11.939,11.939,0,0,0-2.473-2.472,1.092,1.092,0,0,0-1.174-.083l-1.085.589a10.727,10.727,0,0,0-1.953-.8L25.184,4.39a1.1,1.1,0,0,0-.912-.779,13.545,13.545,0,0,0-3.456,0,1.1,1.1,0,0,0-.912.779l-.345,1.185a10.727,10.727,0,0,0-1.953.8L16.52,5.789a1.093,1.093,0,0,0-1.174.083,11.938,11.938,0,0,0-2.473,2.472,1.094,1.094,0,0,0-.083,1.175l.589,1.085a10.727,10.727,0,0,0-.8,1.953ZM12.714,14.8l1.07-.312a1.1,1.1,0,0,0,.762-.814,8.576,8.576,0,0,1,1.022-2.5,1.092,1.092,0,0,0,.021-1.081l-.53-.977A10.107,10.107,0,0,1,16.114,8.06l.978.53a1.09,1.09,0,0,0,1.081-.021,8.576,8.576,0,0,1,2.5-1.022,1.1,1.1,0,0,0,.814-.762l.312-1.07a11.555,11.555,0,0,1,1.491,0l.312,1.07a1.1,1.1,0,0,0,.814.762,8.576,8.576,0,0,1,2.5,1.022A1.092,1.092,0,0,0,28,8.59l.978-.53a10.107,10.107,0,0,1,1.053,1.054l-.53.977a1.092,1.092,0,0,0,.021,1.081,8.576,8.576,0,0,1,1.022,2.5,1.1,1.1,0,0,0,.762.814l1.07.312a11.182,11.182,0,0,1,0,1.491L31.3,16.6a1.1,1.1,0,0,0-.762.814,8.576,8.576,0,0,1-1.022,2.5A1.092,1.092,0,0,0,29.5,21l.53.977a10.107,10.107,0,0,1-1.053,1.054L28,22.5a1.1,1.1,0,0,0-1.081.021,8.576,8.576,0,0,1-2.5,1.022,1.1,1.1,0,0,0-.814.762l-.312,1.07a11.555,11.555,0,0,1-1.491,0l-.312-1.07a1.1,1.1,0,0,0-.814-.762,8.576,8.576,0,0,1-2.5-1.022,1.092,1.092,0,0,0-1.081-.021l-.978.53a10.107,10.107,0,0,1-1.053-1.054l.53-.977a1.092,1.092,0,0,0-.021-1.081,8.576,8.576,0,0,1-1.022-2.5,1.1,1.1,0,0,0-.762-.814l-1.07-.312a11.183,11.183,0,0,1,0-1.491Z" transform="translate(9.208 -3.5)"/>
          <path id="Trazado_1054550" data-name="Trazado 1054550" d="M18.974,17.449A5.474,5.474,0,1,0,13.5,11.974,5.481,5.481,0,0,0,18.974,17.449Zm0-8.759a3.285,3.285,0,1,1-3.285,3.285A3.288,3.288,0,0,1,18.974,8.69Z" transform="translate(12.777 0.069)"/>
          <path id="Trazado_1054551" data-name="Trazado 1054551" d="M20.89,18.821l-3.605,3.605-1.416-1.416a1.095,1.095,0,0,0-1.548,1.548l2.19,2.19a1.095,1.095,0,0,0,1.548,0l4.38-4.38a1.095,1.095,0,0,0-1.548-1.548Z" transform="translate(13.372 14.346)"/>
          <path id="Trazado_1054552" data-name="Trazado 1054552" d="M13.39,18.821,9.785,22.426,8.369,21.011a1.095,1.095,0,0,0-1.548,1.548l2.19,2.19a1.095,1.095,0,0,0,1.548,0l4.38-4.38a1.095,1.095,0,0,0-1.548-1.548Z" transform="translate(4.449 14.346)"/>
          <path id="Trazado_1054553" data-name="Trazado 1054553" d="M23.369,21.011a1.095,1.095,0,1,0-1.548,1.548l2.19,2.19a1.095,1.095,0,0,0,1.548,0l4.38-4.38a1.095,1.095,0,0,0-1.548-1.548l-3.605,3.605Z" transform="translate(22.296 14.346)"/>
          <path id="Trazado_1054554" data-name="Trazado 1054554" d="M8,18.785v2.19a1.095,1.095,0,0,0,2.19,0V19.88H24.423v1.093a1.095,1.095,0,1,0,2.19,0V19.88H40.847v1.095a1.095,1.095,0,0,0,2.19,0v-2.19a1.094,1.094,0,0,0-1.095-1.095H26.613V16.595a1.095,1.095,0,1,0-2.19,0V17.69H9.095A1.094,1.094,0,0,0,8,18.785Z" transform="translate(6.234 10.777)"/>
          <circle id="Elipse_13336" data-name="Elipse 13336" cx="1.5" cy="1.5" r="1.5" transform="translate(1.252 34.872)"/>
        </g>
      </g>
    </g>
  </g>
</svg>
