<svg xmlns="http://www.w3.org/2000/svg" xmlns:xlink="http://www.w3.org/1999/xlink" width="113" height="113" viewBox="0 0 113 113">
  <defs>
    <filter id="Trazado_982547" x="0" y="0" width="113" height="113" filterUnits="userSpaceOnUse">
      <feOffset dy="3" input="SourceAlpha"/>
      <feGaussianBlur stdDeviation="3" result="blur"/>
      <feFlood flood-opacity="0.161"/>
      <feComposite operator="in" in2="blur"/>
      <feComposite in="SourceGraphic"/>
    </filter>
  </defs>
  <g id="Grupo_1226150" data-name="Grupo 1226150" transform="translate(-2010 -4934)">
    <g id="Grupo_1225525" data-name="Grupo 1225525" transform="translate(1336 3319.865)">
      <g id="Grupo_1224583" data-name="Grupo 1224583" transform="translate(0 -5449.616)">
        <g id="Grupo_1224450" data-name="Grupo 1224450" transform="translate(683 7069.751)">
          <g id="Grupo_1224085" data-name="Grupo 1224085" transform="translate(0 0)">
            <g id="Grupo_1223184" data-name="Grupo 1223184">
              <g id="Grupo_1211216" data-name="Grupo 1211216">
                <g id="Grupo_1210737" data-name="Grupo 1210737">
                  <g id="Grupo_1210537" data-name="Grupo 1210537">
                    <g id="Grupo_1164202" data-name="Grupo 1164202">
                      <g id="Grupo_1158168" data-name="Grupo 1158168">
                        <g id="Grupo_1152576" data-name="Grupo 1152576">
                          <g id="Grupo_1148633" data-name="Grupo 1148633">
                            <g id="Grupo_1148525" data-name="Grupo 1148525">
                              <g transform="matrix(1, 0, 0, 1, -9, -6)" filter="url(#Trazado_982547)">
                                <g id="Trazado_982547-2" data-name="Trazado 982547" transform="translate(9 6)" fill="#fef9e5">
                                  <path d="M 47.49999618530273 93.5 C 41.28936767578125 93.5 35.26533126831055 92.28396606445312 29.59518241882324 89.88570404052734 C 24.11771583557129 87.56893157958984 19.19812965393066 84.251953125 14.97308921813965 80.02690124511719 C 10.74803638458252 75.80186462402344 7.431062698364258 70.88227844238281 5.114289283752441 65.40480804443359 C 2.716022968292236 59.73466110229492 1.499996185302734 53.71062469482422 1.499996185302734 47.49999618530273 C 1.499996185302734 41.28936767578125 2.716022968292236 35.26533126831055 5.114289283752441 29.59518241882324 C 7.431062698364258 24.11771583557129 10.74803638458252 19.19812965393066 14.97308921813965 14.97308921813965 C 19.19812965393066 10.74803638458252 24.11771583557129 7.431062698364258 29.59518241882324 5.114289283752441 C 35.26533126831055 2.716022968292236 41.28936767578125 1.499996185302734 47.49999618530273 1.499996185302734 C 53.71062469482422 1.499996185302734 59.73466110229492 2.716022968292236 65.40480804443359 5.114289283752441 C 70.88227844238281 7.431062698364258 75.80186462402344 10.74803638458252 80.02690124511719 14.97308921813965 C 84.251953125 19.19812965393066 87.56893157958984 24.11771583557129 89.88570404052734 29.59518241882324 C 92.28396606445312 35.26533126831055 93.5 41.28936767578125 93.5 47.49999618530273 C 93.5 53.71062469482422 92.28396606445312 59.73466110229492 89.88570404052734 65.40480804443359 C 87.56893157958984 70.88227844238281 84.251953125 75.80186462402344 80.02690124511719 80.02690124511719 C 75.80186462402344 84.251953125 70.88227844238281 87.56893157958984 65.40480804443359 89.88570404052734 C 59.73466110229492 92.28396606445312 53.71062469482422 93.5 47.49999618530273 93.5 Z" stroke="none"/>
                                  <path d="M 47.49999618530273 2.999992370605469 C 41.4912109375 2.999992370605469 35.66376495361328 4.1761474609375 30.17950439453125 6.495796203613281 C 24.88084411621094 8.736953735351562 20.12152099609375 11.94598388671875 16.03375244140625 16.03375244140625 C 11.94598388671875 20.12152099609375 8.736953735351562 24.88084411621094 6.495796203613281 30.17950439453125 C 4.1761474609375 35.66376495361328 2.999992370605469 41.4912109375 2.999992370605469 47.49999618530273 C 2.999992370605469 53.50878143310547 4.1761474609375 59.33622741699219 6.495796203613281 64.82048797607422 C 8.736953735351562 70.11914825439453 11.94598388671875 74.87847137451172 16.03375244140625 78.96623992919922 C 20.12152099609375 83.05400848388672 24.88084411621094 86.26304626464844 30.17950439453125 88.50419616699219 C 35.66376495361328 90.82384490966797 41.4912109375 92 47.49999618530273 92 C 53.50878143310547 92 59.33622741699219 90.82384490966797 64.82048797607422 88.50419616699219 C 70.11914825439453 86.26304626464844 74.87847137451172 83.05400848388672 78.96623992919922 78.96623992919922 C 83.05400848388672 74.87847137451172 86.26304626464844 70.11914825439453 88.50419616699219 64.82048797607422 C 90.82384490966797 59.33622741699219 92 53.50878143310547 92 47.49999618530273 C 92 41.4912109375 90.82384490966797 35.66376495361328 88.50419616699219 30.17950439453125 C 86.26304626464844 24.88084411621094 83.05400848388672 20.12152099609375 78.96623992919922 16.03375244140625 C 74.87847137451172 11.94598388671875 70.11914825439453 8.736953735351562 64.82048797607422 6.495796203613281 C 59.33622741699219 4.1761474609375 53.50878143310547 2.999992370605469 47.49999618530273 2.999992370605469 M 47.49999618530273 -7.62939453125e-06 C 73.7335205078125 -7.62939453125e-06 95 21.26647186279297 95 47.49999618530273 C 95 73.7335205078125 73.7335205078125 95 47.49999618530273 95 C 21.26647186279297 95 -7.62939453125e-06 73.7335205078125 -7.62939453125e-06 47.49999618530273 C -7.62939453125e-06 21.26647186279297 21.26647186279297 -7.62939453125e-06 47.49999618530273 -7.62939453125e-06 Z" stroke="none" fill="#f6c810"/>
                                </g>
                              </g>
                            </g>
                          </g>
                        </g>
                      </g>
                    </g>
                  </g>
                </g>
              </g>
            </g>
          </g>
        </g>
      </g>
    </g>
    <g id="Fill_Outline" data-name="Fill Outline" transform="translate(2034 4956)">
      <g id="Color">
        <g id="Grupo_1226148" data-name="Grupo 1226148">
          <path id="Trazado_1054575" data-name="Trazado 1054575" d="M5,17H59V53H5Z" fill="#aae1f9"/>
          <path id="Trazado_1054576" data-name="Trazado 1054576" d="M27,46A16,16,0,0,1,11,30V17H5V53H59V46Z" fill="#57b7eb"/>
          <path id="Trazado_1054577" data-name="Trazado 1054577" d="M3,53H61v4a4,4,0,0,1-4,4H7a4,4,0,0,1-4-4Z" fill="#d0d8da"/>
          <path id="Trazado_1054578" data-name="Trazado 1054578" d="M25,53H39v4H25Z" fill="#656b76"/>
          <circle id="Elipse_13339" data-name="Elipse 13339" cx="9" cy="9" r="9" transform="translate(9 31)" fill="#c4f236"/>
          <g id="Grupo_1226146" data-name="Grupo 1226146">
            <path id="Trazado_1054579" data-name="Trazado 1054579" d="M18,31v9h9A9,9,0,0,0,18,31Z" fill="#f9e109"/>
            <path id="Trazado_1054580" data-name="Trazado 1054580" d="M33,43h4v6H33Z" fill="#f9e109"/>
            <path id="Trazado_1054581" data-name="Trazado 1054581" d="M41,39h4V49H41Z" fill="#f9e109"/>
            <path id="Trazado_1054582" data-name="Trazado 1054582" d="M49,35h4V49H49Z" fill="#f9e109"/>
            <circle id="Elipse_13340" data-name="Elipse 13340" cx="2" cy="2" r="2" transform="translate(9 21)" fill="#f9e109"/>
          </g>
          <g id="Grupo_1226147" data-name="Grupo 1226147">
            <path id="Trazado_1054583" data-name="Trazado 1054583" d="M25,14H35V24H25Z" fill="#7ab92d"/>
            <path id="Trazado_1054584" data-name="Trazado 1054584" d="M39,10H29l-4,4H35Z" fill="#c4f236"/>
            <path id="Trazado_1054585" data-name="Trazado 1054585" d="M39,20l-4,4V14l4-4Z" fill="#a1d51c"/>
          </g>
          <path id="Trazado_1054586" data-name="Trazado 1054586" d="M9,59a4,4,0,0,1-4-4V53H3v4a4,4,0,0,0,4,4H57a3.982,3.982,0,0,0,3.445-2Z" fill="#93999a"/>
          <path id="Trazado_1054587" data-name="Trazado 1054587" d="M18,49a8.974,8.974,0,0,0,6.842-3.162A15.991,15.991,0,0,1,11.476,33.812,8.992,8.992,0,0,0,18,49Z" fill="#a1d51c"/>
          <path id="Trazado_1054588" data-name="Trazado 1054588" d="M49,46h4v3H49Z" fill="#fcbc04"/>
          <path id="Trazado_1054589" data-name="Trazado 1054589" d="M41,46h4v3H41Z" fill="#fcbc04"/>
          <path id="Trazado_1054590" data-name="Trazado 1054590" d="M33,46h4v3H33Z" fill="#fcbc04"/>
          <path id="Trazado_1054591" data-name="Trazado 1054591" d="M11,25V21a2,2,0,0,0,0,4Z" fill="#fcbc04"/>
        </g>
      </g>
      <g id="Outline_copy" data-name="Outline copy">
        <g id="Grupo_1226149" data-name="Grupo 1226149">
          <path id="Trazado_1054592" data-name="Trazado 1054592" d="M50,18h8V43a1,1,0,0,0,2,0V17a1,1,0,0,0-1-1H50a1,1,0,0,0,0,2Z" fill="#0b0a0a"/>
          <path id="Trazado_1054593" data-name="Trazado 1054593" d="M5,50a1,1,0,0,0,1-1V18h8a1,1,0,0,0,0-2H5a1,1,0,0,0-1,1V49A1,1,0,0,0,5,50Z" fill="#0b0a0a"/>
          <path id="Trazado_1054594" data-name="Trazado 1054594" d="M32,4A12.98,12.98,0,0,1,42.427,24.737l-.452-1.962a1,1,0,0,0-1.95.45l.9,3.9a1,1,0,0,0,.973.775.94.94,0,0,0,.175-.015l5.1-.9a1,1,0,1,0-.348-1.97l-2.463.435A14.98,14.98,0,0,0,32,2a1,1,0,0,0,0,2Z" fill="#0b0a0a"/>
          <path id="Trazado_1054595" data-name="Trazado 1054595" d="M17.174,8.985l2.467-.435A14.978,14.978,0,0,0,32,32a1,1,0,1,0,0-2A12.976,12.976,0,0,1,21.574,9.267l.451,1.958A1,1,0,0,0,23,12a1.03,1.03,0,0,0,.226-.025,1,1,0,0,0,.75-1.2l-.9-3.9a1,1,0,0,0-1.148-.76l-5.1.9a1,1,0,1,0,.348,1.97Z" fill="#0b0a0a"/>
          <path id="Trazado_1054596" data-name="Trazado 1054596" d="M61,52H60V47a1,1,0,0,0-2,0v5H3a1,1,0,0,0-1,1v4a5.006,5.006,0,0,0,5,5H57a5.006,5.006,0,0,0,5-5V53A1,1,0,0,0,61,52Zm-1,5a3,3,0,0,1-3,3H7a3,3,0,0,1-3-3V54H38v2H25a1,1,0,0,0,0,2H39a1,1,0,0,0,1-1V54H60Z" fill="#0b0a0a"/>
          <path id="Trazado_1054597" data-name="Trazado 1054597" d="M25,25H35a1,1,0,0,0,.707-.293l4-4A1,1,0,0,0,40,20V10a.971.971,0,0,0-1.006-.99L39,9H29a1,1,0,0,0-.707.293l-4,4A1,1,0,0,0,25,15h9v8H26V18a1,1,0,0,0-2,0v6A1,1,0,0,0,25,25Zm13-5.414-2,2V14.414l2-2ZM29.414,11h7.172l-2,2H27.414Z" fill="#0b0a0a"/>
          <path id="Trazado_1054598" data-name="Trazado 1054598" d="M18,50a9.939,9.939,0,0,0,4.654-1.156A2.984,2.984,0,0,0,25,50h5a1,1,0,0,0,0-2H25a.989.989,0,0,1-.668-.267,9.99,9.99,0,0,0-12.212-15.8A3.954,3.954,0,0,1,12,31V29a1,1,0,0,0-2,0v2a5.963,5.963,0,0,0,.505,2.4A9.984,9.984,0,0,0,18,50ZM17,32.069V35H16a3.977,3.977,0,0,1-2.925-1.291A7.958,7.958,0,0,1,17,32.069ZM16,37h1v3a1,1,0,0,0,1,1h5a1,1,0,0,0,0-2H19V37h2a1,1,0,0,0,0-2H19V32.069a7.991,7.991,0,0,1,4.662,13.577A2.992,2.992,0,0,0,21,44H18a1,1,0,0,0,0,2h3a.994.994,0,0,1,.985.927A7.986,7.986,0,0,1,11.664,35.135,5.978,5.978,0,0,0,16,37Z" fill="#0b0a0a"/>
          <path id="Trazado_1054599" data-name="Trazado 1054599" d="M33,42a1,1,0,0,0-1,1v6a1,1,0,0,0,1,1h4a1,1,0,0,0,1-1V43a1,1,0,0,0-1-1Zm3,6H34V44h2Z" fill="#0b0a0a"/>
          <path id="Trazado_1054600" data-name="Trazado 1054600" d="M45,50a1,1,0,0,0,1-1V39a1,1,0,0,0-1-1H41a1,1,0,0,0-1,1V49a1,1,0,0,0,2,0V40h2v9A1,1,0,0,0,45,50Z" fill="#0b0a0a"/>
          <path id="Trazado_1054601" data-name="Trazado 1054601" d="M49,50h4a1,1,0,0,0,1-1V35a1,1,0,0,0-1-1H49a1,1,0,0,0-1,1V49A1,1,0,0,0,49,50Zm1-14h2V48H50Z" fill="#0b0a0a"/>
          <path id="Trazado_1054602" data-name="Trazado 1054602" d="M14,23a3,3,0,1,0-3,3,3,3,0,0,0,3-3Zm-4,0a1,1,0,1,1,1,1A1,1,0,0,1,10,23Z" fill="#0b0a0a"/>
          <circle id="Elipse_13341" data-name="Elipse 13341" cx="1" cy="1" r="1" transform="translate(50 56)" fill="#0b0a0a"/>
          <circle id="Elipse_13342" data-name="Elipse 13342" cx="1" cy="1" r="1" transform="translate(54 56)" fill="#0b0a0a"/>
        </g>
      </g>
    </g>
  </g>
</svg>
