<svg xmlns="http://www.w3.org/2000/svg" xmlns:xlink="http://www.w3.org/1999/xlink" width="113" height="113" viewBox="0 0 113 113">
  <defs>
    <filter id="Trazado_982547" x="0" y="0" width="113" height="113" filterUnits="userSpaceOnUse">
      <feOffset dy="3" input="SourceAlpha"/>
      <feGaussianBlur stdDeviation="3" result="blur"/>
      <feFlood flood-opacity="0.161"/>
      <feComposite operator="in" in2="blur"/>
      <feComposite in="SourceGraphic"/>
    </filter>
  </defs>
  <g id="Grupo_1226152" data-name="Grupo 1226152" transform="translate(-1648 -5293.487)">
    <g id="Grupo_1225526" data-name="Grupo 1225526" transform="translate(974 3679.352)">
      <g id="Grupo_1224583" data-name="Grupo 1224583" transform="translate(0 -5449.616)">
        <g id="Grupo_1224450" data-name="Grupo 1224450" transform="translate(683 7069.751)">
          <g id="Grupo_1224085" data-name="Grupo 1224085" transform="translate(0 0)">
            <g id="Grupo_1223184" data-name="Grupo 1223184">
              <g id="Grupo_1211216" data-name="Grupo 1211216">
                <g id="Grupo_1210737" data-name="Grupo 1210737">
                  <g id="Grupo_1210537" data-name="Grupo 1210537">
                    <g id="Grupo_1164202" data-name="Grupo 1164202">
                      <g id="Grupo_1158168" data-name="Grupo 1158168">
                        <g id="Grupo_1152576" data-name="Grupo 1152576">
                          <g id="Grupo_1148633" data-name="Grupo 1148633">
                            <g id="Grupo_1148525" data-name="Grupo 1148525">
                              <g transform="matrix(1, 0, 0, 1, -9, -6)" filter="url(#Trazado_982547)">
                                <g id="Trazado_982547-2" data-name="Trazado 982547" transform="translate(9 6)" fill="#fef9e5">
                                  <path d="M 47.49999618530273 93.5 C 41.28936767578125 93.5 35.26533126831055 92.28396606445312 29.59518241882324 89.88570404052734 C 24.11771583557129 87.56893157958984 19.19812965393066 84.251953125 14.97308921813965 80.02690124511719 C 10.74803638458252 75.80186462402344 7.431062698364258 70.88227844238281 5.114289283752441 65.40480804443359 C 2.716022968292236 59.73466110229492 1.499996185302734 53.71062469482422 1.499996185302734 47.49999618530273 C 1.499996185302734 41.28936767578125 2.716022968292236 35.26533126831055 5.114289283752441 29.59518241882324 C 7.431062698364258 24.11771583557129 10.74803638458252 19.19812965393066 14.97308921813965 14.97308921813965 C 19.19812965393066 10.74803638458252 24.11771583557129 7.431062698364258 29.59518241882324 5.114289283752441 C 35.26533126831055 2.716022968292236 41.28936767578125 1.499996185302734 47.49999618530273 1.499996185302734 C 53.71062469482422 1.499996185302734 59.73466110229492 2.716022968292236 65.40480804443359 5.114289283752441 C 70.88227844238281 7.431062698364258 75.80186462402344 10.74803638458252 80.02690124511719 14.97308921813965 C 84.251953125 19.19812965393066 87.56893157958984 24.11771583557129 89.88570404052734 29.59518241882324 C 92.28396606445312 35.26533126831055 93.5 41.28936767578125 93.5 47.49999618530273 C 93.5 53.71062469482422 92.28396606445312 59.73466110229492 89.88570404052734 65.40480804443359 C 87.56893157958984 70.88227844238281 84.251953125 75.80186462402344 80.02690124511719 80.02690124511719 C 75.80186462402344 84.251953125 70.88227844238281 87.56893157958984 65.40480804443359 89.88570404052734 C 59.73466110229492 92.28396606445312 53.71062469482422 93.5 47.49999618530273 93.5 Z" stroke="none"/>
                                  <path d="M 47.49999618530273 2.999992370605469 C 41.4912109375 2.999992370605469 35.66376495361328 4.1761474609375 30.17950439453125 6.495796203613281 C 24.88084411621094 8.736953735351562 20.12152099609375 11.94598388671875 16.03375244140625 16.03375244140625 C 11.94598388671875 20.12152099609375 8.736953735351562 24.88084411621094 6.495796203613281 30.17950439453125 C 4.1761474609375 35.66376495361328 2.999992370605469 41.4912109375 2.999992370605469 47.49999618530273 C 2.999992370605469 53.50878143310547 4.1761474609375 59.33622741699219 6.495796203613281 64.82048797607422 C 8.736953735351562 70.11914825439453 11.94598388671875 74.87847137451172 16.03375244140625 78.96623992919922 C 20.12152099609375 83.05400848388672 24.88084411621094 86.26304626464844 30.17950439453125 88.50419616699219 C 35.66376495361328 90.82384490966797 41.4912109375 92 47.49999618530273 92 C 53.50878143310547 92 59.33622741699219 90.82384490966797 64.82048797607422 88.50419616699219 C 70.11914825439453 86.26304626464844 74.87847137451172 83.05400848388672 78.96623992919922 78.96623992919922 C 83.05400848388672 74.87847137451172 86.26304626464844 70.11914825439453 88.50419616699219 64.82048797607422 C 90.82384490966797 59.33622741699219 92 53.50878143310547 92 47.49999618530273 C 92 41.4912109375 90.82384490966797 35.66376495361328 88.50419616699219 30.17950439453125 C 86.26304626464844 24.88084411621094 83.05400848388672 20.12152099609375 78.96623992919922 16.03375244140625 C 74.87847137451172 11.94598388671875 70.11914825439453 8.736953735351562 64.82048797607422 6.495796203613281 C 59.33622741699219 4.1761474609375 53.50878143310547 2.999992370605469 47.49999618530273 2.999992370605469 M 47.49999618530273 -7.62939453125e-06 C 73.7335205078125 -7.62939453125e-06 95 21.26647186279297 95 47.49999618530273 C 95 73.7335205078125 73.7335205078125 95 47.49999618530273 95 C 21.26647186279297 95 -7.62939453125e-06 73.7335205078125 -7.62939453125e-06 47.49999618530273 C -7.62939453125e-06 21.26647186279297 21.26647186279297 -7.62939453125e-06 47.49999618530273 -7.62939453125e-06 Z" stroke="none" fill="#f6c810"/>
                                </g>
                              </g>
                            </g>
                          </g>
                        </g>
                      </g>
                    </g>
                  </g>
                </g>
              </g>
            </g>
          </g>
        </g>
      </g>
    </g>
    <g id="Filled_outline" data-name="Filled outline" transform="translate(1673 5311)">
      <g id="Color">
        <path id="Trazado_1054603" data-name="Trazado 1054603" d="M11,19H53a4,4,0,0,1,4,4V55H7V23a4,4,0,0,1,4-4Z" fill="#c1c1c1"/>
        <path id="Trazado_1054604" data-name="Trazado 1054604" d="M18,16H46V58H18Z" transform="translate(69 5) rotate(90)" fill="#1ab3ff"/>
        <path id="Trazado_1054605" data-name="Trazado 1054605" d="M39,55a3,3,0,0,1-3,3H28a3,3,0,0,1-3-3H3v2a4,4,0,0,0,4,4H57a4,4,0,0,0,4-4V55Z" fill="#e6e6e6"/>
        <path id="Trazado_1054606" data-name="Trazado 1054606" d="M28,58h8a3,3,0,0,0,3-3H25a3,3,0,0,0,3,3Z" fill="#9c9c9c"/>
        <g id="Grupo_1226151" data-name="Grupo 1226151">
          <rect id="Rectángulo_422348" data-name="Rectángulo 422348" width="5" height="15" rx="1" transform="translate(44 31)" fill="#303c5d"/>
          <rect id="Rectángulo_422349" data-name="Rectángulo 422349" width="5" height="10" rx="1" transform="translate(34 36)" fill="#303c5d"/>
          <rect id="Rectángulo_422350" data-name="Rectángulo 422350" width="5" height="6" rx="1" transform="translate(24 40)" fill="#303c5d"/>
        </g>
        <path id="Trazado_1054607" data-name="Trazado 1054607" d="M44.5,16.706V14.294a1,1,0,0,0-1-1H41.293a9.491,9.491,0,0,0-1.163-2.8l1.562-1.562a1,1,0,0,0,0-1.414l-1.706-1.71a1,1,0,0,0-1.414,0L37.01,7.37a9.491,9.491,0,0,0-2.8-1.163V4a1,1,0,0,0-1-1H30.794a1,1,0,0,0-1,1V6.207a9.491,9.491,0,0,0-2.8,1.163L25.428,5.808a1,1,0,0,0-1.414,0L22.308,7.514a1,1,0,0,0,0,1.414L23.87,10.49a9.491,9.491,0,0,0-1.163,2.8H20.5a1,1,0,0,0-1,1V16.7a1,1,0,0,0,1,1h2.207a9.491,9.491,0,0,0,1.163,2.8l-1.562,1.562a1,1,0,0,0,0,1.414l1.706,1.706a1,1,0,0,0,1.414,0L26.99,23.63a9.491,9.491,0,0,0,2.8,1.163V27a1,1,0,0,0,1,1H33.2a1,1,0,0,0,1-1V24.793A9.491,9.491,0,0,0,37,23.63l1.562,1.562a1,1,0,0,0,1.414,0l1.706-1.706a1,1,0,0,0,0-1.414L40.13,20.51a9.491,9.491,0,0,0,1.163-2.8H43.5a1,1,0,0,0,1-1Z" fill="#232d4d"/>
        <circle id="Elipse_13343" data-name="Elipse 13343" cx="5" cy="5" r="5" transform="translate(27 10.5)" fill="#e6e6e6"/>
      </g>
      <g id="Outline">
        <path id="Trazado_1054608" data-name="Trazado 1054608" d="M61,54H58V23a5.006,5.006,0,0,0-5-5H45.013a1.985,1.985,0,0,0,.487-1.294V14.294a2,2,0,0,0-2-2H42.053a10.5,10.5,0,0,0-.679-1.634L42.4,9.635a2,2,0,0,0,0-2.828L40.693,5.1a2,2,0,0,0-2.828,0L36.84,6.126a10.5,10.5,0,0,0-1.634-.679V4a2,2,0,0,0-2-2H30.794a2,2,0,0,0-2,2V5.447a10.5,10.5,0,0,0-1.634.679L26.135,5.1a2,2,0,0,0-2.828,0L21.6,6.807a2,2,0,0,0,0,2.828l1.024,1.025a10.5,10.5,0,0,0-.679,1.634H20.5a2,2,0,0,0-2,2v2.412A1.981,1.981,0,0,0,18.988,18H11a5.006,5.006,0,0,0-5,5V54H3a1,1,0,0,0-1,1v2a5.006,5.006,0,0,0,5,5H57a5.006,5.006,0,0,0,5-5V55A1,1,0,0,0,61,54ZM22.707,14.294a1,1,0,0,0,.973-.77,8.492,8.492,0,0,1,1.041-2.508,1,1,0,0,0-.143-1.233L23.016,8.221l1.7-1.7,1.562,1.562a1,1,0,0,0,1.233.143A8.492,8.492,0,0,1,30.024,7.18a1,1,0,0,0,.77-.973V4h2.412V6.207a1,1,0,0,0,.77.973,8.492,8.492,0,0,1,2.508,1.041,1,1,0,0,0,1.233-.143l1.562-1.562,1.7,1.7L39.422,9.783a1,1,0,0,0-.143,1.233,8.492,8.492,0,0,1,1.041,2.508,1,1,0,0,0,.973.77H43.5v2.412H41.293a1,1,0,0,0-.973.77,8.492,8.492,0,0,1-1.041,2.508,1,1,0,0,0,.143,1.233l1.562,1.562-1.7,1.7-1.562-1.562a1,1,0,0,0-1.233-.143,8.492,8.492,0,0,1-2.508,1.041,1,1,0,0,0-.77.973V27H30.794V24.793a1,1,0,0,0-.77-.973,8.492,8.492,0,0,1-2.508-1.041,1,1,0,0,0-1.233.143l-1.562,1.562-1.7-1.7,1.562-1.562a1,1,0,0,0,.143-1.233,8.492,8.492,0,0,1-1.041-2.508,1,1,0,0,0-.973-.77H20.5V14.294Zm19.691,9.9A1.9,1.9,0,0,0,42.556,24H52V50H12V24h9.444a1.9,1.9,0,0,0,.158.193l1.7,1.7a2,2,0,0,0,2.828,0l1.025-1.024a10.5,10.5,0,0,0,1.634.679V27a2,2,0,0,0,2,2H33.2a2,2,0,0,0,2-2V25.553a10.5,10.5,0,0,0,1.634-.679l1.03,1.026a2,2,0,0,0,2.828,0ZM8,23a3,3,0,0,1,3-3H22.467c.054.113.1.229.159.34L21.6,21.365a1.963,1.963,0,0,0-.425.635H11a1,1,0,0,0-1,1V51a1,1,0,0,0,1,1H53a1,1,0,0,0,1-1V23a1,1,0,0,0-1-1H42.823a1.963,1.963,0,0,0-.425-.635L41.374,20.34c.058-.111.1-.227.159-.34H53a3,3,0,0,1,3,3V54H8ZM37.722,56A1.993,1.993,0,0,1,36,57H28a1.993,1.993,0,0,1-1.722-1ZM60,57a3,3,0,0,1-3,3H7a3,3,0,0,1-3-3V56H24.142A4,4,0,0,0,28,59h8a4,4,0,0,0,3.858-3H60Z" fill="#1e120b"/>
        <circle id="Elipse_13344" data-name="Elipse 13344" cx="1" cy="1" r="1" transform="translate(14 36)" fill="#1e120b"/>
        <path id="Trazado_1054609" data-name="Trazado 1054609" d="M15,34a1,1,0,0,0,1-1V27a1,1,0,0,0-2,0v6A1,1,0,0,0,15,34Z" fill="#1e120b"/>
        <path id="Trazado_1054610" data-name="Trazado 1054610" d="M45,47h3a2,2,0,0,0,2-2V32a2,2,0,0,0-2-2H45a2,2,0,0,0-2,2V45A2,2,0,0,0,45,47Zm0-15h3V45H45Z" fill="#1e120b"/>
        <path id="Trazado_1054611" data-name="Trazado 1054611" d="M38,35H36.42L32.8,31.3a1,1,0,0,0-.715-.3H24a1,1,0,0,0,0,2h7.663l2.268,2.316A1.994,1.994,0,0,0,33,37v8a2,2,0,0,0,2,2h3a2,2,0,0,0,2-2V37A2,2,0,0,0,38,35ZM35,45V37h3v8Z" fill="#1e120b"/>
        <path id="Trazado_1054612" data-name="Trazado 1054612" d="M28,39H25a2,2,0,0,0-2,2v4a2,2,0,0,0,2,2h3a2,2,0,0,0,2-2V41A2,2,0,0,0,28,39Zm-3,6V41h3v4Z" fill="#1e120b"/>
        <path id="Trazado_1054613" data-name="Trazado 1054613" d="M19,41H15a1,1,0,0,0,0,2h4a1,1,0,0,0,0-2Z" fill="#1e120b"/>
        <path id="Trazado_1054614" data-name="Trazado 1054614" d="M28,37a1,1,0,0,0,0-2H24a1,1,0,0,0,0,2Z" fill="#1e120b"/>
        <path id="Trazado_1054615" data-name="Trazado 1054615" d="M19,45H15a1,1,0,0,0,0,2h4a1,1,0,0,0,0-2Z" fill="#1e120b"/>
        <path id="Trazado_1054616" data-name="Trazado 1054616" d="M32,21.5a6,6,0,1,0-6-6A6,6,0,0,0,32,21.5Zm0-10a4,4,0,1,1-4,4A4,4,0,0,1,32,11.5Z" fill="#1e120b"/>
      </g>
    </g>
  </g>
</svg>
