<svg xmlns="http://www.w3.org/2000/svg" width="400" height="146.611" viewBox="0 0 400 146.611">
  <g id="Grupo_1226112" data-name="Grupo 1226112" transform="translate(-1020 -792.389)">
    <g id="Grupo_1226107" data-name="Grupo 1226107" transform="translate(0 -11368)">
      <g id="Grupo_1225644" data-name="Grupo 1225644" transform="translate(0)">
        <rect id="equipo-de-desarrolladores-haciendo-una-tormenta-de-ideas-para-optimizar-el-codigo" width="400" height="96" rx="5" transform="translate(1020 12204)" fill="#4f3864"/>
        <rect id="equipo-de-desarrolladores-haciendo-una-tormenta-de-ideas-para-optimizar-el-codigo-2" data-name="equipo-de-desarrolladores-haciendo-una-tormenta-de-ideas-para-optimizar-el-codigo" width="326" height="110" rx="5" transform="translate(1057 12197)" fill="#11f5d8"/>
      </g>
    </g>
    <g id="developer_14955817" transform="translate(1147 792.389)">
      <path id="Trazado_1054443" data-name="Trazado 1054443" d="M95.911,50.974A2.373,2.373,0,0,0,94.4,48.995L89.557,47.04A35.888,35.888,0,0,0,84.6,35.091L86.65,30.3a2.422,2.422,0,0,0-.342-2.492,40.806,40.806,0,0,0-5.034-5.034,2.422,2.422,0,0,0-2.492-.342l-4.789,2.053a35.888,35.888,0,0,0-11.949-4.96l-1.955-4.838a2.373,2.373,0,0,0-1.979-1.515,36.636,36.636,0,0,0-7.135,0,2.373,2.373,0,0,0-1.979,1.515L47.04,19.526a35.888,35.888,0,0,0-11.949,4.96L30.3,22.434a2.422,2.422,0,0,0-2.492.342,40.806,40.806,0,0,0-5.034,5.034,2.422,2.422,0,0,0-.342,2.492l2.053,4.789a35.888,35.888,0,0,0-4.96,11.949l-4.838,1.955a2.373,2.373,0,0,0-1.515,1.979,36.636,36.636,0,0,0,0,7.135,2.373,2.373,0,0,0,1.515,1.979l4.838,1.955a35.888,35.888,0,0,0,4.96,11.949l-2.053,4.789a2.422,2.422,0,0,0,.342,2.492,40.806,40.806,0,0,0,5.034,5.034,2.421,2.421,0,0,0,2.492.342L35.091,84.6a35.888,35.888,0,0,0,11.949,4.96L48.995,94.4a2.373,2.373,0,0,0,1.979,1.515,36.636,36.636,0,0,0,7.135,0A2.373,2.373,0,0,0,60.089,94.4l1.955-4.838A35.888,35.888,0,0,0,73.992,84.6l4.789,2.053a2.421,2.421,0,0,0,2.492-.342,40.808,40.808,0,0,0,5.034-5.034,2.422,2.422,0,0,0,.342-2.492L84.6,73.992a35.888,35.888,0,0,0,4.96-11.949L94.4,60.089a2.373,2.373,0,0,0,1.515-1.979A36.636,36.636,0,0,0,95.911,50.974Zm-41.369,28A24.435,24.435,0,1,1,78.977,54.542,24.435,24.435,0,0,1,54.542,78.977Z" transform="translate(18.764 18.764)" fill="#adb2c7"/>
      <path id="Trazado_1054451" data-name="Trazado 1054451" d="M24.12,0A24.12,24.12,0,1,1,0,24.12,24.12,24.12,0,0,1,24.12,0Z" transform="translate(49.186 49.186)" fill="#8f1bf8"/>
      <path id="Trazado_1054444" data-name="Trazado 1054444" d="M142.018,133.663l-4.887-4.887a2.524,2.524,0,0,0-1.735-.709H115.017a70.862,70.862,0,1,0-86.305,0H5.89A4.9,4.9,0,0,0,1,132.954v4.887a4.9,4.9,0,0,0,4.887,4.887H135.4a2.524,2.524,0,0,0,1.735-.709l4.887-4.887A2.463,2.463,0,0,0,142.018,133.663ZM15.664,71.866a56.2,56.2,0,1,1,56.2,56.2,56.2,56.2,0,0,1-56.2-56.2Z" transform="translate(1.441 1.44)" fill="#ffc247"/>
      <path id="Trazado_1054445" data-name="Trazado 1054445" d="M100.862,33.728a70.872,70.872,0,0,1-70.85,70.862l5.583-5.6a2.463,2.463,0,0,0,0-3.47l-5.6-5.6a56.272,56.272,0,0,0,56.2-56.2l5.6-5.6a2.463,2.463,0,0,1,3.47,0Z" transform="translate(43.306 39.578)" fill="#ffa426"/>
      <path id="Trazado_1054446" data-name="Trazado 1054446" d="M71.862,86.2H28.71A70.655,70.655,0,0,1,1,30l5.6,5.6a2.463,2.463,0,0,0,3.47,0l5.6-5.6a56.272,56.272,0,0,0,56.2,56.2Z" transform="translate(1.444 43.306)" fill="#ffc247"/>
      <path id="Trazado_1054447" data-name="Trazado 1054447" d="M66.267,10.065l5.6,5.6a56.272,56.272,0,0,0-56.2,56.2l-5.6,5.6a2.463,2.463,0,0,1-3.47,0L1,71.862A70.862,70.862,0,0,1,71.862,1l-5.6,5.6a2.463,2.463,0,0,0,0,3.47Z" transform="translate(1.444 1.444)" fill="#ffa426"/>
      <g id="Grupo_1226110" data-name="Grupo 1226110" transform="translate(0)">
        <path id="Trazado_1054448" data-name="Trazado 1054448" d="M96.762,63.8A4.9,4.9,0,0,0,99.8,59.758a41.609,41.609,0,0,0,0-7.575,4.9,4.9,0,0,0-3.05-4.017L93.085,46.7a37.875,37.875,0,0,0-4.308-10.38L90.319,32.7a4.794,4.794,0,0,0-.733-5.048,43.456,43.456,0,0,0-5.254-5.288,4.794,4.794,0,0,0-5.043-.733l-3.621,1.547a38.021,38.021,0,0,0-10.395-4.305L63.806,15.21a4.887,4.887,0,0,0-4.044-3.042,42.341,42.341,0,0,0-7.553,0,4.9,4.9,0,0,0-4.042,3.057L46.7,18.875a37.96,37.96,0,0,0-10.38,4.308l-3.616-1.542a4.8,4.8,0,0,0-5.048.733,43.439,43.439,0,0,0-5.288,5.285,4.789,4.789,0,0,0-.733,5.043l1.547,3.624A37.96,37.96,0,0,0,18.877,46.7l-3.665,1.466A4.887,4.887,0,0,0,12.17,52.21a41.42,41.42,0,0,0,0,7.553A4.9,4.9,0,0,0,15.227,63.8l3.651,1.466a37.96,37.96,0,0,0,4.308,10.38l-1.542,3.616a4.789,4.789,0,0,0,.733,5.048A43.269,43.269,0,0,0,27.664,89.6a4.794,4.794,0,0,0,5.043.733l3.624-1.547A37.96,37.96,0,0,0,46.7,93.095l1.466,3.665A4.887,4.887,0,0,0,52.214,99.8c1.038.09,2.392.174,3.91.174,1.148,0,2.387-.049,3.651-.174a4.9,4.9,0,0,0,4.032-3.057l1.466-3.651a37.945,37.945,0,0,0,10.383-4.308l3.614,1.542a4.782,4.782,0,0,0,5.048-.733,43.359,43.359,0,0,0,5.293-5.29,4.8,4.8,0,0,0,.733-5.041L88.8,75.641a37.874,37.874,0,0,0,4.3-10.37Zm-8.149-.841a33.044,33.044,0,0,1-4.621,11.142,2.443,2.443,0,0,0-.2,2.29l2.075,4.772a38.281,38.281,0,0,1-4.674,4.667L76.4,83.79a2.443,2.443,0,0,0-2.29.2,33.114,33.114,0,0,1-11.145,4.623,2.444,2.444,0,0,0-1.757,1.481L59.3,94.927a35.9,35.9,0,0,1-6.6,0l-1.933-4.836a2.444,2.444,0,0,0-1.757-1.481,33.156,33.156,0,0,1-11.145-4.623,2.443,2.443,0,0,0-2.29-.2l-4.772,2.072a38.068,38.068,0,0,1-4.667-4.672L28.187,76.4a2.443,2.443,0,0,0-.2-2.29,33.156,33.156,0,0,1-4.623-11.145A2.444,2.444,0,0,0,21.885,61.2L17.05,59.3a35.906,35.906,0,0,1,0-6.6l4.836-1.933a2.444,2.444,0,0,0,1.481-1.757,33.156,33.156,0,0,1,4.623-11.145,2.444,2.444,0,0,0,.2-2.29L26.115,30.8a38.417,38.417,0,0,1,4.672-4.667l4.794,2.045a2.444,2.444,0,0,0,2.29-.2,33.156,33.156,0,0,1,11.145-4.623,2.444,2.444,0,0,0,1.757-1.481l1.906-4.836a36.122,36.122,0,0,1,6.6,0l1.933,4.836a2.443,2.443,0,0,0,1.757,1.481,33.115,33.115,0,0,1,11.145,4.623,2.444,2.444,0,0,0,2.29.2l4.772-2.072a38.075,38.075,0,0,1,4.667,4.672l-2.045,4.794a2.443,2.443,0,0,0,.2,2.29,33.044,33.044,0,0,1,4.621,11.142A2.444,2.444,0,0,0,90.1,50.768l4.841,1.955a36.386,36.386,0,0,1,0,6.568L90.1,61.224a2.444,2.444,0,0,0-1.486,1.742Z" transform="translate(17.319 17.321)" fill="#0b0a0a"/>
        <path id="Trazado_1054449" data-name="Trazado 1054449" d="M73.306,0A73.389,73.389,0,0,0,0,73.306a72.656,72.656,0,0,0,23.5,53.758H7.331A7.331,7.331,0,0,0,0,134.394v4.887a7.331,7.331,0,0,0,7.331,7.331H136.838a4.853,4.853,0,0,0,3.455-1.432l4.887-4.887a4.887,4.887,0,0,0,0-6.91l-4.887-4.887a4.853,4.853,0,0,0-3.455-1.432H123.112a72.656,72.656,0,0,0,23.5-53.758A73.389,73.389,0,0,0,73.306,0Zm68.125,67.114-1.139-1.139a4.887,4.887,0,0,0-6.91,0l-1.71,1.71a58.713,58.713,0,0,0-57.328-53L69.431,9.774l4.853-4.863a68.5,68.5,0,0,1,67.148,62.2ZM73.306,127.063a53.758,53.758,0,1,1,53.758-53.758,53.758,53.758,0,0,1-53.758,53.758ZM67.114,5.18,65.975,6.319a4.887,4.887,0,0,0,0,6.91l1.71,1.71a58.713,58.713,0,0,0-53,57.328L9.774,77.181,4.912,72.328A68.5,68.5,0,0,1,67.114,5.18ZM5.19,79.507l1.129,1.129a4.887,4.887,0,0,0,6.91,0l1.71-1.71A58.772,58.772,0,0,0,49.9,127.063H31.033A67.727,67.727,0,0,1,5.19,79.507Zm-.3,59.773v-4.887a2.444,2.444,0,0,1,2.444-2.444H72.294l4.887,4.887-4.887,4.887H7.331a2.444,2.444,0,0,1-2.444-2.444Zm136.837-2.444-4.887,4.887H99.574a72.729,72.729,0,0,0,17.659-9.774h19.6Zm-26.757-9.266A67.483,67.483,0,0,1,79.5,141.434l1.141-1.141a4.887,4.887,0,0,0,0-6.91l-1.71-1.71a58.713,58.713,0,0,0,53-57.328l4.914-4.914,4.86,4.853a67.847,67.847,0,0,1-26.73,53.288Z" transform="translate(0)" fill="#0b0a0a"/>
        <path id="Trazado_1054450" data-name="Trazado 1054450" d="M45.876,19a26.859,26.859,0,0,0-13.439,3.6,2.444,2.444,0,0,0,2.444,4.227,22.014,22.014,0,1,1-6.6,5.864,2.444,2.444,0,1,0-3.91-2.932A26.879,26.879,0,1,0,45.876,19Z" transform="translate(27.431 27.427)" fill="#0b0a0a"/>
      </g>
      <g id="Grupo_1226111" data-name="Grupo 1226111" transform="translate(57.339 65.043)">
        <path id="Trazado_1054452" data-name="Trazado 1054452" d="M44.943,6,37,13.943l7.943,7.943" transform="translate(-37 -6)" fill="none" stroke="#fff" stroke-linejoin="round" stroke-width="2"/>
        <path id="Trazado_1054453" data-name="Trazado 1054453" d="M52,21.885l7.943-7.943L52,6" transform="translate(-28.172 -6)" fill="none" stroke="#fff" stroke-linejoin="round" stroke-width="2"/>
        <path id="Trazado_1054454" data-name="Trazado 1054454" d="M46,23.474,49.177,6" transform="translate(-31.703 -6)" fill="none" stroke="#fff" stroke-linejoin="round" stroke-width="2"/>
      </g>
    </g>
    <g id="developer_14955817-2" data-name="developer_14955817" transform="translate(1147 792.389)">
      <path id="Trazado_1054443-2" data-name="Trazado 1054443" d="M95.911,50.974A2.373,2.373,0,0,0,94.4,48.995L89.557,47.04A35.888,35.888,0,0,0,84.6,35.091L86.65,30.3a2.422,2.422,0,0,0-.342-2.492,40.806,40.806,0,0,0-5.034-5.034,2.422,2.422,0,0,0-2.492-.342l-4.789,2.053a35.888,35.888,0,0,0-11.949-4.96l-1.955-4.838a2.373,2.373,0,0,0-1.979-1.515,36.636,36.636,0,0,0-7.135,0,2.373,2.373,0,0,0-1.979,1.515L47.04,19.526a35.888,35.888,0,0,0-11.949,4.96L30.3,22.434a2.422,2.422,0,0,0-2.492.342,40.806,40.806,0,0,0-5.034,5.034,2.422,2.422,0,0,0-.342,2.492l2.053,4.789a35.888,35.888,0,0,0-4.96,11.949l-4.838,1.955a2.373,2.373,0,0,0-1.515,1.979,36.636,36.636,0,0,0,0,7.135,2.373,2.373,0,0,0,1.515,1.979l4.838,1.955a35.888,35.888,0,0,0,4.96,11.949l-2.053,4.789a2.422,2.422,0,0,0,.342,2.492,40.806,40.806,0,0,0,5.034,5.034,2.421,2.421,0,0,0,2.492.342L35.091,84.6a35.888,35.888,0,0,0,11.949,4.96L48.995,94.4a2.373,2.373,0,0,0,1.979,1.515,36.636,36.636,0,0,0,7.135,0A2.373,2.373,0,0,0,60.089,94.4l1.955-4.838A35.888,35.888,0,0,0,73.992,84.6l4.789,2.053a2.421,2.421,0,0,0,2.492-.342,40.808,40.808,0,0,0,5.034-5.034,2.422,2.422,0,0,0,.342-2.492L84.6,73.992a35.888,35.888,0,0,0,4.96-11.949L94.4,60.089a2.373,2.373,0,0,0,1.515-1.979A36.636,36.636,0,0,0,95.911,50.974Zm-41.369,28A24.435,24.435,0,1,1,78.977,54.542,24.435,24.435,0,0,1,54.542,78.977Z" transform="translate(18.764 18.764)" fill="#adb2c7"/>
      <path id="Trazado_1054451-2" data-name="Trazado 1054451" d="M24.12,0A24.12,24.12,0,1,1,0,24.12,24.12,24.12,0,0,1,24.12,0Z" transform="translate(49.186 49.186)" fill="#7e8596"/>
      <path id="Trazado_1054444-2" data-name="Trazado 1054444" d="M142.018,133.663l-4.887-4.887a2.524,2.524,0,0,0-1.735-.709H115.017a70.862,70.862,0,1,0-86.305,0H5.89A4.9,4.9,0,0,0,1,132.954v4.887a4.9,4.9,0,0,0,4.887,4.887H135.4a2.524,2.524,0,0,0,1.735-.709l4.887-4.887A2.463,2.463,0,0,0,142.018,133.663ZM15.664,71.866a56.2,56.2,0,1,1,56.2,56.2,56.2,56.2,0,0,1-56.2-56.2Z" transform="translate(1.441 1.44)" fill="#ffc247"/>
      <path id="Trazado_1054445-2" data-name="Trazado 1054445" d="M100.862,33.728a70.872,70.872,0,0,1-70.85,70.862l5.583-5.6a2.463,2.463,0,0,0,0-3.47l-5.6-5.6a56.272,56.272,0,0,0,56.2-56.2l5.6-5.6a2.463,2.463,0,0,1,3.47,0Z" transform="translate(43.306 39.578)" fill="#ffa426"/>
      <path id="Trazado_1054446-2" data-name="Trazado 1054446" d="M71.862,86.2H28.71A70.655,70.655,0,0,1,1,30l5.6,5.6a2.463,2.463,0,0,0,3.47,0l5.6-5.6a56.272,56.272,0,0,0,56.2,56.2Z" transform="translate(1.444 43.306)" fill="#ffc247"/>
      <path id="Trazado_1054447-2" data-name="Trazado 1054447" d="M66.267,10.065l5.6,5.6a56.272,56.272,0,0,0-56.2,56.2l-5.6,5.6a2.463,2.463,0,0,1-3.47,0L1,71.862A70.862,70.862,0,0,1,71.862,1l-5.6,5.6a2.463,2.463,0,0,0,0,3.47Z" transform="translate(1.444 1.444)" fill="#ffa426"/>
      <g id="Grupo_1226110-2" data-name="Grupo 1226110" transform="translate(0)">
        <path id="Trazado_1054448-2" data-name="Trazado 1054448" d="M96.762,63.8A4.9,4.9,0,0,0,99.8,59.758a41.609,41.609,0,0,0,0-7.575,4.9,4.9,0,0,0-3.05-4.017L93.085,46.7a37.875,37.875,0,0,0-4.308-10.38L90.319,32.7a4.794,4.794,0,0,0-.733-5.048,43.456,43.456,0,0,0-5.254-5.288,4.794,4.794,0,0,0-5.043-.733l-3.621,1.547a38.021,38.021,0,0,0-10.395-4.305L63.806,15.21a4.887,4.887,0,0,0-4.044-3.042,42.341,42.341,0,0,0-7.553,0,4.9,4.9,0,0,0-4.042,3.057L46.7,18.875a37.96,37.96,0,0,0-10.38,4.308l-3.616-1.542a4.8,4.8,0,0,0-5.048.733,43.439,43.439,0,0,0-5.288,5.285,4.789,4.789,0,0,0-.733,5.043l1.547,3.624A37.96,37.96,0,0,0,18.877,46.7l-3.665,1.466A4.887,4.887,0,0,0,12.17,52.21a41.42,41.42,0,0,0,0,7.553A4.9,4.9,0,0,0,15.227,63.8l3.651,1.466a37.96,37.96,0,0,0,4.308,10.38l-1.542,3.616a4.789,4.789,0,0,0,.733,5.048A43.269,43.269,0,0,0,27.664,89.6a4.794,4.794,0,0,0,5.043.733l3.624-1.547A37.96,37.96,0,0,0,46.7,93.095l1.466,3.665A4.887,4.887,0,0,0,52.214,99.8c1.038.09,2.392.174,3.91.174,1.148,0,2.387-.049,3.651-.174a4.9,4.9,0,0,0,4.032-3.057l1.466-3.651a37.945,37.945,0,0,0,10.383-4.308l3.614,1.542a4.782,4.782,0,0,0,5.048-.733,43.359,43.359,0,0,0,5.293-5.29,4.8,4.8,0,0,0,.733-5.041L88.8,75.641a37.874,37.874,0,0,0,4.3-10.37Zm-8.149-.841a33.044,33.044,0,0,1-4.621,11.142,2.443,2.443,0,0,0-.2,2.29l2.075,4.772a38.281,38.281,0,0,1-4.674,4.667L76.4,83.79a2.443,2.443,0,0,0-2.29.2,33.114,33.114,0,0,1-11.145,4.623,2.444,2.444,0,0,0-1.757,1.481L59.3,94.927a35.9,35.9,0,0,1-6.6,0l-1.933-4.836a2.444,2.444,0,0,0-1.757-1.481,33.156,33.156,0,0,1-11.145-4.623,2.443,2.443,0,0,0-2.29-.2l-4.772,2.072a38.068,38.068,0,0,1-4.667-4.672L28.187,76.4a2.443,2.443,0,0,0-.2-2.29,33.156,33.156,0,0,1-4.623-11.145A2.444,2.444,0,0,0,21.885,61.2L17.05,59.3a35.906,35.906,0,0,1,0-6.6l4.836-1.933a2.444,2.444,0,0,0,1.481-1.757,33.156,33.156,0,0,1,4.623-11.145,2.444,2.444,0,0,0,.2-2.29L26.115,30.8a38.417,38.417,0,0,1,4.672-4.667l4.794,2.045a2.444,2.444,0,0,0,2.29-.2,33.156,33.156,0,0,1,11.145-4.623,2.444,2.444,0,0,0,1.757-1.481l1.906-4.836a36.122,36.122,0,0,1,6.6,0l1.933,4.836a2.443,2.443,0,0,0,1.757,1.481,33.115,33.115,0,0,1,11.145,4.623,2.444,2.444,0,0,0,2.29.2l4.772-2.072a38.075,38.075,0,0,1,4.667,4.672l-2.045,4.794a2.443,2.443,0,0,0,.2,2.29,33.044,33.044,0,0,1,4.621,11.142A2.444,2.444,0,0,0,90.1,50.768l4.841,1.955a36.386,36.386,0,0,1,0,6.568L90.1,61.224a2.444,2.444,0,0,0-1.486,1.742Z" transform="translate(17.319 17.321)" fill="#0b0a0a"/>
        <path id="Trazado_1054449-2" data-name="Trazado 1054449" d="M73.306,0A73.389,73.389,0,0,0,0,73.306a72.656,72.656,0,0,0,23.5,53.758H7.331A7.331,7.331,0,0,0,0,134.394v4.887a7.331,7.331,0,0,0,7.331,7.331H136.838a4.853,4.853,0,0,0,3.455-1.432l4.887-4.887a4.887,4.887,0,0,0,0-6.91l-4.887-4.887a4.853,4.853,0,0,0-3.455-1.432H123.112a72.656,72.656,0,0,0,23.5-53.758A73.389,73.389,0,0,0,73.306,0Zm68.125,67.114-1.139-1.139a4.887,4.887,0,0,0-6.91,0l-1.71,1.71a58.713,58.713,0,0,0-57.328-53L69.431,9.774l4.853-4.863a68.5,68.5,0,0,1,67.148,62.2ZM73.306,127.063a53.758,53.758,0,1,1,53.758-53.758,53.758,53.758,0,0,1-53.758,53.758ZM67.114,5.18,65.975,6.319a4.887,4.887,0,0,0,0,6.91l1.71,1.71a58.713,58.713,0,0,0-53,57.328L9.774,77.181,4.912,72.328A68.5,68.5,0,0,1,67.114,5.18ZM5.19,79.507l1.129,1.129a4.887,4.887,0,0,0,6.91,0l1.71-1.71A58.772,58.772,0,0,0,49.9,127.063H31.033A67.727,67.727,0,0,1,5.19,79.507Zm-.3,59.773v-4.887a2.444,2.444,0,0,1,2.444-2.444H72.294l4.887,4.887-4.887,4.887H7.331a2.444,2.444,0,0,1-2.444-2.444Zm136.837-2.444-4.887,4.887H99.574a72.729,72.729,0,0,0,17.659-9.774h19.6Zm-26.757-9.266A67.483,67.483,0,0,1,79.5,141.434l1.141-1.141a4.887,4.887,0,0,0,0-6.91l-1.71-1.71a58.713,58.713,0,0,0,53-57.328l4.914-4.914,4.86,4.853a67.847,67.847,0,0,1-26.73,53.288Z" transform="translate(0)" fill="#0b0a0a"/>
        <path id="Trazado_1054450-2" data-name="Trazado 1054450" d="M45.876,19a26.859,26.859,0,0,0-13.439,3.6,2.444,2.444,0,0,0,2.444,4.227,22.014,22.014,0,1,1-6.6,5.864,2.444,2.444,0,1,0-3.91-2.932A26.879,26.879,0,1,0,45.876,19Z" transform="translate(27.431 27.427)" fill="#0b0a0a"/>
      </g>
      <g id="Grupo_1226111-2" data-name="Grupo 1226111" transform="translate(57.339 65.043)">
        <path id="Trazado_1054452-2" data-name="Trazado 1054452" d="M44.943,6,37,13.943l7.943,7.943" transform="translate(-37 -6)" fill="none" stroke="#fff" stroke-linejoin="round" stroke-width="2"/>
        <path id="Trazado_1054453-2" data-name="Trazado 1054453" d="M52,21.885l7.943-7.943L52,6" transform="translate(-28.172 -6)" fill="none" stroke="#fff" stroke-linejoin="round" stroke-width="2"/>
        <path id="Trazado_1054454-2" data-name="Trazado 1054454" d="M46,23.474,49.177,6" transform="translate(-31.703 -6)" fill="none" stroke="#fff" stroke-linejoin="round" stroke-width="2"/>
      </g>
    </g>
  </g>
</svg>
