<svg xmlns="http://www.w3.org/2000/svg" width="340.152" height="223" viewBox="0 0 340.152 223">
  <g id="Grupo_1226051" data-name="Grupo 1226051" transform="translate(-278.484 -4687.168)">
    <g id="Grupo_1226050" data-name="Grupo 1226050">
      <path id="Trazado_1054376" data-name="Trazado 1054376" d="M0,69.245A69.244,69.244,0,1,0,69.245,0,69.245,69.245,0,0,0,0,69.245" transform="translate(333.514 4771.679)" fill="#e4e4e4" opacity="0.64"/>
      <path id="Trazado_1054377" data-name="Trazado 1054377" d="M0,48.755A48.754,48.754,0,1,0,48.755,0,48.755,48.755,0,0,0,0,48.755" transform="translate(472.002 4687.168)" fill="#e4e4e4" opacity="0.64"/>
    </g>
    <g id="Grupo_1226153" data-name="Grupo 1226153" transform="translate(305 4743.499)">
      <g id="Grupo_1226157" data-name="Grupo 1226157" transform="translate(-26.516 -13.54)">
        <path id="Trazado_1054685" data-name="Trazado 1054685" d="M98.086,68.3c0,27.217-21.579,49.3-48.214,49.3S1.66,95.519,1.66,68.3,23.239,19,49.873,19,98.086,41.084,98.086,68.3" transform="translate(-0.182 -2.085)" fill="#d33833"/>
        <path id="Trazado_1054686" data-name="Trazado 1054686" d="M3.575,80.894s-3.5-51.4,43.9-52.879l-3.305-5.521-25.7,8.632-7.349,8.438L4.7,51.849,1.048,66.157l1.089,9.565" transform="translate(-0.115 -2.469)" fill="#ef3d3a"/>
        <path id="Trazado_1054687" data-name="Trazado 1054687" d="M16.68,34.506a48.646,48.646,0,0,0,0,67.654,45.924,45.924,0,0,0,66.021,0,48.646,48.646,0,0,0,0-67.654,45.924,45.924,0,0,0-66.021,0m-2.138,69.715a51.6,51.6,0,0,1,0-71.815,48.928,48.928,0,0,1,70.3,0,51.6,51.6,0,0,1,0,71.815,48.926,48.926,0,0,1-70.3,0" transform="translate(0 -1.923)" fill="#231f20"/>
        <path id="Trazado_1054688" data-name="Trazado 1054688" d="M72.23,66.724l-7.349,1.089L54.967,68.94l-6.415.155-6.26-.194-4.782-1.478-4.238-4.588-3.3-9.37-.739-2.022-4.393-1.478-2.567-4.238L20.44,39.662l2.022-5.327,4.782-1.672,3.849,1.828,1.828,4.043,2.217-.35.738-.933-.738-4.238-.195-5.326,1.089-7.349-.039-4.2,3.345-5.365,5.871-4.238L55.473,2.141,66.865,3.813l9.915,7.154,4.588,7.349,2.955,5.327.739,13.219L82.845,48.255,78.8,58.364l-3.81,5.4" transform="translate(-2.243 -0.235)" fill="#f0d6b7"/>
        <path id="Trazado_1054689" data-name="Trazado 1054689" d="M65.238,106.131,38.993,107.22v4.393l2.217,15.436-1.089,1.284-18.352-6.26-1.284-2.217L18.658,99.094,14.342,86.652,13.409,83.7l14.7-10.109,4.588-1.828,4.043,4.976,3.5,3.11,4.043,1.284,1.828.544,2.216,9.565L50,93.261l4.238-1.477L51.279,97.5l15.942,7.543Z" transform="translate(-1.472 -7.876)" fill="#335061"/>
        <path id="Trazado_1054690" data-name="Trazado 1054690" d="M22.62,34.629,27.4,32.957l3.849,1.828,1.828,4.043,2.216-.35.545-2.217-1.089-4.238,1.089-10.11-.934-5.521,3.305-3.849,7.154-5.676L43.344,4.107,33.235,9.083,29,12.389l-2.372,5.132L22.97,22.5l-1.089,5.871Z" transform="translate(-2.402 -0.451)" fill="#6d6b6d"/>
        <path id="Trazado_1054691" data-name="Trazado 1054691" d="M30.661,17.446s2.761-6.8,13.764-10.11.545-2.372.545-2.372L33.033,9.553l-4.588,4.588L26.423,17.8Z" transform="translate(-2.9 -0.532)" fill="#dcd9d8"/>
        <path id="Trazado_1054692" data-name="Trazado 1054692" d="M24.642,34.865s-3.849-12.87,10.848-14.7l-.544-2.217-10.11,2.372-2.955,9.566.739,6.259Z" transform="translate(-2.402 -1.97)" fill="#dcd9d8"/>
        <path id="Trazado_1054693" data-name="Trazado 1054693" d="M31.577,55.836,33.988,53.5a1.549,1.549,0,0,1,1.283,1.4c.195,1.283.739,12.869,8.632,19.09.739.584-5.871-.933-5.871-.933L32.16,63.885" transform="translate(-3.466 -5.873)" fill="#f7e4cd"/>
        <path id="Trazado_1054694" data-name="Trazado 1054694" d="M69.53,51.557s.427-5.56,1.944-5.132a2.079,2.079,0,0,1,1.516,1.944s-3.654,2.332-3.46,3.188" transform="translate(-7.631 -5.093)" fill="#f7e4cd"/>
        <path id="Trazado_1054695" data-name="Trazado 1054695" d="M86.243,29.307s-3.033.622-3.3,3.3,3.3.545,3.849.35" transform="translate(-9.102 -3.217)" fill="#f7e4cd"/>
        <path id="Trazado_1054696" data-name="Trazado 1054696" d="M61.215,29.526s-4.043.544-4.043,3.11,4.587,2.372,5.87,1.283" transform="translate(-6.275 -3.241)" fill="#f7e4cd"/>
        <path id="Trazado_1054697" data-name="Trazado 1054697" d="M32.2,42.277s-6.96-4.238-7.7-.194-2.372,6.96,1.089,11.2l-2.372-.739L21,46.865l-.738-5.521L24.5,36.95l4.782.351,2.761,2.216Z" transform="translate(-2.224 -4.056)" fill="#f7e4cd"/>
        <path id="Trazado_1054698" data-name="Trazado 1054698" d="M37.362,26.7s3.11-16.175,18.9-19.285c12.987-2.567,19.83.544,22.4,3.5,0,0-11.586-13.764-22.59-9.565-11,4.238-19.091,11.936-18.9,16.874.311,8.476.194,8.476.194,8.476" transform="translate(-4.079 -0.06)" fill="#f7e4cd"/>
        <path id="Trazado_1054699" data-name="Trazado 1054699" d="M84.53,14.239s-5.327-.194-5.521,4.588a3.85,3.85,0,0,0,.35,1.477s4.238-4.782,6.8-2.216" transform="translate(-8.672 -1.563)" fill="#f7e4cd"/>
        <path id="Trazado_1054700" data-name="Trazado 1054700" d="M57.748,21.078s-.933-7.31-7.154-3.071c-4.044,2.761-3.655,6.609-2.956,7.348.739.739.545,2.217,1.089,1.205s.389-4.316,2.411-5.249c1.983-.933,5.327-1.944,6.61-.233" transform="translate(-5.18 -1.831)" fill="#f7e4cd"/>
        <path id="Trazado_1054701" data-name="Trazado 1054701" d="M36.781,76.717l-17.264,7.7s7.154,28.461,3.5,37.288l-2.567-.934-.194-10.848-4.782-20.53-2.022-5.676,18-12.131Z" transform="translate(-1.476 -7.857)" fill="#49728b"/>
        <path id="Trazado_1054702" data-name="Trazado 1054702" d="M41.522,95.039l2.45,2.994v11H41.056s-.35-7.7-.35-8.632.35-4.238.35-4.238" transform="translate(-4.468 -10.432)" fill="#49728b"/>
        <path id="Trazado_1054703" data-name="Trazado 1054703" d="M40.689,112.64l-8.282.35,2.372,1.672,5.871.933" transform="translate(-3.557 -12.364)" fill="#49728b"/>
        <path id="Trazado_1054704" data-name="Trazado 1054704" d="M73.462,110.563l6.8-.194,1.672,16.874-6.96.933Z" transform="translate(-8.063 -12.114)" fill="#335061"/>
        <path id="Trazado_1054705" data-name="Trazado 1054705" d="M75.515,105.99l10.264-.544s4.238-10.654,4.238-11.2,3.654-15.436,3.654-15.436L85.391,70.18,83.719,68.7,79.325,73.1V90.165Z" transform="translate(-8.289 -7.541)" fill="#335061"/>
        <path id="Trazado_1054706" data-name="Trazado 1054706" d="M79.878,109.146l-6.415,1.283.933,5.132c2.372,1.089,6.415-1.827,6.415-1.827" transform="translate(-8.063 -11.98)" fill="#49728b"/>
        <path id="Trazado_1054707" data-name="Trazado 1054707" d="M80.887,72.557l12.87,9.565.35-4.393-9.721-8.982Z" transform="translate(-8.878 -7.546)" fill="#49728b"/>
        <path id="Trazado_1054708" data-name="Trazado 1054708" d="M48.13,146.743l-3.81-15.436-1.905-11.392-.312-8.438,17.225-.933H70.02l-.972,19.285,1.672,14.892-.194,2.761L56.568,148.57Z" transform="translate(-4.621 -12.133)" fill="#fff"/>
        <path id="Trazado_1054709" data-name="Trazado 1054709" d="M69.35,110.235s-.933,19.091,1.828,32.7a34.824,34.824,0,0,1-13.57,4.393l15.436-.544,1.828-1.089L72.655,115.6l-.583-6.454" transform="translate(-6.323 -11.98)" fill="#dcd9d8"/>
        <path id="Trazado_1054710" data-name="Trazado 1054710" d="M83.049,125.191,90.2,123.17l13.57-.739,2.022-6.26-3.654-10.848-4.238-.545-5.871,1.828-5.6,2.761-2.994-.544-2.333.933" transform="translate(-8.902 -11.501)" fill="#fff"/>
        <path id="Trazado_1054711" data-name="Trazado 1054711" d="M83.158,121.948s4.782-2.217,5.521-2.022l-2.022-10.11,2.372-.933s1.672,9.565,1.672,10.653c0,0,10.264.545,11.2.545a16.721,16.721,0,0,0,1.672-8.632l2.022,5.871.194,3.3-2.955,4.393-3.305.739-5.521-.194-1.827-2.372-6.416.933-2.022.739" transform="translate(-9.127 -11.951)" fill="#dcd9d8"/>
        <path id="Trazado_1054712" data-name="Trazado 1054712" d="M74.014,106.6,69.97,96.334l-4.239-6.066s.933-2.566,2.217-2.566h4.238l4.044,1.477-.351,6.8Z" transform="translate(-7.215 -9.626)" fill="#fff"/>
        <path id="Trazado_1054713" data-name="Trazado 1054713" d="M74.8,103.046s-5.132-9.915-5.132-11.392c0,0,.933-2.216,2.216-1.672S75.925,92,75.925,92V88.5l-6.26-1.283-4.238.545,7.154,16.952,1.478.194" transform="translate(-7.181 -9.574)" fill="#dcd9d8"/>
        <path id="Trazado_1054714" data-name="Trazado 1054714" d="M49.49,77.538,44.4,76.994l-4.783-1.478v1.672l2.333,2.567,7.349,3.3" transform="translate(-4.348 -8.289)" fill="#fff"/>
        <path id="Trazado_1054715" data-name="Trazado 1054715" d="M41.43,78.4s5.677,2.372,7.543,1.828l.194,2.216-5.132-1.089-3.11-2.216Z" transform="translate(-4.492 -8.605)" fill="#dcd9d8"/>
        <path id="Trazado_1054716" data-name="Trazado 1054716" d="M82.162,87.145a33.933,33.933,0,0,1-8.4-1.166c.156-1.011-.156-1.983.117-2.722a6.43,6.43,0,0,1,2.877-.621,4.967,4.967,0,0,0-3.188-.35,5.268,5.268,0,0,0-.545-1.672c1.75-.622,5.871-4.7,8.2-3.383,1.127.661,1.594,4.316,1.672,6.143a6.433,6.433,0,0,1-.739,3.772" transform="translate(-8.015 -8.448)" fill="#d33833"/>
        <path id="Trazado_1054717" data-name="Trazado 1054717" d="M82.162,87.145a33.933,33.933,0,0,1-8.4-1.166c.156-1.011-.156-1.983.117-2.722a6.43,6.43,0,0,1,2.877-.621,4.967,4.967,0,0,0-3.188-.35,5.268,5.268,0,0,0-.545-1.672c1.75-.622,5.871-4.7,8.2-3.383,1.127.661,1.594,4.316,1.672,6.143a6.433,6.433,0,0,1-.739,3.772" transform="translate(-8.015 -8.448)"/>
        <path id="Trazado_1054718" data-name="Trazado 1054718" d="M82.162,87.145a33.933,33.933,0,0,1-8.4-1.166c.156-1.011-.156-1.983.117-2.722a6.43,6.43,0,0,1,2.877-.621,4.967,4.967,0,0,0-3.188-.35,5.268,5.268,0,0,0-.545-1.672c1.75-.622,5.871-4.7,8.2-3.383,1.127.661,1.594,4.316,1.672,6.143A6.433,6.433,0,0,1,82.162,87.145Z" transform="translate(-8.015 -8.448)" fill="none" stroke="#d33833" stroke-width="2"/>
        <path id="Trazado_1054719" data-name="Trazado 1054719" d="M64.881,82.146a4.1,4.1,0,0,1-.04.7c-.972.622-2.527.622-3.615,1.166a10.216,10.216,0,0,1,3.888.972c-.039.583-.039,1.205-.077,1.788-1.788,1.205-3.422,3.033-5.52,4.2-1.012.545-4.473,1.944-5.521,1.672-.584-.155-.661-.894-.9-1.594-.5-1.478-1.672-3.889-1.788-6.144-.117-2.838-.427-7.62,2.643-7.037a26.8,26.8,0,0,1,7.271,2.644c1.2.7,1.866,1.477,3.655,1.633" transform="translate(-5.624 -8.542)" fill="#d33833"/>
        <path id="Trazado_1054720" data-name="Trazado 1054720" d="M64.881,82.146a4.1,4.1,0,0,1-.04.7c-.972.622-2.527.622-3.615,1.166a10.216,10.216,0,0,1,3.888.972c-.039.583-.039,1.205-.077,1.788-1.788,1.205-3.422,3.033-5.52,4.2-1.012.545-4.473,1.944-5.521,1.672-.584-.155-.661-.894-.9-1.594-.5-1.478-1.672-3.889-1.788-6.144-.117-2.838-.427-7.62,2.643-7.037a26.8,26.8,0,0,1,7.271,2.644c1.2.7,1.866,1.477,3.655,1.633" transform="translate(-5.624 -8.542)"/>
        <path id="Trazado_1054721" data-name="Trazado 1054721" d="M64.881,82.146a4.1,4.1,0,0,1-.04.7c-.972.622-2.527.622-3.615,1.166a10.216,10.216,0,0,1,3.888.972c-.039.583-.039,1.205-.077,1.788-1.788,1.205-3.422,3.033-5.52,4.2-1.012.545-4.473,1.944-5.521,1.672-.584-.155-.661-.894-.9-1.594-.5-1.478-1.672-3.889-1.788-6.144-.117-2.838-.427-7.62,2.643-7.037a26.8,26.8,0,0,1,7.271,2.644C62.43,81.213,63.091,81.99,64.881,82.146Z" transform="translate(-5.624 -8.542)" fill="none" stroke="#d33833" stroke-width="2"/>
        <path id="Trazado_1054722" data-name="Trazado 1054722" d="M68.466,85.99A10.634,10.634,0,0,1,68,82.646c4.16-2.761,4.9,4.743.466,3.344" transform="translate(-7.461 -9.004)" fill="#d33833"/>
        <path id="Trazado_1054723" data-name="Trazado 1054723" d="M68.466,85.99A10.634,10.634,0,0,1,68,82.646c4.16-2.761,4.9,4.743.466,3.344" transform="translate(-7.461 -9.004)"/>
        <path id="Trazado_1054724" data-name="Trazado 1054724" d="M68.466,85.99A10.634,10.634,0,0,1,68,82.646C72.16,79.885,72.9,87.389,68.466,85.99Z" transform="translate(-7.461 -9.004)" fill="none" stroke="#d33833" stroke-width="2"/>
        <path id="Trazado_1054725" data-name="Trazado 1054725" d="M74.941,86.515s-1.283-1.828-.35-2.372,1.828,0,2.372-.933,0-1.478.195-2.567,1.088-1.283,2.022-1.478,3.5-.544,3.849.35l-1.089-3.3-2.217-.739-6.96,4.043-.35,2.023v4.043" transform="translate(-7.948 -8.284)" fill="#ef3d3a"/>
        <path id="Trazado_1054726" data-name="Trazado 1054726" d="M53.168,92.719c-.233-2.877-.466-5.715-.7-8.593-.389-4.278,1.01-3.539,4.743-3.539.583,0,3.5.661,3.694,1.089,1.011,2.061-1.672,1.594,1.167,3.15,2.372,1.283,6.61-.778,5.638-3.694-.545-.661-2.8-.195-3.616-.622l-4.316-2.217c-1.828-.933-6.027-2.332-7.971-1.01-4.937,3.344.312,11.742,2.061,15.242" transform="translate(-5.46 -8.423)" fill="#ef3d3a"/>
        <path id="Trazado_1054727" data-name="Trazado 1054727" d="M57.829,21.255c-5.016-1.166-7.5,2.1-9.021,5.482-1.36-.311-.816-2.178-.466-3.111.895-2.449,4.511-5.755,7.466-5.288,1.244.156,2.955,1.322,2.022,2.916" transform="translate(-5.261 -2.008)" fill="#231f20"/>
        <path id="Trazado_1054728" data-name="Trazado 1054728" d="M86.017,28h.233a52.623,52.623,0,0,0,3.539,6.921c-.972,2.255-7.232,4.2-7.155.233,1.361-.583,3.694-.117,4.9-.894-.7-1.905-1.672-3.539-1.516-6.26" transform="translate(-9.07 -3.073)" fill="#231f20"/>
        <path id="Trazado_1054729" data-name="Trazado 1054729" d="M61.386,28.084c1.089,1.983,1.439,4.043,2.955,5.521.7.661,2.022,1.478,1.361,3.344a4.285,4.285,0,0,1-1.944,1.594c-2.372.7-7.932.155-6.065-2.839,1.983.078,4.627,1.284,6.1-.155-1.128-1.788-3.15-5.366-2.411-7.466" transform="translate(-6.291 -3.083)" fill="#231f20"/>
        <path id="Trazado_1054730" data-name="Trazado 1054730" d="M83.615,48.309c-3.577,2.294-7.582,4.822-13.492,4.238a3.98,3.98,0,0,1-.506-5.133c.622,1.089.233,3.111,2.022,3.422,3.344.583,7.232-2.061,9.642-2.955,1.478-2.526-.117-3.422-1.477-5.055-2.761-3.305-6.416-7.426-6.3-12.365,1.128-.816,1.205,1.245,1.361,1.594,1.439,3.344,5.055,7.66,7.66,10.537.661.7,1.711,1.4,1.828,1.866.35,1.322-.895,2.955-.739,3.849" transform="translate(-7.562 -3.323)" fill="#231f20"/>
        <path id="Trazado_1054731" data-name="Trazado 1054731" d="M31.364,47.041c-1.128-.661-1.4-3.46-2.721-3.538-1.905-.117-1.555,3.654-1.555,5.871-1.284-1.167-1.517-4.822-.583-6.688-1.089-.544-1.555.583-2.178.972.816-5.638,8.282-2.6,7.037,3.383" transform="translate(-2.67 -4.464)" fill="#231f20"/>
        <path id="Trazado_1054732" data-name="Trazado 1054732" d="M86.846,53.2C85.173,56.386,82.8,59.885,77.9,60a11.142,11.142,0,0,1,0-3.227c3.771-.389,6.1-2.294,8.943-3.577" transform="translate(-8.538 -5.839)" fill="#231f20"/>
        <path id="Trazado_1054733" data-name="Trazado 1054733" d="M61.583,55.512c3.11,1.633,8.864,1.828,13.141,1.711a14.168,14.168,0,0,1,.233,3.227c-5.482.233-11.936-1.128-13.374-4.938" transform="translate(-6.759 -6.093)" fill="#231f20"/>
        <path id="Trazado_1054734" data-name="Trazado 1054734" d="M60.763,58.919c2.178,5.444,9.6,4.822,15.864,4.666a3.151,3.151,0,0,1-1.634,1.828c-2.022.816-7.543,1.439-10.342-.039-1.75-.933-2.916-3.071-3.889-4.316-.427-.583-2.761-2.1,0-2.138" transform="translate(-6.524 -6.467)" fill="#231f20"/>
        <path id="Trazado_1054735" data-name="Trazado 1054735" d="M84.141,92.288a108.781,108.781,0,0,1-7.97,12.637c1.244-3.694,1.788-9.915,1.983-14.659a4.607,4.607,0,0,1,5.988,2.022" transform="translate(-8.361 -9.858)" fill="#81b0c4"/>
        <path id="Trazado_1054736" data-name="Trazado 1054736" d="M99.514,110.151c-2.838.583-4.822,3.344-7.62,3.15,1.555-2.138,4.2-3.072,7.62-3.15" transform="translate(-10.086 -12.09)" fill="#231f20"/>
        <path id="Trazado_1054737" data-name="Trazado 1054737" d="M100.94,115.047a42.782,42.782,0,0,1-7.387.427c1.127-1.71,5.4-1.088,7.387-.427" transform="translate(-10.268 -12.553)" fill="#231f20"/>
        <path id="Trazado_1054738" data-name="Trazado 1054738" d="M101.743,119.325c-2.606.039-5.833,0-8.321-.194,1.477-1.594,6.648-.584,8.321.194" transform="translate(-10.254 -12.983)" fill="#231f20"/>
        <path id="Trazado_1054739" data-name="Trazado 1054739" d="M79.234,131.24c.389,3.266,1.672,6.571,1.516,10.148a10.994,10.994,0,0,1-4.2.895c-.117-3.033-.544-7.7-.427-10.615.933.078,2.332-.661,3.111-.427" transform="translate(-8.353 -14.4)" fill="#dcd9d8"/>
        <path id="Trazado_1054740" data-name="Trazado 1054740" d="M73.667,77.088c-1.322.856-2.411,1.905-3.694,2.838-2.8.156-4.316-.194-6.338-1.788.038-.117.233-.077.233-.233,2.993,1.322,6.8-.544,9.8-.816" transform="translate(-6.985 -8.461)" fill="#f0d6b7"/>
        <path id="Trazado_1054741" data-name="Trazado 1054741" d="M57.346,99.024c.816-3.538,4.043-5.4,6.96-7.349,2.994,3.811,4.822,8.71,6.843,13.453a68.918,68.918,0,0,1-13.8-6.1" transform="translate(-6.294 -10.062)" fill="#81b0c4"/>
        <path id="Trazado_1054742" data-name="Trazado 1054742" d="M69.045,117.307c-.117,2.916.272,7.543.427,10.615a11,11,0,0,0,4.2-.895c.156-3.577-1.128-6.882-1.516-10.148-.778-.272-2.178.466-3.111.427M39.028,100.821A152.376,152.376,0,0,0,45.521,132.7c7.5,2.294,16.525,2.488,23.174.427-1.205-5.832-.7-12.948-1.4-19.207-.544-4.7-.272-9.41-1.01-14.192-8.049-1.672-19.4-.389-27.256,1.089M68.189,99.81c-.078,5.017.233,9.993.622,15.009a48.17,48.17,0,0,0,5.016-.894c-.583-4.822-.506-10.3-1.711-14.581a12.36,12.36,0,0,0-3.927.466m9.759-.816a13.866,13.866,0,0,0-2.838,0c.427,4.083,1.4,8.593,1.749,12.909,1.361.038,2.1-.622,3.227-.817.078-3.771-.311-8.982-2.138-12.092m14.814,13.531c2.877-.7,4.666-4.2,3.849-7.815-.545-2.411-1.478-7-2.527-8.554-.739-1.128-2.8-2.644-4.472-1.594-2.683,1.711-7.387,2.217-9.331,4.278.972,3.265,1.283,7.7,1.672,11.82,3.344.194,7.426-.933,10.226.272-1.944.621-4.432.621-6.1,1.555,1.4.661,4.587.544,6.687.038M66.089,95.067c-2.022-4.743-3.849-9.643-6.843-13.453-2.916,1.944-6.1,3.81-6.96,7.349a70.947,70.947,0,0,0,13.8,6.1m4.977-14.659c-.195,4.744-.739,10.965-1.983,14.659A112.127,112.127,0,0,0,77.054,82.43a4.608,4.608,0,0,0-5.988-2.022m-5.638-1.983c-1.128-.117-2.1,1.322-3.577.7-.35.389-.661.778-1.011,1.166,3.266,3.966,4.782,9.566,7.31,14.192,1.361-4.472,1.205-9.331,1.516-14.192-1.866.078-2.916-1.749-4.238-1.866m-3.616-4.782a10.638,10.638,0,0,0,.466,3.344c4.433,1.4,3.694-6.1-.466-3.344M56.874,72.01A26.807,26.807,0,0,0,49.6,69.367c-3.071-.584-2.761,4.2-2.644,7.037.117,2.255,1.283,4.627,1.788,6.144.233.7.311,1.439.895,1.594,1.05.233,4.549-1.127,5.52-1.672,2.1-1.127,3.733-2.955,5.521-4.2.039-.583.039-1.205.078-1.788a9.387,9.387,0,0,0-3.889-.972c1.05-.544,2.644-.544,3.616-1.166a4.193,4.193,0,0,1,.039-.7c-1.788-.195-2.45-.972-3.655-1.634M38.6,68.705c-1.594,1.633,4.471,3.81,6.376,3.927,0-1.01.584-1.983.467-2.721-2.294-.389-5.288-.117-6.843-1.205m19.6.739c0,.156-.194.117-.233.233,2.061,1.594,3.577,1.944,6.338,1.788,1.245-.895,2.372-1.983,3.694-2.838-3.032.272-6.842,2.138-9.8.816M76.16,74.887c-.077-1.788-.544-5.482-1.672-6.143-2.332-1.361-6.454,2.761-8.2,3.382a5.3,5.3,0,0,1,.544,1.673,4.941,4.941,0,0,1,3.189.35,6.427,6.427,0,0,0-2.877.621c-.234.739.077,1.711-.117,2.722a35.872,35.872,0,0,0,8.4,1.166,6.286,6.286,0,0,0,.739-3.772M35.917,70.26c-.506-.35-3.888-4.743-4.355-4.549-6.1,2.411-11.82,6.571-16.913,10.537,4.86,10.459,6.842,23.251,7.193,35.577,5.56,2.6,10.459,6.377,18.041,6.766-.895-6.183-1.672-11.742-2.178-17.575-1.905-.816-4.627.039-6.415-.233,0-2.138,2.721-.933,2.955-2.372.156-1.089-1.516-1.166-.972-2.877,1.4.506,2.138,1.634,3.616,2.061,1.361-2.955,0-8.2.194-10.693.039-.466.233-2.566,1.284-2.216.933.311-.039,5.638.038,7.97.078,2.178-.272,4.238.622,5.6A208.95,208.95,0,0,1,61.7,96.389a50.68,50.68,0,0,1-6.065-2.721c-1.245-.7-5.094-2.138-5.444-3.305-.583-1.866,1.478-2.838,1.828-4.433-3.694,2.022-4.394-1.943-5.288-4.7a38.721,38.721,0,0,1-1.439-5.871,73.77,73.77,0,0,1-9.371-5.094m37.015-4.043c5.094-2.45,6.027,9.215,4.005,12.986.311,1.128,1.36,1.555,1.788,2.567-2.838,5.093-5.988,9.837-8.9,14.853,2.138-1.361,5.249-.233,7.776-1.245.933-.35,1.594-2.488,2.294-4.2a89.631,89.631,0,0,0,4.861-15.008,17.674,17.674,0,0,0,.621-4.122c-.233-1.633-2.411-2.838-3.538-3.81-2.061-1.867-3.344-3.46-5.521-5.211-.816,1.284-2.683,2.139-3.383,3.189M24.292,21.076c-2.411,2.682-1.905,7.66-1.633,11.237,4.393-2.761,10.187.233,10.148,4.9,2.1-.039.778-2.6.389-4.277-1.245-5.4,2.1-11.237.156-16.175a13.217,13.217,0,0,0-9.06,4.316M41.633,5.561c-5.482,1.555-12.519,5.56-14.774,10.5,1.749-.272,2.955-1.127,4.666-1.244a10.8,10.8,0,0,0,2.255.077c1.478-.389,2.761-3.733,3.889-4.976,1.088-1.205,2.41-1.75,3.3-2.839.583-.272,1.439-.272,1.478-1.127a.844.844,0,0,0-.817-.389M70.211,7.039C64.5,3.812,54.853,1.4,48.787,4.433c-4.9,2.45-11.509,6.493-13.764,11.587,2.1,4.937-.622,9.448-.817,14.464-.077,2.683,1.245,4.976,1.361,7.893-.739,1.205-2.916,1.322-4.433,1.245-.506-2.567-1.4-5.444-4.043-5.755a6.12,6.12,0,0,0-6.649,5.909c-.194,3.811,2.916,10.11,7.349,9.682,1.711-.156,2.138-1.867,4.005-1.867,1.01,2.022-1.556,2.644-1.828,4.083a9.721,9.721,0,0,0,.389,2.527A35.123,35.123,0,0,0,34.712,64.35c2.255,3.227,6.649,3.694,11.392,4.005.856-1.828,3.966-1.672,5.988-1.205-2.449-.972-4.7-3.3-6.571-5.365-2.138-2.372-4.316-4.9-4.432-8.009C45.171,59.413,48.515,64.35,55.9,66.839c5.6,1.866,12.131-.856,16.447-3.889,1.788-1.245,2.838-3.266,4.122-5.055,4.743-6.843,6.96-16.564,6.493-26.012C82.77,28,82.77,24.108,81.448,21.5c-1.361-2.721-5.988-5.211-8.709-2.721-.506-2.683,2.255-4.316,5.482-3.344-2.294-2.994-4.7-6.533-8.009-8.4M80.865,94.95c4.472-2.217,12.792-5.949,15.552,0a46.333,46.333,0,0,1,2.761,8.2c.739,3.188-.816,9.953-4.121,11a19.752,19.752,0,0,1-9.8.194,5.678,5.678,0,0,1-1.205-1.555,13.415,13.415,0,0,0-6.8,1.166c.195,1.867-1.05,2.138-2.255,2.527-.856,3.46,1.749,7.971,1.128,11.082-.428,2.255-3.189,2.6-5.211,2.994a15.235,15.235,0,0,0,.233,3.344c-.466,1.711-2.527,2.682-4.51,2.916-6.493.777-16.331,1.127-22.552-1.128-1.749-4.277-3.111-9.448-4.549-14.309-6.065.661-11-2.6-15.631-4.782-1.594-.739-3.81-1.166-4.433-2.449-.583-1.245-.35-3.616-.5-5.833a89.654,89.654,0,0,0-2.178-17.069c-.661-2.644-1.867-4.938-2.683-7.466-.777-2.332-2.1-5.249-2.449-7.582-.506-3.46,2.761-3.654,4.821-5.171,3.227-2.333,5.755-3.616,9.254-5.716,1.05-.622,4.16-2.178,4.51-2.916.7-1.439-1.2-3.461-1.71-4.588a13.838,13.838,0,0,1-1.361-5.055,9.79,9.79,0,0,1-6.493-4.16C18.46,45.337,16.9,39.31,18.849,34.761c.155-.35.894-1.089,1.01-1.633.233-1.089-.427-2.527-.466-3.694-.194-5.949,1.011-11.082,5.016-12.87,1.634-6.493,7.466-8.632,12.948-11.859a40.713,40.713,0,0,1,6.649-2.838C52.364-1.2,65.234-.62,72.194,4.628c2.956,2.216,7.66,6.921,9.332,10.342C86,23.953,85.647,39,82.536,49.964a35.96,35.96,0,0,1-1.866,5.4c-.584,1.245-2.411,3.694-2.217,4.782.233,1.128,4.2,4.122,5.055,4.938,1.516,1.478,4.433,3.422,4.666,5.288.272,1.983-.856,4.7-1.439,6.61C84.87,83.364,83,89.235,80.865,94.95" transform="translate(-1.274 0)" fill="#231f20"/>
        <path id="Trazado_1054743" data-name="Trazado 1054743" d="M55.976,56.988c.233-.311,1.555-.816,3.421.077,0,0-2.216.35-2.022,4.044l-.933-.195c.039.039-.933-3.3-.466-3.927" transform="translate(-6.13 -6.208)" fill="#f7e4cd"/>
        <path id="Trazado_1054744" data-name="Trazado 1054744" d="M73.825,92.381a1.011,1.011,0,1,1-1.011-1.011,1,1,0,0,1,1.011,1.011" transform="translate(-7.881 -10.029)" fill="#1d1919"/>
        <path id="Trazado_1054745" data-name="Trazado 1054745" d="M74.96,97.665a1.011,1.011,0,1,1-1.011-1.011.981.981,0,0,1,1.011,1.011" transform="translate(-8.006 -10.609)" fill="#1d1919"/>
        <g id="Grupo_1226156" data-name="Grupo 1226156" transform="translate(113.84 46.802)">
          <path id="Trazado_1054746" data-name="Trazado 1054746" d="M170.78,58.85q-1.06.132-1.855.265c-.53.088-1.059.176-1.766.353a1.7,1.7,0,0,0-1.414,1.059,5.241,5.241,0,0,0-.353,1.767V83.849a12.759,12.759,0,0,1-1.237,5.477,11.6,11.6,0,0,1-3.268,4.151,15.312,15.312,0,0,1-4.77,2.473,19.29,19.29,0,0,1-5.565.884,12.91,12.91,0,0,1-8.3-2.474,8.144,8.144,0,0,1-3.18-6.8,6.309,6.309,0,0,1,1.414-4.24,4.9,4.9,0,0,1,3.975-1.678,5.063,5.063,0,0,1,3.8,1.414,4.667,4.667,0,0,1,1.413,3.444,5.2,5.2,0,0,1-1.237,3.269,16.645,16.645,0,0,1-2.827,2.738v.353a2.3,2.3,0,0,0,1.06.971,3.823,3.823,0,0,0,1.678.353,6.26,6.26,0,0,0,5.211-2.385q1.855-2.385,1.855-7.155V62.559a4.769,4.769,0,0,0-.265-1.678c-.176-.442-.707-.795-1.5-1.148a9.276,9.276,0,0,0-2.032-.618c-.795-.177-1.413-.265-1.943-.353V56.641h20.847V58.85Z" transform="translate(-139.068 -53.019)" fill="#231f20"/>
          <path id="Trazado_1054747" data-name="Trazado 1054747" d="M207.8,90.608a18.12,18.12,0,0,1-2.3,3A13.7,13.7,0,0,1,202.409,96a16.77,16.77,0,0,1-3.71,1.591,16.168,16.168,0,0,1-4.328.53,19.127,19.127,0,0,1-7.067-1.148,13.513,13.513,0,0,1-4.859-3.092,13.145,13.145,0,0,1-2.915-4.594,17.388,17.388,0,0,1-.972-5.741,13.951,13.951,0,0,1,1.06-5.389,15.628,15.628,0,0,1,2.915-4.594,13.3,13.3,0,0,1,4.771-3.18,16.654,16.654,0,0,1,6.36-1.237,18.509,18.509,0,0,1,6.36.972,11.03,11.03,0,0,1,4.063,2.561,10.082,10.082,0,0,1,2.3,3.711,15.029,15.029,0,0,1,.707,4.5v1.767H188.453c0,3.8.706,6.624,2.208,8.568,1.414,1.943,3.8,2.916,6.89,2.916a7.914,7.914,0,0,0,4.682-1.414,12.567,12.567,0,0,0,3.533-3.621ZM197.286,80.1c0-1.06-.088-2.209-.176-3.357a7.91,7.91,0,0,0-.619-2.827,4.017,4.017,0,0,0-1.325-1.943,3.1,3.1,0,0,0-2.032-.618,3.726,3.726,0,0,0-3.356,2.12c-.883,1.414-1.325,3.711-1.414,6.8Z" transform="translate(-143.403 -54.392)" fill="#231f20"/>
          <path id="Trazado_1054748" data-name="Trazado 1054748" d="M250.619,97.124H234.013V95.092a6.867,6.867,0,0,0,1.237-.177,7.6,7.6,0,0,0,1.148-.264,1.939,1.939,0,0,0,.795-.884,4.156,4.156,0,0,0,.264-1.678v-12.9a7.148,7.148,0,0,0-1.059-4.239,3.483,3.483,0,0,0-3.092-1.414,5.174,5.174,0,0,0-2.032.353,6.252,6.252,0,0,0-1.855.971,5.655,5.655,0,0,0-1.325,1.148,4.142,4.142,0,0,0-.795,1.06V91.824a4.292,4.292,0,0,0,.264,1.59,1.916,1.916,0,0,0,.884.971,2.945,2.945,0,0,0,1.059.442l1.326.265v2.032H214.049V95.092a8.749,8.749,0,0,0,1.414-.177c.442-.088.883-.176,1.237-.264a2.012,2.012,0,0,0,1.237-.972A4.317,4.317,0,0,0,218.29,92V75.924a3.969,3.969,0,0,0-.442-1.678A4.16,4.16,0,0,0,216.7,72.92a4.018,4.018,0,0,0-1.237-.53,5.158,5.158,0,0,0-1.679-.265V70.093l13.162-.707.442.442V73.8h.088c.53-.442,1.148-.972,1.855-1.679.707-.618,1.413-1.148,2.032-1.59a12.532,12.532,0,0,1,2.65-1.148,11.43,11.43,0,0,1,3.533-.442c3,0,5.211.884,6.713,2.562a9.855,9.855,0,0,1,2.208,6.8V91.824a3.7,3.7,0,0,0,.265,1.59,2.138,2.138,0,0,0,1.148.971,7.389,7.389,0,0,0,1.06.353c.442.088.883.176,1.5.265v2.12Z" transform="translate(-147.269 -54.37)" fill="#231f20"/>
          <path id="Trazado_1054749" data-name="Trazado 1054749" d="M293.286,95.327H280.3c-1.59-2.827-3.092-5.211-4.416-7.155s-2.562-3.8-3.711-5.389l-1.59,1.414V90.2a3.961,3.961,0,0,0,.265,1.59,1.85,1.85,0,0,0,1.148.971,4.349,4.349,0,0,0,1.148.353,6.762,6.762,0,0,0,1.325.177v2.032H257.335V93.3a8.725,8.725,0,0,0,1.413-.177c.442-.088.883-.176,1.237-.264a2.007,2.007,0,0,0,1.237-.972,4.3,4.3,0,0,0,.353-1.678V59.463a4.743,4.743,0,0,0-.442-1.855,3.267,3.267,0,0,0-1.148-1.5,4.74,4.74,0,0,0-1.59-.53,7.854,7.854,0,0,0-1.943-.265V53.28l13.692-.707.442.442V81.459c1.326-1.237,2.916-2.65,4.594-4.24s3.092-2.916,4.063-3.975c.619-.619.972-1.06.972-1.414a2.335,2.335,0,0,0,.088-.618c0-.353-.265-.619-.883-.795a17.021,17.021,0,0,0-2.65-.619V67.855h13.956V69.8a33.179,33.179,0,0,0-4.239,1.414,30.07,30.07,0,0,0-3.18,1.766c-.795.53-1.5,1.06-2.209,1.59s-1.5,1.237-2.473,2.032c1.766,2.65,3.444,5.035,4.946,7.244s3.092,4.593,4.77,7.067a4.13,4.13,0,0,0,2.121,1.766,13.243,13.243,0,0,0,2.561.531v2.12Z" transform="translate(-151.952 -52.573)" fill="#231f20"/>
          <path id="Trazado_1054750" data-name="Trazado 1054750" d="M315.44,95.338h-17.4V93.305a7.741,7.741,0,0,0,1.413-.176,11.414,11.414,0,0,0,1.148-.265,2,2,0,0,0,1.237-.971,3.158,3.158,0,0,0,.353-1.679V74.137a3.381,3.381,0,0,0-.442-1.679,2.684,2.684,0,0,0-1.059-1.148,6.414,6.414,0,0,0-1.5-.618,8.409,8.409,0,0,0-1.855-.353V68.307l13.515-.707.442.442V89.949a3.65,3.65,0,0,0,.442,1.678,2.441,2.441,0,0,0,1.148.972,5.144,5.144,0,0,0,1.237.442c.442.088.883.176,1.413.264v2.032ZM311.465,57.8a4.573,4.573,0,0,1-1.59,3.533,5.577,5.577,0,0,1-3.8,1.5,5.794,5.794,0,0,1-3.887-1.5A4.71,4.71,0,0,1,300.6,57.8a4.894,4.894,0,0,1,1.59-3.621,5.629,5.629,0,0,1,3.887-1.5,5.415,5.415,0,0,1,3.8,1.5,4.755,4.755,0,0,1,1.59,3.621" transform="translate(-156.439 -52.584)" fill="#231f20"/>
          <path id="Trazado_1054751" data-name="Trazado 1054751" d="M356.889,97.124H340.283V95.092a6.868,6.868,0,0,0,1.237-.177,7.6,7.6,0,0,0,1.148-.264,1.94,1.94,0,0,0,.795-.884,4.154,4.154,0,0,0,.265-1.678v-12.9a7.148,7.148,0,0,0-1.06-4.239,3.483,3.483,0,0,0-3.092-1.414,5.174,5.174,0,0,0-2.031.353,9.382,9.382,0,0,0-1.855.971,5.655,5.655,0,0,0-1.325,1.148,4.142,4.142,0,0,0-.795,1.06V91.824a4.293,4.293,0,0,0,.264,1.59,1.916,1.916,0,0,0,.884.971,2.944,2.944,0,0,0,1.059.442l1.326.265v2.032H320.319V95.092a8.749,8.749,0,0,0,1.414-.177c.442-.088.883-.176,1.237-.264a2.011,2.011,0,0,0,1.236-.972A4.317,4.317,0,0,0,324.559,92V75.924a3.97,3.97,0,0,0-.442-1.678,4.16,4.16,0,0,0-1.148-1.326,4.019,4.019,0,0,0-1.237-.53,5.159,5.159,0,0,0-1.679-.265V70.093l13.162-.707.442.442V73.8h.088c.53-.442,1.148-.972,1.855-1.679.707-.618,1.413-1.148,2.032-1.59a12.532,12.532,0,0,1,2.65-1.148,11.429,11.429,0,0,1,3.533-.442c3,0,5.211.884,6.713,2.562a9.855,9.855,0,0,1,2.208,6.8V91.824a3.7,3.7,0,0,0,.265,1.59,2.138,2.138,0,0,0,1.148.971,7.393,7.393,0,0,0,1.06.353c.442.088.883.176,1.5.265v2.12Z" transform="translate(-158.933 -54.37)" fill="#231f20"/>
          <path id="Trazado_1054752" data-name="Trazado 1054752" d="M377.061,98.117a19.371,19.371,0,0,1-9.186-2.473L367.08,97.5h-2.121l-.353-10.247h2.031a11.978,11.978,0,0,0,1.414,2.827,17.419,17.419,0,0,0,2.209,2.826,15.175,15.175,0,0,0,3,2.12,8.361,8.361,0,0,0,3.533.883,6.018,6.018,0,0,0,3.711-.971,3.67,3.67,0,0,0,1.237-3,3.268,3.268,0,0,0-.53-1.854,5.356,5.356,0,0,0-1.5-1.237,15.016,15.016,0,0,0-2.385-.971c-.884-.265-1.943-.53-3.18-.972a18.625,18.625,0,0,1-3.18-1.148,9.571,9.571,0,0,1-2.738-1.767,7.889,7.889,0,0,1-1.943-2.561,7.581,7.581,0,0,1-.707-3.622,7.374,7.374,0,0,1,3.268-6.272,14.26,14.26,0,0,1,8.569-2.385,18.734,18.734,0,0,1,4.594.531,20.741,20.741,0,0,1,3.533,1.148l.618-1.591h2.121l.442,9.364h-1.943a11.576,11.576,0,0,0-3.269-4.946,7.492,7.492,0,0,0-5.034-2.121,5.411,5.411,0,0,0-3.357.884,2.974,2.974,0,0,0-1.237,2.473,3.166,3.166,0,0,0,1.766,3,22.175,22.175,0,0,0,4.947,1.766,17.842,17.842,0,0,1,7.243,3.445,7.6,7.6,0,0,1,2.3,5.565,7.889,7.889,0,0,1-3.533,6.979,18.008,18.008,0,0,1-9.54,2.473" transform="translate(-163.823 -54.392)" fill="#231f20"/>
        </g>
      </g>
    </g>
  </g>
</svg>
