<svg xmlns="http://www.w3.org/2000/svg" width="235.996" height="223" viewBox="0 0 235.996 223">
  <g id="Grupo_1226053" data-name="Grupo 1226053" transform="translate(-333.514 -4687.168)">
    <g id="Grupo_1226050" data-name="Grupo 1226050">
      <path id="Trazado_1054376" data-name="Trazado 1054376" d="M0,69.245A69.244,69.244,0,1,0,69.245,0,69.245,69.245,0,0,0,0,69.245" transform="translate(333.514 4771.679)" fill="#e4e4e4" opacity="0.64"/>
      <path id="Trazado_1054377" data-name="Trazado 1054377" d="M0,48.755A48.754,48.754,0,1,0,48.755,0,48.755,48.755,0,0,0,0,48.755" transform="translate(472.002 4687.168)" fill="#e4e4e4" opacity="0.64"/>
    </g>
    <g id="Layer_1" data-name="Layer 1" transform="translate(341.799 4689.583)">
      <g id="Grupo_1226158" data-name="Grupo 1226158" transform="translate(0)">
        <path id="Trazado_1054753" data-name="Trazado 1054753" d="M10.967,76.752c-4.45,0-8.027,3.523-8.027,10.04s3.576,10.04,8.239,10.04c4.265,0,7.205-2.834,7.311-7.364H11.868v-2.7h9.563v2.7c0,6.225-4.265,10.2-10.252,10.2C4.5,99.666,0,94.712,0,86.765s4.556-12.9,10.967-12.9a10.1,10.1,0,0,1,10.3,8.186H18.146A7.16,7.16,0,0,0,10.994,76.7Zm14.649-1.325a2.055,2.055,0,1,1,2.146,1.96h-.106a2.048,2.048,0,0,1-2.066-1.96Zm.583,5.086h2.887V99.321H26.2ZM41.4,82.977H37.378V93.944c0,2.464,1.219,2.834,2.49,2.834a5.225,5.225,0,0,0,1.272-.159l.583,2.6a5.973,5.973,0,0,1-2.146.344,4.793,4.793,0,0,1-5.086-4.848V82.95H31.656V80.487H34.49v-4.5h2.887v4.5H41.4V82.95Zm3.974-8.715h3.046V85.44H61.8V74.262h3.046V99.348H61.8V88.116H48.424V99.348H45.378V74.262ZM81.22,80.54h2.887V99.348H81.22V96.169h-.185a5.888,5.888,0,0,1-5.589,3.444c-3.523,0-6.066-2.3-6.066-7.1V80.566h2.887V92.328c0,2.755,1.722,4.5,4.106,4.5a4.889,4.889,0,0,0,4.848-5.139V80.566Zm7.417-6.278h2.887v9.272h.238A5.735,5.735,0,0,1,97.193,80.3c4.742,0,8.027,3.762,8.027,9.7s-3.285,9.748-8,9.748a5.8,5.8,0,0,1-5.484-3.285h-.344v2.887H88.61V74.262Zm8.239,22.888c3.629,0,5.484-3.179,5.484-7.205s-1.8-7.046-5.484-7.046-5.4,2.834-5.4,7.046S93.379,97.149,96.875,97.149Zm18.384,2.2,9.219-25.086H127.6l9.219,25.086h-3.179l-2.517-7.1H120.982l-2.517,7.1h-3.179Zm14.888-9.8-4.027-11.311h-.185l-4.027,11.311Zm8.133.5c0-5.722,3.391-9.748,8.477-9.748,3.974,0,6.967,2.358,7.444,5.881h-2.887a4.413,4.413,0,0,0-4.5-3.285c-3.391,0-5.642,2.781-5.642,7.046s2.2,7.205,5.642,7.205a4.36,4.36,0,0,0,4.5-3.285H154.2c-.5,3.338-3.232,5.881-7.391,5.881-5.3,0-8.53-4.08-8.53-9.7ZM165.432,83h-4.027V93.97c0,2.464,1.219,2.834,2.49,2.834a5.225,5.225,0,0,0,1.272-.159l.583,2.6a5.973,5.973,0,0,1-2.146.344,4.793,4.793,0,0,1-5.086-4.848V82.977h-2.834V80.513h2.834v-4.5h2.887v4.5h4.027v2.464Zm2.6-7.55a2.055,2.055,0,1,1,2.146,1.96h-.106A2.048,2.048,0,0,1,168,75.454Zm.583,5.086H171.5V99.348h-2.887Zm6.119,9.51c0-5.881,3.444-9.748,8.53-9.748s8.53,3.868,8.53,9.748-3.444,9.7-8.53,9.7-8.53-3.868-8.53-9.7Zm14.172,0c0-3.762-1.775-7.152-5.642-7.152s-5.642,3.391-5.642,7.152,1.775,7.1,5.642,7.1S188.9,93.811,188.9,90.05Zm9.033,9.325h-2.887V80.566h2.782v2.94h.238c.874-1.907,2.649-3.179,5.484-3.179,3.815,0,6.384,2.3,6.384,7.1V99.374h-2.887V87.613c0-2.94-1.642-4.715-4.318-4.715s-4.795,1.854-4.795,5.139V99.348ZM224.8,85.493a3.963,3.963,0,0,0-4.08-2.7c-2.3,0-4.027,1.166-4.027,2.781,0,1.457,1.007,2.2,3.232,2.755l2.781.689c3.364.821,5.007,2.464,5.007,5.086,0,3.258-2.967,5.642-7.364,5.642-3.841,0-6.49-1.7-7.152-4.9l2.755-.689c.5,2.013,1.987,3.046,4.371,3.046,2.7,0,4.424-1.325,4.424-2.94,0-1.3-.9-2.2-2.781-2.649l-3.126-.742c-3.444-.821-5.007-2.543-5.007-5.139,0-3.179,2.94-5.431,6.914-5.431,3.735,0,5.748,1.8,6.676,4.45l-2.6.742Z" transform="translate(0 120.84)" fill="#2671e5"/>
        <rect id="Rectángulo_422351" data-name="Rectángulo 422351" width="162.836" height="162.836" rx="18.21" transform="translate(32.451)" fill="#2671e5"/>
        <path id="Trazado_1054754" data-name="Trazado 1054754" d="M116.189,53.759a13.119,13.119,0,0,0-18.2-3.523,16.186,16.186,0,0,0-4.874,5.589,16.372,16.372,0,0,0-1.351,3.55H83.712a2.473,2.473,0,0,1-.371-.954,12.846,12.846,0,0,0-7.868-9.086A13.624,13.624,0,0,0,56.9,58.66c-.132.556-.026,1.166-.954,1.272a10.068,10.068,0,0,1-9.907-5.139C44.824,52.461,44.9,52.249,47.5,51.9A19.485,19.485,0,0,0,63.473,26.739c-2.729-9.245-12.874-15.258-22.358-13.3a19.7,19.7,0,0,0-15.762,18.6c-.424,8.53,5.484,16.689,14.04,19.232,1.3.371,1.589.954,1.589,2.2-.053,8.662-.079,17.3,0,25.961A15.452,15.452,0,0,0,54.811,94.793a2.3,2.3,0,0,1,2.358,2.066,13.571,13.571,0,0,0,25.245,2.093,13.591,13.591,0,1,0-25.4-9.245c-.344,1.351-.954,1.457-2.093,1.245A11.821,11.821,0,0,1,44.85,79.243c-.053-2.437,0-4.874,0-7.311V59.878a19.114,19.114,0,0,0,5.325,3.152,16.2,16.2,0,0,0,5.748.742c.927-.026.848.662,1.007,1.219a13.65,13.65,0,0,0,25.033,3.656,13.03,13.03,0,0,0,1.378-3.391,2.658,2.658,0,0,1,.4-.927h8.186a5.423,5.423,0,0,0,.291,1.3,13.619,13.619,0,0,0,26.358-.848,13.234,13.234,0,0,0-2.331-11.073h0ZM70.175,83.349A9.621,9.621,0,0,1,79.9,92.885v.159a9.735,9.735,0,1,1-9.775-9.7ZM29.327,32.54a15.564,15.564,0,1,1,0,.238V32.54ZM70.1,71.561a9.749,9.749,0,1,1,.053,0H70.1Zm30.835-.954a9.789,9.789,0,1,1,4.318.954h-.265a10.554,10.554,0,0,1-4.027-.954h0Z" transform="translate(41.773 21.553)" fill="#fff"/>
        <path id="Trazado_1054755" data-name="Trazado 1054755" d="M45.573,23.458q-4.768-3.139-9.7-6.119a3.865,3.865,0,0,0-6.093,3.391c-.053,1.987,0,4,0,5.987,0,2.04-.026,4.106,0,6.146a3.831,3.831,0,0,0,5.854,3.417c3.338-1.96,6.649-4,9.881-6.119,2.7-1.775,2.7-4.954.026-6.729Zm-2.649,3.788-8.344,5.166c-.477.291-.848.318-.848-.4V20.57c3.258,2.04,6.252,3.921,9.219,5.8q.676.437,0,.874ZM58.951,89.021a1.831,1.831,0,0,0,1.934-1.854,1.753,1.753,0,0,0-1.536-1.934h-.265A1.724,1.724,0,0,0,57.1,87.114c0,1.192.742,1.748,1.854,1.881Zm7.894,0c1.139-.159,1.881-.768,1.8-1.987a1.718,1.718,0,0,0-1.987-1.775,1.74,1.74,0,0,0-1.828,1.934,1.855,1.855,0,0,0,1.987,1.828ZM103,54.875a2.013,2.013,0,0,0,.742-1.642,1.7,1.7,0,0,0-1.06-1.7,1.772,1.772,0,0,0-2.146.344,38.492,38.492,0,0,0-2.94,2.94c-1.06,1.245-1.907,1.8-3.205.212a1.723,1.723,0,0,0-2.781,0,1.8,1.8,0,0,0,.079,2.676c.821.9,1.7,1.748,2.57,2.6,1.245,1.166,2.066,1.166,3.311-.053,1.828-1.775,3.6-3.6,5.431-5.4ZM67.745,51.59a1.8,1.8,0,0,0-2.172.238,35.45,35.45,0,0,0-2.861,2.781c-1.086,1.219-2.013,2.172-3.5.344a1.682,1.682,0,0,0-2.649.053,1.8,1.8,0,0,0,.026,2.676c.848.927,1.775,1.8,2.7,2.7a2,2,0,0,0,3.179-.079l5.4-5.4A2.084,2.084,0,0,0,68.7,53.18a1.774,1.774,0,0,0-.98-1.616h0Z" transform="translate(49.077 27.457)" fill="#fff"/>
      </g>
    </g>
  </g>
</svg>
