<svg xmlns="http://www.w3.org/2000/svg" xmlns:xlink="http://www.w3.org/1999/xlink" width="320.989" height="223" viewBox="0 0 320.989 223">
  <defs>
    <clipPath id="clip-path">
      <rect id="Rectángulo_422352" data-name="Rectángulo 422352" width="320.989" height="67.194" fill="none"/>
    </clipPath>
  </defs>
  <g id="Grupo_1226057" data-name="Grupo 1226057" transform="translate(-297.16 -4687.168)">
    <g id="Grupo_1226050" data-name="Grupo 1226050">
      <path id="Trazado_1054376" data-name="Trazado 1054376" d="M0,69.245A69.244,69.244,0,1,0,69.245,0,69.245,69.245,0,0,0,0,69.245" transform="translate(333.514 4771.679)" fill="#e4e4e4" opacity="0.64"/>
      <path id="Trazado_1054377" data-name="Trazado 1054377" d="M0,48.755A48.754,48.754,0,1,0,48.755,0,48.755,48.755,0,0,0,0,48.755" transform="translate(472.002 4687.168)" fill="#e4e4e4" opacity="0.64"/>
    </g>
    <g id="Grupo_1226161" data-name="Grupo 1226161" transform="translate(297.16 4771.203)">
      <g id="Grupo_1226160" data-name="Grupo 1226160" transform="translate(0 0)" clip-path="url(#clip-path)">
        <path id="Trazado_1054756" data-name="Trazado 1054756" d="M32.58,25.626A7.971,7.971,0,1,1,24.609,33.6a7.957,7.957,0,0,1,7.971-7.971M32.58,0A33.632,33.632,0,0,0,.053,25.2.91.91,0,0,0,0,25.572a1.61,1.61,0,0,0,1.6,1.6H15.14a1.611,1.611,0,0,0,1.444-.909v-.053a17.6,17.6,0,1,1,0,14.766l-.053-.054a1.523,1.523,0,0,0-1.444-.909H1.6a1.576,1.576,0,0,0-1.6,1.6A.793.793,0,0,0,.053,42,33.6,33.6,0,1,0,32.58,0m87.791,41.461h-4.547a1.138,1.138,0,0,0-.8.374,14.792,14.792,0,1,1,0-16.531.9.9,0,0,0,.8.374h4.547a.959.959,0,0,0,.963-.963,1.008,1.008,0,0,0-.107-.428,20.65,20.65,0,1,0,0,18.617,1.259,1.259,0,0,0,.107-.428.972.972,0,0,0-.963-1.016M134.12,6.045a3.959,3.959,0,1,1-3.959-3.959,3.95,3.95,0,0,1,3.959,3.959m-.963,46.222V13.91h-5.885V52.268a.959.959,0,0,0,.963.963h3.959a.925.925,0,0,0,.963-.963m25.572-39.321a17.453,17.453,0,0,0-13.8,7.49v-5.51a.959.959,0,0,0-.963-.963H140c-.535,0-.963.963-.963.963v37.4a.959.959,0,0,0,.963.963h3.959a.959.959,0,0,0,.963-.963V33.65a14.745,14.745,0,0,1,13.749-14.712.959.959,0,0,0,.963-.963V14.017a.947.947,0,0,0-.909-1.07m39.214,28.515H193.4a1.138,1.138,0,0,0-.8.374,14.792,14.792,0,1,1,0-16.531.9.9,0,0,0,.8.374h4.547a.959.959,0,0,0,.963-.963,1.008,1.008,0,0,0-.107-.428,20.65,20.65,0,1,0,0,18.617,1.259,1.259,0,0,0,.107-.428.972.972,0,0,0-.963-1.016M209.767,1.123h-3.959a.959.959,0,0,0-.963.963V52.268a.959.959,0,0,0,.963.963h3.959a.959.959,0,0,0,.963-.963V2.086a.959.959,0,0,0-.963-.963m27.5,11.823a20.65,20.65,0,1,0,18.457,29.959.99.99,0,0,0-.428-1.337,1.562,1.562,0,0,0-.481-.107h-4.547a1.016,1.016,0,0,0-.8.428,14.732,14.732,0,0,1-26.8-6.313h34.292a.949.949,0,0,0,.963-.909c0-.321.053-.7.053-1.016a20.686,20.686,0,0,0-20.7-20.7M223.088,29.638a14.773,14.773,0,0,1,28.461,0ZM315.1.16a5.885,5.885,0,1,0,5.885,5.885A5.868,5.868,0,0,0,315.1.16m4.922,13.749V52.268a.959.959,0,0,1-.963.963H311.2a.959.959,0,0,1-.963-.963V13.91ZM284.5,54.247a20.675,20.675,0,0,0,20.008-15.514v-.214a.959.959,0,0,0-.963-.963H295.2a.989.989,0,0,0-.909.588,10.807,10.807,0,1,1,0-8.988.937.937,0,0,0,.909.588h8.346a.959.959,0,0,0,.963-.963v-.214A20.641,20.641,0,1,0,284.5,54.247" transform="translate(0 0)"/>
      </g>
    </g>
  </g>
</svg>
