<svg xmlns="http://www.w3.org/2000/svg" xmlns:xlink="http://www.w3.org/1999/xlink" width="108" height="108" viewBox="0 0 108 108">
  <defs>
    <filter id="Trazado_904820" x="0" y="0" width="108" height="108" filterUnits="userSpaceOnUse">
      <feOffset dy="3" input="SourceAlpha"/>
      <feGaussianBlur stdDeviation="3" result="blur"/>
      <feFlood flood-opacity="0.161"/>
      <feComposite operator="in" in2="blur"/>
      <feComposite in="SourceGraphic"/>
    </filter>
  </defs>
  <g id="Grupo_1226105" data-name="Grupo 1226105" transform="translate(9 6)">
    <g id="Grupo_1173585" data-name="Grupo 1173585" transform="translate(0 0)">
      <g id="Grupo_1173428" data-name="Grupo 1173428">
        <g id="Grupo_1171958" data-name="Grupo 1171958">
          <g id="Grupo_1167341" data-name="Grupo 1167341">
            <g id="Grupo_1166792" data-name="Grupo 1166792">
              <g transform="matrix(1, 0, 0, 1, -9, -6)" filter="url(#Trazado_904820)">
                <g id="Trazado_904820-2" data-name="Trazado 904820" transform="translate(9 6)" fill="#e5ebfb">
                  <path d="M 44.99999618530273 88.5 C 39.12687301635742 88.5 33.43022155761719 87.35008239746094 28.06829643249512 85.08216857910156 C 22.88852119445801 82.89131927490234 18.23629570007324 79.75459289550781 14.24084663391113 75.75914001464844 C 10.24540901184082 71.76369476318359 7.108683586120605 67.11146545410156 4.917821407318115 61.93170547485352 C 2.649921178817749 56.56976699829102 1.499996185302734 50.87312698364258 1.499996185302734 45.00000381469727 C 1.499996185302734 39.12688064575195 2.649921178817749 33.43022918701172 4.917821407318115 28.06830406188965 C 7.108683586120605 22.88852882385254 10.24540901184082 18.23630332946777 14.24084663391113 14.24085426330566 C 18.23629570007324 10.24541664123535 22.88852119445801 7.108691215515137 28.06829643249512 4.917829036712646 C 33.43022155761719 2.64992880821228 39.12687301635742 1.500003814697266 44.99999618530273 1.500003814697266 C 50.87311935424805 1.500003814697266 56.56977081298828 2.64992880821228 61.93169784545898 4.917829036712646 C 67.11147308349609 7.108691215515137 71.76369476318359 10.24541664123535 75.75914764404297 14.24085426330566 C 79.75458526611328 18.23630332946777 82.89131164550781 22.88852882385254 85.08216857910156 28.06830406188965 C 87.35007476806641 33.43022918701172 88.5 39.12688064575195 88.5 45.00000381469727 C 88.5 50.87312698364258 87.35007476806641 56.56976699829102 85.08216857910156 61.93170547485352 C 82.89131164550781 67.11146545410156 79.75458526611328 71.76369476318359 75.75914764404297 75.75914001464844 C 71.76369476318359 79.75459289550781 67.11147308349609 82.89131927490234 61.93169784545898 85.08216857910156 C 56.56977081298828 87.35008239746094 50.87311935424805 88.5 44.99999618530273 88.5 Z" stroke="none"/>
                  <path d="M 44.99999618530273 3.000007629394531 C 39.32870864868164 3.000007629394531 33.82865142822266 4.110061645507812 28.65262603759766 6.299346923828125 C 23.65165710449219 8.414573669433594 19.15968322753906 11.44334411621094 15.301513671875 15.30152130126953 C 11.44333648681641 19.15969085693359 8.414566040039062 23.65166473388672 6.299339294433594 28.65263366699219 C 4.110054016113281 33.82865905761719 2.999992370605469 39.32871627807617 2.999992370605469 45.00000381469727 C 2.999992370605469 50.67129135131836 4.110054016113281 56.17133331298828 6.299339294433594 61.34737396240234 C 8.414566040039062 66.34834289550781 11.44333648681641 70.84030151367188 15.301513671875 74.698486328125 C 19.15968322753906 78.55666351318359 23.65165710449219 81.58543395996094 28.65262603759766 83.70066070556641 C 33.82865142822266 85.88994598388672 39.32870864868164 87 44.99999618530273 87 C 50.67128372192383 87 56.17134094238281 85.88994598388672 61.34736633300781 83.70066070556641 C 66.34834289550781 81.58543395996094 70.84030914306641 78.55666351318359 74.69847869873047 74.698486328125 C 78.55665588378906 70.84030151367188 81.58542633056641 66.34834289550781 83.70065307617188 61.34737396240234 C 85.88993835449219 56.17133331298828 87 50.67129135131836 87 45.00000381469727 C 87 39.32871627807617 85.88993835449219 33.82865905761719 83.70065307617188 28.65263366699219 C 81.58542633056641 23.65166473388672 78.55665588378906 19.15969085693359 74.69847869873047 15.30152130126953 C 70.84030914306641 11.44334411621094 66.34834289550781 8.414573669433594 61.34736633300781 6.299346923828125 C 56.17134094238281 4.110061645507812 50.67128372192383 3.000007629394531 44.99999618530273 3.000007629394531 M 44.99999618530273 7.62939453125e-06 C 69.85281372070312 7.62939453125e-06 90 20.14718627929688 90 45.00000381469727 C 90 69.85280609130859 69.85281372070312 90 44.99999618530273 90 C 20.14717864990234 90 -7.62939453125e-06 69.85280609130859 -7.62939453125e-06 45.00000381469727 C -7.62939453125e-06 20.14718627929688 20.14717864990234 7.62939453125e-06 44.99999618530273 7.62939453125e-06 Z" stroke="none" fill="#0b47db"/>
                </g>
              </g>
            </g>
          </g>
        </g>
      </g>
    </g>
    <g id="_80-Programming" data-name="80-Programming" transform="translate(18.638 21.202)">
      <path id="Trazado_1055178" data-name="Trazado 1055178" d="M52.077,11V48.9a1.653,1.653,0,0,1-1.648,1.648H2.648A1.653,1.653,0,0,1,1,48.9V11Z" transform="translate(-0.176 -1.938)" fill="#dfe1ea"/>
      <path id="Trazado_1055179" data-name="Trazado 1055179" d="M50.429,1a1.653,1.653,0,0,1,1.648,1.648V9.238H1V2.648A1.653,1.653,0,0,1,2.648,1Z" transform="translate(-0.176 -0.176)" fill="#adb2c7"/>
      <path id="Trazado_1055180" data-name="Trazado 1055180" d="M32.8,20.647C26.538,20.647,26.538,19,20.277,19s-6.261,1.648-12.522,1.648A22.031,22.031,0,0,1,1,19.695v6.591a22.031,22.031,0,0,0,6.755.952c6.261,0,6.261-1.648,12.522-1.648s6.261,1.648,12.522,1.648,6.261-1.648,12.522-1.648a22.068,22.068,0,0,1,6.755.953V19.953A22.068,22.068,0,0,0,45.322,19C39.061,19,39.061,20.647,32.8,20.647Z" transform="translate(-0.176 -3.347)" fill="#cdd2e1"/>
      <path id="Trazado_1055181" data-name="Trazado 1055181" d="M1,11v7.286a22.031,22.031,0,0,0,6.755.952c6.261,0,6.261-1.648,12.522-1.648s6.261,1.648,12.522,1.648,6.261-1.648,12.522-1.648a22.068,22.068,0,0,1,6.755.953V11Z" transform="translate(-0.176 -1.938)" fill="#f6fafd"/>
      <path id="Trazado_1055182" data-name="Trazado 1055182" d="M35.3,46A3.3,3.3,0,0,0,32,49.3V56.71h6.591V49.3A3.3,3.3,0,0,0,35.3,46Z" transform="translate(-5.638 -8.104)" fill="#bec3d2"/>
      <path id="Trazado_1055183" data-name="Trazado 1055183" d="M35.628,28.647C29.367,28.647,29.367,27,23.106,27a20.916,20.916,0,0,0-6.053.769A15.643,15.643,0,0,0,48.315,27H48.15c-6.261,0-6.261,1.648-12.522,1.648Z" transform="translate(-3.004 -4.756)" fill="#bec3d2"/>
      <path id="Trazado_1055184" data-name="Trazado 1055184" d="M34.2,8a15.562,15.562,0,0,0-8.419,2.473H42.617A15.559,15.559,0,0,0,34.2,8Z" transform="translate(-4.542 -1.409)" fill="#7e8596"/>
      <path id="Trazado_1055185" data-name="Trazado 1055185" d="M23.091,19a21.281,21.281,0,0,0-4.85.475A15.6,15.6,0,0,0,17,25.59c0,.259.026.513.039.769a20.916,20.916,0,0,1,6.053-.769c6.261,0,6.261,1.648,12.522,1.648s6.261-1.648,12.522-1.648H48.3a15.555,15.555,0,0,0-1.457-6.562c-4.992.21-5.433,1.619-11.225,1.619C29.357,20.647,29.357,19,23.091,19Z" transform="translate(-2.995 -3.347)" fill="#bec3d2"/>
      <path id="Trazado_1055186" data-name="Trazado 1055186" d="M18.507,18.066a21.281,21.281,0,0,1,4.85-.475c6.261,0,6.261,1.648,12.522,1.648,5.8,0,6.236-1.409,11.234-1.619A15.7,15.7,0,0,0,41.335,11H24.5a15.708,15.708,0,0,0-5.994,7.066Z" transform="translate(-3.261 -1.938)" fill="#bec3d2"/>
      <path id="Trazado_1055187" data-name="Trazado 1055187" d="M9,5h1.648V6.648H9Z" transform="translate(-1.586 -0.881)" fill="#fff"/>
      <path id="Trazado_1055188" data-name="Trazado 1055188" d="M34.591,50V61.534H28V50a3.3,3.3,0,0,0,6.591,0Z" transform="translate(-4.933 -8.809)" fill="#afb4c8"/>
      <circle id="Elipse_13371" data-name="Elipse 13371" cx="12" cy="12" r="12" transform="translate(14.362 10.362)" fill="#ffa426"/>
      <circle id="Elipse_13372" data-name="Elipse 13372" cx="3" cy="3" r="3" transform="translate(23.362 38.362)" fill="#cdd2e1"/>
      <path id="Trazado_1055189" data-name="Trazado 1055189" d="M28.653,8A15.653,15.653,0,1,1,13,23.653,15.653,15.653,0,0,1,28.653,8ZM41.01,23.653A12.357,12.357,0,1,0,28.653,36.01,12.357,12.357,0,0,0,41.01,23.653Z" transform="translate(-2.29 -1.409)" fill="#adb2c7"/>
      <path id="Trazado_1055190" data-name="Trazado 1055190" d="M31.3,53.3A3.3,3.3,0,0,1,28,50v4.973a30.216,30.216,0,0,1,6.591,1.194V50A3.3,3.3,0,0,1,31.3,53.3Z" transform="translate(-4.933 -8.809)" fill="#9196aa"/>
      <path id="Trazado_1055191" data-name="Trazado 1055191" d="M40.451,20.175a21.318,21.318,0,0,1-4.833.472C29.357,20.647,29.357,19,23.1,19a22.011,22.011,0,0,0-4.4.38A12.275,12.275,0,0,0,17,25.59c0,.26.023.514.039.769a20.916,20.916,0,0,1,6.053-.769c6.261,0,6.261,1.648,12.522,1.648a20.925,20.925,0,0,0,6.056-.77c.021-.291.045-.581.045-.877a12.275,12.275,0,0,0-1.264-5.415Z" transform="translate(-2.995 -3.347)" fill="#ffc247"/>
      <path id="Trazado_1055192" data-name="Trazado 1055192" d="M35.98,19.414a21.318,21.318,0,0,0,4.837-.472,12.334,12.334,0,0,0-21.763-.8,22.011,22.011,0,0,1,4.4-.38C29.719,17.767,29.719,19.414,35.98,19.414Z" transform="translate(-3.357 -2.114)" fill="#f5e3a7"/>
      <path id="Trazado_1055193" data-name="Trazado 1055193" d="M28,60h6.591v3.3H28Z" transform="translate(-4.933 -10.571)" fill="#cdd2e1"/>
      <g id="Grupo_1226216" data-name="Grupo 1226216" transform="translate(4.119 17.977)">
        <path id="Trazado_1055194" data-name="Trazado 1055194" d="M0,0H9.21V1.647H0Z" transform="matrix(0.179, -0.984, 0.984, 0.179, 20.616, 9.063)" fill="#fff"/>
        <path id="Trazado_1055195" data-name="Trazado 1055195" d="M57,49h1.648v5.767H57Z" transform="translate(-14.161 -26.61)" fill="#fff"/>
        <path id="Trazado_1055196" data-name="Trazado 1055196" d="M5,49H6.648v5.767H5Z" transform="translate(-5 -26.61)" fill="#fff"/>
      </g>
      <path id="Trazado_1055197" data-name="Trazado 1055197" d="M50.253,0H2.471A2.471,2.471,0,0,0,0,2.471V46.958a2.471,2.471,0,0,0,2.471,2.471H22.243v3.3h1.648v-8.26a4.037,4.037,0,0,0,4.943,0v8.26h1.648v-3.3H50.253a2.471,2.471,0,0,0,2.471-2.471V2.471A2.471,2.471,0,0,0,50.253,0ZM26.362,43.663a2.471,2.471,0,1,1,2.471-2.471,2.471,2.471,0,0,1-2.471,2.471Zm0-6.591A14.829,14.829,0,1,1,41.191,22.243,14.829,14.829,0,0,1,26.362,37.072Zm23.891,10.71H30.481V41.191A4.09,4.09,0,0,0,29.4,38.428a16.476,16.476,0,1,0-6.067,0,4.09,4.09,0,0,0-1.086,2.763v6.591H2.471a.824.824,0,0,1-.824-.824V9.886H13.181V8.238H1.648V2.471a.824.824,0,0,1,.824-.824H50.253a.824.824,0,0,1,.824.824V8.238H39.543V9.886H51.077V46.958A.824.824,0,0,1,50.253,47.782Z"/>
      <path id="Trazado_1055198" data-name="Trazado 1055198" d="M5,5H6.648V6.648H5Z" transform="translate(-0.881 -0.881)"/>
      <path id="Trazado_1055199" data-name="Trazado 1055199" d="M29.181,11A13.181,13.181,0,1,0,42.362,24.181,13.181,13.181,0,0,0,29.181,11Zm0,24.715A11.534,11.534,0,1,1,40.715,24.181,11.534,11.534,0,0,1,29.181,35.715Z" transform="translate(-2.819 -1.938)"/>
      <path id="Trazado_1055200" data-name="Trazado 1055200" d="M25.361,21.293l-4.119,4.119a.824.824,0,0,0,0,1.165L25.361,30.7l1.165-1.165-3.537-3.537,3.537-3.537Z" transform="translate(-3.7 -3.751)"/>
      <path id="Trazado_1055201" data-name="Trazado 1055201" d="M41.577,25.412l-4.119-4.119-1.165,1.165,3.537,3.537-3.537,3.537L37.458,30.7l4.119-4.119a.824.824,0,0,0,0-1.165Z" transform="translate(-6.394 -3.751)"/>
      <path id="Trazado_1055202" data-name="Trazado 1055202" d="M58.3,24.119a.668.668,0,0,1-.585-.239c-.5-.612-.389-2.215-.255-2.9A.824.824,0,0,0,56.648,20H55v1.648h.713a4.833,4.833,0,0,0,.722,3.276,2.238,2.238,0,0,0,1.036.716v.254a2.238,2.238,0,0,0-1.036.716,4.833,4.833,0,0,0-.722,3.276H55v1.648h1.648a.824.824,0,0,0,.807-.984c-.133-.681-.247-2.284.255-2.9a.668.668,0,0,1,.585-.239.824.824,0,0,0,.824-.824V24.943a.824.824,0,0,0-.824-.824Z" transform="translate(-9.69 -3.524)"/>
      <path id="Trazado_1055203" data-name="Trazado 1055203" d="M4.824,27.414a.668.668,0,0,1,.585.239c.5.612.389,2.215.255,2.9a.824.824,0,0,0,.807.984H8.119V29.886H7.407a4.833,4.833,0,0,0-.722-3.276,2.238,2.238,0,0,0-1.036-.716V25.64a2.238,2.238,0,0,0,1.036-.716,4.833,4.833,0,0,0,.722-3.276h.713V20H6.471a.824.824,0,0,0-.807.984c.133.681.247,2.284-.255,2.9a.668.668,0,0,1-.585.239A.824.824,0,0,0,4,24.943v1.648a.824.824,0,0,0,.824.824Z" transform="translate(-0.705 -3.524)"/>
      <path id="Trazado_1055204" data-name="Trazado 1055204" d="M45,49h1.648v5.767H45Z" transform="translate(-7.928 -8.633)"/>
      <path id="Trazado_1055205" data-name="Trazado 1055205" d="M52.3,49H50.648A1.648,1.648,0,0,0,49,50.648v2.471a1.648,1.648,0,0,0,1.648,1.648H52.3a1.648,1.648,0,0,0,1.648-1.648V50.648A1.648,1.648,0,0,0,52.3,49Zm0,4.119H50.648V50.648H52.3Z" transform="translate(-8.633 -8.633)"/>
      <path id="Trazado_1055206" data-name="Trazado 1055206" d="M57.3,40H55.648A1.648,1.648,0,0,0,54,41.648v2.471a1.648,1.648,0,0,0,1.648,1.648H57.3a1.648,1.648,0,0,0,1.648-1.648V41.648A1.648,1.648,0,0,0,57.3,40Zm0,4.119H55.648V41.648H57.3Z" transform="translate(-9.514 -7.047)"/>
      <path id="Trazado_1055207" data-name="Trazado 1055207" d="M17,49h1.648v5.767H17Z" transform="translate(-2.995 -8.633)"/>
      <path id="Trazado_1055208" data-name="Trazado 1055208" d="M9,50.648v2.471a1.648,1.648,0,0,0,1.648,1.648H12.3a1.648,1.648,0,0,0,1.648-1.648V50.648A1.648,1.648,0,0,0,12.3,49H10.648A1.648,1.648,0,0,0,9,50.648Zm3.3,2.471H10.648V50.648H12.3Z" transform="translate(-1.586 -8.633)"/>
      <path id="Trazado_1055209" data-name="Trazado 1055209" d="M8.943,44.119V41.648A1.648,1.648,0,0,0,7.3,40H5.648A1.648,1.648,0,0,0,4,41.648v2.471a1.648,1.648,0,0,0,1.648,1.648H7.3A1.648,1.648,0,0,0,8.943,44.119Zm-1.648,0H5.648V41.648H7.3Z" transform="translate(-0.705 -7.047)"/>
      <ellipse id="Elipse_13373" data-name="Elipse 13373" cx="2" cy="1.5" rx="2" ry="1.5" transform="translate(24.362 39.362)" fill="#dfe1ea"/>
    </g>
  </g>
</svg>
