<svg xmlns="http://www.w3.org/2000/svg" xmlns:xlink="http://www.w3.org/1999/xlink" width="113" height="113" viewBox="0 0 113 113">
  <defs>
    <filter id="Trazado_982547" x="0" y="0" width="113" height="113" filterUnits="userSpaceOnUse">
      <feOffset dy="3" input="SourceAlpha"/>
      <feGaussianBlur stdDeviation="3" result="blur"/>
      <feFlood flood-opacity="0.161"/>
      <feComposite operator="in" in2="blur"/>
      <feComposite in="SourceGraphic"/>
    </filter>
  </defs>
  <g id="Grupo_1226163" data-name="Grupo 1226163" transform="translate(-355.49 -7306.286)">
    <g id="Grupo_1226060" data-name="Grupo 1226060" transform="translate(0 1222.534)">
      <g id="Grupo_1224575" data-name="Grupo 1224575" transform="translate(0 -980)">
        <g id="Grupo_1224449" data-name="Grupo 1224449" transform="translate(364.49 7069.751)">
          <g id="Grupo_1224084" data-name="Grupo 1224084" transform="translate(0 0)">
            <g id="Grupo_1223183" data-name="Grupo 1223183">
              <g id="Grupo_1211217" data-name="Grupo 1211217">
                <g id="Grupo_1210736" data-name="Grupo 1210736">
                  <g id="Grupo_1210537" data-name="Grupo 1210537">
                    <g id="Grupo_1164202" data-name="Grupo 1164202">
                      <g id="Grupo_1158168" data-name="Grupo 1158168">
                        <g id="Grupo_1152576" data-name="Grupo 1152576">
                          <g id="Grupo_1148633" data-name="Grupo 1148633">
                            <g id="Grupo_1148525" data-name="Grupo 1148525">
                              <g transform="matrix(1, 0, 0, 1, -9, -6)" filter="url(#Trazado_982547)">
                                <g id="Trazado_982547-2" data-name="Trazado 982547" transform="translate(9 6)" fill="#fef9e5">
                                  <path d="M 47.49999618530273 93.5 C 41.28936767578125 93.5 35.26533126831055 92.28396606445312 29.59518241882324 89.88570404052734 C 24.11771583557129 87.56893157958984 19.19812965393066 84.251953125 14.97308921813965 80.02690124511719 C 10.74803638458252 75.80186462402344 7.431062698364258 70.88227844238281 5.114289283752441 65.40480804443359 C 2.716022968292236 59.73466110229492 1.499996185302734 53.71062469482422 1.499996185302734 47.49999618530273 C 1.499996185302734 41.28936767578125 2.716022968292236 35.26533126831055 5.114289283752441 29.59518241882324 C 7.431062698364258 24.11771583557129 10.74803638458252 19.19812965393066 14.97308921813965 14.97308921813965 C 19.19812965393066 10.74803638458252 24.11771583557129 7.431062698364258 29.59518241882324 5.114289283752441 C 35.26533126831055 2.716022968292236 41.28936767578125 1.499996185302734 47.49999618530273 1.499996185302734 C 53.71062469482422 1.499996185302734 59.73466110229492 2.716022968292236 65.40480804443359 5.114289283752441 C 70.88227844238281 7.431062698364258 75.80186462402344 10.74803638458252 80.02690124511719 14.97308921813965 C 84.251953125 19.19812965393066 87.56893157958984 24.11771583557129 89.88570404052734 29.59518241882324 C 92.28396606445312 35.26533126831055 93.5 41.28936767578125 93.5 47.49999618530273 C 93.5 53.71062469482422 92.28396606445312 59.73466110229492 89.88570404052734 65.40480804443359 C 87.56893157958984 70.88227844238281 84.251953125 75.80186462402344 80.02690124511719 80.02690124511719 C 75.80186462402344 84.251953125 70.88227844238281 87.56893157958984 65.40480804443359 89.88570404052734 C 59.73466110229492 92.28396606445312 53.71062469482422 93.5 47.49999618530273 93.5 Z" stroke="none"/>
                                  <path d="M 47.49999618530273 2.999992370605469 C 41.4912109375 2.999992370605469 35.66376495361328 4.1761474609375 30.17950439453125 6.495796203613281 C 24.88084411621094 8.736953735351562 20.12152099609375 11.94598388671875 16.03375244140625 16.03375244140625 C 11.94598388671875 20.12152099609375 8.736953735351562 24.88084411621094 6.495796203613281 30.17950439453125 C 4.1761474609375 35.66376495361328 2.999992370605469 41.4912109375 2.999992370605469 47.49999618530273 C 2.999992370605469 53.50878143310547 4.1761474609375 59.33622741699219 6.495796203613281 64.82048797607422 C 8.736953735351562 70.11914825439453 11.94598388671875 74.87847137451172 16.03375244140625 78.96623992919922 C 20.12152099609375 83.05400848388672 24.88084411621094 86.26304626464844 30.17950439453125 88.50419616699219 C 35.66376495361328 90.82384490966797 41.4912109375 92 47.49999618530273 92 C 53.50878143310547 92 59.33622741699219 90.82384490966797 64.82048797607422 88.50419616699219 C 70.11914825439453 86.26304626464844 74.87847137451172 83.05400848388672 78.96623992919922 78.96623992919922 C 83.05400848388672 74.87847137451172 86.26304626464844 70.11914825439453 88.50419616699219 64.82048797607422 C 90.82384490966797 59.33622741699219 92 53.50878143310547 92 47.49999618530273 C 92 41.4912109375 90.82384490966797 35.66376495361328 88.50419616699219 30.17950439453125 C 86.26304626464844 24.88084411621094 83.05400848388672 20.12152099609375 78.96623992919922 16.03375244140625 C 74.87847137451172 11.94598388671875 70.11914825439453 8.736953735351562 64.82048797607422 6.495796203613281 C 59.33622741699219 4.1761474609375 53.50878143310547 2.999992370605469 47.49999618530273 2.999992370605469 M 47.49999618530273 -7.62939453125e-06 C 73.7335205078125 -7.62939453125e-06 95 21.26647186279297 95 47.49999618530273 C 95 73.7335205078125 73.7335205078125 95 47.49999618530273 95 C 21.26647186279297 95 -7.62939453125e-06 73.7335205078125 -7.62939453125e-06 47.49999618530273 C -7.62939453125e-06 21.26647186279297 21.26647186279297 -7.62939453125e-06 47.49999618530273 -7.62939453125e-06 Z" stroke="none" fill="#f6c810"/>
                                </g>
                              </g>
                            </g>
                          </g>
                        </g>
                      </g>
                    </g>
                  </g>
                </g>
              </g>
            </g>
          </g>
        </g>
      </g>
    </g>
    <g id="feasibility_17729916_1_" data-name="feasibility_17729916 (1)" transform="translate(340.486 7300.677)">
      <g id="Grupo_1226162" data-name="Grupo 1226162" transform="translate(42.312 25.145)">
        <path id="Trazado_1054757" data-name="Trazado 1054757" d="M112.843,98.65h2.1a1.121,1.121,0,0,1,1.12,1.115v.817a1.1,1.1,0,0,0,.825,1.08,11.624,11.624,0,0,1,2.787,1.156,1.1,1.1,0,0,0,1.345-.178l.58-.58a1.118,1.118,0,0,1,1.578,0l1.49,1.486a1.123,1.123,0,0,1,0,1.583l-.58.575a1.106,1.106,0,0,0-.178,1.35,11.422,11.422,0,0,1,1.152,2.783,1.108,1.108,0,0,0,1.08.83h.817a1.121,1.121,0,0,1,1.12,1.115v2.107a1.121,1.121,0,0,1-1.12,1.115h-.817a1.108,1.108,0,0,0-1.08.83,11.46,11.46,0,0,1-1.152,2.783,1.106,1.106,0,0,0,.178,1.35l.58.575a1.123,1.123,0,0,1,0,1.583l-1.49,1.486a1.118,1.118,0,0,1-1.578,0l-.58-.58a1.106,1.106,0,0,0-1.345-.178,11.691,11.691,0,0,1-2.787,1.156,1.1,1.1,0,0,0-.825,1.08v.817a1.121,1.121,0,0,1-1.12,1.115h-2.1a1.117,1.117,0,0,1-1.115-1.115v-.817a1.1,1.1,0,0,0-.83-1.08,11.522,11.522,0,0,1-2.783-1.156,1.11,1.11,0,0,0-1.35.178l-.58.58a1.118,1.118,0,0,1-1.578,0l-1.486-1.486a1.123,1.123,0,0,1,0-1.583l.575-.575a1.106,1.106,0,0,0,.178-1.35,11.492,11.492,0,0,1-1.152-2.783,1.108,1.108,0,0,0-1.08-.83h-.817a1.117,1.117,0,0,1-1.115-1.115v-2.107a1.117,1.117,0,0,1,1.115-1.115h.817a1.108,1.108,0,0,0,1.08-.83,11.459,11.459,0,0,1,1.152-2.783,1.106,1.106,0,0,0-.178-1.35l-.575-.575a1.123,1.123,0,0,1,0-1.583l1.486-1.486a1.118,1.118,0,0,1,1.578,0l.58.58a1.112,1.112,0,0,0,1.35.178,11.613,11.613,0,0,1,2.783-1.156,1.1,1.1,0,0,0,.83-1.08v-.817a1.118,1.118,0,0,1,1.115-1.115Z" transform="translate(-92.406 -89.06)" fill="gray" fill-rule="evenodd"/>
        <path id="Trazado_1054758" data-name="Trazado 1054758" d="M155.919,147.26a7.251,7.251,0,1,1-7.249,7.253A7.25,7.25,0,0,1,155.919,147.26Z" transform="translate(-134.41 -130.764)" fill="#b3b3b3" fill-rule="evenodd"/>
        <path id="Trazado_1054759" data-name="Trazado 1054759" d="M169.126,162.214a7.251,7.251,0,0,1-12.2,7.558,7.251,7.251,0,0,1,12.2-7.558Z" transform="translate(-140.973 -141.368)" fill="#e6e6e6" fill-rule="evenodd"/>
        <path id="Trazado_1054760" data-name="Trazado 1054760" d="M212.947,178.13a1.545,1.545,0,1,1-1.547,1.547A1.548,1.548,0,0,1,212.947,178.13Z" transform="translate(-188.228 -157.248)" fill="#fff" fill-rule="evenodd"/>
        <path id="Trazado_1054761" data-name="Trazado 1054761" d="M245.152,138.93a.924.924,0,1,1-.922.922A.926.926,0,0,1,245.152,138.93Z" transform="translate(-216.394 -123.617)" fill="#b3b3b3" fill-rule="evenodd"/>
        <path id="Trazado_1054762" data-name="Trazado 1054762" d="M201.32,183.35h2.618a1.388,1.388,0,0,1,1.385,1.389v1.019a1.375,1.375,0,0,0,1.031,1.341,14.294,14.294,0,0,1,3.464,1.434,1.371,1.371,0,0,0,1.675-.222l.72-.717a1.387,1.387,0,0,1,1.965,0l1.848,1.848a1.394,1.394,0,0,1,0,1.965l-.72.717a1.372,1.372,0,0,0-.217,1.679,14.32,14.32,0,0,1,1.434,3.459,1.375,1.375,0,0,0,1.341,1.031h1.014a1.392,1.392,0,0,1,1.389,1.389V202.3a1.392,1.392,0,0,1-1.389,1.389h-1.014a1.375,1.375,0,0,0-1.341,1.031,14.378,14.378,0,0,1-1.434,3.459,1.372,1.372,0,0,0,.217,1.679l.72.72a1.389,1.389,0,0,1,0,1.961l-1.848,1.853a1.394,1.394,0,0,1-1.965,0l-.72-.72a1.373,1.373,0,0,0-1.675-.222,14.181,14.181,0,0,1-3.464,1.434,1.372,1.372,0,0,0-1.027,1.345v1.014a1.392,1.392,0,0,1-1.389,1.389H201.32a1.392,1.392,0,0,1-1.389-1.389v-1.014a1.372,1.372,0,0,0-1.027-1.345,14.293,14.293,0,0,1-3.464-1.434,1.371,1.371,0,0,0-1.675.222l-.72.72a1.394,1.394,0,0,1-1.965,0l-1.848-1.853a1.389,1.389,0,0,1,0-1.961l.72-.72a1.366,1.366,0,0,0,.217-1.675,14.252,14.252,0,0,1-1.434-3.464,1.375,1.375,0,0,0-1.341-1.031h-1.019a1.391,1.391,0,0,1-1.385-1.389v-2.614a1.391,1.391,0,0,1,1.385-1.389h1.019a1.375,1.375,0,0,0,1.341-1.031,14.263,14.263,0,0,1,1.434-3.459,1.378,1.378,0,0,0-.217-1.679l-.72-.717a1.394,1.394,0,0,1,0-1.965l1.848-1.848a1.387,1.387,0,0,1,1.965,0l.717.717a1.379,1.379,0,0,0,1.679.222A14.182,14.182,0,0,1,198.9,187.1a1.376,1.376,0,0,0,1.027-1.341v-1.019A1.389,1.389,0,0,1,201.32,183.35Z" transform="translate(-165.57 -161.727)" fill="gray" fill-rule="evenodd"/>
        <path id="Trazado_1054763" data-name="Trazado 1054763" d="M246.784,234.4a10.354,10.354,0,1,1-10.354,10.354A10.354,10.354,0,0,1,246.784,234.4Z" transform="translate(-209.702 -205.524)" fill="#b3b3b3" fill-rule="evenodd"/>
        <path id="Trazado_1054764" data-name="Trazado 1054764" d="M265.649,255.731a10.355,10.355,0,1,1-7.935-3.7A10.34,10.34,0,0,1,265.649,255.731Z" transform="translate(-219.079 -220.649)" fill="#e6e6e6" fill-rule="evenodd"/>
        <path id="Trazado_1054765" data-name="Trazado 1054765" d="M328.246,278.45a2.208,2.208,0,1,1-2.206,2.206A2.207,2.207,0,0,1,328.246,278.45Z" transform="translate(-286.581 -243.316)" fill="#fff" fill-rule="evenodd"/>
        <path id="Trazado_1054766" data-name="Trazado 1054766" d="M365.818,233.43a1.15,1.15,0,1,1-1.148,1.152A1.152,1.152,0,0,1,365.818,233.43Z" transform="translate(-319.723 -204.692)" fill="#b3b3b3" fill-rule="evenodd"/>
        <path id="Trazado_1054767" data-name="Trazado 1054767" d="M147.461,354.343l7.946,3.326c3.721,1.559,4.713,4.232,1.4,5.888l13.52-4.906c4.825-1.752,6.983,2.316,2.09,4.737l-16.556,8.188a3.35,3.35,0,0,1-2.279.27L141.63,369.2l-7.16.217.061-9.6,9.971-5.339a3.351,3.351,0,0,1,2.959-.138Z" transform="translate(-122.228 -308.187)" fill="#ffb7b2" fill-rule="evenodd"/>
        <path id="Trazado_1054768" data-name="Trazado 1054768" d="M172.419,410.77c.048-.02-5.78,4.124-5.78,4.124L155.6,420.342a3.712,3.712,0,0,1-1.936.193l-12.034-2.687-7.16.217.016-2.255,6.585-.158,13.037,2.472C160.783,416.815,165.963,413.242,172.419,410.77Z" transform="translate(-122.228 -356.836)" fill="#ff9aa2" fill-rule="evenodd"/>
        <path id="Trazado_1054769" data-name="Trazado 1054769" d="M87.629,369.19h4.063A1.415,1.415,0,0,1,93.1,370.6v13.085a1.411,1.411,0,0,1-1.409,1.409H87.629a1.408,1.408,0,0,1-1.409-1.409V370.6a1.414,1.414,0,0,1,1.409-1.414Z" transform="translate(-80.832 -321.164)" fill="#628cc9" fill-rule="evenodd"/>
        <path id="Trazado_1054770" data-name="Trazado 1054770" d="M87.6,369.19h2.518V385.1H87.6a1.415,1.415,0,0,1-1.414-1.409l0-13.085A1.414,1.414,0,0,1,87.6,369.19Z" transform="translate(-80.807 -321.164)" fill="#8dabd7" fill-rule="evenodd"/>
        <path id="Trazado_1054771" data-name="Trazado 1054771" d="M68.827,280.57a2.167,2.167,0,1,1-2.167,2.167A2.167,2.167,0,0,1,68.827,280.57Z" transform="translate(-64.052 -245.134)" fill="#f4dd00" fill-rule="evenodd"/>
        <path id="Trazado_1054772" data-name="Trazado 1054772" d="M50.467,126.29a2.167,2.167,0,1,1-2.167,2.167A2.168,2.168,0,0,1,50.467,126.29Z" transform="translate(-48.3 -112.773)" fill="#f4dd00" fill-rule="evenodd"/>
        <path id="Trazado_1054773" data-name="Trazado 1054773" d="M215.947,31.15a2.169,2.169,0,1,1-2.167,2.171A2.169,2.169,0,0,1,215.947,31.15Z" transform="translate(-190.27 -31.15)" fill="#f4dd00" fill-rule="evenodd"/>
        <path id="Trazado_1054774" data-name="Trazado 1054774" d="M432.892,190.74a2.544,2.544,0,1,1-2.542,2.542A2.542,2.542,0,0,1,432.892,190.74Z" transform="translate(-376.071 -168.067)" fill="#f4dd00" fill-rule="evenodd"/>
        <path id="Trazado_1054775" data-name="Trazado 1054775" d="M332.742,88.41a2.542,2.542,0,1,1-2.542,2.542A2.539,2.539,0,0,1,332.742,88.41Z" transform="translate(-290.15 -80.275)" fill="#f4dd00" fill-rule="evenodd"/>
      </g>
      <path id="Trazado_1054776" data-name="Trazado 1054776" d="M62.769,33.74V31.767a.982.982,0,0,1,.3-.709l2.179-2.179a3.158,3.158,0,1,1,1.478,1.333l-1.965,1.966V33.74a2.1,2.1,0,0,1,1.587.621c1.047,1.043.382,2.34.709,2.428a12.387,12.387,0,0,1,3.025,1.253c.305.178.733-1.216,2.219-1.216a2.1,2.1,0,0,1,1.495.617l1.486,1.49a2.107,2.107,0,0,1,0,2.984,7.04,7.04,0,0,0-.617.648.124.124,0,0,0,.016.081,12.373,12.373,0,0,1,1.256,3.025.108.108,0,0,0,.121.088,5.357,5.357,0,0,1,1.381.081c.068.02.327-.064.624-.064h.314V39.923a1,1,0,0,1,.467-.845l2.742-2.03a3.54,3.54,0,1,1,1.179,1.59l-2.4,1.78v5.356h.314a2.389,2.389,0,0,1,2.384,2.384c0,1.912-.261,1,2.191,2.046a14.757,14.757,0,0,1,1.8.889.376.376,0,0,0,.475-.068c.742-.737,1.253-1.414,2.4-1.414a2.367,2.367,0,0,1,1.684.7l1.853,1.848a2.389,2.389,0,0,1,0,3.371c-1.159,1.159-.986.709-.294,2.114l5.106-1.958-.028-1.9a3.538,3.538,0,1,1,1.978-.065l.04,2.549a.989.989,0,0,1-.636,1.019l-5.7,2.186c.105.314.2.628.286.946a.381.381,0,0,0,.382.294c1.047,0,1.888-.117,2.7.7A2.393,2.393,0,0,1,98,63.1v2.614a2.385,2.385,0,0,1-2.38,2.384v0H94.6v0a.381.381,0,0,0-.382.29,15.377,15.377,0,0,1-1.534,3.705.37.37,0,0,0,.064.475,3.942,3.942,0,0,1,1.35,1.848c2.88.935,3.253,4.636-1.159,6.818L76.382,89.417a4.277,4.277,0,0,1-2.932.351L61.618,87.149l-6.045.185v.33h0a2.411,2.411,0,0,1-2.408,2.4H49.106a2.4,2.4,0,0,1-2.4-2.4V74.574h0a2.407,2.407,0,0,1,2.4-2.4h4.063a2.411,2.411,0,0,1,2.408,2.4h0v.56l8.541-4.575a4.663,4.663,0,0,1,.995-.395l-.6-1.776a.377.377,0,0,0-.382-.294c-1.047,0-1.885.117-2.7-.7a2.361,2.361,0,0,1-.7-1.684V63.1c0-.347.064-.286,0-.5-.242-.8.061-1.482-.182-1.547A12.451,12.451,0,0,1,57.52,59.79c-.305-.173-.733,1.22-2.219,1.22a2.091,2.091,0,0,1-1.495-.621L52.316,58.9a2.115,2.115,0,0,1,0-2.984,6.134,6.134,0,0,0,.621-.648,4.437,4.437,0,0,0-.31-.617l-4.59,2.752-.028,2.316a3.16,3.16,0,1,1-1.98.044l.033-2.9a1,1,0,0,1,.483-.882l5.316-3.178-.23-.709c-.185-.141-1.446.305-2.388-.641a2.106,2.106,0,0,1-.621-1.49V47.865a2.112,2.112,0,0,1,2.11-2.11,5.368,5.368,0,0,0,.9-.024l.23-.7-4.985-2.138a3.164,3.164,0,1,1,.76-1.833L52.619,43.2a4.4,4.4,0,0,0,.323-.636l-.037-.072,0,0c-.632-.632-1.2-1.075-1.2-2.074a2.1,2.1,0,0,1,.621-1.49h0l1.49-1.49a2.108,2.108,0,0,1,1.49-.612v0c1.47,0,1.929,1.385,2.223,1.216a12.476,12.476,0,0,1,3.025-1.253.108.108,0,0,0,.088-.121h0v-.817h0a2.115,2.115,0,0,1,2.131-2.107ZM86,34.726a1.548,1.548,0,1,0,0,2.191A1.55,1.55,0,0,0,86,34.726Zm14.229,14.538a1.548,1.548,0,1,0,0,2.191,1.551,1.551,0,0,0,0-2.191Zm-8.47,10.052a14.435,14.435,0,0,0-.786-1.6,2.375,2.375,0,0,1,.375-2.88l.72-.717a.406.406,0,0,0,0-.56l-1.853-1.848a.393.393,0,0,0-.555,0c-.676.676-1.124,1.269-2.094,1.4a2.367,2.367,0,0,1-1.5-.3,13.427,13.427,0,0,0-3.222-1.333,2.374,2.374,0,0,1-1.767-2.3V48.157a.4.4,0,0,0-.395-.395H78.06a.4.4,0,0,0-.395.395v1.014h0a2.378,2.378,0,0,1-1.772,2.3,13.3,13.3,0,0,0-3.218,1.333,2.375,2.375,0,0,1-2.88-.375l-.717-.72a.4.4,0,0,0-.56,0L66.674,53.56h0a.41.41,0,0,0-.112.281h0c0,.5,1.333.962,1.519,2.373a2.4,2.4,0,0,1-.3,1.5,13.053,13.053,0,0,0-1.333,3.222,2.374,2.374,0,0,1-2.3,1.767H63.12a.4.4,0,0,0-.395.395v2.614a.4.4,0,0,0,.395.395,3.512,3.512,0,0,1,2.465.492,2.377,2.377,0,0,1,.854,1.277,12.516,12.516,0,0,0,.841,2.287,5.064,5.064,0,0,1,.645.217l2.621,1.1a11.347,11.347,0,1,1,8.348,4.232,3.464,3.464,0,0,1,.99,2.662l5.468-1.985a6.194,6.194,0,0,1,1.438-.652,2.063,2.063,0,0,1,.5-.048l2.779-1.01a8.4,8.4,0,0,1,1.567-.406,2.62,2.62,0,0,1-.975-1.668,2.383,2.383,0,0,1,.305-1.5A13.388,13.388,0,0,0,92.3,67.88a2.371,2.371,0,0,1,2.3-1.767v0h1.019v0a.4.4,0,0,0,.395-.395V63.1a.4.4,0,0,0-.395-.395,3.521,3.521,0,0,1-2.469-.492,2.37,2.37,0,0,1-.85-1.277,13.125,13.125,0,0,0-.546-1.624ZM68.822,26.483a1.173,1.173,0,1,0,0,1.659A1.175,1.175,0,0,0,68.822,26.483ZM45.311,40a1.173,1.173,0,1,0,0,1.659A1.174,1.174,0,0,0,45.311,40Zm2.606,21.92a1.173,1.173,0,1,0,0,1.659A1.174,1.174,0,0,0,47.916,61.919ZM60.253,46.775a.994.994,0,0,1,1.405-1.405L63.8,47.512l2.147-2.142a.994.994,0,0,1,1.405,1.405l-2.142,2.142,1.647,1.651a2.51,2.51,0,0,1,1.945-.959,2.364,2.364,0,0,1,1.192.318,6.258,6.258,0,1,0-5.09,5.126,2.4,2.4,0,0,1-.33-1.212,2.379,2.379,0,0,1,.7-1.684v0l.182-.182L63.8,50.325l-2.142,2.142a.994.994,0,1,1-1.405-1.405l2.142-2.147ZM74.392,66.694a.991.991,0,1,1,1.245-1.543l2.851,2.283,4.366-8.043a.994.994,0,1,1,1.747.948l-4.933,9.086a1,1,0,0,1-1.495.3ZM55.577,81.578v3.773l6.109-.185a.822.822,0,0,1,.242.024L73.88,87.837a2.4,2.4,0,0,0,1.627-.193l16.556-8.188c1.377-.681,2.054-1.442,2.2-2.086a.8.8,0,0,0-.411-.9,3.933,3.933,0,0,0-3.1.072L77.23,81.446a.988.988,0,0,1-.665,0L66.691,78a.991.991,0,1,1,.652-1.873l9.463,3.3c1.087-.648,1.514-1.4.588-2.421a6.554,6.554,0,0,0-2.287-1.47l-7.946-3.326a2.375,2.375,0,0,0-2.11.1L55.6,77.369Zm-2.4-7.413H49.11a.419.419,0,0,0-.415.415h0V87.669a.426.426,0,0,0,.419.415h4.063a.42.42,0,0,0,.419-.415h0V86.4m0-.057V74.58h0a.42.42,0,0,0-.419-.415M86.01,57.757a9.358,9.358,0,1,0,0,13.234A9.353,9.353,0,0,0,86.01,57.757Zm-23.418,3.02c.935-.213,1.776.2,1.925-.354a15.453,15.453,0,0,1,1.466-3.576,8.246,8.246,0,1,1,5.8-5.812,15.371,15.371,0,0,1,3.609-1.482.374.374,0,0,0,.294-.382h0V48.157h0a2.264,2.264,0,0,1,.04-.439,2.107,2.107,0,0,1-1.708-1.539,10.3,10.3,0,0,0-1.051-2.546,2.1,2.1,0,0,1,.334-2.546l.575-.58a.122.122,0,0,0,0-.173l-1.486-1.486c-.254-.254-.693,1.01-1.969,1.176a2.116,2.116,0,0,1-1.333-.266A10.566,10.566,0,0,0,66.542,38.7a2.1,2.1,0,0,1-1.567-2.037V35.85a.124.124,0,0,0-.121-.121H62.747a.124.124,0,0,0-.121.121h0v.817h0A2.1,2.1,0,0,1,61.059,38.7a10.542,10.542,0,0,0-2.542,1.056,2.108,2.108,0,0,1-2.549-.334l-.58-.575a.126.126,0,0,0-.088-.037v0a.112.112,0,0,0-.085.04L53.73,40.335l0,0a.136.136,0,0,0,0,.178l.575.58a2.1,2.1,0,0,1,.334,2.546,10.415,10.415,0,0,0-1.051,2.546,2.109,2.109,0,0,1-2.042,1.567h-.817a.124.124,0,0,0-.121.121v2.107c0,.358,1.208-.226,2.223.556a2.118,2.118,0,0,1,.757,1.132,9.831,9.831,0,0,0,.439,1.3l.612,1.236a2.108,2.108,0,0,1-.334,2.549l-.575.58a.122.122,0,0,0,0,.173l1.486,1.486c.254.254.693-1.01,1.969-1.181a2.119,2.119,0,0,1,1.333.27,10.385,10.385,0,0,0,2.542,1.051A2.113,2.113,0,0,1,62.592,60.778Z"/>
    </g>
  </g>
</svg>
