<svg xmlns="http://www.w3.org/2000/svg" xmlns:xlink="http://www.w3.org/1999/xlink" width="113" height="113" viewBox="0 0 113 113">
  <defs>
    <filter id="Trazado_982547" x="0" y="0" width="113" height="113" filterUnits="userSpaceOnUse">
      <feOffset dy="3" input="SourceAlpha"/>
      <feGaussianBlur stdDeviation="3" result="blur"/>
      <feFlood flood-opacity="0.161"/>
      <feComposite operator="in" in2="blur"/>
      <feComposite in="SourceGraphic"/>
    </filter>
  </defs>
  <g id="Grupo_1226171" data-name="Grupo 1226171" transform="translate(-674 -7306.286)">
    <g id="Grupo_1226059" data-name="Grupo 1226059" transform="translate(0 1222.534)">
      <g id="Grupo_1224577" data-name="Grupo 1224577" transform="translate(0 -980)">
        <g id="Grupo_1224450" data-name="Grupo 1224450" transform="translate(683 7069.751)">
          <g id="Grupo_1224085" data-name="Grupo 1224085" transform="translate(0 0)">
            <g id="Grupo_1223184" data-name="Grupo 1223184">
              <g id="Grupo_1211216" data-name="Grupo 1211216">
                <g id="Grupo_1210737" data-name="Grupo 1210737">
                  <g id="Grupo_1210537" data-name="Grupo 1210537">
                    <g id="Grupo_1164202" data-name="Grupo 1164202">
                      <g id="Grupo_1158168" data-name="Grupo 1158168">
                        <g id="Grupo_1152576" data-name="Grupo 1152576">
                          <g id="Grupo_1148633" data-name="Grupo 1148633">
                            <g id="Grupo_1148525" data-name="Grupo 1148525">
                              <g transform="matrix(1, 0, 0, 1, -9, -6)" filter="url(#Trazado_982547)">
                                <g id="Trazado_982547-2" data-name="Trazado 982547" transform="translate(9 6)" fill="#fef9e5">
                                  <path d="M 47.49999618530273 93.5 C 41.28936767578125 93.5 35.26533126831055 92.28396606445312 29.59518241882324 89.88570404052734 C 24.11771583557129 87.56893157958984 19.19812965393066 84.251953125 14.97308921813965 80.02690124511719 C 10.74803638458252 75.80186462402344 7.431062698364258 70.88227844238281 5.114289283752441 65.40480804443359 C 2.716022968292236 59.73466110229492 1.499996185302734 53.71062469482422 1.499996185302734 47.49999618530273 C 1.499996185302734 41.28936767578125 2.716022968292236 35.26533126831055 5.114289283752441 29.59518241882324 C 7.431062698364258 24.11771583557129 10.74803638458252 19.19812965393066 14.97308921813965 14.97308921813965 C 19.19812965393066 10.74803638458252 24.11771583557129 7.431062698364258 29.59518241882324 5.114289283752441 C 35.26533126831055 2.716022968292236 41.28936767578125 1.499996185302734 47.49999618530273 1.499996185302734 C 53.71062469482422 1.499996185302734 59.73466110229492 2.716022968292236 65.40480804443359 5.114289283752441 C 70.88227844238281 7.431062698364258 75.80186462402344 10.74803638458252 80.02690124511719 14.97308921813965 C 84.251953125 19.19812965393066 87.56893157958984 24.11771583557129 89.88570404052734 29.59518241882324 C 92.28396606445312 35.26533126831055 93.5 41.28936767578125 93.5 47.49999618530273 C 93.5 53.71062469482422 92.28396606445312 59.73466110229492 89.88570404052734 65.40480804443359 C 87.56893157958984 70.88227844238281 84.251953125 75.80186462402344 80.02690124511719 80.02690124511719 C 75.80186462402344 84.251953125 70.88227844238281 87.56893157958984 65.40480804443359 89.88570404052734 C 59.73466110229492 92.28396606445312 53.71062469482422 93.5 47.49999618530273 93.5 Z" stroke="none"/>
                                  <path d="M 47.49999618530273 2.999992370605469 C 41.4912109375 2.999992370605469 35.66376495361328 4.1761474609375 30.17950439453125 6.495796203613281 C 24.88084411621094 8.736953735351562 20.12152099609375 11.94598388671875 16.03375244140625 16.03375244140625 C 11.94598388671875 20.12152099609375 8.736953735351562 24.88084411621094 6.495796203613281 30.17950439453125 C 4.1761474609375 35.66376495361328 2.999992370605469 41.4912109375 2.999992370605469 47.49999618530273 C 2.999992370605469 53.50878143310547 4.1761474609375 59.33622741699219 6.495796203613281 64.82048797607422 C 8.736953735351562 70.11914825439453 11.94598388671875 74.87847137451172 16.03375244140625 78.96623992919922 C 20.12152099609375 83.05400848388672 24.88084411621094 86.26304626464844 30.17950439453125 88.50419616699219 C 35.66376495361328 90.82384490966797 41.4912109375 92 47.49999618530273 92 C 53.50878143310547 92 59.33622741699219 90.82384490966797 64.82048797607422 88.50419616699219 C 70.11914825439453 86.26304626464844 74.87847137451172 83.05400848388672 78.96623992919922 78.96623992919922 C 83.05400848388672 74.87847137451172 86.26304626464844 70.11914825439453 88.50419616699219 64.82048797607422 C 90.82384490966797 59.33622741699219 92 53.50878143310547 92 47.49999618530273 C 92 41.4912109375 90.82384490966797 35.66376495361328 88.50419616699219 30.17950439453125 C 86.26304626464844 24.88084411621094 83.05400848388672 20.12152099609375 78.96623992919922 16.03375244140625 C 74.87847137451172 11.94598388671875 70.11914825439453 8.736953735351562 64.82048797607422 6.495796203613281 C 59.33622741699219 4.1761474609375 53.50878143310547 2.999992370605469 47.49999618530273 2.999992370605469 M 47.49999618530273 -7.62939453125e-06 C 73.7335205078125 -7.62939453125e-06 95 21.26647186279297 95 47.49999618530273 C 95 73.7335205078125 73.7335205078125 95 47.49999618530273 95 C 21.26647186279297 95 -7.62939453125e-06 73.7335205078125 -7.62939453125e-06 47.49999618530273 C -7.62939453125e-06 21.26647186279297 21.26647186279297 -7.62939453125e-06 47.49999618530273 -7.62939453125e-06 Z" stroke="none" fill="#f6c810"/>
                                </g>
                              </g>
                            </g>
                          </g>
                        </g>
                      </g>
                    </g>
                  </g>
                </g>
              </g>
            </g>
          </g>
        </g>
      </g>
    </g>
    <g id="incident-response_18240791" transform="translate(693.373 7366.446)">
      <g id="Grupo_1226170" data-name="Grupo 1226170" transform="translate(7.573 -44.851)">
        <g id="Grupo_1226165" data-name="Grupo 1226165" transform="translate(0 27.973)">
          <path id="Trazado_1054777" data-name="Trazado 1054777" d="M119.862,178.855h2.975v6.833h-2.975Z" transform="translate(-111.082 -177.919)" fill="#96a4af"/>
          <path id="Trazado_1054778" data-name="Trazado 1054778" d="M119.862,178.855h1.292v6.833h-1.292Z" transform="translate(-111.082 -177.919)" fill="#8696a3"/>
          <path id="Trazado_1054779" data-name="Trazado 1054779" d="M100.213,171.615h8.054v2.521h-8.054Z" transform="translate(-93.972 -171.615)" fill="#8696a3"/>
          <g id="Grupo_1226164" data-name="Grupo 1226164">
            <path id="Trazado_1054780" data-name="Trazado 1054780" d="M100.213,171.615h1.292v1.228h6.761v1.292h-8.054Z" transform="translate(-93.972 -171.615)" fill="#788a98" fill-rule="evenodd"/>
            <path id="Trazado_1054781" data-name="Trazado 1054781" d="M62.184,239.153a10.268,10.268,0,1,0-10.268-10.268A10.288,10.288,0,0,0,62.184,239.153Z" transform="translate(-51.916 -212.543)" fill="#fc685b" fill-rule="evenodd"/>
            <path id="Trazado_1054782" data-name="Trazado 1054782" d="M84.875,237.115a10.268,10.268,0,1,1-14.463,14.463,10.268,10.268,0,0,0,14.463-14.463Z" transform="translate(-68.022 -228.651)" fill="#fb4737" fill-rule="evenodd"/>
            <path id="Trazado_1054783" data-name="Trazado 1054783" d="M73.8,239.111a2.2,2.2,0,1,1-2.2,2.2A2.2,2.2,0,0,1,73.8,239.111Zm-5.629,2.2A5.628,5.628,0,0,1,76.9,236.6a1.032,1.032,0,0,0,.772,1.838l1.632-.228a1.031,1.031,0,0,0,.88-1.163L79.94,235.3a1.031,1.031,0,0,0-1.89-.414,7.7,7.7,0,0,0-11.941,6.419,1.034,1.034,0,0,0,2.068,0Zm11.258,0a5.636,5.636,0,0,1-7.634,5.263,5.683,5.683,0,0,1-.814-.387,1.032,1.032,0,0,0-.714-1.832l-1.645.106a1.032,1.032,0,0,0-.965,1.094l.114,1.759a1.032,1.032,0,0,0,1.9.489A7.695,7.695,0,0,0,81.5,241.309a1.034,1.034,0,1,0-2.068,0Z" transform="translate(-64.274 -225.6)" fill="#fb4737" fill-rule="evenodd"/>
            <path id="Trazado_1054784" data-name="Trazado 1054784" d="M116.568,285.467a2.2,2.2,0,1,0-2.2-2.2A2.2,2.2,0,0,0,116.568,285.467Z" transform="translate(-106.3 -266.928)" fill="#eff4f7" fill-rule="evenodd"/>
          </g>
        </g>
        <g id="Grupo_1226166" data-name="Grupo 1226166" transform="translate(22.224 44.316)">
          <path id="Trazado_1054785" data-name="Trazado 1054785" d="M283.286,458.76v3.472a1.959,1.959,0,0,1-1.955,1.955h-1.386a1.959,1.959,0,0,1-1.954-1.955v-2.693Z" transform="translate(-271 -437.997)" fill="#8fbbc2" fill-rule="evenodd"/>
          <path id="Trazado_1054786" data-name="Trazado 1054786" d="M291.81,458.76v3.472a1.959,1.959,0,0,1-1.954,1.955H288.47a1.939,1.939,0,0,1-.69-.126h.817a1.959,1.959,0,0,0,1.955-1.955v-3.161Z" transform="translate(-279.524 -437.997)" fill="#7eb1b9" fill-rule="evenodd"/>
          <path id="Trazado_1054787" data-name="Trazado 1054787" d="M233.533,298.085a9.639,9.639,0,0,1,4.927,17.924,1.908,1.908,0,0,0-.954,1.679v2.35a1.327,1.327,0,0,1-1.325,1.325h-5.3a1.328,1.328,0,0,1-1.325-1.325v-2.35a1.908,1.908,0,0,0-.954-1.679,9.639,9.639,0,0,1,4.927-17.924Z" transform="translate(-223.895 -298.085)" fill="#ffda2d" fill-rule="evenodd"/>
          <path id="Trazado_1054788" data-name="Trazado 1054788" d="M289.772,298.085a9.639,9.639,0,0,1,4.927,17.924,1.908,1.908,0,0,0-.954,1.679v2.35a1.327,1.327,0,0,1-1.325,1.325h-2.585a1.328,1.328,0,0,0,1.325-1.325v-2.35a1.908,1.908,0,0,1,.954-1.679,9.64,9.64,0,0,0-3.634-17.837,9.725,9.725,0,0,1,1.292-.086Z" transform="translate(-280.134 -298.085)" fill="#ffc700" fill-rule="evenodd"/>
          <path id="Trazado_1054789" data-name="Trazado 1054789" d="M269.063,459.313h5.3a1.328,1.328,0,0,0,1.325-1.325v-1.481h-7.945v1.481a1.327,1.327,0,0,0,1.325,1.325Z" transform="translate(-262.072 -436.035)" fill="#b4d2d7" fill-rule="evenodd"/>
          <path id="Trazado_1054790" data-name="Trazado 1054790" d="M298.969,459.313h2.585a1.328,1.328,0,0,0,1.325-1.325v-1.481h-2.585v1.481A1.327,1.327,0,0,1,298.969,459.313Z" transform="translate(-289.268 -436.035)" fill="#a1c6cc" fill-rule="evenodd"/>
          <path id="Trazado_1054791" data-name="Trazado 1054791" d="M261.231,340.947a5.528,5.528,0,1,0-5.528-5.528A5.538,5.538,0,0,0,261.231,340.947Z" transform="translate(-251.593 -325.781)" fill="#64b5f6" fill-rule="evenodd"/>
          <path id="Trazado_1054792" data-name="Trazado 1054792" d="M258.022,339.92a5.528,5.528,0,1,1,7.711-7.711,5.528,5.528,0,0,0-7.711,7.711Z" transform="translate(-251.593 -325.781)" fill="#42a5f5" fill-rule="evenodd"/>
        </g>
        <g id="Grupo_1226168" data-name="Grupo 1226168" transform="translate(11.79 0)">
          <g id="Grupo_1226167" data-name="Grupo 1226167" transform="translate(30.014 37.896)">
            <path id="Trazado_1054793" data-name="Trazado 1054793" d="M379.252,257.717l3.667-2.022-3.709-7.288-3.8,1.764Z" transform="translate(-375.412 -248.407)" fill="#b4d2d7" fill-rule="evenodd"/>
            <path id="Trazado_1054794" data-name="Trazado 1054794" d="M397.8,257.717l3.667-2.022-3.709-7.288-1.045.485,3.462,6.8-2.658,1.466Z" transform="translate(-393.964 -248.407)" fill="#a1c6cc" fill-rule="evenodd"/>
            <path id="Trazado_1054795" data-name="Trazado 1054795" d="M394.8,288.632l-6.038,3.073a.315.315,0,0,0-.137.422l7.753,15.233a3.7,3.7,0,0,0,6.6-3.358l-7.753-15.233a.315.315,0,0,0-.422-.138Z" transform="translate(-386.884 -283.404)" fill="#465759" fill-rule="evenodd"/>
            <path id="Trazado_1054796" data-name="Trazado 1054796" d="M394.8,288.632l-6.038,3.073a.315.315,0,0,0-.137.422l7.753,15.233a3.714,3.714,0,0,0,4.485,1.827,3.7,3.7,0,0,1-2.584-1.949l-7.753-15.233a.315.315,0,0,1,.137-.422l4.759-2.422-.2-.392a.315.315,0,0,0-.422-.138Z" transform="translate(-386.884 -283.404)" fill="#3e4d4f" fill-rule="evenodd"/>
            <path id="Trazado_1054797" data-name="Trazado 1054797" d="M397.238,292.738l-2.02-3.969a.315.315,0,0,0-.422-.138l-1.154.587-3.73,1.9-1.154.587a.315.315,0,0,0-.137.422l2.02,3.969,6.6-3.357Z" transform="translate(-386.884 -283.404)" fill="#374446" fill-rule="evenodd"/>
            <path id="Trazado_1054798" data-name="Trazado 1054798" d="M395.538,289.4l-.319-.628a.315.315,0,0,0-.422-.138l-1.154.587-3.73,1.9-1.154.587a.315.315,0,0,0-.137.422l2.02,3.969,1.581-.8-1.558-3.061a.315.315,0,0,1,.137-.422l1.154-.587,3.583-1.823Z" transform="translate(-386.885 -283.404)" fill="#313c3e" fill-rule="evenodd"/>
          </g>
          <circle id="Elipse_13345" data-name="Elipse 13345" cx="17.527" cy="17.527" r="17.527" transform="translate(0 24.784) rotate(-45)" fill="#64b5f6"/>
          <path id="Trazado_1054799" data-name="Trazado 1054799" d="M279.056,12.113a17.527,17.527,0,0,1,1.1,32.936A17.527,17.527,0,0,0,264.527,13.8a17.487,17.487,0,0,1,14.529-1.69Z" transform="translate(-248.842 -3.998)" fill="#42a5f5" fill-rule="evenodd"/>
          <circle id="Elipse_13346" data-name="Elipse 13346" cx="14.212" cy="14.212" r="14.212" transform="translate(5.474 30.308) rotate(-60.923)" fill="#e6f8ff"/>
          <path id="Trazado_1054800" data-name="Trazado 1054800" d="M229.8,64.371A14.214,14.214,0,1,0,249.88,84.412,14.214,14.214,0,0,1,229.8,64.371Z" transform="translate(-214.404 -50.257)" fill="#cbf0ff" fill-rule="evenodd"/>
        </g>
        <g id="Grupo_1226169" data-name="Grupo 1226169" transform="translate(25.788 13.989)">
          <path id="Trazado_1054801" data-name="Trazado 1054801" d="M260.756,63.421l2.894-.017a.353.353,0,0,1,.355.351l.008,1.453a9.1,9.1,0,0,1,3.283,1.339l1.022-1.034a.353.353,0,0,1,.5,0l2.058,2.035a.353.353,0,0,1,0,.5l-1.022,1.034a9.1,9.1,0,0,1,1.376,3.268l1.453-.008a.353.353,0,0,1,.355.351l.017,2.894a.353.353,0,0,1-.351.355l-1.453.008a9.107,9.107,0,0,1-1.339,3.283l1.034,1.022a.353.353,0,0,1,0,.5l-2.035,2.058a.353.353,0,0,1-.5,0l-1.034-1.022a9.1,9.1,0,0,1-3.268,1.376l.008,1.453a.353.353,0,0,1-.351.355l-2.894.017a.353.353,0,0,1-.355-.351l-.008-1.453a9.106,9.106,0,0,1-3.284-1.339l-1.022,1.034a.353.353,0,0,1-.5,0l-2.058-2.035a.353.353,0,0,1,0-.5l1.022-1.034a9.1,9.1,0,0,1-1.376-3.268l-1.453.008a.353.353,0,0,1-.355-.351l-.017-2.894a.353.353,0,0,1,.351-.355l1.453-.008a9.105,9.105,0,0,1,1.339-3.283l-1.034-1.022a.353.353,0,0,1,0-.5l2.035-2.058a.353.353,0,0,1,.5,0l1.034,1.022a9.105,9.105,0,0,1,3.268-1.376l-.008-1.453A.353.353,0,0,1,260.756,63.421Z" transform="translate(-251.473 -63.404)" fill="#ffda2d" fill-rule="evenodd"/>
          <path id="Trazado_1054802" data-name="Trazado 1054802" d="M260.758,63.421l2.894-.017a.353.353,0,0,1,.355.351l.008,1.453a9.1,9.1,0,0,1,3.283,1.339l1.022-1.034a.353.353,0,0,1,.5,0l2.058,2.035a.353.353,0,0,1,0,.5l-.608.615L268.394,66.8a.353.353,0,0,0-.5,0l-1.022,1.034a9.105,9.105,0,0,0-3.283-1.339l-.008-1.453a.353.353,0,0,0-.355-.351l-2.814.016-.005-.937a.353.353,0,0,1,.351-.355Zm9.43,6.184a9.1,9.1,0,0,1,1.045,2.74l1.453-.008a.353.353,0,0,1,.355.351l.017,2.894a.353.353,0,0,1-.351.355h-.08l-.011-1.957a.353.353,0,0,0-.355-.351l-1.453.008a9.1,9.1,0,0,0-1.376-3.268Zm.716,7.631q-.082.233-.177.461.056-.228.1-.461Zm-.794,2.185.839.829a.353.353,0,0,1,0,.5l-.608.615-.854-.844a9.161,9.161,0,0,0,.62-1.1Zm-5.987,4.935,0,.261a.353.353,0,0,1-.351.355h-.08l0-.516Q263.91,84.411,264.124,84.356Zm-10.288-3.33-.18-.178a.353.353,0,0,1,0-.5l.266-.269q.157.27.331.528Zm-2.356-7.278-.005-.937a.353.353,0,0,1,.351-.355l1.378-.008a9.056,9.056,0,0,0-.35,1.292l-1.373.008Zm1.9-1.761A9.08,9.08,0,0,1,254,70.264l.2.193A9.134,9.134,0,0,0,253.38,71.987Zm.384-3.667-.18-.178a.353.353,0,0,1,0-.5l2.035-2.058a.353.353,0,0,1,.5,0l1.034,1.022a9.1,9.1,0,0,1,2.836-1.276l.007,1.192a9.107,9.107,0,0,0-3.268,1.376l-1.034-1.022a.353.353,0,0,0-.5,0Z" transform="translate(-251.475 -63.404)" fill="#ffc700" fill-rule="evenodd"/>
          <path id="Trazado_1054803" data-name="Trazado 1054803" d="M298.344,104.872a5.433,5.433,0,1,1-5.4,5.464A5.433,5.433,0,0,1,298.344,104.872Z" transform="translate(-287.583 -99.514)" fill="#fc685b" fill-rule="evenodd"/>
          <path id="Trazado_1054804" data-name="Trazado 1054804" d="M308.253,112.609a5.433,5.433,0,1,1-7.575,7.574,5.433,5.433,0,0,0,7.575-7.574Z" transform="translate(-294.319 -106.25)" fill="#fb4737" fill-rule="evenodd"/>
        </g>
      </g>
      <path id="Trazado_1054805" data-name="Trazado 1054805" d="M56.16,61.425a1.034,1.034,0,0,1-.83,1.2,1.047,1.047,0,0,1-.189.017,1.034,1.034,0,0,1-1.015-.846l-.119-.65a17.145,17.145,0,0,1-8.2,6.015,1.048,1.048,0,0,1-.336.056,1.034,1.034,0,0,1-.336-2.011A15.076,15.076,0,0,0,52,60.373l-.209.074a1.034,1.034,0,0,1-.694-1.948L54.2,57.393a1.034,1.034,0,0,1,1.363.787l.6,3.245Zm-26.693.19a1.034,1.034,0,0,1-.407,1.52l-2.98,1.416a1.034,1.034,0,1,1-.886-1.868l.6-.284a17.138,17.138,0,0,1-7.933-6.363,1.033,1.033,0,0,1,1.715-1.154,15.064,15.064,0,0,0,6.447,5.374l-.127-.183a1.034,1.034,0,1,1,1.7-1.174l1.872,2.716ZM13.242,15.561a1.034,1.034,0,0,1,2.034-.373l.119.65a17.14,17.14,0,0,1,8.2-6.015,1.034,1.034,0,1,1,.672,1.955,15.057,15.057,0,0,0-6.859,4.836l.209-.075a1.034,1.034,0,0,1,.693,1.948L15.2,19.592a1.058,1.058,0,0,1-.348.06,1.033,1.033,0,0,1-1.016-.848l-.6-3.244ZM42.765,49.946l-3.514,3.546a1.035,1.035,0,0,1-1.456.013L36.12,51.872a1.034,1.034,0,1,1,1.444-1.479l.94.916L41.3,48.491a1.034,1.034,0,0,1,1.469,1.455Zm-7.823,1.046A4.494,4.494,0,1,0,39.436,46.5,4.5,4.5,0,0,0,34.942,50.992Zm11.055,0a6.561,6.561,0,1,0-6.561,6.562A6.569,6.569,0,0,0,46,50.992Zm-28.155-10.8a1.164,1.164,0,1,1-1.163,1.165A1.164,1.164,0,0,1,17.841,40.189Zm0,4.395a3.231,3.231,0,1,0-3.231-3.23A3.234,3.234,0,0,0,17.841,44.584ZM24.5,40.319a1.033,1.033,0,0,0-1.034,1.034,5.629,5.629,0,0,1-8.445,4.874,1.034,1.034,0,0,0-.72-1.833L12.66,44.5a1.033,1.033,0,0,0-.964,1.1l.113,1.759a1.034,1.034,0,0,0,1.9.491,7.7,7.7,0,0,0,11.825-6.5A1.033,1.033,0,0,0,24.5,40.319Zm-14.36,1.034a1.034,1.034,0,0,0,2.068,0,5.63,5.63,0,0,1,8.719-4.707,1.034,1.034,0,0,0,.778,1.84l1.632-.227a1.035,1.035,0,0,0,.881-1.167l-.244-1.746a1.033,1.033,0,0,0-1.893-.416,7.7,7.7,0,0,0-11.941,6.423Zm7.7-9.235a9.234,9.234,0,1,0,9.235,9.235,9.244,9.244,0,0,0-9.235-9.235Zm-.453-3.553h.907V30.06c-.15-.006-.3-.009-.453-.009s-.3,0-.453.009V28.565Zm-2.539-2.52h5.985V26.5H14.849Zm2.993,26.61a11.3,11.3,0,0,0,2.521-22.321V28.565h1.505A1.034,1.034,0,0,0,22.9,27.531v-2.52a1.034,1.034,0,0,0-1.034-1.034H13.815a1.034,1.034,0,0,0-1.034,1.034v2.52a1.034,1.034,0,0,0,1.034,1.034h1.506v1.769a11.274,11.274,0,0,0-1.755.558H6.091a1.034,1.034,0,1,0,0,2.068h4.191A11.35,11.35,0,0,0,8.114,35.6H3.329a1.034,1.034,0,1,0,0,2.068H7.156a11.231,11.231,0,0,0-.569,2.647H2.026a1.034,1.034,0,0,0,0,2.068H6.587a11.233,11.233,0,0,0,.569,2.645H4.118a1.034,1.034,0,1,0,0,2.068h4a11.306,11.306,0,0,0,9.727,5.555ZM43.125,22.114,43.1,18.6a1.034,1.034,0,0,1,1.027-1.04h.007a1.033,1.033,0,0,1,1.034,1.026l.023,3.518a1.034,1.034,0,0,1-1.026,1.041h-.008A1.034,1.034,0,0,1,43.125,22.114Zm2.107,2.627a1.085,1.085,0,1,1-1.092-1.078,1.083,1.083,0,0,1,1.092,1.078Zm2.049.171a4.4,4.4,0,0,0-3.127-7.492h-.026a4.4,4.4,0,0,0,.025,8.8h.026A4.362,4.362,0,0,0,47.281,24.912Zm-3.127-9.56h-.038a6.467,6.467,0,0,0,.035,12.934h.039a6.467,6.467,0,0,0-.036-12.934Zm8.981,7.182.773-.006L53.9,21l-.773,0h-.005a1.034,1.034,0,0,1-1.013-.826,8.029,8.029,0,0,0-1.22-2.9,1.035,1.035,0,0,1,.121-1.307l.543-.55-1.088-1.076-.544.549a1.036,1.036,0,0,1-1.3.137A8.037,8.037,0,0,0,45.7,13.846a1.034,1.034,0,0,1-.837-1.009l0-.771-1.531.008,0,.773a1.033,1.033,0,0,1-.826,1.018,8.034,8.034,0,0,0-2.9,1.22,1.031,1.031,0,0,1-1.305-.122l-.55-.542-1.077,1.09.551.542a1.034,1.034,0,0,1,.135,1.3,8.044,8.044,0,0,0-1.187,2.911,1.033,1.033,0,0,1-1.008.837l-.773,0,.01,1.531.771,0h.007a1.037,1.037,0,0,1,1.013.826,8.041,8.041,0,0,0,1.219,2.9,1.034,1.034,0,0,1-.121,1.3l-.544.551,1.09,1.076.544-.55a1.035,1.035,0,0,1,1.3-.136,8.027,8.027,0,0,0,2.91,1.188,1.032,1.032,0,0,1,.837,1.009l0,.771,1.531-.009,0-.771a1.031,1.031,0,0,1,.826-1.018,8.059,8.059,0,0,0,2.9-1.221A1.035,1.035,0,0,1,50,28.675l.549.544,1.077-1.09-.55-.544a1.036,1.036,0,0,1-.137-1.3,8.024,8.024,0,0,0,1.188-2.91,1.035,1.035,0,0,1,1.009-.837Zm2.416-3.207a1.377,1.377,0,0,0-.974-.4h-.008l-.642,0a10.057,10.057,0,0,0-.876-2.08l.452-.457a1.389,1.389,0,0,0-.012-1.96L51.433,12.4a1.388,1.388,0,0,0-1.96.012l-.452.458a10.041,10.041,0,0,0-2.089-.853l0-.642a1.375,1.375,0,0,0-.412-.977,1.392,1.392,0,0,0-.982-.4l-2.895.015A1.388,1.388,0,0,0,41.261,11.4l0,.642a10.094,10.094,0,0,0-2.081.876l-.456-.452a1.389,1.389,0,0,0-1.961.012L34.733,14.54a1.387,1.387,0,0,0,.012,1.96l.456.451a10.105,10.105,0,0,0-.853,2.09l-.641,0a1.389,1.389,0,0,0-1.379,1.395l.017,2.895a1.387,1.387,0,0,0,1.394,1.377l.641,0a10.131,10.131,0,0,0,.876,2.081l-.452.457a1.387,1.387,0,0,0,.012,1.96l2.057,2.034a1.387,1.387,0,0,0,1.96-.01l.453-.458a10.109,10.109,0,0,0,2.09.853l0,.641a1.387,1.387,0,0,0,1.385,1.378h.009l2.893-.016a1.388,1.388,0,0,0,1.378-1.394l0-.641a10.126,10.126,0,0,0,2.08-.876l.456.451a1.4,1.4,0,0,0,.982.4,1.38,1.38,0,0,0,.979-.412L53.575,29.1a1.387,1.387,0,0,0-.012-1.96l-.456-.452a10.013,10.013,0,0,0,.851-2.09l.642,0A1.389,1.389,0,0,0,55.98,23.2l-.017-2.893a1.377,1.377,0,0,0-.412-.978Zm-5.42,14.237a13.177,13.177,0,1,0-10.056.787,13.089,13.089,0,0,0,10.056-.787Zm8.52-7.026A15.246,15.246,0,1,1,48.872,7.322h0a15.246,15.246,0,0,1,9.78,19.215Zm6.046,31.5A2.644,2.644,0,0,0,64.542,56L59.279,45.659l-4.754,2.419,5.263,10.343a2.662,2.662,0,0,0,4.909-.385ZM57.117,41.41l1.224,2.406-4.754,2.419-1.225-2.406,4.756-2.419Zm-5.5-2.595q.482-.213.957-.454t.929-.508L54.745,40.3l-1.887.962ZM39.048,37.5a16.5,16.5,0,1,1,12.585-.985,16.513,16.513,0,0,1-12.585.985Zm27.337,17.56L58.633,39.831a1.349,1.349,0,0,0-1.813-.591l-.232.119L55.239,36.71a18.564,18.564,0,1,0-16.83,2.759,18.614,18.614,0,0,0,5.763.92,18.349,18.349,0,0,0,5.495-.844l1.348,2.649-.233.119a1.35,1.35,0,0,0-.589,1.813l7.752,15.233a4.735,4.735,0,0,0,8.44-4.3ZM40.129,66.51H38.743a.922.922,0,0,1-.917-.845h3.221a.923.923,0,0,1-.918.845ZM42.084,63.6h-5.3a.3.3,0,0,1-.291-.291v-.486h5.878v.486A.3.3,0,0,1,42.084,63.6ZM30.831,50.992a8.655,8.655,0,0,0,4.207,7.4,2.919,2.919,0,0,1,1.453,2.363h5.89a2.917,2.917,0,0,1,1.453-2.363,8.605,8.605,0,1,0-13-7.4ZM44.443,63.307v-2.35a.879.879,0,0,1,.449-.791,10.673,10.673,0,1,0-10.911,0,.882.882,0,0,1,.45.791v2.35a2.36,2.36,0,0,0,1.324,2.117v.165a2.992,2.992,0,0,0,2.988,2.989h1.386a2.993,2.993,0,0,0,2.989-2.989v-.165A2.361,2.361,0,0,0,44.443,63.307Z" transform="translate(0 -41.891)" fill-rule="evenodd"/>
    </g>
  </g>
</svg>
