<svg xmlns="http://www.w3.org/2000/svg" xmlns:xlink="http://www.w3.org/1999/xlink" width="113" height="113" viewBox="0 0 113 113">
  <defs>
    <filter id="Trazado_982547" x="0" y="0" width="113" height="113" filterUnits="userSpaceOnUse">
      <feOffset dy="3" input="SourceAlpha"/>
      <feGaussianBlur stdDeviation="3" result="blur"/>
      <feFlood flood-opacity="0.161"/>
      <feComposite operator="in" in2="blur"/>
      <feComposite in="SourceGraphic"/>
    </filter>
  </defs>
  <g id="Grupo_1226175" data-name="Grupo 1226175" transform="translate(-1637 -7306.286)">
    <g id="Grupo_1226062" data-name="Grupo 1226062" transform="translate(963 1222.534)">
      <g id="Grupo_1224577" data-name="Grupo 1224577" transform="translate(0 -980)">
        <g id="Grupo_1224450" data-name="Grupo 1224450" transform="translate(683 7069.751)">
          <g id="Grupo_1224085" data-name="Grupo 1224085" transform="translate(0 0)">
            <g id="Grupo_1223184" data-name="Grupo 1223184">
              <g id="Grupo_1211216" data-name="Grupo 1211216">
                <g id="Grupo_1210737" data-name="Grupo 1210737">
                  <g id="Grupo_1210537" data-name="Grupo 1210537">
                    <g id="Grupo_1164202" data-name="Grupo 1164202">
                      <g id="Grupo_1158168" data-name="Grupo 1158168">
                        <g id="Grupo_1152576" data-name="Grupo 1152576">
                          <g id="Grupo_1148633" data-name="Grupo 1148633">
                            <g id="Grupo_1148525" data-name="Grupo 1148525">
                              <g transform="matrix(1, 0, 0, 1, -9, -6)" filter="url(#Trazado_982547)">
                                <g id="Trazado_982547-2" data-name="Trazado 982547" transform="translate(9 6)" fill="#fef9e5">
                                  <path d="M 47.49999618530273 93.5 C 41.28936767578125 93.5 35.26533126831055 92.28396606445312 29.59518241882324 89.88570404052734 C 24.11771583557129 87.56893157958984 19.19812965393066 84.251953125 14.97308921813965 80.02690124511719 C 10.74803638458252 75.80186462402344 7.431062698364258 70.88227844238281 5.114289283752441 65.40480804443359 C 2.716022968292236 59.73466110229492 1.499996185302734 53.71062469482422 1.499996185302734 47.49999618530273 C 1.499996185302734 41.28936767578125 2.716022968292236 35.26533126831055 5.114289283752441 29.59518241882324 C 7.431062698364258 24.11771583557129 10.74803638458252 19.19812965393066 14.97308921813965 14.97308921813965 C 19.19812965393066 10.74803638458252 24.11771583557129 7.431062698364258 29.59518241882324 5.114289283752441 C 35.26533126831055 2.716022968292236 41.28936767578125 1.499996185302734 47.49999618530273 1.499996185302734 C 53.71062469482422 1.499996185302734 59.73466110229492 2.716022968292236 65.40480804443359 5.114289283752441 C 70.88227844238281 7.431062698364258 75.80186462402344 10.74803638458252 80.02690124511719 14.97308921813965 C 84.251953125 19.19812965393066 87.56893157958984 24.11771583557129 89.88570404052734 29.59518241882324 C 92.28396606445312 35.26533126831055 93.5 41.28936767578125 93.5 47.49999618530273 C 93.5 53.71062469482422 92.28396606445312 59.73466110229492 89.88570404052734 65.40480804443359 C 87.56893157958984 70.88227844238281 84.251953125 75.80186462402344 80.02690124511719 80.02690124511719 C 75.80186462402344 84.251953125 70.88227844238281 87.56893157958984 65.40480804443359 89.88570404052734 C 59.73466110229492 92.28396606445312 53.71062469482422 93.5 47.49999618530273 93.5 Z" stroke="none"/>
                                  <path d="M 47.49999618530273 2.999992370605469 C 41.4912109375 2.999992370605469 35.66376495361328 4.1761474609375 30.17950439453125 6.495796203613281 C 24.88084411621094 8.736953735351562 20.12152099609375 11.94598388671875 16.03375244140625 16.03375244140625 C 11.94598388671875 20.12152099609375 8.736953735351562 24.88084411621094 6.495796203613281 30.17950439453125 C 4.1761474609375 35.66376495361328 2.999992370605469 41.4912109375 2.999992370605469 47.49999618530273 C 2.999992370605469 53.50878143310547 4.1761474609375 59.33622741699219 6.495796203613281 64.82048797607422 C 8.736953735351562 70.11914825439453 11.94598388671875 74.87847137451172 16.03375244140625 78.96623992919922 C 20.12152099609375 83.05400848388672 24.88084411621094 86.26304626464844 30.17950439453125 88.50419616699219 C 35.66376495361328 90.82384490966797 41.4912109375 92 47.49999618530273 92 C 53.50878143310547 92 59.33622741699219 90.82384490966797 64.82048797607422 88.50419616699219 C 70.11914825439453 86.26304626464844 74.87847137451172 83.05400848388672 78.96623992919922 78.96623992919922 C 83.05400848388672 74.87847137451172 86.26304626464844 70.11914825439453 88.50419616699219 64.82048797607422 C 90.82384490966797 59.33622741699219 92 53.50878143310547 92 47.49999618530273 C 92 41.4912109375 90.82384490966797 35.66376495361328 88.50419616699219 30.17950439453125 C 86.26304626464844 24.88084411621094 83.05400848388672 20.12152099609375 78.96623992919922 16.03375244140625 C 74.87847137451172 11.94598388671875 70.11914825439453 8.736953735351562 64.82048797607422 6.495796203613281 C 59.33622741699219 4.1761474609375 53.50878143310547 2.999992370605469 47.49999618530273 2.999992370605469 M 47.49999618530273 -7.62939453125e-06 C 73.7335205078125 -7.62939453125e-06 95 21.26647186279297 95 47.49999618530273 C 95 73.7335205078125 73.7335205078125 95 47.49999618530273 95 C 21.26647186279297 95 -7.62939453125e-06 73.7335205078125 -7.62939453125e-06 47.49999618530273 C -7.62939453125e-06 21.26647186279297 21.26647186279297 -7.62939453125e-06 47.49999618530273 -7.62939453125e-06 Z" stroke="none" fill="#f6c810"/>
                                </g>
                              </g>
                            </g>
                          </g>
                        </g>
                      </g>
                    </g>
                  </g>
                </g>
              </g>
            </g>
          </g>
        </g>
      </g>
    </g>
    <g id="Line" transform="translate(1658.556 7326.654)">
      <g id="Grupo_1226174" data-name="Grupo 1226174" transform="translate(2.025 9.91)">
        <path id="Trazado_1054834" data-name="Trazado 1054834" d="M12.975,10.91H55.328v8.917H12.975Z" transform="translate(-0.77 -9.795)" fill="#5fd0b6"/>
        <path id="Trazado_1054835" data-name="Trazado 1054835" d="M12.975,18.91H55.328V41.2H12.975Z" transform="translate(-0.77 -8.879)" fill="#fbdf62"/>
        <path id="Trazado_1054836" data-name="Trazado 1054836" d="M22.975,18.91H65.328V50.118H22.975Z" transform="translate(0.375 -8.879)" fill="#fbdf62"/>
        <circle id="Elipse_13349" data-name="Elipse 13349" cx="6.687" cy="6.687" r="6.687" transform="translate(35.611 14.489)" fill="#5fd0b6"/>
        <circle id="Elipse_13350" data-name="Elipse 13350" cx="1.115" cy="1.115" r="1.115" transform="translate(28.923 4.458)"/>
        <circle id="Elipse_13351" data-name="Elipse 13351" cx="1.115" cy="1.115" r="1.115" transform="translate(22.236 4.458)"/>
        <circle id="Elipse_13352" data-name="Elipse 13352" cx="1.115" cy="1.115" r="1.115" transform="translate(15.548 4.458)"/>
        <circle id="Elipse_13353" data-name="Elipse 13353" cx="8.917" cy="8.917" r="8.917" transform="translate(3.288 17.833)" fill="#5fd0b6"/>
        <path id="Trazado_1054837" data-name="Trazado 1054837" d="M7.918,39.66,3.025,52.2l6.23,2.43,4.859-12.461" transform="translate(-1.91 -6.502)" fill="#fbdf62"/>
        <path id="Trazado_1054838" data-name="Trazado 1054838" d="M19.172,39.66,24.065,52.2l-6.23,2.43L12.975,42.168" transform="translate(-0.77 -6.502)" fill="#fbdf62"/>
        <path id="Trazado_1054839" data-name="Trazado 1054839" d="M55.443,43.347h-30.2a1.115,1.115,0,0,1,0-2.229h29.09V12.139H14.2V23.285a1.115,1.115,0,0,1-2.229,0V11.024A1.114,1.114,0,0,1,13.09,9.91H55.443a1.114,1.114,0,0,1,1.115,1.115V42.232A1.114,1.114,0,0,1,55.443,43.347Z" transform="translate(-0.885 -9.91)"/>
        <path id="Trazado_1054840" data-name="Trazado 1054840" d="M65.136,51.347H25.769a1.115,1.115,0,1,1,0-2.229H64.022V20.139H58.449a1.115,1.115,0,1,1,0-2.229h6.687a1.114,1.114,0,0,1,1.115,1.115V50.232A1.114,1.114,0,0,1,65.136,51.347Z" transform="translate(0.568 -8.993)"/>
        <path id="Trazado_1054841" data-name="Trazado 1054841" d="M23.09,29.479a1.114,1.114,0,0,1-1.115-1.115v-9.34A1.114,1.114,0,0,1,23.09,17.91h26.75a1.115,1.115,0,0,1,0,2.229H24.2v8.225A1.114,1.114,0,0,1,23.09,29.479Z" transform="translate(0.261 -8.993)"/>
        <path id="Trazado_1054842" data-name="Trazado 1054842" d="M55.443,20.139H13.09a1.115,1.115,0,0,1,0-2.229H55.443a1.115,1.115,0,0,1,0,2.229Z" transform="translate(-0.885 -8.993)"/>
        <path id="Trazado_1054843" data-name="Trazado 1054843" d="M40.777,37.514a7.8,7.8,0,1,1,7.8-7.8A7.811,7.811,0,0,1,40.777,37.514Zm0-13.375a5.573,5.573,0,1,0,5.573,5.573A5.579,5.579,0,0,0,40.777,24.139Z" transform="translate(1.521 -8.535)"/>
        <path id="Trazado_1054844" data-name="Trazado 1054844" d="M39.319,32.6a1.078,1.078,0,0,1-.11-.005,1.113,1.113,0,0,1-.817-.491l-2.229-3.344a1.115,1.115,0,0,1,1.855-1.236l1.475,2.212,3.5-3.5a1.114,1.114,0,1,1,1.576,1.576l-4.458,4.458a1.115,1.115,0,0,1-.788.327Z" transform="translate(1.865 -8.077)"/>
        <circle id="Elipse_13354" data-name="Elipse 13354" cx="1.115" cy="1.115" r="1.115" transform="translate(28.923 4.458)"/>
        <circle id="Elipse_13355" data-name="Elipse 13355" cx="1.115" cy="1.115" r="1.115" transform="translate(22.236 4.458)"/>
        <circle id="Elipse_13356" data-name="Elipse 13356" cx="1.115" cy="1.115" r="1.115" transform="translate(15.548 4.458)"/>
        <path id="Trazado_1054845" data-name="Trazado 1054845" d="M57.319,27.139H55.09a1.115,1.115,0,1,1,0-2.229h2.229a1.115,1.115,0,0,1,0,2.229Z" transform="translate(3.927 -8.191)"/>
        <path id="Trazado_1054846" data-name="Trazado 1054846" d="M57.319,33.139H55.09a1.115,1.115,0,1,1,0-2.229h2.229a1.115,1.115,0,0,1,0,2.229Z" transform="translate(3.927 -7.504)"/>
        <path id="Trazado_1054847" data-name="Trazado 1054847" d="M14.006,44.972A10.031,10.031,0,1,1,24.037,34.941,10.042,10.042,0,0,1,14.006,44.972Zm0-17.833a7.8,7.8,0,1,0,7.8,7.8,7.811,7.811,0,0,0-7.8-7.8Z" transform="translate(-1.801 -8.191)"/>
        <path id="Trazado_1054848" data-name="Trazado 1054848" d="M11.638,38.826a1.057,1.057,0,0,1-.109-.005,1.114,1.114,0,0,1-.832-.512L8.149,34.3a1.114,1.114,0,1,1,1.881-1.2l1.784,2.809L17.2,30.256a1.115,1.115,0,0,1,1.615,1.537L12.445,38.48a1.117,1.117,0,0,1-.808.346Z" transform="translate(-1.343 -7.619)"/>
        <path id="Trazado_1054849" data-name="Trazado 1054849" d="M9.37,55.858a1.12,1.12,0,0,1-.4-.076l-6.23-2.43A1.114,1.114,0,0,1,2.1,51.908L6.995,39.369a1.115,1.115,0,0,1,2.077.811L4.583,51.68,8.736,53.3l4.455-11.423a1.115,1.115,0,1,1,2.077.81l-4.86,12.461a1.117,1.117,0,0,1-1.038.71Z" transform="translate(-2.025 -6.616)"/>
        <path id="Trazado_1054850" data-name="Trazado 1054850" d="M17.95,55.858a1.117,1.117,0,0,1-1.038-.71l-4.86-12.461a1.115,1.115,0,1,1,2.077-.81L18.583,53.3l4.153-1.62-4.489-11.5a1.115,1.115,0,0,1,2.077-.811l4.894,12.539a1.114,1.114,0,0,1-.633,1.444l-6.23,2.43a1.12,1.12,0,0,1-.4.076Z" transform="translate(-0.885 -6.616)"/>
      </g>
    </g>
  </g>
</svg>
