<svg xmlns="http://www.w3.org/2000/svg" xmlns:xlink="http://www.w3.org/1999/xlink" width="113" height="113" viewBox="0 0 113 113">
  <defs>
    <filter id="Trazado_982547" x="0" y="0" width="113" height="113" filterUnits="userSpaceOnUse">
      <feOffset dy="3" input="SourceAlpha"/>
      <feGaussianBlur stdDeviation="3" result="blur"/>
      <feFlood flood-opacity="0.161"/>
      <feComposite operator="in" in2="blur"/>
      <feComposite in="SourceGraphic"/>
    </filter>
  </defs>
  <g id="Grupo_1226190" data-name="Grupo 1226190" transform="translate(-323.5 -2067.296)">
    <g id="Grupo_1226084" data-name="Grupo 1226084" transform="translate(332.5 2073.296)">
      <g id="Grupo_1225173" data-name="Grupo 1225173">
        <g id="Grupo_1224643" data-name="Grupo 1224643">
          <g id="Grupo_1224291" data-name="Grupo 1224291">
            <g id="Grupo_1224091" data-name="Grupo 1224091">
              <g id="Grupo_1223183" data-name="Grupo 1223183" transform="translate(0)">
                <g id="Grupo_1211217" data-name="Grupo 1211217">
                  <g id="Grupo_1210736" data-name="Grupo 1210736">
                    <g id="Grupo_1210537" data-name="Grupo 1210537">
                      <g id="Grupo_1164202" data-name="Grupo 1164202">
                        <g id="Grupo_1158168" data-name="Grupo 1158168">
                          <g id="Grupo_1152576" data-name="Grupo 1152576">
                            <g id="Grupo_1148633" data-name="Grupo 1148633">
                              <g id="Grupo_1148525" data-name="Grupo 1148525">
                                <g transform="matrix(1, 0, 0, 1, -9, -6)" filter="url(#Trazado_982547)">
                                  <g id="Trazado_982547-2" data-name="Trazado 982547" transform="translate(9 6)" fill="#fdfbec">
                                    <path d="M 47.49999618530273 93.5 C 41.28936767578125 93.5 35.26533126831055 92.28396606445312 29.59518241882324 89.88570404052734 C 24.11771583557129 87.56893157958984 19.19812965393066 84.251953125 14.97308921813965 80.02690124511719 C 10.74803638458252 75.80186462402344 7.431062698364258 70.88227844238281 5.114289283752441 65.40480804443359 C 2.716022968292236 59.73466110229492 1.499996185302734 53.71062469482422 1.499996185302734 47.49999618530273 C 1.499996185302734 41.28936767578125 2.716022968292236 35.26533126831055 5.114289283752441 29.59518241882324 C 7.431062698364258 24.11771583557129 10.74803638458252 19.19812965393066 14.97308921813965 14.97308921813965 C 19.19812965393066 10.74803638458252 24.11771583557129 7.431062698364258 29.59518241882324 5.114289283752441 C 35.26533126831055 2.716022968292236 41.28936767578125 1.499996185302734 47.49999618530273 1.499996185302734 C 53.71062469482422 1.499996185302734 59.73466110229492 2.716022968292236 65.40480804443359 5.114289283752441 C 70.88227844238281 7.431062698364258 75.80186462402344 10.74803638458252 80.02690124511719 14.97308921813965 C 84.251953125 19.19812965393066 87.56893157958984 24.11771583557129 89.88570404052734 29.59518241882324 C 92.28396606445312 35.26533126831055 93.5 41.28936767578125 93.5 47.49999618530273 C 93.5 53.71062469482422 92.28396606445312 59.73466110229492 89.88570404052734 65.40480804443359 C 87.56893157958984 70.88227844238281 84.251953125 75.80186462402344 80.02690124511719 80.02690124511719 C 75.80186462402344 84.251953125 70.88227844238281 87.56893157958984 65.40480804443359 89.88570404052734 C 59.73466110229492 92.28396606445312 53.71062469482422 93.5 47.49999618530273 93.5 Z" stroke="none"/>
                                    <path d="M 47.49999618530273 2.999992370605469 C 41.4912109375 2.999992370605469 35.66376495361328 4.1761474609375 30.17950439453125 6.495796203613281 C 24.88084411621094 8.736953735351562 20.12152099609375 11.94598388671875 16.03375244140625 16.03375244140625 C 11.94598388671875 20.12152099609375 8.736953735351562 24.88084411621094 6.495796203613281 30.17950439453125 C 4.1761474609375 35.66376495361328 2.999992370605469 41.4912109375 2.999992370605469 47.49999618530273 C 2.999992370605469 53.50878143310547 4.1761474609375 59.33622741699219 6.495796203613281 64.82048797607422 C 8.736953735351562 70.11914825439453 11.94598388671875 74.87847137451172 16.03375244140625 78.96623992919922 C 20.12152099609375 83.05400848388672 24.88084411621094 86.26304626464844 30.17950439453125 88.50419616699219 C 35.66376495361328 90.82384490966797 41.4912109375 92 47.49999618530273 92 C 53.50878143310547 92 59.33622741699219 90.82384490966797 64.82048797607422 88.50419616699219 C 70.11914825439453 86.26304626464844 74.87847137451172 83.05400848388672 78.96623992919922 78.96623992919922 C 83.05400848388672 74.87847137451172 86.26304626464844 70.11914825439453 88.50419616699219 64.82048797607422 C 90.82384490966797 59.33622741699219 92 53.50878143310547 92 47.49999618530273 C 92 41.4912109375 90.82384490966797 35.66376495361328 88.50419616699219 30.17950439453125 C 86.26304626464844 24.88084411621094 83.05400848388672 20.12152099609375 78.96623992919922 16.03375244140625 C 74.87847137451172 11.94598388671875 70.11914825439453 8.736953735351562 64.82048797607422 6.495796203613281 C 59.33622741699219 4.1761474609375 53.50878143310547 2.999992370605469 47.49999618530273 2.999992370605469 M 47.49999618530273 -7.62939453125e-06 C 73.7335205078125 -7.62939453125e-06 95 21.26647186279297 95 47.49999618530273 C 95 73.7335205078125 73.7335205078125 95 47.49999618530273 95 C 21.26647186279297 95 -7.62939453125e-06 73.7335205078125 -7.62939453125e-06 47.49999618530273 C -7.62939453125e-06 21.26647186279297 21.26647186279297 -7.62939453125e-06 47.49999618530273 -7.62939453125e-06 Z" stroke="none" fill="#83793c"/>
                                  </g>
                                </g>
                              </g>
                            </g>
                          </g>
                        </g>
                      </g>
                    </g>
                  </g>
                </g>
              </g>
            </g>
          </g>
        </g>
      </g>
    </g>
    <g id="Line" transform="translate(345.345 2087.053)">
      <g id="Grupo_1226189" data-name="Grupo 1226189" transform="translate(2 10)">
        <path id="Trazado_1054943" data-name="Trazado 1054943" d="M11,11H65.425v8.708H11Z" transform="translate(-1.204 -9.912)" fill="#5fd0b6"/>
        <path id="Trazado_1054944" data-name="Trazado 1054944" d="M11,19H65.425V49.478H11Z" transform="translate(-1.204 -9.204)" fill="#fbdf62"/>
        <ellipse id="Elipse_13359" data-name="Elipse 13359" cx="1" cy="1.5" rx="1" ry="1.5" transform="translate(34.655 3.947)"/>
        <circle id="Elipse_13360" data-name="Elipse 13360" cx="1.5" cy="1.5" r="1.5" transform="translate(25.655 3.947)"/>
        <ellipse id="Elipse_13361" data-name="Elipse 13361" cx="1" cy="1.5" rx="1" ry="1.5" transform="translate(17.655 3.947)"/>
        <g id="Grupo_1226188" data-name="Grupo 1226188" transform="translate(1.088 14.15)">
          <path id="Trazado_1054945" data-name="Trazado 1054945" d="M41,23h6.531v6.531H41Z" transform="translate(0.363 -23)" fill="#5fd0b6"/>
          <path id="Trazado_1054946" data-name="Trazado 1054946" d="M41,35h6.531v6.531H41Z" transform="translate(0.363 -21.938)" fill="#5fd0b6"/>
          <path id="Trazado_1054947" data-name="Trazado 1054947" d="M37.832,55.124H3V29H13.885l3.628,5.442H37.832Z" transform="translate(-3 -22.469)" fill="#5fd0b6"/>
        </g>
        <path id="Trazado_1054948" data-name="Trazado 1054948" d="M37.92,56.3H3.088A1.089,1.089,0,0,1,2,55.212V29.088A1.089,1.089,0,0,1,3.088,28H13.973a1.088,1.088,0,0,1,.906.485l3.305,4.958H37.92a1.089,1.089,0,0,1,1.088,1.088V55.212A1.089,1.089,0,0,1,37.92,56.3ZM4.177,54.124H36.832v-18.5H17.6a1.088,1.088,0,0,1-.906-.485l-3.305-4.958H4.177Z" transform="translate(-2 -8.407)"/>
        <path id="Trazado_1054949" data-name="Trazado 1054949" d="M65.513,51.363H41.566a1.088,1.088,0,1,1,0-2.177H64.425V12.177H12.177v14.15a1.088,1.088,0,1,1-2.177,0V11.088A1.089,1.089,0,0,1,11.088,10H65.513A1.089,1.089,0,0,1,66.6,11.088V50.274A1.089,1.089,0,0,1,65.513,51.363Z" transform="translate(-1.292 -10)"/>
        <path id="Trazado_1054950" data-name="Trazado 1054950" d="M65.513,20.177H11.088a1.088,1.088,0,1,1,0-2.177H65.513a1.088,1.088,0,1,1,0,2.177Z" transform="translate(-1.292 -9.292)"/>
        <ellipse id="Elipse_13362" data-name="Elipse 13362" cx="1" cy="1.5" rx="1" ry="1.5" transform="translate(34.655 3.947)"/>
        <circle id="Elipse_13363" data-name="Elipse 13363" cx="1.5" cy="1.5" r="1.5" transform="translate(25.655 3.947)"/>
        <ellipse id="Elipse_13364" data-name="Elipse 13364" cx="1" cy="1.5" rx="1" ry="1.5" transform="translate(17.655 3.947)"/>
        <path id="Trazado_1054951" data-name="Trazado 1054951" d="M47.619,30.708H41.088A1.089,1.089,0,0,1,40,29.619V23.088A1.089,1.089,0,0,1,41.088,22h6.531a1.089,1.089,0,0,1,1.088,1.088v6.531A1.089,1.089,0,0,1,47.619,30.708Zm-5.442-2.177h4.354V24.177H42.177Z" transform="translate(1.363 -8.938)"/>
        <path id="Trazado_1054952" data-name="Trazado 1054952" d="M47.619,42.708H41.088A1.089,1.089,0,0,1,40,41.619V35.088A1.089,1.089,0,0,1,41.088,34h6.531a1.089,1.089,0,0,1,1.088,1.088v6.531A1.089,1.089,0,0,1,47.619,42.708Zm-5.442-2.177h4.354V36.177H42.177Z" transform="translate(1.363 -7.876)"/>
        <path id="Trazado_1054953" data-name="Trazado 1054953" d="M44.088,36.708A1.089,1.089,0,0,1,43,35.619V29.088a1.088,1.088,0,1,1,2.177,0v6.531A1.089,1.089,0,0,1,44.088,36.708Z" transform="translate(1.628 -8.407)"/>
        <path id="Trazado_1054954" data-name="Trazado 1054954" d="M29.088,31.531A1.089,1.089,0,0,1,28,30.442V26.088A1.089,1.089,0,0,1,29.088,25H42.15a1.088,1.088,0,1,1,0,2.177H30.177v3.265A1.089,1.089,0,0,1,29.088,31.531Z" transform="translate(0.301 -8.673)"/>
        <path id="Trazado_1054955" data-name="Trazado 1054955" d="M25.8,55.239a1.087,1.087,0,0,1-.814-.365l-8.708-9.8a1.089,1.089,0,0,1-.092-1.327l2.177-3.265a1.088,1.088,0,0,1,1.811,1.208L18.46,44.259l8.15,9.168a1.088,1.088,0,0,1-.813,1.812Z" transform="translate(-0.761 -7.345)"/>
        <path id="Trazado_1054956" data-name="Trazado 1054956" d="M22.208,51.624a1.088,1.088,0,0,1-.973-1.575L25.458,41.6a1.089,1.089,0,1,1,1.947.974l-4.223,8.446a1.088,1.088,0,0,1-.975.6Z" transform="translate(-0.308 -7.257)"/>
      </g>
    </g>
  </g>
</svg>
