<svg xmlns="http://www.w3.org/2000/svg" xmlns:xlink="http://www.w3.org/1999/xlink" width="113" height="113" viewBox="0 0 113 113">
  <defs>
    <filter id="Trazado_982547" x="0" y="0" width="113" height="113" filterUnits="userSpaceOnUse">
      <feOffset dy="3" input="SourceAlpha"/>
      <feGaussianBlur stdDeviation="3" result="blur"/>
      <feFlood flood-opacity="0.161"/>
      <feComposite operator="in" in2="blur"/>
      <feComposite in="SourceGraphic"/>
    </filter>
  </defs>
  <g id="Grupo_1226177" data-name="Grupo 1226177" transform="translate(-1981 -7306.286)">
    <g id="Grupo_1226063" data-name="Grupo 1226063" transform="translate(1307 1222.534)">
      <g id="Grupo_1224577" data-name="Grupo 1224577" transform="translate(0 -980)">
        <g id="Grupo_1224450" data-name="Grupo 1224450" transform="translate(683 7069.751)">
          <g id="Grupo_1224085" data-name="Grupo 1224085" transform="translate(0 0)">
            <g id="Grupo_1223184" data-name="Grupo 1223184">
              <g id="Grupo_1211216" data-name="Grupo 1211216">
                <g id="Grupo_1210737" data-name="Grupo 1210737">
                  <g id="Grupo_1210537" data-name="Grupo 1210537">
                    <g id="Grupo_1164202" data-name="Grupo 1164202">
                      <g id="Grupo_1158168" data-name="Grupo 1158168">
                        <g id="Grupo_1152576" data-name="Grupo 1152576">
                          <g id="Grupo_1148633" data-name="Grupo 1148633">
                            <g id="Grupo_1148525" data-name="Grupo 1148525">
                              <g transform="matrix(1, 0, 0, 1, -9, -6)" filter="url(#Trazado_982547)">
                                <g id="Trazado_982547-2" data-name="Trazado 982547" transform="translate(9 6)" fill="#fef9e5">
                                  <path d="M 47.49999618530273 93.5 C 41.28936767578125 93.5 35.26533126831055 92.28396606445312 29.59518241882324 89.88570404052734 C 24.11771583557129 87.56893157958984 19.19812965393066 84.251953125 14.97308921813965 80.02690124511719 C 10.74803638458252 75.80186462402344 7.431062698364258 70.88227844238281 5.114289283752441 65.40480804443359 C 2.716022968292236 59.73466110229492 1.499996185302734 53.71062469482422 1.499996185302734 47.49999618530273 C 1.499996185302734 41.28936767578125 2.716022968292236 35.26533126831055 5.114289283752441 29.59518241882324 C 7.431062698364258 24.11771583557129 10.74803638458252 19.19812965393066 14.97308921813965 14.97308921813965 C 19.19812965393066 10.74803638458252 24.11771583557129 7.431062698364258 29.59518241882324 5.114289283752441 C 35.26533126831055 2.716022968292236 41.28936767578125 1.499996185302734 47.49999618530273 1.499996185302734 C 53.71062469482422 1.499996185302734 59.73466110229492 2.716022968292236 65.40480804443359 5.114289283752441 C 70.88227844238281 7.431062698364258 75.80186462402344 10.74803638458252 80.02690124511719 14.97308921813965 C 84.251953125 19.19812965393066 87.56893157958984 24.11771583557129 89.88570404052734 29.59518241882324 C 92.28396606445312 35.26533126831055 93.5 41.28936767578125 93.5 47.49999618530273 C 93.5 53.71062469482422 92.28396606445312 59.73466110229492 89.88570404052734 65.40480804443359 C 87.56893157958984 70.88227844238281 84.251953125 75.80186462402344 80.02690124511719 80.02690124511719 C 75.80186462402344 84.251953125 70.88227844238281 87.56893157958984 65.40480804443359 89.88570404052734 C 59.73466110229492 92.28396606445312 53.71062469482422 93.5 47.49999618530273 93.5 Z" stroke="none"/>
                                  <path d="M 47.49999618530273 2.999992370605469 C 41.4912109375 2.999992370605469 35.66376495361328 4.1761474609375 30.17950439453125 6.495796203613281 C 24.88084411621094 8.736953735351562 20.12152099609375 11.94598388671875 16.03375244140625 16.03375244140625 C 11.94598388671875 20.12152099609375 8.736953735351562 24.88084411621094 6.495796203613281 30.17950439453125 C 4.1761474609375 35.66376495361328 2.999992370605469 41.4912109375 2.999992370605469 47.49999618530273 C 2.999992370605469 53.50878143310547 4.1761474609375 59.33622741699219 6.495796203613281 64.82048797607422 C 8.736953735351562 70.11914825439453 11.94598388671875 74.87847137451172 16.03375244140625 78.96623992919922 C 20.12152099609375 83.05400848388672 24.88084411621094 86.26304626464844 30.17950439453125 88.50419616699219 C 35.66376495361328 90.82384490966797 41.4912109375 92 47.49999618530273 92 C 53.50878143310547 92 59.33622741699219 90.82384490966797 64.82048797607422 88.50419616699219 C 70.11914825439453 86.26304626464844 74.87847137451172 83.05400848388672 78.96623992919922 78.96623992919922 C 83.05400848388672 74.87847137451172 86.26304626464844 70.11914825439453 88.50419616699219 64.82048797607422 C 90.82384490966797 59.33622741699219 92 53.50878143310547 92 47.49999618530273 C 92 41.4912109375 90.82384490966797 35.66376495361328 88.50419616699219 30.17950439453125 C 86.26304626464844 24.88084411621094 83.05400848388672 20.12152099609375 78.96623992919922 16.03375244140625 C 74.87847137451172 11.94598388671875 70.11914825439453 8.736953735351562 64.82048797607422 6.495796203613281 C 59.33622741699219 4.1761474609375 53.50878143310547 2.999992370605469 47.49999618530273 2.999992370605469 M 47.49999618530273 -7.62939453125e-06 C 73.7335205078125 -7.62939453125e-06 95 21.26647186279297 95 47.49999618530273 C 95 73.7335205078125 73.7335205078125 95 47.49999618530273 95 C 21.26647186279297 95 -7.62939453125e-06 73.7335205078125 -7.62939453125e-06 47.49999618530273 C -7.62939453125e-06 21.26647186279297 21.26647186279297 -7.62939453125e-06 47.49999618530273 -7.62939453125e-06 Z" stroke="none" fill="#f6c810"/>
                                </g>
                              </g>
                            </g>
                          </g>
                        </g>
                      </g>
                    </g>
                  </g>
                </g>
              </g>
            </g>
          </g>
        </g>
      </g>
    </g>
    <g id="confirm_9608420" transform="translate(2000.615 7313.261)">
      <path id="Trazado_1054851" data-name="Trazado 1054851" d="M16,27.85H71.962v47.8H16Z" transform="translate(-7.068 -5.398)" fill="#728497"/>
      <path id="Trazado_1054852" data-name="Trazado 1054852" d="M16,27.86H71.962v9.5H16Z" transform="translate(-7.068 -5.407)" fill="#76b4e2"/>
      <g id="Grupo_1226176" data-name="Grupo 1226176" transform="translate(8 21.74)">
        <path id="Trazado_1054853" data-name="Trazado 1054853" d="M149.516,176.075l-3.811-5.461a5.884,5.884,0,0,1-1.99-4.424H124.059a6.157,6.157,0,0,1-6.409,5.868v19.1l16.428,11.309,15.438-11.309Z" transform="translate(-104.879 -149.366)" fill="#daebf8" fill-rule="evenodd"/>
        <path id="Trazado_1054854" data-name="Trazado 1054854" d="M188.289,180.214a1.175,1.175,0,0,0,0-1.657l-3-3a1.176,1.176,0,0,0-1.659,0l-15.3,15.337-6.535-6.535a1.165,1.165,0,0,0-1.643,0l-3.014,3.014a1.167,1.167,0,0,0,0,1.645q5.185,5.185,10.368,10.37a1.168,1.168,0,0,0,1.652.006Q178.729,189.817,188.289,180.214Z" transform="translate(-139.461 -157.343)" fill="#acd14f" fill-rule="evenodd"/>
        <path id="Trazado_1054855" data-name="Trazado 1054855" d="M160.862,183.94a1.147,1.147,0,0,0-.814.337l-3.014,3.014a1.153,1.153,0,0,0,0,1.626q1.857,1.859,3.715,3.718c2.179,2.181,4.433,4.437,6.654,6.653a1.157,1.157,0,0,0,1.634.006c4.181-4.181,8.425-8.438,12.53-12.557q3.305-3.314,6.61-6.627l.009.008-.009-.008a1.161,1.161,0,0,0,0-1.64l-3-3a1.15,1.15,0,0,0-.819-.338h0a1.152,1.152,0,0,0-.819.339l-15.313,15.346-.008-.008-6.535-6.535a1.146,1.146,0,0,0-.813-.337Zm7.363,15.713a1.191,1.191,0,0,1-.841-.348c-2.22-2.215-4.474-4.471-6.653-6.653q-1.857-1.859-3.715-3.717a1.177,1.177,0,0,1,0-1.662l3.014-3.014a1.177,1.177,0,0,1,1.662,0l6.526,6.527,15.295-15.329a1.174,1.174,0,0,1,.837-.347h0a1.174,1.174,0,0,1,.836.345l3,3a1.188,1.188,0,0,1,0,1.675q-3.305,3.314-6.608,6.628c-4.106,4.117-8.35,8.374-12.531,12.555a1.167,1.167,0,0,1-.829.342Z" transform="translate(-139.357 -157.247)" fill="#acd14f" fill-rule="evenodd"/>
        <path id="Trazado_1054856" data-name="Trazado 1054856" d="M34.093,27.2a.932.932,0,0,1,.932-.932h6.7a.932.932,0,0,1,0,1.864h-6.7a.931.931,0,0,1-.932-.931Zm-10.178,0a.931.931,0,0,1,.932-.932h6.7a.931.931,0,1,1,0,1.862h-6.7A.931.931,0,0,1,23.914,27.2Zm-10.178,0a.932.932,0,0,1,.932-.932h6.7a.931.931,0,1,1,0,1.862h-6.7A.931.931,0,0,1,13.736,27.2ZM46.57,69.537,53.544,64.5a.933.933,0,0,0,.387-.756V49.053l4.385-4.394a.932.932,0,0,0,0-1.317l-4.658-4.659a.932.932,0,0,0-1.318,0l-3.184,3.192a4.94,4.94,0,0,1-1.091-3.093.932.932,0,0,0-.932-.932H26.639a.932.932,0,0,0-.932.932,4.941,4.941,0,0,1-4.936,4.936.931.931,0,0,0-.932.932v19.1a.932.932,0,0,0,.387.756L27.2,69.534H9.864V33.1H63.905V69.537Zm-9.7-6.019Q46.6,53.76,56.339,44L53,40.662,37.526,56.178a.931.931,0,0,1-1.318,0l-6.7-6.7-3.342,3.34,10.7,10.7Zm.019,10.711L52.067,63.271V50.92L37.526,65.493a.931.931,0,0,1-1.318,0L24.187,53.472a.936.936,0,0,1,0-1.317L28.846,47.5a.93.93,0,0,1,1.317,0l6.7,6.7,10.967-11a6.8,6.8,0,0,1-1.569-3.488H27.506a6.814,6.814,0,0,1-5.8,5.8V63.271ZM63.905,23.6H9.864v7.635H63.905Zm.932-1.864H8.932A.931.931,0,0,0,8,22.672v47.8a.931.931,0,0,0,.932.932h20.85l6.557,4.733a.936.936,0,0,0,1.091,0L43.988,71.4H64.837a.932.932,0,0,0,.932-.932v-47.8A.932.932,0,0,0,64.837,21.74Z" transform="translate(-8 -21.74)" fill="#282828" fill-rule="evenodd"/>
      </g>
    </g>
  </g>
</svg>
