<svg xmlns="http://www.w3.org/2000/svg" xmlns:xlink="http://www.w3.org/1999/xlink" width="113" height="113" viewBox="0 0 113 113">
  <defs>
    <filter id="Trazado_982547" x="0" y="0" width="113" height="113" filterUnits="userSpaceOnUse">
      <feOffset dy="3" input="SourceAlpha"/>
      <feGaussianBlur stdDeviation="3" result="blur"/>
      <feFlood flood-opacity="0.161"/>
      <feComposite operator="in" in2="blur"/>
      <feComposite in="SourceGraphic"/>
    </filter>
  </defs>
  <g id="Grupo_1226178" data-name="Grupo 1226178" transform="translate(-1637 -7655.286)">
    <g id="Grupo_1226064" data-name="Grupo 1226064" transform="translate(963 1571.534)">
      <g id="Grupo_1224577" data-name="Grupo 1224577" transform="translate(0 -980)">
        <g id="Grupo_1224450" data-name="Grupo 1224450" transform="translate(683 7069.751)">
          <g id="Grupo_1224085" data-name="Grupo 1224085" transform="translate(0 0)">
            <g id="Grupo_1223184" data-name="Grupo 1223184">
              <g id="Grupo_1211216" data-name="Grupo 1211216">
                <g id="Grupo_1210737" data-name="Grupo 1210737">
                  <g id="Grupo_1210537" data-name="Grupo 1210537">
                    <g id="Grupo_1164202" data-name="Grupo 1164202">
                      <g id="Grupo_1158168" data-name="Grupo 1158168">
                        <g id="Grupo_1152576" data-name="Grupo 1152576">
                          <g id="Grupo_1148633" data-name="Grupo 1148633">
                            <g id="Grupo_1148525" data-name="Grupo 1148525">
                              <g transform="matrix(1, 0, 0, 1, -9, -6)" filter="url(#Trazado_982547)">
                                <g id="Trazado_982547-2" data-name="Trazado 982547" transform="translate(9 6)" fill="#fef9e5">
                                  <path d="M 47.49999618530273 93.5 C 41.28936767578125 93.5 35.26533126831055 92.28396606445312 29.59518241882324 89.88570404052734 C 24.11771583557129 87.56893157958984 19.19812965393066 84.251953125 14.97308921813965 80.02690124511719 C 10.74803638458252 75.80186462402344 7.431062698364258 70.88227844238281 5.114289283752441 65.40480804443359 C 2.716022968292236 59.73466110229492 1.499996185302734 53.71062469482422 1.499996185302734 47.49999618530273 C 1.499996185302734 41.28936767578125 2.716022968292236 35.26533126831055 5.114289283752441 29.59518241882324 C 7.431062698364258 24.11771583557129 10.74803638458252 19.19812965393066 14.97308921813965 14.97308921813965 C 19.19812965393066 10.74803638458252 24.11771583557129 7.431062698364258 29.59518241882324 5.114289283752441 C 35.26533126831055 2.716022968292236 41.28936767578125 1.499996185302734 47.49999618530273 1.499996185302734 C 53.71062469482422 1.499996185302734 59.73466110229492 2.716022968292236 65.40480804443359 5.114289283752441 C 70.88227844238281 7.431062698364258 75.80186462402344 10.74803638458252 80.02690124511719 14.97308921813965 C 84.251953125 19.19812965393066 87.56893157958984 24.11771583557129 89.88570404052734 29.59518241882324 C 92.28396606445312 35.26533126831055 93.5 41.28936767578125 93.5 47.49999618530273 C 93.5 53.71062469482422 92.28396606445312 59.73466110229492 89.88570404052734 65.40480804443359 C 87.56893157958984 70.88227844238281 84.251953125 75.80186462402344 80.02690124511719 80.02690124511719 C 75.80186462402344 84.251953125 70.88227844238281 87.56893157958984 65.40480804443359 89.88570404052734 C 59.73466110229492 92.28396606445312 53.71062469482422 93.5 47.49999618530273 93.5 Z" stroke="none"/>
                                  <path d="M 47.49999618530273 2.999992370605469 C 41.4912109375 2.999992370605469 35.66376495361328 4.1761474609375 30.17950439453125 6.495796203613281 C 24.88084411621094 8.736953735351562 20.12152099609375 11.94598388671875 16.03375244140625 16.03375244140625 C 11.94598388671875 20.12152099609375 8.736953735351562 24.88084411621094 6.495796203613281 30.17950439453125 C 4.1761474609375 35.66376495361328 2.999992370605469 41.4912109375 2.999992370605469 47.49999618530273 C 2.999992370605469 53.50878143310547 4.1761474609375 59.33622741699219 6.495796203613281 64.82048797607422 C 8.736953735351562 70.11914825439453 11.94598388671875 74.87847137451172 16.03375244140625 78.96623992919922 C 20.12152099609375 83.05400848388672 24.88084411621094 86.26304626464844 30.17950439453125 88.50419616699219 C 35.66376495361328 90.82384490966797 41.4912109375 92 47.49999618530273 92 C 53.50878143310547 92 59.33622741699219 90.82384490966797 64.82048797607422 88.50419616699219 C 70.11914825439453 86.26304626464844 74.87847137451172 83.05400848388672 78.96623992919922 78.96623992919922 C 83.05400848388672 74.87847137451172 86.26304626464844 70.11914825439453 88.50419616699219 64.82048797607422 C 90.82384490966797 59.33622741699219 92 53.50878143310547 92 47.49999618530273 C 92 41.4912109375 90.82384490966797 35.66376495361328 88.50419616699219 30.17950439453125 C 86.26304626464844 24.88084411621094 83.05400848388672 20.12152099609375 78.96623992919922 16.03375244140625 C 74.87847137451172 11.94598388671875 70.11914825439453 8.736953735351562 64.82048797607422 6.495796203613281 C 59.33622741699219 4.1761474609375 53.50878143310547 2.999992370605469 47.49999618530273 2.999992370605469 M 47.49999618530273 -7.62939453125e-06 C 73.7335205078125 -7.62939453125e-06 95 21.26647186279297 95 47.49999618530273 C 95 73.7335205078125 73.7335205078125 95 47.49999618530273 95 C 21.26647186279297 95 -7.62939453125e-06 73.7335205078125 -7.62939453125e-06 47.49999618530273 C -7.62939453125e-06 21.26647186279297 21.26647186279297 -7.62939453125e-06 47.49999618530273 -7.62939453125e-06 Z" stroke="none" fill="#f6c810"/>
                                </g>
                              </g>
                            </g>
                          </g>
                        </g>
                      </g>
                    </g>
                  </g>
                </g>
              </g>
            </g>
          </g>
        </g>
      </g>
    </g>
    <g id="resource_1681286" transform="translate(1662.341 7681.351)">
      <path id="Trazado_1054857" data-name="Trazado 1054857" d="M342.961,105.276V121.1H326.081V108.092l-.664-.949-1.973-.812h-.084l7.944-3.292.053.127h9.495a2.117,2.117,0,0,1,2.11,2.11Zm0,0" transform="translate(-280.718 -89.451)" fill="#ff7956"/>
      <path id="Trazado_1054858" data-name="Trazado 1054858" d="M380.21,8c2.331,0,4.22,2.363,4.22,5.275s-1.888,5.275-4.22,5.275a3.577,3.577,0,0,1-2.152-.749s-.01.01-.01-.011a1.737,1.737,0,0,0-.369-.305,5.761,5.761,0,0,1-1.688-4.21c0-2.911,1.888-5.275,4.22-5.275Zm0,0" transform="translate(-326.407 -6.945)" fill="#d9ccbc"/>
      <path id="Trazado_1054859" data-name="Trazado 1054859" d="M94.692,84.548l-7.944-3.292-.432-.179a1.62,1.62,0,0,1-1.034-1.5,1.577,1.577,0,0,1,.147-.643,2.047,2.047,0,0,1,.253-.412s.01.01.01-.011a1.946,1.946,0,0,0,.369-.305,1.736,1.736,0,0,1,1.582-.127l6.963,2.395,2.637.907h16.879l2.637-.907,6.963-2.395a1.736,1.736,0,0,1,1.582.127,1.946,1.946,0,0,0,.369.305c0,.021.01.011.01.011a2.048,2.048,0,0,1,.253.412,1.6,1.6,0,0,1-.887,2.141l-.432.179-7.944,3.292-1.888.781-.665.949V99.318H97.245V86.278l-.664-.949Zm0,0" transform="translate(-74.035 -67.669)" fill="#ff7956"/>
      <path id="Trazado_1054860" data-name="Trazado 1054860" d="M262.607,80.476l-2.637.907h-4.916l-.738-.306a1.62,1.62,0,0,1-1.034-1.5,1.577,1.577,0,0,1,.147-.643,2.047,2.047,0,0,1,.253-.412c.01,0,.01,0,.01-.011a1.945,1.945,0,0,0,.369-.305,1.736,1.736,0,0,1,1.582-.127Zm0,0" transform="translate(-219.881 -67.669)" fill="#ff7956"/>
      <path id="Trazado_1054861" data-name="Trazado 1054861" d="M198.769,366.33v2.11l-1.952.981c-.053.126-.106.243-.158.369l.7,2.068-1.5,1.5-2.068-.7c-.126.053-.243.106-.369.158l-.981,1.952h-2.11l-.981-1.952c-.126-.053-.243-.106-.369-.158l-2.068.7-1.5-1.5.7-2.068c-.053-.126-.106-.243-.158-.369L184,368.44v-2.11l1.952-.981c.053-.126.106-.243.158-.369l-.7-2.068,1.5-1.5,2.068.7c.126-.053.243-.106.369-.158L190.33,360h2.11l.981,1.952c.126.052.243.106.369.158l2.068-.7,1.5,1.5-.7,2.068c.053.126.106.243.158.369Zm0,0" transform="translate(-159.736 -312.527)" fill="#ffda44"/>
      <path id="Trazado_1054862" data-name="Trazado 1054862" d="M212.21,8c2.331,0,4.22,2.363,4.22,5.275a5.761,5.761,0,0,1-1.688,4.21,1.736,1.736,0,0,0-.369.305c0,.011,0,.011-.01.011a3.467,3.467,0,0,1-4.3,0c-.01,0-.01,0-.01-.011a1.735,1.735,0,0,0-.369-.305,5.761,5.761,0,0,1-1.688-4.21c0-2.911,1.888-5.275,4.22-5.275Zm0,0" transform="translate(-180.561 -6.945)" fill="#d9ccbc"/>
      <path id="Trazado_1054863" data-name="Trazado 1054863" d="M228.22,402.11a2.11,2.11,0,1,1-2.11-2.11A2.11,2.11,0,0,1,228.22,402.11Zm0,0" transform="translate(-194.461 -347.252)" fill="#898890"/>
      <path id="Trazado_1054864" data-name="Trazado 1054864" d="M165.179,78.936a1.578,1.578,0,0,1,.147.643,1.62,1.62,0,0,1-1.034,1.5l-.738.306h-4.916L156,80.476l6.963-2.395a1.736,1.736,0,0,1,1.582.127,1.945,1.945,0,0,0,.369.305c0,.011,0,.011.01.011a2.046,2.046,0,0,1,.253.412Zm0,0" transform="translate(-135.429 -67.669)" fill="#ff7956"/>
      <path id="Trazado_1054865" data-name="Trazado 1054865" d="M27.6,106.331h-.084l-1.973.812-.664.949V121.1H8V105.276a2.117,2.117,0,0,1,2.11-2.11H19.6l.053-.127Zm0,0" transform="translate(-6.945 -89.451)" fill="#ff7956"/>
      <path id="Trazado_1054866" data-name="Trazado 1054866" d="M44.22,8c2.331,0,4.22,2.363,4.22,5.275a5.761,5.761,0,0,1-1.688,4.21,1.736,1.736,0,0,0-.369.305c0,.021-.01.011-.01.011a3.577,3.577,0,0,1-2.152.749c-2.331,0-4.22-2.363-4.22-5.275S41.888,8,44.22,8Zm0,0" transform="translate(-34.725 -6.945)" fill="#d9ccbc"/>
      <path id="Trazado_1054867" data-name="Trazado 1054867" d="M440,208h2.11v2.11H440Zm0,0" transform="translate(-381.977 -180.571)"/>
      <path id="Trazado_1054868" data-name="Trazado 1054868" d="M416,208h2.11v2.11H416Zm0,0" transform="translate(-361.142 -180.571)"/>
      <path id="Trazado_1054869" data-name="Trazado 1054869" d="M440,184h2.11v2.11H440Zm0,0" transform="translate(-381.977 -159.736)"/>
      <path id="Trazado_1054870" data-name="Trazado 1054870" d="M24,208h2.11v2.11H24Zm0,0" transform="translate(-20.835 -180.571)"/>
      <path id="Trazado_1054871" data-name="Trazado 1054871" d="M48,208h2.11v2.11H48Zm0,0" transform="translate(-41.67 -180.571)"/>
      <path id="Trazado_1054872" data-name="Trazado 1054872" d="M24,184h2.11v2.11H24Zm0,0" transform="translate(-20.835 -159.736)"/>
      <path id="Trazado_1054873" data-name="Trazado 1054873" d="M272,208h2.11v2.11H272Zm0,0" transform="translate(-236.131 -180.571)"/>
      <path id="Trazado_1054874" data-name="Trazado 1054874" d="M248,208h2.11v2.11H248Zm0,0" transform="translate(-215.296 -180.571)"/>
      <path id="Trazado_1054875" data-name="Trazado 1054875" d="M272,184h2.11v2.11H272Zm0,0" transform="translate(-236.131 -159.736)"/>
      <path id="Trazado_1054876" data-name="Trazado 1054876" d="M60.133,12.659H52.977c.008-.027.016-.054.023-.081a4.428,4.428,0,0,0,.8.081c2.908,0,5.275-2.839,5.275-6.33S56.711,0,53.8,0s-5.275,2.839-5.275,6.33a7.274,7.274,0,0,0,.694,3.127l-6.5,2.235-6.5-2.231a7.257,7.257,0,0,0,.7-3.13c0-3.491-2.366-6.33-5.275-6.33s-5.275,2.839-5.275,6.33a7.271,7.271,0,0,0,.7,3.128l-6.5,2.235-6.5-2.235A7.262,7.262,0,0,0,14.77,6.33C14.77,2.839,12.4,0,9.495,0S4.22,2.839,4.22,6.33s2.366,6.33,5.275,6.33a4.458,4.458,0,0,0,.793-.079c.007.027.011.053.018.079H3.165A3.165,3.165,0,0,0,0,15.824V31.649A1.055,1.055,0,0,0,1.055,32.7H17.934a1.055,1.055,0,0,0,1.055-1.055V18.973l.3-.422,1.327-.546,1.243.515.3.422V31.649A1.055,1.055,0,0,0,23.209,32.7H40.089a1.055,1.055,0,0,0,1.055-1.055V18.941l.3-.422L42.686,18l1.327.546.3.422V31.649A1.055,1.055,0,0,0,45.363,32.7H62.243A1.055,1.055,0,0,0,63.3,31.649V15.824a3.165,3.165,0,0,0-3.165-3.165ZM53.8,2.11c1.745,0,3.165,1.893,3.165,4.22s-1.42,4.22-3.165,4.22A2.555,2.555,0,0,1,52.277,10a2.821,2.821,0,0,0-.31-.249A4.748,4.748,0,0,1,50.638,6.33c0-2.327,1.42-4.22,3.165-4.22ZM28.7,11.574a.577.577,0,0,1,.09.124.537.537,0,0,1,.055.211.572.572,0,0,1-.383.527l-.541.223H24.24l3.7-1.274a.656.656,0,0,1,.609.057c.049.043.1.091.144.132Zm2.161,1.006a3.973,3.973,0,0,0,1.582,0c.007.027.01.054.019.079H30.841c.008-.025.012-.053.019-.079Zm4.526.079-.549-.228a.571.571,0,0,1-.379-.521.5.5,0,0,1,.145-.332c.046-.038.089-.081.133-.12a.734.734,0,0,1,.687-.044l3.634,1.245ZM31.649,2.11c1.745,0,3.165,1.893,3.165,4.22A4.749,4.749,0,0,1,33.49,9.748a2.722,2.722,0,0,0-.324.261,2.4,2.4,0,0,1-3.033,0,2.577,2.577,0,0,0-.334-.273A4.76,4.76,0,0,1,28.484,6.33c0-2.327,1.42-4.22,3.165-4.22ZM6.33,6.33C6.33,4,7.75,2.11,9.495,2.11S12.66,4,12.66,6.33a4.748,4.748,0,0,1-1.343,3.439A2.677,2.677,0,0,0,11.03,10a2.564,2.564,0,0,1-1.535.552c-1.745,0-3.165-1.893-3.165-4.22ZM17.735,17.09l-.665.949a1.055,1.055,0,0,0-.191.6V30.594H2.11V15.824a1.055,1.055,0,0,1,1.055-1.055H12.66v-.058l5.26,2.177a1.056,1.056,0,0,0-.184.2Zm22.617-.4a1.064,1.064,0,0,0-.46.367l-.666.949a1.052,1.052,0,0,0-.193.608v11.98H24.264V18.606A1.052,1.052,0,0,0,24.071,18l-.666-.949a1.064,1.064,0,0,0-.46-.367L12.688,12.437a.581.581,0,0,1-.383-.527.492.492,0,0,1,.151-.348c.039-.031.074-.069.112-.106a.738.738,0,0,1,.7-.054l9.6,3.3a1.053,1.053,0,0,0,.338.065H40.089a1.05,1.05,0,0,0,.343-.058l9.658-3.325a.658.658,0,0,1,.624.064c.046.038.087.081.133.118a.583.583,0,0,1,.094.13.521.521,0,0,1,.01.41.608.608,0,0,1-.336.33Zm20.835,13.9H46.418V18.637a1.046,1.046,0,0,0-.192-.606l-.665-.949a1.063,1.063,0,0,0-.183-.2l5.26-2.175v.058h9.495a1.055,1.055,0,0,1,1.055,1.055Zm0,0" transform="translate(0 0)"/>
      <path id="Trazado_1054877" data-name="Trazado 1054877" d="M219.165,392a3.165,3.165,0,1,0,3.165,3.165A3.165,3.165,0,0,0,219.165,392Zm0,4.22a1.055,1.055,0,1,1,1.055-1.055A1.055,1.055,0,0,1,219.165,396.22Zm0,0" transform="translate(-187.516 -340.307)"/>
      <path id="Trazado_1054878" data-name="Trazado 1054878" d="M192.3,358.441l-1.371-.686.484-1.457a1.057,1.057,0,0,0-.254-1.08l-1.493-1.492a1.055,1.055,0,0,0-1.081-.254l-1.457.484-.686-1.371a1.054,1.054,0,0,0-.944-.585h-2.11a1.055,1.055,0,0,0-.944.584l-.686,1.371-1.457-.478a1.055,1.055,0,0,0-1.081.254l-1.491,1.486a1.056,1.056,0,0,0-.254,1.08l.485,1.458-1.371.686a1.055,1.055,0,0,0-.586.944v2.11a1.055,1.055,0,0,0,.584.949l1.371.686-.478,1.452a1.056,1.056,0,0,0,.254,1.08l1.492,1.492a1.047,1.047,0,0,0,1.08.254l1.456-.484.687,1.371a1.055,1.055,0,0,0,.939.585h2.11a1.055,1.055,0,0,0,.949-.584l.686-1.371,1.457.484a1.046,1.046,0,0,0,1.08-.254l1.492-1.493a1.055,1.055,0,0,0,.254-1.08l-.484-1.457,1.372-.686a1.055,1.055,0,0,0,.579-.945v-2.11a1.055,1.055,0,0,0-.584-.944Zm-1.526,2.4-1.371.686a1.053,1.053,0,0,0-.517.575c-.038.105-.078.2-.124.3a1.058,1.058,0,0,0-.041.774l.485,1.455-.57.57-1.455-.484a1.04,1.04,0,0,0-.775.042c-.1.045-.2.084-.3.123a1.056,1.056,0,0,0-.572.515l-.686,1.371h-.806l-.687-1.371a1.055,1.055,0,0,0-.569-.515c-.106-.039-.211-.081-.311-.127a1.036,1.036,0,0,0-.767-.039l-1.455.484-.57-.57.486-1.455a1.058,1.058,0,0,0-.041-.774c-.045-.1-.086-.2-.124-.3a1.054,1.054,0,0,0-.517-.575l-1.372-.686v-.806l1.372-.686a1.053,1.053,0,0,0,.517-.575c.038-.105.078-.2.124-.3a1.058,1.058,0,0,0,.041-.774l-.486-1.455.57-.57,1.455.484a1.034,1.034,0,0,0,.774-.042c.1-.045.2-.084.3-.123a1.057,1.057,0,0,0,.572-.515l.686-1.371h.806l.686,1.371a1.056,1.056,0,0,0,.572.515c.105.039.211.081.309.127a1.027,1.027,0,0,0,.767.039l1.455-.484.57.57-.485,1.455a1.058,1.058,0,0,0,.041.774c.046.1.086.2.124.3a1.052,1.052,0,0,0,.517.575l1.371.686Zm0,0" transform="translate(-152.791 -305.582)"/>
      <path id="Trazado_1054879" data-name="Trazado 1054879" d="M232,256h2.11v2.11H232Zm0,0" transform="translate(-201.406 -222.241)"/>
      <path id="Trazado_1054880" data-name="Trazado 1054880" d="M64,256h2.11v2.11H64Zm0,0" transform="translate(-55.56 -222.241)"/>
      <path id="Trazado_1054881" data-name="Trazado 1054881" d="M400,256h2.11v2.11H400Zm0,0" transform="translate(-347.252 -222.241)"/>
      <path id="Trazado_1054882" data-name="Trazado 1054882" d="M66.11,292.074V280H64V292.66a1.056,1.056,0,0,0,.5.895l8.44,5.275a1.055,1.055,0,0,0,.559.16h4.22v-2.11H73.8Zm0,0" transform="translate(-55.56 -243.077)"/>
      <path id="Trazado_1054883" data-name="Trazado 1054883" d="M323.6,292.074l-7.688,4.805H312v2.11h4.22a1.055,1.055,0,0,0,.559-.16l8.44-5.275a1.056,1.056,0,0,0,.5-.895V280H323.6Zm0,0" transform="translate(-270.857 -243.077)"/>
      <path id="Trazado_1054884" data-name="Trazado 1054884" d="M232,280h2.11v8.44H232Zm0,0" transform="translate(-201.406 -243.077)"/>
    </g>
  </g>
</svg>
