<svg xmlns="http://www.w3.org/2000/svg" width="400" height="146.611" viewBox="0 0 400 146.611">
  <g id="Grupo_1226173" data-name="Grupo 1226173" transform="translate(-1020 -792.389)">
    <g id="Grupo_1226107" data-name="Grupo 1226107" transform="translate(0 -11368)">
      <g id="Grupo_1225644" data-name="Grupo 1225644" transform="translate(0)">
        <rect id="equipo-de-desarrolladores-haciendo-una-tormenta-de-ideas-para-optimizar-el-codigo" width="400" height="96" rx="5" transform="translate(1020 12204)" fill="#4f3864"/>
        <rect id="equipo-de-desarrolladores-haciendo-una-tormenta-de-ideas-para-optimizar-el-codigo-2" data-name="equipo-de-desarrolladores-haciendo-una-tormenta-de-ideas-para-optimizar-el-codigo" width="326" height="110" rx="5" transform="translate(1057 12197)" fill="#11f5d8"/>
      </g>
    </g>
    <g id="_06-Programmer" data-name="06-Programmer" transform="translate(1130.695 776.389)">
      <g id="Grupo_1226172" data-name="Grupo 1226172" transform="translate(16 23.331)">
        <path id="Trazado_1054806" data-name="Trazado 1054806" d="M32,200H46.661v90.41H32Z" transform="translate(-27.113 -151.13)" fill="#ffdb43"/>
        <path id="Trazado_1054807" data-name="Trazado 1054807" d="M336,224h21.992a9.774,9.774,0,0,1,9.774,9.774v2.444H353.16L353.1,241.1H336Z" transform="translate(-238.259 -167.799)" fill="#ffdb43"/>
        <path id="Trazado_1054808" data-name="Trazado 1054808" d="M199.766,224H177.774A9.774,9.774,0,0,0,168,233.774v2.444h14.606l.055,4.887h17.1Z" transform="translate(-121.573 -167.799)" fill="#ffdb43"/>
        <path id="Trazado_1054809" data-name="Trazado 1054809" d="M188.419,272l29.667,8.241A19.548,19.548,0,0,1,232.4,299.077v38.9H120v-38.9a19.549,19.549,0,0,1,14.317-18.837L163.983,272Z" transform="translate(-88.234 -201.138)" fill="#ffdb43"/>
        <path id="Trazado_1054810" data-name="Trazado 1054810" d="M16,40H55.1a4.887,4.887,0,0,1,4.887,4.887V79.1A4.887,4.887,0,0,1,55.1,83.983H16Z" transform="translate(-16 -40)" fill="#ffdb43"/>
      </g>
      <path id="Trazado_1054811" data-name="Trazado 1054811" d="M59.983,44.887v2.444H16V40H55.1A4.887,4.887,0,0,1,59.983,44.887Z" transform="translate(0 -16.669)" fill="#40c6f3"/>
      <circle id="Elipse_13347" data-name="Elipse 13347" cx="4.5" cy="4.5" r="4.5" transform="translate(119.305 141.306)" fill="#8b5e3c"/>
      <path id="Trazado_1054812" data-name="Trazado 1054812" d="M280,280h14.661v63.532H280Z" transform="translate(-183.364 -183.364)" fill="#40c6f3"/>
      <path id="Trazado_1054813" data-name="Trazado 1054813" d="M291.548,231.98V244.2a9.774,9.774,0,1,1-19.548,0V231.98Z" transform="translate(-177.807 -150.011)" fill="#febf91"/>
      <path id="Trazado_1054814" data-name="Trazado 1054814" d="M376,112h2.444a7.331,7.331,0,0,1,0,14.661H376Z" transform="translate(-250.042 -66.678)" fill="#febf91"/>
      <path id="Trazado_1054815" data-name="Trazado 1054815" d="M209.774,126.661h-2.444a7.331,7.331,0,0,1,0-14.661h2.444Z" transform="translate(-127.799 -66.678)" fill="#febf91"/>
      <rect id="Rectángulo_422353" data-name="Rectángulo 422353" width="44" height="59" rx="22" transform="translate(82.305 28.306)" fill="#fecca8"/>
      <path id="Trazado_1054816" data-name="Trazado 1054816" d="M336.435,48.435A24.435,24.435,0,0,1,312,24h4.887a19.548,19.548,0,0,1,19.548,19.548Z" transform="translate(-205.59 -5.556)" fill="#6e3515"/>
      <path id="Trazado_1054817" data-name="Trazado 1054817" d="M222.661,45.992A21.992,21.992,0,0,0,244.653,24h-17.1A19.548,19.548,0,0,0,208,43.548v2.444Z" transform="translate(-133.356 -5.556)" fill="#6e3515"/>
      <path id="Trazado_1054818" data-name="Trazado 1054818" d="M347.548,224a4.887,4.887,0,0,1,4.887,4.887v2.444a4.887,4.887,0,0,1-4.887,4.887A19.548,19.548,0,0,0,328,255.766v12.218a21.992,21.992,0,0,1,21.992-21.992h2.444a9.774,9.774,0,0,0,9.774-9.774v-2.444A9.774,9.774,0,0,0,352.435,224Z" transform="translate(-216.703 -144.468)" fill="#ffdb43"/>
      <ellipse id="Elipse_13348" data-name="Elipse 13348" cx="5" cy="4.5" rx="5" ry="4.5" transform="translate(79.305 141.306)" fill="#8b5e3c"/>
      <path id="Trazado_1054819" data-name="Trazado 1054819" d="M182.661,224a4.887,4.887,0,0,0-4.887,4.887v2.444a4.887,4.887,0,0,0,4.887,4.887,19.548,19.548,0,0,1,19.548,19.548v12.218a21.992,21.992,0,0,0-21.992-21.992h-2.444A9.774,9.774,0,0,1,168,236.218v-2.444A9.774,9.774,0,0,1,177.774,224Z" transform="translate(-105.573 -144.468)" fill="#ffdb43"/>
      <path id="Trazado_1054820" data-name="Trazado 1054820" d="M55.1,32H16v4.887H55.1a2.446,2.446,0,0,1,2.444,2.444v2.444H16v4.887H57.54V73.54A2.446,2.446,0,0,1,55.1,75.983H16V80.87H55.1a7.339,7.339,0,0,0,7.331-7.331V39.331A7.339,7.339,0,0,0,55.1,32Z" transform="translate(0 -11.113)"/>
      <path id="Trazado_1054821" data-name="Trazado 1054821" d="M109.8,116.46l7.331-7.331a2.444,2.444,0,0,0,0-3.456L109.8,98.343l-3.456,3.456,5.6,5.6-5.6,5.6Z" transform="translate(-62.749 -57.192)"/>
      <path id="Trazado_1054822" data-name="Trazado 1054822" d="M24.046,98.343l-7.331,7.331a2.444,2.444,0,0,0,0,3.456l7.331,7.331L27.5,113l-5.6-5.6,5.6-5.6Z" transform="translate(0 -57.192)"/>
      <path id="Trazado_1054823" data-name="Trazado 1054823" d="M0,0H21.855V4.887H0Z" transform="translate(28.457 58.889) rotate(-63.435)"/>
      <path id="Trazado_1054824" data-name="Trazado 1054824" d="M25.774,215.331a2.446,2.446,0,0,1,2.444-2.444V208a7.339,7.339,0,0,0-7.331,7.331v2.444a2.446,2.446,0,0,1-2.444,2.444,2.444,2.444,0,1,0,0,4.887,2.446,2.446,0,0,1,2.444,2.444v2.444a7.339,7.339,0,0,0,7.331,7.331v-4.887a2.446,2.446,0,0,1-2.444-2.444v-2.444a7.3,7.3,0,0,0-1.871-4.887,7.3,7.3,0,0,0,1.871-4.887Z" transform="translate(0 -133.355)"/>
      <path id="Trazado_1054825" data-name="Trazado 1054825" d="M65.774,396.218a2.446,2.446,0,0,1-2.444-2.444v-2.444A7.339,7.339,0,0,0,56,384v4.887a2.446,2.446,0,0,1,2.444,2.444v2.444a7.3,7.3,0,0,0,1.871,4.887,7.3,7.3,0,0,0-1.871,4.887v2.444A2.446,2.446,0,0,1,56,408.435v4.887a7.339,7.339,0,0,0,7.331-7.331v-2.444a2.446,2.446,0,0,1,2.444-2.443,2.444,2.444,0,0,0,0-4.887Z" transform="translate(-27.783 -255.598)"/>
      <path id="Trazado_1054826" data-name="Trazado 1054826" d="M16,320H40.435v4.887H16Z" transform="translate(0 -211.146)"/>
      <path id="Trazado_1054827" data-name="Trazado 1054827" d="M48,352H62.661v4.887H48Z" transform="translate(-22.226 -233.372)"/>
      <path id="Trazado_1054828" data-name="Trazado 1054828" d="M16,352h4.887v4.887H16Z" transform="translate(0 -233.372)"/>
      <path id="Trazado_1054829" data-name="Trazado 1054829" d="M96,248h9.774v4.887H96Z" transform="translate(-55.565 -161.138)"/>
      <path id="Trazado_1054830" data-name="Trazado 1054830" d="M64,248h4.887v4.887H64Z" transform="translate(-33.339 -161.138)"/>
      <path id="Trazado_1054831" data-name="Trazado 1054831" d="M16,424h9.774v4.887H16Z" transform="translate(0 -283.38)"/>
      <path id="Trazado_1054832" data-name="Trazado 1054832" d="M213.184,100.079l-1.48-.411a12.161,12.161,0,0,0,2.925-7.919V89.306A12.231,12.231,0,0,0,202.41,77.088h-9.624a22.072,22.072,0,0,0,2.293-9.774V62.427a9.772,9.772,0,0,0,4.6-18.4,2.433,2.433,0,0,0,.289-1.152V37.992A22.016,22.016,0,0,0,177.975,16h-17.1a22.016,22.016,0,0,0-21.992,21.992v2.444a2.444,2.444,0,0,0,2.444,2.444h4.887a9.774,9.774,0,1,0,0,19.548v4.887a22.071,22.071,0,0,0,2.293,9.774h-9.624a12.231,12.231,0,0,0-12.218,12.218v2.444a12.161,12.161,0,0,0,2.925,7.919l-1.48.411A22.056,22.056,0,0,0,112,121.27v38.9a2.444,2.444,0,0,0,2.444,2.444h112.4a2.444,2.444,0,0,0,2.444-2.444v-38.9A22.056,22.056,0,0,0,213.184,100.079Zm-8.33-13.217V84.419a7.315,7.315,0,0,0-.315-2.129,7.344,7.344,0,0,1,5.2,7.016v2.444a7.339,7.339,0,0,1-7.331,7.331h-2.444a24.408,24.408,0,0,0-19.336,9.51,17.132,17.132,0,0,1,16.892-14.4,7.339,7.339,0,0,0,7.331-7.331Zm-29.614-53.4A27.142,27.142,0,0,0,189.818,44.2a17.124,17.124,0,0,1,.374,3.568H177.975a4.887,4.887,0,0,0-4.226,2.444h-6.21a4.887,4.887,0,0,0-4.226-2.444H151.1a17.031,17.031,0,0,1,.709-4.887h4.178a24.4,24.4,0,0,0,19.254-9.416ZM185.306,57.54V52.651h4.887V57.54a2.446,2.446,0,0,1-2.444,2.444h-7.331a2.446,2.446,0,0,1-2.444-2.444V52.653h2.444V57.54ZM151.1,52.653h4.887V57.54h4.887V52.65h2.444v4.89a2.446,2.446,0,0,1-2.444,2.444H153.54A2.446,2.446,0,0,1,151.1,57.54Zm0,11.8a7.3,7.3,0,0,0,2.444.42h7.331A7.339,7.339,0,0,0,168.2,57.54V55.1h4.887V57.54a7.339,7.339,0,0,0,7.331,7.331h7.331a7.3,7.3,0,0,0,2.444-.42v2.864A16.912,16.912,0,0,1,186.445,78a17.18,17.18,0,0,1-6.946,5.172,16.952,16.952,0,0,1-6.411,1.242H168.2a16.958,16.958,0,0,1-6.414-1.245A17.18,17.18,0,0,1,154.844,78a16.913,16.913,0,0,1-3.748-10.69Zm46.427,17.525a2.446,2.446,0,0,1,2.444,2.444v2.444a2.446,2.446,0,0,1-2.444,2.444,21.859,21.859,0,0,0-11.471,3.238l-2.535-.7a2.443,2.443,0,0,0-.655-.09V87.015a22.09,22.09,0,0,0,6.616-5.04Zm-36.677,40.588V128.4h.024v3.875l-6.319-6.318,5.99-5.99a19.492,19.492,0,0,1,.3,2.594Zm4.3-23.521a7.32,7.32,0,0,1-1.833-4.849V88.756a21.992,21.992,0,0,0,4.887.55h4.887a22,22,0,0,0,4.886-.55v5.437a7.331,7.331,0,0,1-12.828,4.849Zm15.272,29.36h.024v-5.839a19.494,19.494,0,0,1,.305-2.594l5.989,5.99-6.319,6.318ZM195.08,57.54V47.766a4.887,4.887,0,0,1,0,9.774Zm0-19.548V40.3a21.866,21.866,0,0,1-2.681-.467,22.158,22.158,0,0,1-14.284-11.047,24.23,24.23,0,0,0,2.163-7.739A17.127,17.127,0,0,1,195.08,37.992Zm-51.314,0a17.124,17.124,0,0,1,17.1-17.1h14.508a19.579,19.579,0,0,1-19.4,17.1Zm-2.443,14.661a4.893,4.893,0,0,1,4.887-4.887V57.54a4.893,4.893,0,0,1-4.887-4.887Zm0,31.766a2.446,2.446,0,0,1,2.443-2.444h8.045a22.091,22.091,0,0,0,6.616,5.04v4.734a2.444,2.444,0,0,0-.654.089l-2.535.7a21.859,21.859,0,0,0-11.472-3.237,2.446,2.446,0,0,1-2.443-2.444Zm-9.774,4.887a7.344,7.344,0,0,1,5.2-7.016,7.315,7.315,0,0,0-.315,2.129v2.444a7.339,7.339,0,0,0,7.331,7.331,17.132,17.132,0,0,1,16.891,14.4,24.407,24.407,0,0,0-19.334-9.508h-2.444a7.339,7.339,0,0,1-7.331-7.331ZM116.887,121.27a17.154,17.154,0,0,1,12.527-16.482l5.428-1.509a12.159,12.159,0,0,0,4.037.688h2.444a19.567,19.567,0,0,1,17.486,10.824l-9.438,9.44a2.437,2.437,0,0,0-.717,1.729V138.6a7.331,7.331,0,1,0,4.887,0v-6.739l7.331,7.331v18.536H136.435V135.733h-4.887v21.992H116.887Zm36.653,24.237a2.444,2.444,0,1,1-2.444-2.444A2.444,2.444,0,0,1,153.54,145.507Zm12.218-7.331V105.386a12.166,12.166,0,0,0,9.774,0v52.339h-9.774ZM224.4,157.724H209.741V135.733h-4.887v21.992H180.419V139.188l7.331-7.331V138.6a7.331,7.331,0,1,0,4.887,0V125.96a2.437,2.437,0,0,0-.716-1.729l-9.438-9.44a19.567,19.567,0,0,1,17.484-10.824h2.444a12.159,12.159,0,0,0,4.037-.688l5.429,1.509A17.155,17.155,0,0,1,224.4,121.27Zm-31.766-12.218a2.444,2.444,0,1,1-2.444-2.444A2.444,2.444,0,0,1,192.636,145.507Z" transform="translate(-66.678)"/>
      <path id="Trazado_1054833" data-name="Trazado 1054833" d="M299.5,200.242l2.443-2.444-3.456-3.456-1.728,1.728H288v4.887h9.774a2.444,2.444,0,0,0,1.728-.716Z" transform="translate(-188.92 -123.87)"/>
    </g>
  </g>
</svg>
