<svg xmlns="http://www.w3.org/2000/svg" xmlns:xlink="http://www.w3.org/1999/xlink" width="113" height="113" viewBox="0 0 113 113">
  <defs>
    <filter id="Trazado_982547" x="0" y="-0.001" width="113" height="113" filterUnits="userSpaceOnUse">
      <feOffset dy="3" input="SourceAlpha"/>
      <feGaussianBlur stdDeviation="3" result="blur"/>
      <feFlood flood-opacity="0.161"/>
      <feComposite operator="in" in2="blur"/>
      <feComposite in="SourceGraphic"/>
    </filter>
  </defs>
  <g id="Grupo_1226181" data-name="Grupo 1226181" transform="translate(-271 -10517.926)">
    <g id="Grupo_1225528" data-name="Grupo 1225528" transform="translate(0 9222.583)">
      <g id="Grupo_1225173" data-name="Grupo 1225173" transform="translate(0 -3445.654)">
        <g id="Grupo_1224643" data-name="Grupo 1224643" transform="translate(0 1927)">
          <g id="Grupo_1224291" data-name="Grupo 1224291" transform="translate(0 859.245)">
            <g id="Grupo_1224091" data-name="Grupo 1224091" transform="translate(-84.49 -2620.317)">
              <g id="Grupo_1223183" data-name="Grupo 1223183" transform="translate(364.49 4581.069)">
                <g id="Grupo_1211217" data-name="Grupo 1211217" transform="translate(0)">
                  <g id="Grupo_1210736" data-name="Grupo 1210736">
                    <g id="Grupo_1210537" data-name="Grupo 1210537">
                      <g id="Grupo_1164202" data-name="Grupo 1164202">
                        <g id="Grupo_1158168" data-name="Grupo 1158168">
                          <g id="Grupo_1152576" data-name="Grupo 1152576">
                            <g id="Grupo_1148633" data-name="Grupo 1148633">
                              <g id="Grupo_1148525" data-name="Grupo 1148525">
                                <g transform="matrix(1, 0, 0, 1, -9, -6)" filter="url(#Trazado_982547)">
                                  <g id="Trazado_982547-2" data-name="Trazado 982547" transform="translate(9 6)" fill="#fef9e5">
                                    <path d="M 47.49999618530273 93.5 C 41.28936767578125 93.5 35.26533126831055 92.28396606445312 29.59518241882324 89.88570404052734 C 24.11771583557129 87.56893157958984 19.19812965393066 84.251953125 14.97308921813965 80.02690124511719 C 10.74803638458252 75.80186462402344 7.431062698364258 70.88227844238281 5.114289283752441 65.40480804443359 C 2.716022968292236 59.73466110229492 1.499996185302734 53.71062469482422 1.499996185302734 47.49999618530273 C 1.499996185302734 41.28936767578125 2.716022968292236 35.26533126831055 5.114289283752441 29.59518241882324 C 7.431062698364258 24.11771583557129 10.74803638458252 19.19812965393066 14.97308921813965 14.97308921813965 C 19.19812965393066 10.74803638458252 24.11771583557129 7.431062698364258 29.59518241882324 5.114289283752441 C 35.26533126831055 2.716022968292236 41.28936767578125 1.499996185302734 47.49999618530273 1.499996185302734 C 53.71062469482422 1.499996185302734 59.73466110229492 2.716022968292236 65.40480804443359 5.114289283752441 C 70.88227844238281 7.431062698364258 75.80186462402344 10.74803638458252 80.02690124511719 14.97308921813965 C 84.251953125 19.19812965393066 87.56893157958984 24.11771583557129 89.88570404052734 29.59518241882324 C 92.28396606445312 35.26533126831055 93.5 41.28936767578125 93.5 47.49999618530273 C 93.5 53.71062469482422 92.28396606445312 59.73466110229492 89.88570404052734 65.40480804443359 C 87.56893157958984 70.88227844238281 84.251953125 75.80186462402344 80.02690124511719 80.02690124511719 C 75.80186462402344 84.251953125 70.88227844238281 87.56893157958984 65.40480804443359 89.88570404052734 C 59.73466110229492 92.28396606445312 53.71062469482422 93.5 47.49999618530273 93.5 Z" stroke="none"/>
                                    <path d="M 47.49999618530273 2.999992370605469 C 41.4912109375 2.999992370605469 35.66376495361328 4.1761474609375 30.17950439453125 6.495796203613281 C 24.88084411621094 8.736953735351562 20.12152099609375 11.94598388671875 16.03375244140625 16.03375244140625 C 11.94598388671875 20.12152099609375 8.736953735351562 24.88084411621094 6.495796203613281 30.17950439453125 C 4.1761474609375 35.66376495361328 2.999992370605469 41.4912109375 2.999992370605469 47.49999618530273 C 2.999992370605469 53.50878143310547 4.1761474609375 59.33622741699219 6.495796203613281 64.82048797607422 C 8.736953735351562 70.11914825439453 11.94598388671875 74.87847137451172 16.03375244140625 78.96623992919922 C 20.12152099609375 83.05400848388672 24.88084411621094 86.26304626464844 30.17950439453125 88.50419616699219 C 35.66376495361328 90.82384490966797 41.4912109375 92 47.49999618530273 92 C 53.50878143310547 92 59.33622741699219 90.82384490966797 64.82048797607422 88.50419616699219 C 70.11914825439453 86.26304626464844 74.87847137451172 83.05400848388672 78.96623992919922 78.96623992919922 C 83.05400848388672 74.87847137451172 86.26304626464844 70.11914825439453 88.50419616699219 64.82048797607422 C 90.82384490966797 59.33622741699219 92 53.50878143310547 92 47.49999618530273 C 92 41.4912109375 90.82384490966797 35.66376495361328 88.50419616699219 30.17950439453125 C 86.26304626464844 24.88084411621094 83.05400848388672 20.12152099609375 78.96623992919922 16.03375244140625 C 74.87847137451172 11.94598388671875 70.11914825439453 8.736953735351562 64.82048797607422 6.495796203613281 C 59.33622741699219 4.1761474609375 53.50878143310547 2.999992370605469 47.49999618530273 2.999992370605469 M 47.49999618530273 -7.62939453125e-06 C 73.7335205078125 -7.62939453125e-06 95 21.26647186279297 95 47.49999618530273 C 95 73.7335205078125 73.7335205078125 95 47.49999618530273 95 C 21.26647186279297 95 -7.62939453125e-06 73.7335205078125 -7.62939453125e-06 47.49999618530273 C -7.62939453125e-06 21.26647186279297 21.26647186279297 -7.62939453125e-06 47.49999618530273 -7.62939453125e-06 Z" stroke="none" fill="#f6c810"/>
                                  </g>
                                </g>
                              </g>
                            </g>
                          </g>
                        </g>
                      </g>
                    </g>
                  </g>
                </g>
              </g>
            </g>
          </g>
        </g>
      </g>
    </g>
    <g id="Layer_x0020_1" transform="translate(272.265 10541.679)">
      <g id="Grupo_1226179" data-name="Grupo 1226179" transform="translate(29)">
        <path id="Trazado_1054885" data-name="Trazado 1054885" d="M75.521,34.106A.587.587,0,0,1,75,33.862a.675.675,0,0,1,.035-.976l4.255-3.731-4.255-3.766A.674.674,0,0,1,75,24.411a.7.7,0,0,1,.976-.07l4.812,4.289a.742.742,0,0,1,.244.523.812.812,0,0,1-.244.523l-4.812,4.255A.625.625,0,0,1,75.521,34.106ZM47.483,52.2V48.474H30.918A1.935,1.935,0,0,1,29,46.556V36.477a1.788,1.788,0,0,1,.453-1.186A1.952,1.952,0,0,1,29,34.071V23.993a1.788,1.788,0,0,1,.453-1.186A1.952,1.952,0,0,1,29,21.586V11.508a1.905,1.905,0,0,1,1.918-1.883H53.411V1.988A1.987,1.987,0,0,1,55.4,0H78.241V.035h.139V.07h.07L78.485.1h.035V.139h.035V.174h.035l7.637,6.277v.035h.035v.035H86.3l.035.035v.035h.035v.035a.4.4,0,0,1,.1.279v29.5A1.965,1.965,0,0,1,84.483,38.4H67.36v8.16a1.935,1.935,0,0,1-1.918,1.918H48.878V52.2h1.465a1.481,1.481,0,0,1,1.465,1.5v1.465h9a3.149,3.149,0,0,1,3.1-2.476,3.173,3.173,0,1,1,0,6.347,3.149,3.149,0,0,1-3.1-2.476h-9v1.465a1.474,1.474,0,0,1-1.465,1.465H46.018a1.481,1.481,0,0,1-1.5-1.465V56.564H35.556a3.173,3.173,0,1,1,0-1.395h8.962V53.7a1.488,1.488,0,0,1,1.5-1.5Zm.7-5.126H65.442a.536.536,0,0,0,.523-.523V38.4H55.4a1.965,1.965,0,0,1-1.988-1.988v-.418H30.918a.507.507,0,0,0-.523.488V46.556a.536.536,0,0,0,.523.523ZM46.018,53.6a.111.111,0,0,0-.1.1v4.324c0,.035.07.07.1.07h4.324a.075.075,0,0,0,.07-.07V53.7c0-.07-.035-.1-.07-.1H46.018Zm-13.566.488a1.779,1.779,0,1,0,1.779,1.779A1.786,1.786,0,0,0,32.452,54.088Zm31.455,0a1.779,1.779,0,1,0,1.779,1.779A1.786,1.786,0,0,0,63.908,54.088ZM51.563,18.308a.7.7,0,0,1-.7-.7V15.484a.7.7,0,0,1,1.395,0v2.127A.7.7,0,0,1,51.563,18.308ZM45.111,19.6h-9a1.488,1.488,0,0,1-1.5-1.5V15a1.488,1.488,0,0,1,1.5-1.5h9A1.481,1.481,0,0,1,46.576,15v3.1A1.481,1.481,0,0,1,45.111,19.6Zm-9-4.708a.092.092,0,0,0-.1.1v3.1a.092.092,0,0,0,.1.1h9c.035,0,.07-.035.07-.1V15c0-.07-.035-.1-.07-.1Zm17.3-3.871H30.918a.507.507,0,0,0-.523.488V21.586a.536.536,0,0,0,.523.523H53.411ZM51.563,30.793a.7.7,0,0,1-.7-.7V27.968a.7.7,0,1,1,1.395,0V30.1A.7.7,0,0,1,51.563,30.793Zm-6.452,1.29h-9a1.481,1.481,0,0,1-1.5-1.465V27.48a1.488,1.488,0,0,1,1.5-1.5h9a1.481,1.481,0,0,1,1.465,1.5v3.139A1.474,1.474,0,0,1,45.111,32.083Zm-9-4.708a.092.092,0,0,0-.1.1v3.139c0,.035.035.07.1.07h9a.075.075,0,0,0,.07-.07V27.48c0-.07-.035-.1-.07-.1Zm17.3-3.871H30.918a.507.507,0,0,0-.523.488V34.071a.536.536,0,0,0,.523.523H53.411ZM51.563,43.277a.7.7,0,0,1-.7-.7V40.453a.7.7,0,0,1,1.395,0V42.58A.7.7,0,0,1,51.563,43.277Zm-6.452,1.29h-9a1.481,1.481,0,0,1-1.5-1.465V39.965a1.488,1.488,0,0,1,1.5-1.5h9a1.481,1.481,0,0,1,1.465,1.5V43.1A1.474,1.474,0,0,1,45.111,44.568Zm-9-4.708a.092.092,0,0,0-.1.1V43.1c0,.035.035.07.1.07h9a.075.075,0,0,0,.07-.07V39.965c0-.07-.035-.1-.07-.1Zm20.191,3.418a.7.7,0,0,1-.7-.7V40.453a.7.7,0,0,1,1.395,0V42.58A.7.7,0,0,1,56.306,43.277Zm4.743,0a.7.7,0,0,1-.7-.7V40.453a.7.7,0,0,1,1.395,0V42.58A.7.7,0,0,1,61.048,43.277ZM55.4,1.395a.619.619,0,0,0-.628.593v34.42A.6.6,0,0,0,55.4,37H84.483a.568.568,0,0,0,.593-.593V7.707H78.066l-.035-.035h-.1l-.035-.035h-.07V7.6h-.07V7.567h-.035V7.533h-.035V7.5h-.035V7.463h-.035V7.428h-.035V7.393l-.035-.035V7.323h-.035v-.07h-.035v-.1l-.035-.035V1.395ZM78.834,6.312h5.022L78.834,2.2Zm-3.662-.628H58.328a.7.7,0,0,1,0-1.395H75.172a.7.7,0,0,1,0,1.395Zm7.079,6.8H57.631a.7.7,0,1,1,0-1.395h24.62a.7.7,0,0,1,0,1.395Zm0,6.8H57.631a.7.7,0,1,1,0-1.395h24.62a.7.7,0,0,1,0,1.395ZM67.535,33.548a.7.7,0,0,1-.384-.1.723.723,0,0,1-.209-.976l4.812-7.393a.723.723,0,0,1,.976-.209.716.716,0,0,1,.209.976l-4.812,7.393A.729.729,0,0,1,67.535,33.548Zm-3.173.558a.625.625,0,0,1-.453-.174L59.1,29.677a.812.812,0,0,1-.244-.523.742.742,0,0,1,.244-.523l4.812-4.289a.708.708,0,0,1,.976.07.674.674,0,0,1-.035.976l-4.255,3.766,4.255,3.731a.675.675,0,0,1,.035.976A.627.627,0,0,1,64.361,34.106Z" transform="translate(-29)" fill-rule="evenodd"/>
      </g>
      <path id="Trazado_1054886" data-name="Trazado 1054886" d="M98.956,1038.591v-2.127a.7.7,0,0,1,1.395,0v2.127a.7.7,0,0,1-1.395,0Zm5.615,3.976v-8.16H94a1.965,1.965,0,0,1-1.988-1.988V1032H69.523a.507.507,0,0,0-.523.488v10.078a.536.536,0,0,0,.523.523h34.524A.536.536,0,0,0,104.571,1042.567Zm-14.4-3.278a.7.7,0,0,1-.7-.7v-2.127a.7.7,0,0,1,1.395,0v2.127A.7.7,0,0,1,90.168,1039.288Zm-6.452,1.29h-9a1.481,1.481,0,0,1-1.5-1.465v-3.139a1.488,1.488,0,0,1,1.5-1.5h9a1.481,1.481,0,0,1,1.465,1.5v3.139A1.473,1.473,0,0,1,83.716,1040.579Zm11.194-1.29a.7.7,0,0,1-.7-.7v-2.127a.7.7,0,0,1,1.395,0v2.127A.7.7,0,0,1,94.911,1039.288Z" transform="translate(-38.605 -996.011)" fill="#529ffb" fill-rule="evenodd"/>
      <path id="Trazado_1054887" data-name="Trazado 1054887" d="M518.5,1541.429V1537.1c0-.07-.035-.1-.07-.1H514.1a.111.111,0,0,0-.1.1v4.324c0,.035.07.07.1.07h4.324A.075.075,0,0,0,518.5,1541.429Z" transform="translate(-468.087 -1483.4)" fill="#565a55" fill-rule="evenodd"/>
      <path id="Trazado_1054888" data-name="Trazado 1054888" d="M768.628,75.605h29.084a.568.568,0,0,0,.593-.593v-28.7h-6.94l-.349-.1-.035-.035-.035-.035-.035-.035h-.035a.689.689,0,0,1-.209-.488V40h-22.04a.619.619,0,0,0-.628.593v34.42A.6.6,0,0,0,768.628,75.605Zm20.122-2.894a.7.7,0,0,1-.488-1.221l4.255-3.731-4.255-3.766a.7.7,0,0,1,.942-1.046l4.813,4.289a.7.7,0,0,1,0,1.046L789.2,72.537A.625.625,0,0,1,788.75,72.711Zm-2.581-8.265-4.812,7.393a.729.729,0,0,1-.593.314.7.7,0,0,1-.593-1.081l4.813-7.393A.706.706,0,0,1,786.169,64.446Zm9.311-6.556H770.86a.7.7,0,0,1,0-1.395h24.62A.7.7,0,0,1,795.48,57.89Zm0-6.8H770.86a.7.7,0,0,1,0-1.395h24.62A.7.7,0,0,1,795.48,51.09Zm-7.079-6.8H771.557a.7.7,0,0,1,0-1.395H788.4A.7.7,0,0,1,788.4,44.289Zm-10.322,27.2a.707.707,0,0,1-.488,1.221.625.625,0,0,1-.453-.174l-4.812-4.255a.7.7,0,0,1,0-1.046l4.813-4.289a.7.7,0,0,1,.942,1.046l-4.255,3.766Z" transform="translate(-713.229 -38.605)" fill="#ffe5ca" fill-rule="evenodd"/>
      <path id="Trazado_1054889" data-name="Trazado 1054889" d="M239.172,1146.243V1143.1c0-.07-.035-.1-.07-.1h-9a.092.092,0,0,0-.1.1v3.139c0,.035.035.07.1.07h9A.075.075,0,0,0,239.172,1146.243Z" transform="translate(-193.991 -1103.14)" fill="#4affa8" fill-rule="evenodd"/>
      <path id="Trazado_1054890" data-name="Trazado 1054890" d="M69.523,685.09H92.016V674H69.523a.507.507,0,0,0-.523.488v10.078A.536.536,0,0,0,69.523,685.09Zm20.645-3.8a.7.7,0,0,1-.7-.7v-2.127a.7.7,0,0,1,1.395,0v2.127A.7.7,0,0,1,90.168,681.289Zm-4.987-.174a1.474,1.474,0,0,1-1.465,1.465h-9a1.481,1.481,0,0,1-1.5-1.465v-3.139a1.488,1.488,0,0,1,1.5-1.5h9a1.481,1.481,0,0,1,1.465,1.5Z" transform="translate(-38.605 -650.496)" fill="#488bd9" fill-rule="evenodd"/>
      <path id="Trazado_1054891" data-name="Trazado 1054891" d="M230.1,788.313h9a.075.075,0,0,0,.07-.07V785.1c0-.07-.035-.1-.07-.1h-9a.092.092,0,0,0-.1.1v3.139C230,788.278,230.035,788.313,230.1,788.313Z" transform="translate(-193.991 -757.625)" fill="#4affa8" fill-rule="evenodd"/>
      <path id="Trazado_1054892" data-name="Trazado 1054892" d="M69.523,327.09H92.016V316H69.523a.507.507,0,0,0-.523.488v10.078A.536.536,0,0,0,69.523,327.09Zm20.645-3.8a.7.7,0,0,1-.7-.7v-2.127a.7.7,0,0,1,1.395,0v2.127A.7.7,0,0,1,90.168,323.288Zm-4.987-.209a1.481,1.481,0,0,1-1.465,1.5h-9a1.488,1.488,0,0,1-1.5-1.5v-3.1a1.488,1.488,0,0,1,1.5-1.5h9a1.481,1.481,0,0,1,1.465,1.5Z" transform="translate(-38.605 -304.98)" fill="#529ffb" fill-rule="evenodd"/>
      <path id="Trazado_1054893" data-name="Trazado 1054893" d="M230.1,430.313h9c.035,0,.07-.035.07-.1v-3.1c0-.07-.035-.1-.07-.1h-9a.093.093,0,0,0-.1.1v3.1A.092.092,0,0,0,230.1,430.313Z" transform="translate(-193.991 -412.109)" fill="#4affa8" fill-rule="evenodd"/>
      <path id="Trazado_1054894" data-name="Trazado 1054894" d="M1458,63v4.115h5.022Z" transform="translate(-1379.166 -60.803)" fill="#fac7a4" stroke="#fac7a4" stroke-width="3" fill-rule="evenodd"/>
      <g id="Grupo_1226180" data-name="Grupo 1226180" transform="translate(30.674 54.088)">
        <path id="Trazado_1054895" data-name="Trazado 1054895" d="M80.557,1552.779a1.779,1.779,0,1,0-1.779,1.778A1.786,1.786,0,0,0,80.557,1552.779Z" transform="translate(-77 -1551)" fill="#565a55" fill-rule="evenodd"/>
        <path id="Trazado_1054896" data-name="Trazado 1054896" d="M980.748,1551a1.786,1.786,0,0,0-1.778,1.779,1.763,1.763,0,0,0,1.778,1.778,1.779,1.779,0,1,0,0-3.557Z" transform="translate(-947.514 -1551)" fill="#565a55" fill-rule="evenodd"/>
      </g>
    </g>
  </g>
</svg>
