<svg xmlns="http://www.w3.org/2000/svg" xmlns:xlink="http://www.w3.org/1999/xlink" width="113" height="113" viewBox="0 0 113 113">
  <defs>
    <filter id="Trazado_982547" x="0" y="-0.001" width="113" height="113" filterUnits="userSpaceOnUse">
      <feOffset dy="3" input="SourceAlpha"/>
      <feGaussianBlur stdDeviation="3" result="blur"/>
      <feFlood flood-opacity="0.161"/>
      <feComposite operator="in" in2="blur"/>
      <feComposite in="SourceGraphic"/>
    </filter>
  </defs>
  <g id="Grupo_1226183" data-name="Grupo 1226183" transform="translate(-585.509 -10517.926)">
    <g id="Grupo_1225529" data-name="Grupo 1225529" transform="translate(0 9222.583)">
      <g id="Grupo_1225176" data-name="Grupo 1225176" transform="translate(0 -3445.654)">
        <g id="Grupo_1224647" data-name="Grupo 1224647" transform="translate(0 1927)">
          <g id="Grupo_1224292" data-name="Grupo 1224292" transform="translate(0 859.245)">
            <g id="Grupo_1224092" data-name="Grupo 1224092" transform="translate(-88.49 -2620.317)">
              <g id="Grupo_1223184" data-name="Grupo 1223184" transform="translate(683 4581.069)">
                <g id="Grupo_1211216" data-name="Grupo 1211216" transform="translate(0)">
                  <g id="Grupo_1210737" data-name="Grupo 1210737">
                    <g id="Grupo_1210537" data-name="Grupo 1210537">
                      <g id="Grupo_1164202" data-name="Grupo 1164202">
                        <g id="Grupo_1158168" data-name="Grupo 1158168">
                          <g id="Grupo_1152576" data-name="Grupo 1152576">
                            <g id="Grupo_1148633" data-name="Grupo 1148633">
                              <g id="Grupo_1148525" data-name="Grupo 1148525">
                                <g transform="matrix(1, 0, 0, 1, -9, -6)" filter="url(#Trazado_982547)">
                                  <g id="Trazado_982547-2" data-name="Trazado 982547" transform="translate(9 6)" fill="#fef9e5">
                                    <path d="M 47.49999618530273 93.5 C 41.28936767578125 93.5 35.26533126831055 92.28396606445312 29.59518241882324 89.88570404052734 C 24.11771583557129 87.56893157958984 19.19812965393066 84.251953125 14.97308921813965 80.02690124511719 C 10.74803638458252 75.80186462402344 7.431062698364258 70.88227844238281 5.114289283752441 65.40480804443359 C 2.716022968292236 59.73466110229492 1.499996185302734 53.71062469482422 1.499996185302734 47.49999618530273 C 1.499996185302734 41.28936767578125 2.716022968292236 35.26533126831055 5.114289283752441 29.59518241882324 C 7.431062698364258 24.11771583557129 10.74803638458252 19.19812965393066 14.97308921813965 14.97308921813965 C 19.19812965393066 10.74803638458252 24.11771583557129 7.431062698364258 29.59518241882324 5.114289283752441 C 35.26533126831055 2.716022968292236 41.28936767578125 1.499996185302734 47.49999618530273 1.499996185302734 C 53.71062469482422 1.499996185302734 59.73466110229492 2.716022968292236 65.40480804443359 5.114289283752441 C 70.88227844238281 7.431062698364258 75.80186462402344 10.74803638458252 80.02690124511719 14.97308921813965 C 84.251953125 19.19812965393066 87.56893157958984 24.11771583557129 89.88570404052734 29.59518241882324 C 92.28396606445312 35.26533126831055 93.5 41.28936767578125 93.5 47.49999618530273 C 93.5 53.71062469482422 92.28396606445312 59.73466110229492 89.88570404052734 65.40480804443359 C 87.56893157958984 70.88227844238281 84.251953125 75.80186462402344 80.02690124511719 80.02690124511719 C 75.80186462402344 84.251953125 70.88227844238281 87.56893157958984 65.40480804443359 89.88570404052734 C 59.73466110229492 92.28396606445312 53.71062469482422 93.5 47.49999618530273 93.5 Z" stroke="none"/>
                                    <path d="M 47.49999618530273 2.999992370605469 C 41.4912109375 2.999992370605469 35.66376495361328 4.1761474609375 30.17950439453125 6.495796203613281 C 24.88084411621094 8.736953735351562 20.12152099609375 11.94598388671875 16.03375244140625 16.03375244140625 C 11.94598388671875 20.12152099609375 8.736953735351562 24.88084411621094 6.495796203613281 30.17950439453125 C 4.1761474609375 35.66376495361328 2.999992370605469 41.4912109375 2.999992370605469 47.49999618530273 C 2.999992370605469 53.50878143310547 4.1761474609375 59.33622741699219 6.495796203613281 64.82048797607422 C 8.736953735351562 70.11914825439453 11.94598388671875 74.87847137451172 16.03375244140625 78.96623992919922 C 20.12152099609375 83.05400848388672 24.88084411621094 86.26304626464844 30.17950439453125 88.50419616699219 C 35.66376495361328 90.82384490966797 41.4912109375 92 47.49999618530273 92 C 53.50878143310547 92 59.33622741699219 90.82384490966797 64.82048797607422 88.50419616699219 C 70.11914825439453 86.26304626464844 74.87847137451172 83.05400848388672 78.96623992919922 78.96623992919922 C 83.05400848388672 74.87847137451172 86.26304626464844 70.11914825439453 88.50419616699219 64.82048797607422 C 90.82384490966797 59.33622741699219 92 53.50878143310547 92 47.49999618530273 C 92 41.4912109375 90.82384490966797 35.66376495361328 88.50419616699219 30.17950439453125 C 86.26304626464844 24.88084411621094 83.05400848388672 20.12152099609375 78.96623992919922 16.03375244140625 C 74.87847137451172 11.94598388671875 70.11914825439453 8.736953735351562 64.82048797607422 6.495796203613281 C 59.33622741699219 4.1761474609375 53.50878143310547 2.999992370605469 47.49999618530273 2.999992370605469 M 47.49999618530273 -7.62939453125e-06 C 73.7335205078125 -7.62939453125e-06 95 21.26647186279297 95 47.49999618530273 C 95 73.7335205078125 73.7335205078125 95 47.49999618530273 95 C 21.26647186279297 95 -7.62939453125e-06 73.7335205078125 -7.62939453125e-06 47.49999618530273 C -7.62939453125e-06 21.26647186279297 21.26647186279297 -7.62939453125e-06 47.49999618530273 -7.62939453125e-06 Z" stroke="none" fill="#f6c810"/>
                                  </g>
                                </g>
                              </g>
                            </g>
                          </g>
                        </g>
                      </g>
                    </g>
                  </g>
                </g>
              </g>
            </g>
          </g>
        </g>
      </g>
    </g>
    <g id="folder_15579299" transform="translate(611.142 10542.182)">
      <g id="Color" transform="translate(2.526 4.53)">
        <path id="Trazado_1054897" data-name="Trazado 1054897" d="M55.545,12.238V31.885A12.337,12.337,0,0,0,38.122,49.307H2V4H14.357l8.238,8.238Z" transform="translate(-2 -4)" fill="#ffc943"/>
        <path id="Trazado_1054898" data-name="Trazado 1054898" d="M22.357,6v4.119H14.119L10,6Z" transform="translate(6.475 -1.881)" fill="#f45151"/>
        <path id="Trazado_1054899" data-name="Trazado 1054899" d="M22,6H32.3v4.119H22Z" transform="translate(19.188 -1.881)" fill="#43b3ff"/>
        <path id="Trazado_1054900" data-name="Trazado 1054900" d="M16,6H28.357v4.119H16Z" transform="translate(12.832 -1.881)" fill="#f2f2f2"/>
        <circle id="Elipse_13357" data-name="Elipse 13357" cx="12.357" cy="12.357" r="12.357" transform="translate(32.951 24.713)" fill="#43b3ff"/>
      </g>
      <g id="Line" transform="translate(1.417 3.5)">
        <g id="Grupo_1226182" data-name="Grupo 1226182" transform="translate(0.078)">
          <path id="Trazado_1054901" data-name="Trazado 1054901" d="M43.243,27.857a1.029,1.029,0,0,0-1.03,1.03,11.419,11.419,0,1,1-3.685-8.31h-.361a1.03,1.03,0,0,0,0,2.059h2.914a1.029,1.029,0,0,0,1.03-1.03V18.692a1.03,1.03,0,1,0-2.059,0v.458a13.36,13.36,0,1,0,4.221,9.736,1.029,1.029,0,0,0-1.03-1.03Z" transform="translate(15.451 9.213)" fill-rule="evenodd"/>
          <path id="Trazado_1054902" data-name="Trazado 1054902" d="M24.53,18.5a1.029,1.029,0,0,0-1.03,1.03v6.178a1.029,1.029,0,0,0,.3.728L25.861,28.5a1.03,1.03,0,0,0,1.456-1.456l-1.758-1.758V19.53a1.029,1.029,0,0,0-1.03-1.03Z" transform="translate(21.807 12.391)" fill-rule="evenodd"/>
          <path id="Trazado_1054903" data-name="Trazado 1054903" d="M2.53,40.57a1.029,1.029,0,0,0,1.03-1.03V5.559h10.9l3.816,3.816,0,0L22.4,13.5a1.029,1.029,0,0,0,.728.3H55.045V25.124a1.03,1.03,0,0,0,2.059,0V12.767a1.029,1.029,0,0,0-1.03-1.03h-1.03V8.649a1.029,1.029,0,0,0-1.03-1.03H19.431L15.614,3.8a1.029,1.029,0,0,0-.728-.3H2.53A1.029,1.029,0,0,0,1.5,4.53V39.54a1.029,1.029,0,0,0,1.03,1.03ZM52.986,11.738H44.748V9.678h8.238Zm-10.3-2.059v2.059h-10.3V9.678Zm-12.357,0v2.059H23.55L21.491,9.678Z" transform="translate(-1.5 -3.5)" fill-rule="evenodd"/>
          <path id="Trazado_1054904" data-name="Trazado 1054904" d="M32.391,27.589a1.029,1.029,0,0,0-1.03-1.03H3.559V25.53a1.03,1.03,0,0,0-2.059,0v2.059a1.029,1.029,0,0,0,1.03,1.03H31.362A1.029,1.029,0,0,0,32.391,27.589Z" transform="translate(-1.5 18.748)" fill-rule="evenodd"/>
          <path id="Trazado_1054905" data-name="Trazado 1054905" d="M5.53,22.5a1.03,1.03,0,1,0,0,2.059h10.3a1.03,1.03,0,1,0,0-2.059Z" transform="translate(1.678 16.629)" fill-rule="evenodd"/>
        </g>
        <ellipse id="Elipse_13358" data-name="Elipse 13358" cx="0.5" cy="1" rx="0.5" ry="1" transform="translate(0.442 39.243)"/>
      </g>
    </g>
  </g>
</svg>
