<svg xmlns="http://www.w3.org/2000/svg" xmlns:xlink="http://www.w3.org/1999/xlink" width="113" height="113" viewBox="0 0 113 113">
  <defs>
    <filter id="Trazado_982547" x="0" y="-0.001" width="113" height="113" filterUnits="userSpaceOnUse">
      <feOffset dy="3" input="SourceAlpha"/>
      <feGaussianBlur stdDeviation="3" result="blur"/>
      <feFlood flood-opacity="0.161"/>
      <feComposite operator="in" in2="blur"/>
      <feComposite in="SourceGraphic"/>
    </filter>
  </defs>
  <g id="Grupo_1226185" data-name="Grupo 1226185" transform="translate(-900.509 -10517.926)">
    <g id="Grupo_1225530" data-name="Grupo 1225530" transform="translate(0 9222.583)">
      <g id="Grupo_1225177" data-name="Grupo 1225177" transform="translate(0 -3445.654)">
        <g id="Grupo_1224648" data-name="Grupo 1224648" transform="translate(0 1927)">
          <g id="Grupo_1224293" data-name="Grupo 1224293" transform="translate(0 859.245)">
            <g id="Grupo_1224093" data-name="Grupo 1224093" transform="translate(226.51 -2620.317)">
              <g id="Grupo_1223184" data-name="Grupo 1223184" transform="translate(683 4581.069)">
                <g id="Grupo_1211216" data-name="Grupo 1211216" transform="translate(0)">
                  <g id="Grupo_1210737" data-name="Grupo 1210737">
                    <g id="Grupo_1210537" data-name="Grupo 1210537">
                      <g id="Grupo_1164202" data-name="Grupo 1164202">
                        <g id="Grupo_1158168" data-name="Grupo 1158168">
                          <g id="Grupo_1152576" data-name="Grupo 1152576">
                            <g id="Grupo_1148633" data-name="Grupo 1148633">
                              <g id="Grupo_1148525" data-name="Grupo 1148525">
                                <g transform="matrix(1, 0, 0, 1, -9, -6)" filter="url(#Trazado_982547)">
                                  <g id="Trazado_982547-2" data-name="Trazado 982547" transform="translate(9 6)" fill="#fef9e5">
                                    <path d="M 47.49999618530273 93.5 C 41.28936767578125 93.5 35.26533126831055 92.28396606445312 29.59518241882324 89.88570404052734 C 24.11771583557129 87.56893157958984 19.19812965393066 84.251953125 14.97308921813965 80.02690124511719 C 10.74803638458252 75.80186462402344 7.431062698364258 70.88227844238281 5.114289283752441 65.40480804443359 C 2.716022968292236 59.73466110229492 1.499996185302734 53.71062469482422 1.499996185302734 47.49999618530273 C 1.499996185302734 41.28936767578125 2.716022968292236 35.26533126831055 5.114289283752441 29.59518241882324 C 7.431062698364258 24.11771583557129 10.74803638458252 19.19812965393066 14.97308921813965 14.97308921813965 C 19.19812965393066 10.74803638458252 24.11771583557129 7.431062698364258 29.59518241882324 5.114289283752441 C 35.26533126831055 2.716022968292236 41.28936767578125 1.499996185302734 47.49999618530273 1.499996185302734 C 53.71062469482422 1.499996185302734 59.73466110229492 2.716022968292236 65.40480804443359 5.114289283752441 C 70.88227844238281 7.431062698364258 75.80186462402344 10.74803638458252 80.02690124511719 14.97308921813965 C 84.251953125 19.19812965393066 87.56893157958984 24.11771583557129 89.88570404052734 29.59518241882324 C 92.28396606445312 35.26533126831055 93.5 41.28936767578125 93.5 47.49999618530273 C 93.5 53.71062469482422 92.28396606445312 59.73466110229492 89.88570404052734 65.40480804443359 C 87.56893157958984 70.88227844238281 84.251953125 75.80186462402344 80.02690124511719 80.02690124511719 C 75.80186462402344 84.251953125 70.88227844238281 87.56893157958984 65.40480804443359 89.88570404052734 C 59.73466110229492 92.28396606445312 53.71062469482422 93.5 47.49999618530273 93.5 Z" stroke="none"/>
                                    <path d="M 47.49999618530273 2.999992370605469 C 41.4912109375 2.999992370605469 35.66376495361328 4.1761474609375 30.17950439453125 6.495796203613281 C 24.88084411621094 8.736953735351562 20.12152099609375 11.94598388671875 16.03375244140625 16.03375244140625 C 11.94598388671875 20.12152099609375 8.736953735351562 24.88084411621094 6.495796203613281 30.17950439453125 C 4.1761474609375 35.66376495361328 2.999992370605469 41.4912109375 2.999992370605469 47.49999618530273 C 2.999992370605469 53.50878143310547 4.1761474609375 59.33622741699219 6.495796203613281 64.82048797607422 C 8.736953735351562 70.11914825439453 11.94598388671875 74.87847137451172 16.03375244140625 78.96623992919922 C 20.12152099609375 83.05400848388672 24.88084411621094 86.26304626464844 30.17950439453125 88.50419616699219 C 35.66376495361328 90.82384490966797 41.4912109375 92 47.49999618530273 92 C 53.50878143310547 92 59.33622741699219 90.82384490966797 64.82048797607422 88.50419616699219 C 70.11914825439453 86.26304626464844 74.87847137451172 83.05400848388672 78.96623992919922 78.96623992919922 C 83.05400848388672 74.87847137451172 86.26304626464844 70.11914825439453 88.50419616699219 64.82048797607422 C 90.82384490966797 59.33622741699219 92 53.50878143310547 92 47.49999618530273 C 92 41.4912109375 90.82384490966797 35.66376495361328 88.50419616699219 30.17950439453125 C 86.26304626464844 24.88084411621094 83.05400848388672 20.12152099609375 78.96623992919922 16.03375244140625 C 74.87847137451172 11.94598388671875 70.11914825439453 8.736953735351562 64.82048797607422 6.495796203613281 C 59.33622741699219 4.1761474609375 53.50878143310547 2.999992370605469 47.49999618530273 2.999992370605469 M 47.49999618530273 -7.62939453125e-06 C 73.7335205078125 -7.62939453125e-06 95 21.26647186279297 95 47.49999618530273 C 95 73.7335205078125 73.7335205078125 95 47.49999618530273 95 C 21.26647186279297 95 -7.62939453125e-06 73.7335205078125 -7.62939453125e-06 47.49999618530273 C -7.62939453125e-06 21.26647186279297 21.26647186279297 -7.62939453125e-06 47.49999618530273 -7.62939453125e-06 Z" stroke="none" fill="#f6c810"/>
                                  </g>
                                </g>
                              </g>
                            </g>
                          </g>
                        </g>
                      </g>
                    </g>
                  </g>
                </g>
              </g>
            </g>
          </g>
        </g>
      </g>
    </g>
    <g id="_17-Workflow" data-name="17-Workflow" transform="translate(925 10539)">
      <path id="Trazado_1054906" data-name="Trazado 1054906" d="M15,1V7a2.006,2.006,0,0,1-2,2H7Z" fill="#7e8596"/>
      <path id="Trazado_1054907" data-name="Trazado 1054907" d="M27,11v6a2.006,2.006,0,0,1-2,2H19Z" fill="#afb4c8"/>
      <path id="Trazado_1054908" data-name="Trazado 1054908" d="M45,3v8H27l-8,8V53H9a2.006,2.006,0,0,1-2-2V9h6a2.006,2.006,0,0,0,2-2V1H43a2.006,2.006,0,0,1,2,2Z" fill="#cdd2e1"/>
      <path id="Trazado_1054909" data-name="Trazado 1054909" d="M57,13V61a2.006,2.006,0,0,1-2,2H21a2.006,2.006,0,0,1-2-2V19h6a2.006,2.006,0,0,0,2-2V11H55A2.006,2.006,0,0,1,57,13Z" fill="#e9edf5"/>
      <path id="Trazado_1054910" data-name="Trazado 1054910" d="M53.07,49v4H51.78a6.77,6.77,0,0,1-.55,1.33l.91.91-2.83,2.83-.91-.91a6.77,6.77,0,0,1-1.33.55V59h-4V57.71a6.77,6.77,0,0,1-1.33-.55l-.91.91L38,55.24l.91-.91A6.77,6.77,0,0,1,38.36,53H37.07V49h1.29a6.77,6.77,0,0,1,.55-1.33L38,46.76l2.83-2.83.91.91a6.77,6.77,0,0,1,1.33-.55V43h4v1.29a6.77,6.77,0,0,1,1.33.55l.91-.91,2.83,2.83-.91.91A6.77,6.77,0,0,1,51.78,49Zm-5,2a3,3,0,1,0-3,3,3,3,0,0,0,3-3Z" fill="#ffa426"/>
      <path id="Trazado_1054911" data-name="Trazado 1054911" d="M39.07,28v4H37.78a6.77,6.77,0,0,1-.55,1.33l.91.91-2.83,2.83-.91-.91a6.77,6.77,0,0,1-1.33.55V38h-4V36.71a6.77,6.77,0,0,1-1.33-.55l-.91.91L24,34.24l.91-.91A6.77,6.77,0,0,1,24.36,32H23.07V28h1.29a6.77,6.77,0,0,1,.55-1.33L24,25.76l2.83-2.83.91.91a6.77,6.77,0,0,1,1.33-.55V22h4v1.29a6.77,6.77,0,0,1,1.33.55l.91-.91,2.83,2.83-.91.91A6.77,6.77,0,0,1,37.78,28Zm-5,2a3,3,0,1,0-3,3A3,3,0,0,0,34.07,30Z" fill="#19cffc"/>
      <g id="Grupo_1226184" data-name="Grupo 1226184">
        <path id="Trazado_1054912" data-name="Trazado 1054912" d="M10.07,45h2v2h-2Z" fill="#7e8596"/>
        <path id="Trazado_1054913" data-name="Trazado 1054913" d="M14.07,45h5v2h-5Z" fill="#7e8596"/>
        <path id="Trazado_1054914" data-name="Trazado 1054914" d="M10.07,41h9v2h-9Z" fill="#7e8596"/>
        <path id="Trazado_1054915" data-name="Trazado 1054915" d="M10.07,37h9v2h-9Z" fill="#7e8596"/>
        <path id="Trazado_1054916" data-name="Trazado 1054916" d="M10.07,33h9v2h-9Z" fill="#7e8596"/>
        <path id="Trazado_1054917" data-name="Trazado 1054917" d="M40.07,4h2V6h-2Z" fill="#7e8596"/>
        <path id="Trazado_1054918" data-name="Trazado 1054918" d="M26.07,4h12V6h-12Z" fill="#7e8596"/>
      </g>
      <path id="Trazado_1054919" data-name="Trazado 1054919" d="M51.363,36.293,50.07,37.586V30a1,1,0,0,0-1-1h-7v2h6v6.586l-1.293-1.293-1.414,1.414,3,3,.006-.006a.985.985,0,0,0,1.408.006l3-3Z" fill="#ff7d81"/>
      <path id="Trazado_1054920" data-name="Trazado 1054920" d="M28.07,45.414l1.293,1.293,1.414-1.414-3-3-.006.006a.974.974,0,0,0-1.408-.006l-3,3,1.414,1.414,1.293-1.293V53a1,1,0,0,0,1,1h7V52h-6Z" fill="#ff7d81"/>
      <path id="Trazado_1054921" data-name="Trazado 1054921" d="M55,10H46V3a3,3,0,0,0-3-3H15a1,1,0,0,0-.707.293l-8,8A1,1,0,0,0,6,9V51a3,3,0,0,0,3,3h9v7a3,3,0,0,0,3,3H55a3,3,0,0,0,3-3V13A3,3,0,0,0,55,10ZM14,3.414V7a1,1,0,0,1-1,1H9.414ZM9,52a1,1,0,0,1-1-1V10h5a3,3,0,0,0,3-3V2H43a1,1,0,0,1,1,1v7H27a1,1,0,0,0-.707.293l-8,8A1,1,0,0,0,18,19V33H10v2h8v2H10v2h8v2H10v2h8v2H14v2h4v5ZM26,13.414V17a1,1,0,0,1-1,1H21.414ZM56,61a1,1,0,0,1-1,1H21a1,1,0,0,1-1-1V20h5a3,3,0,0,0,3-3V12H55a1,1,0,0,1,1,1Z"/>
      <path id="Trazado_1054922" data-name="Trazado 1054922" d="M10,45h2v2H10Z"/>
      <path id="Trazado_1054923" data-name="Trazado 1054923" d="M40,4h2V6H40Z"/>
      <path id="Trazado_1054924" data-name="Trazado 1054924" d="M26,4H38V6H26Z"/>
      <path id="Trazado_1054925" data-name="Trazado 1054925" d="M39.071,34.242a1,1,0,0,0-.293-.707l-.413-.413c.018-.04.034-.081.051-.122H39a1,1,0,0,0,1-1V28a1,1,0,0,0-1-1h-.584l-.051-.123.413-.412a1,1,0,0,0,0-1.415l-2.829-2.828a1,1,0,0,0-1.414,0l-.413.413L34,22.584V22a1,1,0,0,0-1-1H29a1,1,0,0,0-1,1v.584l-.122.051-.413-.413a1,1,0,0,0-1.414,0L23.222,25.05a1,1,0,0,0,0,1.415l.413.412L23.584,27H23a1,1,0,0,0-1,1v4a1,1,0,0,0,1,1h.584c.017.041.033.082.051.122l-.413.413a1,1,0,0,0,0,1.414l2.829,2.829a1.029,1.029,0,0,0,1.414,0l.413-.413c.04.018.081.034.122.051V38a1,1,0,0,0,1,1h4a1,1,0,0,0,1-1v-.584c.041-.017.082-.033.122-.051l.413.413a1,1,0,0,0,1.414,0l2.829-2.829A1,1,0,0,0,39.071,34.242ZM38,31h-.294a1,1,0,0,0-.958.714,5.967,5.967,0,0,1-.469,1.139,1,1,0,0,0,.172,1.184l.2.2-1.414,1.414-.2-.2a1,1,0,0,0-1.184-.172,5.967,5.967,0,0,1-1.139.469,1,1,0,0,0-.714.958V37H30v-.294a1,1,0,0,0-.714-.958,5.967,5.967,0,0,1-1.139-.469,1,1,0,0,0-1.184.172l-.2.2-1.414-1.414.2-.2a1,1,0,0,0,.172-1.184,5.967,5.967,0,0,1-.469-1.139A1,1,0,0,0,24.294,31H24V29h.294a1,1,0,0,0,.958-.714,5.967,5.967,0,0,1,.469-1.139,1,1,0,0,0-.172-1.185l-.206-.2,1.415-1.414.2.2a1,1,0,0,0,1.183.173,5.987,5.987,0,0,1,1.139-.469A1,1,0,0,0,30,23.294V23h2v.294a1,1,0,0,0,.715.958,5.987,5.987,0,0,1,1.139.469,1,1,0,0,0,1.183-.173l.2-.2,1.415,1.414-.206.2a1,1,0,0,0-.172,1.185,5.967,5.967,0,0,1,.469,1.139A1,1,0,0,0,37.7,29H38Z"/>
      <path id="Trazado_1054926" data-name="Trazado 1054926" d="M31,26a4,4,0,1,0,4,4A4,4,0,0,0,31,26Zm0,6a2,2,0,1,1,2-2A2,2,0,0,1,31,32Z"/>
      <path id="Trazado_1054927" data-name="Trazado 1054927" d="M53,48h-.584c-.017-.041-.033-.082-.051-.122l.413-.413a1,1,0,0,0,0-1.414l-2.829-2.829a1.03,1.03,0,0,0-1.414,0l-.413.413c-.04-.018-.081-.034-.122-.051V43a1,1,0,0,0-1-1H43a1,1,0,0,0-1,1v.584c-.041.017-.082.033-.122.051l-.413-.413a1,1,0,0,0-1.414,0l-2.829,2.829a1,1,0,0,0,0,1.414l.413.413c-.018.04-.034.081-.051.122H37a1,1,0,0,0-1,1v4a1,1,0,0,0,1,1h.584c.017.041.033.082.051.122l-.413.413a1,1,0,0,0,0,1.414l2.829,2.829a1.029,1.029,0,0,0,1.414,0l.413-.413c.04.018.081.034.122.051V59a1,1,0,0,0,1,1h4a1,1,0,0,0,1-1v-.584c.041-.017.082-.033.122-.051l.413.413a1,1,0,0,0,1.414,0l2.829-2.829a1,1,0,0,0,0-1.414l-.413-.413c.018-.04.034-.081.051-.122H53a1,1,0,0,0,1-1V49A1,1,0,0,0,53,48Zm-1,4h-.294a1,1,0,0,0-.958.714,5.967,5.967,0,0,1-.469,1.139,1,1,0,0,0,.172,1.184l.2.2-1.414,1.414-.2-.2a1,1,0,0,0-1.184-.172,5.967,5.967,0,0,1-1.139.469,1,1,0,0,0-.714.958V58H44v-.294a1,1,0,0,0-.714-.958,5.967,5.967,0,0,1-1.139-.469,1,1,0,0,0-1.184.172l-.2.2-1.414-1.414.2-.2a1,1,0,0,0,.172-1.184,5.967,5.967,0,0,1-.469-1.139A1,1,0,0,0,38.294,52H38V50h.294a1,1,0,0,0,.958-.714,5.967,5.967,0,0,1,.469-1.139,1,1,0,0,0-.172-1.184l-.2-.2,1.414-1.414.2.2a1,1,0,0,0,1.184.172,5.966,5.966,0,0,1,1.139-.469A1,1,0,0,0,44,44.294V44h2v.294a1,1,0,0,0,.714.958,5.967,5.967,0,0,1,1.139.469,1,1,0,0,0,1.184-.172l.2-.2,1.414,1.414-.2.2a1,1,0,0,0-.172,1.184,5.967,5.967,0,0,1,.469,1.139,1,1,0,0,0,.958.714H52Z"/>
      <path id="Trazado_1054928" data-name="Trazado 1054928" d="M45,47a4,4,0,1,0,4,4A4,4,0,0,0,45,47Zm0,6a2,2,0,1,1,2-2A2,2,0,0,1,45,53Z"/>
      <path id="Trazado_1054929" data-name="Trazado 1054929" d="M48,37.586l-1.293-1.293-1.414,1.414,3,3L48.3,40.7a.985.985,0,0,0,1.408.006l3-3-1.414-1.414L50,37.586V30a1,1,0,0,0-1-1H42v2h6Z"/>
      <path id="Trazado_1054930" data-name="Trazado 1054930" d="M28,45.414l1.293,1.293,1.414-1.414-3-3L27.7,42.3a.974.974,0,0,0-1.408-.006l-3,3,1.414,1.414L26,45.414V53a1,1,0,0,0,1,1h7V52H28Z"/>
    </g>
  </g>
</svg>
