<svg xmlns="http://www.w3.org/2000/svg" xmlns:xlink="http://www.w3.org/1999/xlink" width="113" height="113" viewBox="0 0 113 113">
  <defs>
    <filter id="Trazado_982547" x="0" y="0" width="113" height="113" filterUnits="userSpaceOnUse">
      <feOffset dy="3" input="SourceAlpha"/>
      <feGaussianBlur stdDeviation="3" result="blur"/>
      <feFlood flood-opacity="0.161"/>
      <feComposite operator="in" in2="blur"/>
      <feComposite in="SourceGraphic"/>
    </filter>
  </defs>
  <g id="Grupo_1226191" data-name="Grupo 1226191" transform="translate(-743.5 -2067.296)">
    <g id="Grupo_1226085" data-name="Grupo 1226085" transform="translate(752.5 2073.296)">
      <g id="Grupo_1225173" data-name="Grupo 1225173">
        <g id="Grupo_1224643" data-name="Grupo 1224643">
          <g id="Grupo_1224291" data-name="Grupo 1224291">
            <g id="Grupo_1224091" data-name="Grupo 1224091">
              <g id="Grupo_1223183" data-name="Grupo 1223183" transform="translate(0)">
                <g id="Grupo_1211217" data-name="Grupo 1211217">
                  <g id="Grupo_1210736" data-name="Grupo 1210736">
                    <g id="Grupo_1210537" data-name="Grupo 1210537">
                      <g id="Grupo_1164202" data-name="Grupo 1164202">
                        <g id="Grupo_1158168" data-name="Grupo 1158168">
                          <g id="Grupo_1152576" data-name="Grupo 1152576">
                            <g id="Grupo_1148633" data-name="Grupo 1148633">
                              <g id="Grupo_1148525" data-name="Grupo 1148525">
                                <g transform="matrix(1, 0, 0, 1, -9, -6)" filter="url(#Trazado_982547)">
                                  <g id="Trazado_982547-2" data-name="Trazado 982547" transform="translate(9 6)" fill="#fdfbec">
                                    <path d="M 47.49999618530273 93.5 C 41.28936767578125 93.5 35.26533126831055 92.28396606445312 29.59518241882324 89.88570404052734 C 24.11771583557129 87.56893157958984 19.19812965393066 84.251953125 14.97308921813965 80.02690124511719 C 10.74803638458252 75.80186462402344 7.431062698364258 70.88227844238281 5.114289283752441 65.40480804443359 C 2.716022968292236 59.73466110229492 1.499996185302734 53.71062469482422 1.499996185302734 47.49999618530273 C 1.499996185302734 41.28936767578125 2.716022968292236 35.26533126831055 5.114289283752441 29.59518241882324 C 7.431062698364258 24.11771583557129 10.74803638458252 19.19812965393066 14.97308921813965 14.97308921813965 C 19.19812965393066 10.74803638458252 24.11771583557129 7.431062698364258 29.59518241882324 5.114289283752441 C 35.26533126831055 2.716022968292236 41.28936767578125 1.499996185302734 47.49999618530273 1.499996185302734 C 53.71062469482422 1.499996185302734 59.73466110229492 2.716022968292236 65.40480804443359 5.114289283752441 C 70.88227844238281 7.431062698364258 75.80186462402344 10.74803638458252 80.02690124511719 14.97308921813965 C 84.251953125 19.19812965393066 87.56893157958984 24.11771583557129 89.88570404052734 29.59518241882324 C 92.28396606445312 35.26533126831055 93.5 41.28936767578125 93.5 47.49999618530273 C 93.5 53.71062469482422 92.28396606445312 59.73466110229492 89.88570404052734 65.40480804443359 C 87.56893157958984 70.88227844238281 84.251953125 75.80186462402344 80.02690124511719 80.02690124511719 C 75.80186462402344 84.251953125 70.88227844238281 87.56893157958984 65.40480804443359 89.88570404052734 C 59.73466110229492 92.28396606445312 53.71062469482422 93.5 47.49999618530273 93.5 Z" stroke="none"/>
                                    <path d="M 47.49999618530273 2.999992370605469 C 41.4912109375 2.999992370605469 35.66376495361328 4.1761474609375 30.17950439453125 6.495796203613281 C 24.88084411621094 8.736953735351562 20.12152099609375 11.94598388671875 16.03375244140625 16.03375244140625 C 11.94598388671875 20.12152099609375 8.736953735351562 24.88084411621094 6.495796203613281 30.17950439453125 C 4.1761474609375 35.66376495361328 2.999992370605469 41.4912109375 2.999992370605469 47.49999618530273 C 2.999992370605469 53.50878143310547 4.1761474609375 59.33622741699219 6.495796203613281 64.82048797607422 C 8.736953735351562 70.11914825439453 11.94598388671875 74.87847137451172 16.03375244140625 78.96623992919922 C 20.12152099609375 83.05400848388672 24.88084411621094 86.26304626464844 30.17950439453125 88.50419616699219 C 35.66376495361328 90.82384490966797 41.4912109375 92 47.49999618530273 92 C 53.50878143310547 92 59.33622741699219 90.82384490966797 64.82048797607422 88.50419616699219 C 70.11914825439453 86.26304626464844 74.87847137451172 83.05400848388672 78.96623992919922 78.96623992919922 C 83.05400848388672 74.87847137451172 86.26304626464844 70.11914825439453 88.50419616699219 64.82048797607422 C 90.82384490966797 59.33622741699219 92 53.50878143310547 92 47.49999618530273 C 92 41.4912109375 90.82384490966797 35.66376495361328 88.50419616699219 30.17950439453125 C 86.26304626464844 24.88084411621094 83.05400848388672 20.12152099609375 78.96623992919922 16.03375244140625 C 74.87847137451172 11.94598388671875 70.11914825439453 8.736953735351562 64.82048797607422 6.495796203613281 C 59.33622741699219 4.1761474609375 53.50878143310547 2.999992370605469 47.49999618530273 2.999992370605469 M 47.49999618530273 -7.62939453125e-06 C 73.7335205078125 -7.62939453125e-06 95 21.26647186279297 95 47.49999618530273 C 95 73.7335205078125 73.7335205078125 95 47.49999618530273 95 C 21.26647186279297 95 -7.62939453125e-06 73.7335205078125 -7.62939453125e-06 47.49999618530273 C -7.62939453125e-06 21.26647186279297 21.26647186279297 -7.62939453125e-06 47.49999618530273 -7.62939453125e-06 Z" stroke="none" fill="#83793c"/>
                                  </g>
                                </g>
                              </g>
                            </g>
                          </g>
                        </g>
                      </g>
                    </g>
                  </g>
                </g>
              </g>
            </g>
          </g>
        </g>
      </g>
    </g>
    <g id="Layer_x0020_1" transform="translate(767.548 2093.369)">
      <path id="Trazado_1054957" data-name="Trazado 1054957" d="M19.95,31.7H4.264A3.168,3.168,0,0,1,1.1,28.536V3.893A3.169,3.169,0,0,1,4.264.728H19.951a3.169,3.169,0,0,1,3.165,3.165V28.537A3.169,3.169,0,0,1,19.95,31.7ZM4.264,2.178A1.716,1.716,0,0,0,2.55,3.893V28.537a1.716,1.716,0,0,0,1.714,1.714H19.951a1.716,1.716,0,0,0,1.714-1.714V3.893a1.717,1.717,0,0,0-1.714-1.715Z" transform="translate(38.771 21.249)" fill-rule="evenodd"/>
      <path id="Trazado_1054958" data-name="Trazado 1054958" d="M22.39,2.325H1.825a.725.725,0,0,1,0-1.45H22.39a.725.725,0,1,1,0,1.45Z" transform="translate(38.771 26.443)" fill-rule="evenodd"/>
      <path id="Trazado_1054959" data-name="Trazado 1054959" d="M22.39,2.845H1.825a.725.725,0,0,1,0-1.45H22.39a.725.725,0,1,1,0,1.45Z" transform="translate(38.771 44.765)" fill-rule="evenodd"/>
      <path id="Trazado_1054960" data-name="Trazado 1054960" d="M3.007,6.155A1.638,1.638,0,0,1,2.1,5.883a.725.725,0,0,1,.8-1.21.205.205,0,0,0,.3-.167.354.354,0,0,0-.014-.125c-.032-.017-.225-.062-.351-.093A1.617,1.617,0,0,1,1.358,2.659,1.648,1.648,0,0,1,3.912,1.282a.725.725,0,1,1-.8,1.211.205.205,0,0,0-.306.167.354.354,0,0,0,.014.125c.032.017.225.062.351.093A1.617,1.617,0,0,1,4.655,4.507,1.65,1.65,0,0,1,3.007,6.155Z" transform="translate(47.872 31.223)" fill-rule="evenodd"/>
      <path id="Trazado_1054961" data-name="Trazado 1054961" d="M2.108,3.153a.726.726,0,0,1-.725-.725V1.716a.725.725,0,1,1,1.451,0v.712A.725.725,0,0,1,2.108,3.153Z" transform="translate(48.77 30.53)" fill-rule="evenodd"/>
      <path id="Trazado_1054962" data-name="Trazado 1054962" d="M2.108,3.275a.726.726,0,0,1-.725-.725V1.838a.725.725,0,1,1,1.451,0V2.55A.726.726,0,0,1,2.108,3.275Z" transform="translate(48.77 34.816)" fill-rule="evenodd"/>
      <path id="Trazado_1054963" data-name="Trazado 1054963" d="M6.47,11.358a5.21,5.21,0,1,1,5.211-5.211A5.217,5.217,0,0,1,6.47,11.358Zm0-8.97a3.759,3.759,0,1,0,3.76,3.759A3.764,3.764,0,0,0,6.47,2.389Z" transform="translate(44.409 28.657)" fill-rule="evenodd"/>
      <path id="Trazado_1054964" data-name="Trazado 1054964" d="M14.769,2.7H5.639a.725.725,0,0,1,0-1.451h9.129a.725.725,0,1,1,0,1.451ZM3.393,2.7H1.931a.725.725,0,1,1,0-1.451H3.393a.725.725,0,0,1,0,1.451Z" transform="translate(42.529 39.576)" fill-rule="evenodd"/>
      <path id="Trazado_1054965" data-name="Trazado 1054965" d="M14.769,2.782H13.038a.725.725,0,0,1,0-1.451h1.731a.725.725,0,1,1,0,1.451Zm-3.656,0H1.931a.725.725,0,0,1,0-1.451h9.182a.725.725,0,0,1,0,1.451Z" transform="translate(42.529 42.55)" fill-rule="evenodd"/>
      <path id="Trazado_1054966" data-name="Trazado 1054966" d="M15.991,15.551a.726.726,0,0,1-.725-.725V1.7H1.722a.725.725,0,0,1,0-1.451H15.991a.726.726,0,0,1,.725.725v13.85A.725.725,0,0,1,15.991,15.551Z" transform="translate(35.155 4.453)" fill-rule="evenodd"/>
      <path id="Trazado_1054967" data-name="Trazado 1054967" d="M6.271,7.176a.723.723,0,0,1-.562-.267L1.436,1.672A.725.725,0,0,1,2.559.755L6.271,5.3,9.983.756a.725.725,0,0,1,1.123.917L6.833,6.91a.723.723,0,0,1-.561.266Z" transform="translate(44.875 12.828)" fill-rule="evenodd"/>
      <path id="Trazado_1054968" data-name="Trazado 1054968" d="M16.983,17.913H1.175a.726.726,0,0,1-.725-.725V1.844a.725.725,0,1,1,1.45,0V16.462H16.983a.726.726,0,0,1,0,1.451Z" transform="translate(15.855 35.038)" fill-rule="evenodd"/>
      <path id="Trazado_1054969" data-name="Trazado 1054969" d="M10.515,8.372A.727.727,0,0,1,9.952,8.1L5.779,2.991,1.606,8.1A.725.725,0,0,1,.483,7.188l4.735-5.8a.725.725,0,0,1,1.124,0l4.735,5.8a.726.726,0,0,1-.562,1.184Z" transform="translate(11.25 35.038)" fill-rule="evenodd"/>
      <path id="Trazado_1054970" data-name="Trazado 1054970" d="M6.571,2.919H2.046a.725.725,0,0,1,0-1.451H6.571a.725.725,0,0,1,0,1.451Z" transform="translate(46.57 47.362)" fill-rule="evenodd"/>
      <path id="Trazado_1054971" data-name="Trazado 1054971" d="M6.571,2.252H2.046a.725.725,0,1,1,0-1.45H6.571a.725.725,0,1,1,0,1.45Z" transform="translate(46.57 23.846)" fill-rule="evenodd"/>
      <path id="Trazado_1054972" data-name="Trazado 1054972" d="M32.684,2.115H.725a.725.725,0,1,1,0-1.451H32.684a.725.725,0,0,1,0,1.451Z" transform="translate(0 19.012)" fill-rule="evenodd"/>
      <path id="Trazado_1054973" data-name="Trazado 1054973" d="M7.965,7.053H1.071a.726.726,0,0,1-.725-.725V1.505A.726.726,0,0,1,1.071.78H7.965a.726.726,0,0,1,.725.725V6.328A.725.725,0,0,1,7.965,7.053ZM1.8,5.6H7.24V2.23H1.8Z" transform="translate(12.187 23.103)" fill-rule="evenodd"/>
      <path id="Trazado_1054974" data-name="Trazado 1054974" d="M18.124,5.757H.929A.726.726,0,0,1,.2,5.032V1.638A.726.726,0,0,1,.929.913h17.2a.726.726,0,0,1,.725.725V5.032A.725.725,0,0,1,18.124,5.757ZM1.654,4.306H17.4V2.364H1.654Z" transform="translate(7.179 27.792)" fill-rule="evenodd"/>
      <path id="Trazado_1054975" data-name="Trazado 1054975" d="M2.524,6.513a1.9,1.9,0,0,1-1.5-.724.725.725,0,1,1,1.137-.9A.458.458,0,0,0,2.982,4.6c0-.3,0-.328-.626-.477A1.851,1.851,0,0,1,.617,2.238a1.908,1.908,0,0,1,3.4-1.185.725.725,0,0,1-1.137.9.458.458,0,0,0-.817.284c0,.3,0,.328.625.477A1.851,1.851,0,0,1,4.433,4.6,1.911,1.911,0,0,1,2.524,6.513Z" transform="translate(21.742 7.205)" fill-rule="evenodd"/>
      <path id="Trazado_1054976" data-name="Trazado 1054976" d="M1.374,2.667a.725.725,0,0,1-.725-.725V1.029a.725.725,0,1,1,1.451,0v.913A.725.725,0,0,1,1.374,2.667Z" transform="translate(22.892 6.318)" fill-rule="evenodd"/>
      <path id="Trazado_1054977" data-name="Trazado 1054977" d="M1.374,2.822A.726.726,0,0,1,.649,2.1V1.185a.725.725,0,1,1,1.451,0V2.1A.725.725,0,0,1,1.374,2.822Z" transform="translate(22.892 11.807)" fill-rule="evenodd"/>
      <path id="Trazado_1054978" data-name="Trazado 1054978" d="M6.714,12.676A6.216,6.216,0,1,1,12.931,6.46,6.223,6.223,0,0,1,6.714,12.676Zm0-10.982A4.766,4.766,0,1,0,11.48,6.46,4.771,4.771,0,0,0,6.714,1.694Z" transform="translate(17.552 4.167)" fill-rule="evenodd"/>
      <path id="Trazado_1054979" data-name="Trazado 1054979" d="M13.643,1.679h-1.73a.725.725,0,0,1,0-1.45h1.73a.725.725,0,1,1,0,1.45Zm-3.655,0H.806a.725.725,0,0,1,0-1.45H9.988a.725.725,0,1,1,0,1.45Z" transform="translate(2.847 3.644)" fill-rule="evenodd"/>
      <path id="Trazado_1054980" data-name="Trazado 1054980" d="M13.643,1.79H7.67a.725.725,0,0,1,0-1.451h5.973a.725.725,0,1,1,0,1.451Zm-8.077,0H.806a.725.725,0,0,1,0-1.451h4.76a.725.725,0,0,1,0,1.451Z" transform="translate(2.847 7.552)" fill-rule="evenodd"/>
      <path id="Trazado_1054981" data-name="Trazado 1054981" d="M13.643,1.9H4.515a.725.725,0,0,1,0-1.451h9.129a.725.725,0,1,1,0,1.451ZM2.268,1.9H.806A.725.725,0,1,1,.806.45H2.268a.725.725,0,0,1,0,1.451Z" transform="translate(2.846 11.46)" fill-rule="evenodd"/>
      <path id="Trazado_1054982" data-name="Trazado 1054982" d="M13.643,2.011h-1.73a.725.725,0,0,1,0-1.451h1.73a.725.725,0,1,1,0,1.451Zm-3.655,0H.806a.725.725,0,0,1,0-1.451H9.988a.725.725,0,1,1,0,1.451Z" transform="translate(2.847 15.368)" fill-rule="evenodd"/>
      <path id="Trazado_1054983" data-name="Trazado 1054983" d="M5.629,2.173H1.1a.725.725,0,1,1,0-1.45H5.629a.725.725,0,0,1,0,1.45Z" transform="translate(13.339 21.058)" fill-rule="evenodd"/>
      <path id="Trazado_1054984" data-name="Trazado 1054984" d="M18.283,2.082a.725.725,0,0,1-.725.725H13.032a.725.725,0,1,1,0-1.45h4.525A.725.725,0,0,1,18.283,2.082Zm.459,1.378H30a.548.548,0,0,0,.547-.547V.7H.04V2.912a.548.548,0,0,0,.548.547H18.742Z" transform="translate(1.41 20.423)" fill="#7ca1b1" fill-rule="evenodd"/>
      <path id="Trazado_1054985" data-name="Trazado 1054985" d="M.04,18.266H30.548V.712A.548.548,0,0,0,30,.165H.588A.548.548,0,0,0,.04.712V18.266Zm15.04-2.3h-1.73a.725.725,0,0,1,0-1.451h1.73a.725.725,0,1,1,0,1.451Zm-3.655,0H2.242a.725.725,0,0,1,0-1.451h9.182a.725.725,0,1,1,0,1.451ZM29.073,9.216A6.216,6.216,0,1,1,22.856,3,6.224,6.224,0,0,1,29.073,9.216ZM15.08,11.95H5.951a.725.725,0,0,1,0-1.451H15.08a.725.725,0,0,1,0,1.451ZM3.7,11.95H2.242a.725.725,0,0,1,0-1.451H3.7a.725.725,0,0,1,0,1.451ZM15.08,7.932H9.106a.725.725,0,0,1,0-1.451H15.08a.725.725,0,0,1,0,1.451ZM7,7.932H2.242a.725.725,0,0,1,0-1.451H7A.725.725,0,0,1,7,7.932ZM15.08,3.912h-1.73a.725.725,0,0,1,0-1.45h1.73a.725.725,0,1,1,0,1.45Zm-3.655,0H2.242a.725.725,0,0,1,0-1.45h9.182a.725.725,0,1,1,0,1.45Z" transform="translate(1.41 1.411)" fill="#fff" fill-rule="evenodd"/>
      <path id="Trazado_1054986" data-name="Trazado 1054986" d="M1.14,2.482V4.659H20.254V2.482A1.717,1.717,0,0,0,18.54.768H2.853A1.716,1.716,0,0,0,1.14,2.482Zm7.294.955a.725.725,0,1,1,0-1.45h4.525a.725.725,0,1,1,0,1.45Z" transform="translate(40.182 22.66)" fill="#7ca1b1" fill-rule="evenodd"/>
      <path id="Trazado_1054987" data-name="Trazado 1054987" d="M20.254.915H1.14V18.305H20.254ZM5.486,6.952A5.211,5.211,0,1,1,10.7,12.162,5.217,5.217,0,0,1,5.486,6.952Zm2.5,6.018h9.129a.725.725,0,1,1,0,1.451H7.986a.725.725,0,0,1,0-1.451Zm6.674,3.783a.726.726,0,0,1,.725-.725h1.731a.725.725,0,0,1,0,1.451H15.385A.726.726,0,0,1,14.66,16.753ZM4.278,16.028h9.182a.725.725,0,1,1,0,1.451H4.278a.725.725,0,1,1,0-1.451Zm0-3.058H5.739a.725.725,0,1,1,0,1.451H4.278a.725.725,0,1,1,0-1.451Z" transform="translate(40.182 27.854)" fill="#fff" fill-rule="evenodd"/>
      <path id="Trazado_1054988" data-name="Trazado 1054988" d="M8.819,4.737A3.76,3.76,0,1,0,5.059,8.5,3.764,3.764,0,0,0,8.819,4.737ZM6.171,3.44a.725.725,0,0,1-1,.206.205.205,0,0,0-.306.167.354.354,0,0,0,.014.125c.032.017.225.062.351.093A1.617,1.617,0,0,1,6.708,5.661a1.649,1.649,0,0,1-.923,1.48V7.3a.725.725,0,1,1-1.451,0V7.141a1.65,1.65,0,0,1-.181-.1.725.725,0,1,1,.8-1.21.205.205,0,0,0,.3-.167.354.354,0,0,0-.014-.125c-.032-.017-.225-.062-.351-.093A1.617,1.617,0,0,1,3.41,3.813a1.651,1.651,0,0,1,.924-1.481V2.178a.725.725,0,0,1,1.451,0v.155a1.633,1.633,0,0,1,.181.1.725.725,0,0,1,.207,1Z" transform="translate(45.82 30.069)" fill="#ffcf00" fill-rule="evenodd"/>
      <path id="Trazado_1054989" data-name="Trazado 1054989" d="M20.254,1.434H1.14V3.611A1.716,1.716,0,0,0,2.853,5.325H18.54a1.716,1.716,0,0,0,1.714-1.714V1.434ZM13.684,3.38a.726.726,0,0,1-.725.725H8.434a.725.725,0,1,1,0-1.451h4.525A.726.726,0,0,1,13.684,3.38Z" transform="translate(40.182 46.175)" fill="#7ca1b1" fill-rule="evenodd"/>
      <path id="Trazado_1054990" data-name="Trazado 1054990" d="M5.3,9.815A4.766,4.766,0,1,0,.538,5.049,4.771,4.771,0,0,0,5.3,9.815ZM6.029,8v.33a.725.725,0,1,1-1.451,0V8a1.906,1.906,0,0,1-.771-.582.725.725,0,1,1,1.137-.9.458.458,0,0,0,.817-.284c0-.3,0-.328-.626-.477A1.851,1.851,0,0,1,3.4,3.866,1.912,1.912,0,0,1,4.578,2.1V1.77a.725.725,0,1,1,1.451,0V2.1a1.9,1.9,0,0,1,.772.582.725.725,0,0,1-1.137.9.455.455,0,0,0-.338-.174H5.282a.458.458,0,0,0-.435.458c0,.3,0,.328.625.477a1.851,1.851,0,0,1,1.74,1.889A1.913,1.913,0,0,1,6.029,8Z" transform="translate(18.963 5.577)" fill="#ffcf00" fill-rule="evenodd"/>
      <path id="Trazado_1054991" data-name="Trazado 1054991" d="M5.829,4.192V.82H.386V4.192Z" transform="translate(13.598 24.513)" fill="#678d98" fill-rule="evenodd"/>
      <path id="Trazado_1054992" data-name="Trazado 1054992" d="M15.988.953H.244V2.9H15.988V.953Z" transform="translate(8.589 29.202)" fill="#7ca1b1" fill-rule="evenodd"/>
      <path id="Trazado_1054993" data-name="Trazado 1054993" d="M31.412,25.333H2a2,2,0,0,1-2-2V2.123a2,2,0,0,1,2-2H31.412a2,2,0,0,1,2,2V23.335a2,2,0,0,1-2,2ZM2,1.575a.548.548,0,0,0-.548.547V23.335A.548.548,0,0,0,2,23.882H31.412a.548.548,0,0,0,.547-.547V2.123a.548.548,0,0,0-.547-.547H2Z" transform="translate(0 0)" fill-rule="evenodd"/>
    </g>
  </g>
</svg>
