<svg xmlns="http://www.w3.org/2000/svg" xmlns:xlink="http://www.w3.org/1999/xlink" width="113" height="113" viewBox="0 0 113 113">
  <defs>
    <filter id="Trazado_982547" x="0" y="0" width="113" height="113" filterUnits="userSpaceOnUse">
      <feOffset dy="3" input="SourceAlpha"/>
      <feGaussianBlur stdDeviation="3" result="blur"/>
      <feFlood flood-opacity="0.161"/>
      <feComposite operator="in" in2="blur"/>
      <feComposite in="SourceGraphic"/>
    </filter>
  </defs>
  <g id="Grupo_1226207" data-name="Grupo 1226207" transform="translate(-813 -1262)">
    <g id="Grupo_1225546" data-name="Grupo 1225546" transform="translate(822 1268)">
      <g id="Grupo_1225264" data-name="Grupo 1225264" transform="translate(0 0)">
        <g id="Grupo_1224575" data-name="Grupo 1224575">
          <g id="Grupo_1224449" data-name="Grupo 1224449" transform="translate(0)">
            <g id="Grupo_1224084" data-name="Grupo 1224084">
              <g id="Grupo_1223183" data-name="Grupo 1223183">
                <g id="Grupo_1211217" data-name="Grupo 1211217">
                  <g id="Grupo_1210736" data-name="Grupo 1210736">
                    <g id="Grupo_1210537" data-name="Grupo 1210537">
                      <g id="Grupo_1164202" data-name="Grupo 1164202">
                        <g id="Grupo_1158168" data-name="Grupo 1158168">
                          <g id="Grupo_1152576" data-name="Grupo 1152576">
                            <g id="Grupo_1148633" data-name="Grupo 1148633">
                              <g id="Grupo_1148525" data-name="Grupo 1148525">
                                <g transform="matrix(1, 0, 0, 1, -9, -6)" filter="url(#Trazado_982547)">
                                  <g id="Trazado_982547-2" data-name="Trazado 982547" transform="translate(9 6)" fill="#fef9e5">
                                    <path d="M 47.49999237060547 93.49999237060547 C 41.28937911987305 93.49999237060547 35.26532745361328 92.28396606445312 29.59519195556641 89.88569641113281 C 24.11772537231445 87.56892395019531 19.19813919067383 84.251953125 14.97309875488281 80.02690124511719 C 10.74804592132568 75.80185699462891 7.431072235107422 70.88227081298828 5.114298820495605 65.40480804443359 C 2.716032266616821 59.73465728759766 1.500005722045898 53.71060562133789 1.500005722045898 47.49999237060547 C 1.500005722045898 41.28937911987305 2.716032266616821 35.26532745361328 5.114298820495605 29.59517860412598 C 7.431072235107422 24.11771202087402 10.74804592132568 19.1981258392334 14.97309875488281 14.97308540344238 C 19.19813919067383 10.74804592132568 24.11772537231445 7.431072235107422 29.59519195556641 5.114298820495605 C 35.26532745361328 2.716032266616821 41.28937911987305 1.500005722045898 47.49999237060547 1.500005722045898 C 53.71062088012695 1.500005722045898 59.73465728759766 2.716032266616821 65.40480804443359 5.114298820495605 C 70.88227081298828 7.431072235107422 75.80185699462891 10.74804592132568 80.02690124511719 14.97308540344238 C 84.251953125 19.1981258392334 87.56892395019531 24.11771202087402 89.88569641113281 29.59517860412598 C 92.28396606445312 35.26532745361328 93.49999237060547 41.28937911987305 93.49999237060547 47.49999237060547 C 93.49999237060547 53.71062088012695 92.28396606445312 59.73465728759766 89.88569641113281 65.40480804443359 C 87.56892395019531 70.88227081298828 84.251953125 75.80185699462891 80.02690124511719 80.02690124511719 C 75.80185699462891 84.251953125 70.88227081298828 87.56892395019531 65.40480804443359 89.88569641113281 C 59.73465728759766 92.28396606445312 53.71062088012695 93.49999237060547 47.49999237060547 93.49999237060547 Z" stroke="none"/>
                                    <path d="M 47.49999237060547 2.999992370605469 C 41.49120712280273 2.999992370605469 35.66376113891602 4.1761474609375 30.17951202392578 6.49578857421875 C 24.88083648681641 8.736946105957031 20.12151336669922 11.94597625732422 16.03374481201172 16.03374481201172 C 11.94597625732422 20.12151336669922 8.736946105957031 24.88083648681641 6.49578857421875 30.17949676513672 C 4.1761474609375 35.66376113891602 2.999992370605469 41.49120712280273 2.999992370605469 47.49999237060547 C 2.999992370605469 53.5087776184082 4.1761474609375 59.33622360229492 6.49578857421875 64.82046508789062 C 8.736946105957031 70.11914825439453 11.94597625732422 74.87847137451172 16.03374481201172 78.96623992919922 C 20.12151336669922 83.05400848388672 24.88083648681641 86.26303863525391 30.17951202392578 88.50418090820312 C 35.66376113891602 90.82382202148438 41.49120712280273 91.99997711181641 47.49999237060547 91.99997711181641 C 53.5087776184082 91.99997711181641 59.33622360229492 90.82382202148438 64.82046508789062 88.50418090820312 C 70.11914825439453 86.26303863525391 74.87847137451172 83.05400848388672 78.96623992919922 78.96623992919922 C 83.05400848388672 74.87847137451172 86.26303863525391 70.11914825439453 88.50418090820312 64.82046508789062 C 90.82382202148438 59.33622360229492 91.99997711181641 53.5087776184082 91.99997711181641 47.49999237060547 C 91.99997711181641 41.49120712280273 90.82382202148438 35.66376113891602 88.50418090820312 30.17949676513672 C 86.26303863525391 24.88083648681641 83.05400848388672 20.12151336669922 78.96623992919922 16.03374481201172 C 74.87847137451172 11.94597625732422 70.11914825439453 8.736946105957031 64.82046508789062 6.49578857421875 C 59.33622360229492 4.1761474609375 53.5087776184082 2.999992370605469 47.49999237060547 2.999992370605469 M 47.49999237060547 -7.62939453125e-06 C 73.73351287841797 -7.62939453125e-06 94.99997711181641 21.26647186279297 94.99997711181641 47.49999237060547 C 94.99997711181641 73.73351287841797 73.73351287841797 94.99997711181641 47.49999237060547 94.99997711181641 C 21.26648712158203 94.99997711181641 -7.62939453125e-06 73.73351287841797 -7.62939453125e-06 47.49999237060547 C -7.62939453125e-06 21.26647186279297 21.26648712158203 -7.62939453125e-06 47.49999237060547 -7.62939453125e-06 Z" stroke="none" fill="#f6c810"/>
                                  </g>
                                </g>
                              </g>
                            </g>
                          </g>
                        </g>
                      </g>
                    </g>
                  </g>
                </g>
              </g>
            </g>
          </g>
        </g>
      </g>
    </g>
    <g id="teamwork_17394544" transform="translate(808.036 1247.703)">
      <g id="Grupo_1226206" data-name="Grupo 1226206" transform="translate(27.148 34.821)">
        <path id="Trazado_1055039" data-name="Trazado 1055039" d="M103.426,102.27H107.5a2.166,2.166,0,0,1,2.16,2.165v1.581a2.136,2.136,0,0,0,1.6,2.088,22.036,22.036,0,0,1,5.386,2.232,2.142,2.142,0,0,0,2.613-.346l1.117-1.121a2.168,2.168,0,0,1,3.055,0l2.88,2.88a2.168,2.168,0,0,1,0,3.055l-1.121,1.121a2.137,2.137,0,0,0-.341,2.608,22.408,22.408,0,0,1,2.232,5.386,2.136,2.136,0,0,0,2.088,1.6h1.581a2.166,2.166,0,0,1,2.16,2.165v4.069a2.165,2.165,0,0,1-2.16,2.16h-1.581a2.136,2.136,0,0,0-2.088,1.6,22.394,22.394,0,0,1-2.232,5.386,2.142,2.142,0,0,0,.341,2.613l1.121,1.117a2.174,2.174,0,0,1,0,3.059l-2.876,2.876a2.166,2.166,0,0,1-3.059,0l-1.117-1.121a2.144,2.144,0,0,0-2.613-.341,22.214,22.214,0,0,1-5.386,2.232,2.136,2.136,0,0,0-1.6,2.088v1.581a2.165,2.165,0,0,1-2.16,2.16h-4.069a2.166,2.166,0,0,1-2.165-2.16v-1.578a2.136,2.136,0,0,0-1.6-2.088,22.215,22.215,0,0,1-5.386-2.232,2.135,2.135,0,0,0-2.608.341l-1.121,1.121a2.16,2.16,0,0,1-3.055,0l-2.88-2.876a2.174,2.174,0,0,1,0-3.059l1.121-1.117a2.137,2.137,0,0,0,.341-2.613,22.206,22.206,0,0,1-2.229-5.386,2.14,2.14,0,0,0-2.088-1.6H80.17a2.165,2.165,0,0,1-2.16-2.16V127.69a2.166,2.166,0,0,1,2.16-2.165h1.584a2.14,2.14,0,0,0,2.088-1.6,22.221,22.221,0,0,1,2.229-5.386,2.129,2.129,0,0,0-.341-2.608l-1.121-1.121a2.168,2.168,0,0,1,0-3.055l2.88-2.88a2.168,2.168,0,0,1,3.055,0l1.121,1.121a2.137,2.137,0,0,0,2.608.346,22.037,22.037,0,0,1,5.386-2.232,2.136,2.136,0,0,0,1.6-2.088v-1.581A2.17,2.17,0,0,1,103.426,102.27Z" transform="translate(-71.377 -93.147)" fill="#863d97" fill-rule="evenodd"/>
        <path id="Trazado_1055040" data-name="Trazado 1055040" d="M162.658,102.27h4.069a2.166,2.166,0,0,1,2.16,2.165v1.581a2.136,2.136,0,0,0,1.6,2.088,22.037,22.037,0,0,1,5.386,2.232,2.142,2.142,0,0,0,2.613-.346l1.117-1.121a2.168,2.168,0,0,1,3.055,0l2.88,2.88a2.168,2.168,0,0,1,0,3.055l-1.121,1.121a2.137,2.137,0,0,0-.341,2.608,22.409,22.409,0,0,1,2.232,5.386,2.136,2.136,0,0,0,2.088,1.6h1.581a2.166,2.166,0,0,1,2.16,2.165v4.069a2.165,2.165,0,0,1-2.16,2.16H188.4a2.136,2.136,0,0,0-2.088,1.6,22.153,22.153,0,0,1-1.73,4.462q-1.777.174-3.6.174c-18.365,0-33.254-13.367-33.254-29.854,0-.678.026-1.351.077-2.016a2.175,2.175,0,0,1,1.977.583l1.121,1.121a2.137,2.137,0,0,0,2.608.346,22.036,22.036,0,0,1,5.386-2.232,2.136,2.136,0,0,0,1.6-2.088v-1.581A2.171,2.171,0,0,1,162.658,102.27Z" transform="translate(-130.608 -93.147)" fill="#a773b0" fill-rule="evenodd"/>
        <path id="Trazado_1055041" data-name="Trazado 1055041" d="M170.325,178.61a15.975,15.975,0,1,1-15.975,15.975A15.974,15.974,0,0,1,170.325,178.61Z" transform="translate(-136.242 -158.011)" fill="#11939c" fill-rule="evenodd"/>
        <path id="Trazado_1055042" data-name="Trazado 1055042" d="M191.643,203.69a12.205,12.205,0,1,1-12.2,12.2A12.2,12.2,0,0,1,191.643,203.69Z" transform="translate(-157.56 -179.321)" fill="#2f3660" fill-rule="evenodd"/>
        <path id="Trazado_1055043" data-name="Trazado 1055043" d="M207.613,213.975a12.2,12.2,0,1,1-7.56-2.625A12.146,12.146,0,0,1,207.613,213.975Z" transform="translate(-164.706 -185.829)" fill="#87c3eb" fill-rule="evenodd"/>
        <path id="Trazado_1055044" data-name="Trazado 1055044" d="M191.254,230.577l-.806-1.389a.852.852,0,0,1,.316-1.163l.537-.316a.836.836,0,0,0,.4-.959,8.844,8.844,0,0,1-.3-2.276.835.835,0,0,0-.631-.822l-.606-.162a.859.859,0,0,1-.6-1.043l.418-1.551a.849.849,0,0,1,1.04-.6l.6.162a.847.847,0,0,0,.959-.4,8.678,8.678,0,0,1,1.4-1.823.846.846,0,0,0,.137-1.031l-.311-.537a.85.85,0,0,1,.311-1.163l1.389-.806a.853.853,0,0,1,1.163.316l.311.537a.838.838,0,0,0,.959.4,8.852,8.852,0,0,1,2.28-.3.842.842,0,0,0,.822-.631l.162-.6a.852.852,0,0,1,1.04-.606l1.551.418a.849.849,0,0,1,.6,1.04l-.162.6a.851.851,0,0,0,.4.959,8.875,8.875,0,0,1,1.823,1.4.839.839,0,0,0,1.027.137l.541-.311a.851.851,0,0,1,1.163.311l.8,1.389a.855.855,0,0,1-.311,1.164l-.541.311a.843.843,0,0,0-.4.959,8.853,8.853,0,0,1,.3,2.28.847.847,0,0,0,.631.822l.606.162a.849.849,0,0,1,.6,1.04l-.413,1.551a.855.855,0,0,1-1.043.6l-.6-.158a.837.837,0,0,0-.959.4,8.778,8.778,0,0,1-1.4,1.823.84.84,0,0,0-.132,1.027l.311.541a.855.855,0,0,1-.311,1.163l-1.389.8a.861.861,0,0,1-1.168-.311l-.311-.541a.843.843,0,0,0-.959-.4,8.844,8.844,0,0,1-2.276.3.84.84,0,0,0-.822.631l-.162.606a.855.855,0,0,1-1.043.6l-1.551-.413a.855.855,0,0,1-.6-1.043l.162-.6a.845.845,0,0,0-.4-.959,8.551,8.551,0,0,1-1.823-1.4.852.852,0,0,0-1.031-.132l-.537.311A.855.855,0,0,1,191.254,230.577Z" transform="translate(-166.136 -187.897)" fill="#90278f" fill-rule="evenodd"/>
        <path id="Trazado_1055045" data-name="Trazado 1055045" d="M228.536,259.52a4.922,4.922,0,1,1,6.724,1.8A4.92,4.92,0,0,1,228.536,259.52Z" transform="translate(-198.715 -220.484)" fill="#6fccdd" fill-rule="evenodd"/>
        <path id="Trazado_1055046" data-name="Trazado 1055046" d="M99.089,239.633c1.956.225,2.752-3.119-.592-3.191-2.773-.06-9.392-.737-11.467.1a15.2,15.2,0,0,1-3.9.989l-.251,11.518c.072,0,.149,0,.225,0,4.833.107,4.269,3.17,10.145,3.3-.418-3.106,3.955-2.211,6.366-2.16,1.828.042,1.73-3.477-.086-3.519,1.828.042,1.73-3.477-.086-3.516,1.8.038,1.959-3.474-.356-3.525Z" transform="translate(-75.515 -206.882)" fill="#b89877" fill-rule="evenodd"/>
        <path id="Trazado_1055047" data-name="Trazado 1055047" d="M87.93,270.277c4.266.311,3.962,3.149,9.613,3.273-.418-3.106,3.955-2.211,6.366-2.16,1.828.042,1.73-3.477-.086-3.519,1.828.042,1.73-3.477-.086-3.516,1.424.03,1.819-2.165.776-3.1a16,16,0,0,0-2.041-.174,15.163,15.163,0,0,0-14.542,9.2Z" transform="translate(-79.806 -228.078)" fill="#fad1a2" fill-rule="evenodd"/>
        <path id="Trazado_1055048" data-name="Trazado 1055048" d="M35.687,245.927l3.672.081a1.841,1.841,0,0,0,1.879-1.8l.272-12.382a1.843,1.843,0,0,0-1.8-1.879l-3.677-.081a1.848,1.848,0,0,0-1.879,1.8l-.269,12.387A1.847,1.847,0,0,0,35.687,245.927Z" transform="translate(-33.888 -201.563)" fill="#16b24b" fill-rule="evenodd"/>
        <path id="Trazado_1055049" data-name="Trazado 1055049" d="M35.687,292.547l3.672.081a1.841,1.841,0,0,0,1.879-1.8l.132-6.046c-.244-.026-.486-.042-.734-.047a7.729,7.729,0,0,0-6.694,3.451l-.056,2.485A1.846,1.846,0,0,0,35.687,292.547Z" transform="translate(-33.888 -248.184)" fill="#59ba47" fill-rule="evenodd"/>
        <path id="Trazado_1055050" data-name="Trazado 1055050" d="M316.617,239.633c-1.956.225-2.752-3.119.6-3.191,2.77-.06,9.392-.737,11.467.1a15.149,15.149,0,0,0,3.9.989l.251,11.518c-.077,0-.149,0-.226,0-4.836.107-4.274,3.17-10.145,3.3.418-3.106-3.955-2.211-6.366-2.16-1.828.042-1.73-3.477.086-3.519-1.828.042-1.73-3.477.086-3.516C314.466,243.2,314.3,239.684,316.617,239.633Z" transform="translate(-272.547 -206.882)" fill="#b89877" fill-rule="evenodd"/>
        <path id="Trazado_1055051" data-name="Trazado 1055051" d="M332.058,270.277c-4.266.311-3.962,3.149-9.609,3.273.418-3.106-3.955-2.211-6.366-2.16-1.828.042-1.73-3.477.086-3.519-1.828.042-1.73-3.477.086-3.516-1.424.03-1.819-2.165-.776-3.1a15.926,15.926,0,0,1,2.041-.174,15.153,15.153,0,0,1,14.538,9.2Z" transform="translate(-272.538 -228.078)" fill="#fad1a2" fill-rule="evenodd"/>
        <path id="Trazado_1055052" data-name="Trazado 1055052" d="M439.013,245.927l-3.677.081a1.846,1.846,0,0,1-1.879-1.8l-.269-12.382a1.843,1.843,0,0,1,1.8-1.879l3.672-.081a1.843,1.843,0,0,1,1.879,1.8l.272,12.387A1.841,1.841,0,0,1,439.013,245.927Z" transform="translate(-373.164 -201.563)" fill="#991b1e" fill-rule="evenodd"/>
        <path id="Trazado_1055053" data-name="Trazado 1055053" d="M439.788,292.547l-3.677.081a1.847,1.847,0,0,1-1.879-1.8l-.132-6.046c.243-.026.49-.042.737-.047a7.729,7.729,0,0,1,6.694,3.451l.056,2.485A1.843,1.843,0,0,1,439.788,292.547Z" transform="translate(-373.939 -248.184)" fill="#e41e26" fill-rule="evenodd"/>
        <path id="Trazado_1055054" data-name="Trazado 1055054" d="M213.3,106.774c.225,1.956-3.119,2.752-3.191-.6-.06-2.77-.737-9.392.1-11.467a15.148,15.148,0,0,0,.989-3.9l11.522-.251c0,.077,0,.149,0,.225.1,4.836,3.17,4.274,3.3,10.145-3.11-.418-2.216,3.955-2.16,6.366.039,1.828-3.481,1.73-3.519-.086.038,1.828-3.477,1.73-3.519-.086C216.855,108.926,213.348,109.087,213.3,106.774Z" transform="translate(-183.348 -83.197)" fill="#b89877" fill-rule="evenodd"/>
        <path id="Trazado_1055055" data-name="Trazado 1055055" d="M243.946,95.64c.311,4.265,3.149,3.963,3.273,9.609-3.11-.418-2.216,3.955-2.16,6.366.039,1.828-3.481,1.73-3.519-.086.038,1.828-3.477,1.73-3.519-.086.035,1.424-2.16,1.819-3.1.776a15.935,15.935,0,0,1-.17-2.041A15.151,15.151,0,0,1,243.946,95.64Z" transform="translate(-204.55 -87.513)" fill="#fad1a2" fill-rule="evenodd"/>
        <path id="Trazado_1055056" data-name="Trazado 1055056" d="M219.586,43.384l.081,3.677a1.848,1.848,0,0,1-1.8,1.879l-12.387.269a1.848,1.848,0,0,1-1.879-1.8l-.077-3.672a1.837,1.837,0,0,1,1.793-1.879l12.387-.272A1.844,1.844,0,0,1,219.586,43.384Z" transform="translate(-178.026 -41.586)" fill="#cdca2b" fill-rule="evenodd"/>
        <path id="Trazado_1055057" data-name="Trazado 1055057" d="M266.183,43.376l.081,3.677a1.848,1.848,0,0,1-1.8,1.879l-6.046.132c-.026-.244-.042-.49-.051-.737a7.743,7.743,0,0,1,3.456-6.694l2.48-.056A1.846,1.846,0,0,1,266.183,43.376Z" transform="translate(-224.623 -41.577)" fill="#f7ec13" fill-rule="evenodd"/>
      </g>
      <path id="Trazado_1055058" data-name="Trazado 1055058" d="M69.906,36.6l.081,3.7h0a.88.88,0,0,1,0,.107,3.042,3.042,0,0,1-2.207,2.855,6.379,6.379,0,0,0,1.257,3,9.813,9.813,0,0,1,1.7,3.723c.251.116.511.234.771.362q.753.37,1.431.759a1.089,1.089,0,0,0,.7.149,1.12,1.12,0,0,0,.639-.323L75.4,49.8a3.212,3.212,0,0,1,4.543,0l2.88,2.876a3.225,3.225,0,0,1,0,4.547L81.7,58.343a1.089,1.089,0,0,0-.323.639,1.106,1.106,0,0,0,.144.7,23.237,23.237,0,0,1,1.066,2.071c.209.469.409.946.592,1.44a4.716,4.716,0,0,1,.541.17,13.708,13.708,0,0,0,1.747.571c.218.056.434.107.657.149a3.085,3.085,0,0,1,.69-1.147,3.033,3.033,0,0,1,2.127-.933l3.677-.081a3.034,3.034,0,0,1,3.1,2.97l.272,12.387a3.034,3.034,0,0,1-2.973,3.1l-3.672.081a3.042,3.042,0,0,1-2.987-2.207,6.411,6.411,0,0,0-3,1.261c-.068.042-.132.09-.2.132-.192.507-.4,1-.618,1.482-.316.685-.652,1.342-1.018,1.977a1.089,1.089,0,0,0,.176,1.338v0l0,0,1.121,1.121a3.2,3.2,0,0,1,.933,2.271h0a3.2,3.2,0,0,1-.938,2.271l-2.88,2.88a3.219,3.219,0,0,1-4.543,0l-1.121-1.121a1.1,1.1,0,0,0-.639-.323,1.127,1.127,0,0,0-.7.144A23.6,23.6,0,0,1,70.2,93.043a22.912,22.912,0,0,1-2.9.985,1.067,1.067,0,0,0-.822,1.073v1.581a3.213,3.213,0,0,1-3.212,3.212H59.2a3.221,3.221,0,0,1-3.217-3.212V95.1a1.139,1.139,0,0,0-.221-.685,1.116,1.116,0,0,0-.6-.388,22.59,22.59,0,0,1-2.9-.985,23.256,23.256,0,0,1-2.745-1.354,1.089,1.089,0,0,0-1.342.179l-1.117,1.121a3.225,3.225,0,0,1-4.547,0l-2.876-2.88a3.212,3.212,0,0,1,0-4.543l1.117-1.121a1.068,1.068,0,0,0,.179-1.338c-.323-.562-.631-1.154-.92-1.768-.2-.418-.379-.836-.546-1.252-.311-.188-.6-.379-.89-.571a6.393,6.393,0,0,0-2.991-1.261,3.07,3.07,0,0,1-.822,1.363,3.022,3.022,0,0,1-2.165.843l-3.677-.081a3.034,3.034,0,0,1-2.97-3.1L26.225,64.9a3.042,3.042,0,0,1,3.1-2.97L33,62.009a3.031,3.031,0,0,1,2.13.933,3.1,3.1,0,0,1,.69,1.147c.218-.042.434-.093.652-.149a13.257,13.257,0,0,0,1.747-.571,5.716,5.716,0,0,1,1.108-.29q.262-.69.562-1.359c.316-.69.664-1.372,1.048-2.032a1.108,1.108,0,0,0,.149-.7,1.148,1.148,0,0,0-.323-.639h0l-1.117-1.117a3.206,3.206,0,0,1-.941-2.276h0a3.19,3.19,0,0,1,.938-2.267v0l2.876-2.876a3.217,3.217,0,0,1,4.547,0l1.117,1.121a1.081,1.081,0,0,0,1.342.174c.6-.349,1.21-.664,1.816-.95q.519-.237,1.061-.46a11.767,11.767,0,0,1,.495-3.8,14.462,14.462,0,0,0,.571-1.747c.051-.218.1-.434.149-.657a2.959,2.959,0,0,1-1.147-.69,3.038,3.038,0,0,1-.938-2.127L51.451,37a3.042,3.042,0,0,1,2.975-3.1l12.387-.272A3.034,3.034,0,0,1,69.906,36.6Zm-2.313,3.7-.081-3.651a.635.635,0,0,0-.2-.448.651.651,0,0,0-.451-.179l-12.387.272a.667.667,0,0,0-.448.2.643.643,0,0,0-.174.455l.081,3.677a.611.611,0,0,0,.2.443.628.628,0,0,0,.455.179l.3-.009a1.032,1.032,0,0,1,.167,0l11.441-.251h0l.367-.009a1.3,1.3,0,0,1,.132-.009v0a.644.644,0,0,0,.422-.2.625.625,0,0,0,.174-.392v-.086h0ZM58.316,58.531a.479.479,0,0,0,.32.337.913.913,0,0,0,.328.051.893.893,0,0,0,.307-.051.39.39,0,0,0,.149-.081L59.3,56.647a1.2,1.2,0,1,1,2.395-.132l.123,2.174a.214.214,0,0,1,0,.056c.017.065.137.123.286.167a1.271,1.271,0,0,0,.379.056.973.973,0,0,0,.341-.056.493.493,0,0,0,.107-.042l-.239-2.062a1.2,1.2,0,1,1,2.386-.272l.251,2.169a1.3,1.3,0,0,1,.009.132c.021.06.141.119.286.162a1.271,1.271,0,0,0,.379.056A.973.973,0,0,0,66.343,59a.536.536,0,0,0,.116-.047c-.009-.307-.038-.762-.072-1.24a16.935,16.935,0,0,1-.012-3.289c.2-1.517.788-2.706,2.165-3.017a7.623,7.623,0,0,0-1.491-3.814,8.274,8.274,0,0,1-1.666-4.18l-9.349.2q-.1.561-.244,1.112a15.715,15.715,0,0,1-.669,2.058c-.537,1.329-.311,5.373-.141,8.4.056.985.107,1.862.123,2.6.014.669.167.992.353,1.087a.273.273,0,0,0,.132.021.38.38,0,0,0,.162-.051.292.292,0,0,0,.153-.26c0-.051,0-.1,0-.158a.942.942,0,0,1,.021-.247l-.009-1.756a1.2,1.2,0,1,1,2.4,0Zm-3.239,2.715a2.713,2.713,0,0,1-.682-.225,2.965,2.965,0,0,1-1.526-1.986A15.05,15.05,0,0,0,48.8,63.129c.529.026.992.047,1.347.056a3.364,3.364,0,0,1,3.191,1.691,2,2,0,0,1,.153.383c.2-.251.418-.5.648-.734l-.188-.323a1.181,1.181,0,0,1-.116-.213,1.883,1.883,0,0,1,.639-2.39.867.867,0,0,1,.188-.116Zm-2.416-4.559c-.021-.418-.047-.882-.077-1.372-.06-1.043-.123-2.2-.162-3.345l-.2.09c-.579.269-1.133.558-1.654.861a3.2,3.2,0,0,1-3.881-.507L45.57,51.292a1.091,1.091,0,0,0-.785-.323,1.112,1.112,0,0,0-.785.323l-2.876,2.876h0a1.123,1.123,0,0,0-.323.785h0a1.1,1.1,0,0,0,.323.785l1.121,1.121,0,0a3.186,3.186,0,0,1,.511,3.877c-.346.592-.66,1.21-.95,1.844-.047.1-.09.2-.132.3,1.5-.039,3.187.03,4.752.116a17.086,17.086,0,0,1,6.238-6.312Zm18.348-4.248a.686.686,0,0,1,0,.1,1.2,1.2,0,0,1-1.176,1.224,1.255,1.255,0,0,1-.183-.014c-.588-.077-.818.374-.9.992A8.521,8.521,0,0,0,68.7,56.1a17.05,17.05,0,0,1,7.325,6.873c1.607-.081,3.312-.137,4.773-.072-.038-.09-.081-.183-.123-.277a19.974,19.974,0,0,0-.964-1.884,3.148,3.148,0,0,1-.409-2.028,3.187,3.187,0,0,1,.915-1.853l1.117-1.121a1.091,1.091,0,0,0,.323-.785,1.112,1.112,0,0,0-.323-.785l-2.876-2.876a1.114,1.114,0,0,0-1.569,0l-1.121,1.121a3.2,3.2,0,0,1-3.877.507C71.592,52.749,71.3,52.587,71.009,52.438ZM68.84,58.556c0,.111.009.225.012.346A2.363,2.363,0,0,1,67.1,61.271a3.127,3.127,0,0,1-.7.153,1.875,1.875,0,0,1,.021,1.043l-.123.46a9.31,9.31,0,0,1,.938.634,9.558,9.558,0,0,1,.861.746l.409-.239c.03-.012.056-.03.086-.042a1.887,1.887,0,0,1,.934-.209,4.116,4.116,0,0,1,2.262-.634c.464-.009,1.112-.042,1.849-.086a14.918,14.918,0,0,0-4.8-4.541ZM61.183,61.13a3.012,3.012,0,0,1-.55-.269,2.985,2.985,0,0,1-.546.26,3.4,3.4,0,0,1-1.108.2,3.577,3.577,0,0,1-.474-.03,1.342,1.342,0,0,1,.081.123.561.561,0,0,1,.03.06l.2.349a9.236,9.236,0,0,1,1.121-.209,10.187,10.187,0,0,1,1.133-.086ZM89.3,78.068l3.672-.081a.65.65,0,0,0,.448-.2.667.667,0,0,0,.179-.455l-.272-12.387a.648.648,0,0,0-.2-.443.628.628,0,0,0-.455-.179l-3.677.081a.648.648,0,0,0-.443.2.628.628,0,0,0-.179.455l.009.3a1.031,1.031,0,0,1,0,.167l.251,11.441.012.477a.611.611,0,0,0,.2.443A.634.634,0,0,0,89.3,78.068ZM71.086,68.8a.466.466,0,0,0-.337.316.948.948,0,0,0-.051.328.92.92,0,0,0,.051.311.335.335,0,0,0,.086.144l2.135-.123a1.2,1.2,0,1,1,.132,2.395l-2.174.128h-.056c-.06.017-.123.141-.167.29a1.3,1.3,0,0,0-.056.379.948.948,0,0,0,.056.337.6.6,0,0,0,.042.111l2.062-.244a1.2,1.2,0,0,1,.272,2.387l-2.169.251a.652.652,0,0,1-.132.009c-.06.021-.119.141-.162.286a1.329,1.329,0,0,0-.056.383.948.948,0,0,0,.056.337.5.5,0,0,0,.047.116c.307,0,.762-.039,1.24-.072a16.7,16.7,0,0,1,3.289-.009c1.517.2,2.706.785,3.017,2.165a7.663,7.663,0,0,0,3.814-1.5,8.3,8.3,0,0,1,4.18-1.666L86,66.51c-.374-.068-.746-.144-1.112-.239a16.206,16.206,0,0,1-2.058-.673c-1.329-.537-5.374-.307-8.4-.137-.985.056-1.862.1-2.6.119-.669.017-.992.17-1.087.358a.255.255,0,0,0-.021.128.42.42,0,0,0,.051.167.315.315,0,0,0,.26.153c.051,0,.1-.009.158-.009a1.258,1.258,0,0,1,.251.021l1.751,0a1.2,1.2,0,1,1,0,2.4Zm-2.258-1.168c-.042-.065-.086-.132-.123-.2a2.758,2.758,0,0,1-.349-1,1.857,1.857,0,0,1-.532,0,1.886,1.886,0,0,1-1.1-.541,7.96,7.96,0,0,0-1.6-1.231,1.879,1.879,0,0,1-.81-.915v-.006a1.886,1.886,0,0,1-.081-1.219l.111-.409L63.179,61.8l-.111.413a1.9,1.9,0,0,1-1.837,1.406,7.47,7.47,0,0,0-1.015.068,7.161,7.161,0,0,0-.992.2A1.906,1.906,0,0,1,57.085,63l-.213-.371-1.048.606.179.311c.012.017.021.038.035.056a1.9,1.9,0,0,1-.3,2.3,7.926,7.926,0,0,0-.664.759,7.46,7.46,0,0,0-.567.843,1.905,1.905,0,0,1-.836.776c-.026.014-.056.026-.081.039s-.077.03-.116.042a3.332,3.332,0,0,1,.17,1.1,3.445,3.445,0,0,1-.192,1.112l-.09.218a1.927,1.927,0,0,1,.1.613c0,.09,0,.183,0,.277a2.291,2.291,0,0,1,.077.23,3.763,3.763,0,0,1,.149,1.073,2.2,2.2,0,0,1-.014.244c.017.06.035.119.051.183a1.889,1.889,0,0,1-.081,1.219,2.3,2.3,0,0,1-.188.349,3.919,3.919,0,0,1,.167.451,3.672,3.672,0,0,1,.149,1.015,1.882,1.882,0,0,1,1.963.455,7.414,7.414,0,0,0,.759.664,8.9,8.9,0,0,0,.843.567,1.882,1.882,0,0,1,.776.836c.012.026.026.051.039.081a1.914,1.914,0,0,1,.077,1.219l-.111.413,1.168.311.107-.409a1.94,1.94,0,0,1,.682-1.022,1.9,1.9,0,0,1,1.159-.388,8.032,8.032,0,0,0,1.015-.065,8.17,8.17,0,0,0,.992-.2,1.9,1.9,0,0,1,1.215.077,1.866,1.866,0,0,1,.869.729.643.643,0,0,1,.056.081l.213.371,1.043-.606-.213-.371h0a1.9,1.9,0,0,1,.307-2.3,8,8,0,0,0,.664-.759,7.606,7.606,0,0,0,.562-.843,1.892,1.892,0,0,1,.7-.7,2.789,2.789,0,0,1-.23-.52,3.516,3.516,0,0,1-.174-1.082,3.6,3.6,0,0,1,.149-1.073,3.262,3.262,0,0,1,.349-.8,2.943,2.943,0,0,1-.26-.541,3.359,3.359,0,0,1-.192-1.112,3.4,3.4,0,0,1,.179-1.124,3.49,3.49,0,0,1,.35-.7Zm11.42,13.44a12.582,12.582,0,0,1-3.166.422,1.2,1.2,0,0,1-1.219-1.173.821.821,0,0,1,.009-.183c0-.021,0-.042,0-.06a17.021,17.021,0,0,1-29.606-.555.658.658,0,0,0-.2.613,1.219,1.219,0,0,1,.009.183,1.2,1.2,0,0,1-1.219,1.173,13.28,13.28,0,0,1-2.574-.277c.149.281.3.562.465.843a3.2,3.2,0,0,1-.507,3.877l-1.121,1.121a1.091,1.091,0,0,0-.323.785,1.1,1.1,0,0,0,.323.785L44,91.5a1.114,1.114,0,0,0,1.569,0l1.121-1.117a3.2,3.2,0,0,1,3.881-.507A21.3,21.3,0,0,0,55.706,92a3.179,3.179,0,0,1,2.383,3.1v1.581a1.127,1.127,0,0,0,.328.785,1.1,1.1,0,0,0,.785.323h4.069a1.111,1.111,0,0,0,1.108-1.108V95.1A3.189,3.189,0,0,1,66.76,92a21.694,21.694,0,0,0,2.634-.894,21.334,21.334,0,0,0,2.5-1.231,3.2,3.2,0,0,1,3.877.507L76.893,91.5a1.091,1.091,0,0,0,.785.323,1.1,1.1,0,0,0,.785-.323l2.876-2.876a1.1,1.1,0,0,0,.323-.785h0a1.1,1.1,0,0,0-.328-.785l-1.117-1.121a3.2,3.2,0,0,1-.507-3.877c.183-.328.362-.655.534-.988ZM73.97,79.176c-.613,0-1.278.042-1.9.086-.448.03-.878.06-1.351.068a2.282,2.282,0,0,1-2.178-1.3c-.072.077-.144.153-.218.23l.235.409a1.9,1.9,0,0,1-.694,2.6.375.375,0,0,1-.06.03l-1.249.72a.783.783,0,0,1-.213.119,1.874,1.874,0,0,1-1.312.123A1.9,1.9,0,0,1,63.95,81.5a1.192,1.192,0,0,1-.119-.188l-.2-.346a9.777,9.777,0,0,1-2.25.295l-.123.46a1.915,1.915,0,0,1-2.332,1.345l-1.551-.418a1.91,1.91,0,0,1-1.342-2.332l.123-.46a9.187,9.187,0,0,1-.941-.634,10.169,10.169,0,0,1-.861-.741l-.409.234a1.9,1.9,0,0,1-1.326.218,2.31,2.31,0,0,1-1.4.392c-.474-.009-.9-.039-1.351-.068s-.92-.065-1.377-.081a15.023,15.023,0,0,0,4.7,4.794A14.947,14.947,0,0,0,69.219,84,15.04,15.04,0,0,0,73.97,79.176Zm-45-1.189,3.677.081a.634.634,0,0,0,.455-.179.645.645,0,0,0,.2-.443l.014-.477.051-2.471.2-8.97c0-.056,0-.111,0-.167l.009-.3a.647.647,0,0,0-.627-.655l-3.672-.081a.634.634,0,0,0-.455.179.626.626,0,0,0-.2.443l-.272,12.387a.647.647,0,0,0,.621.655Zm21.935-11.6a.315.315,0,0,0,.26-.153.419.419,0,0,0,.051-.167.257.257,0,0,0-.026-.128c-.093-.188-.418-.341-1.087-.358-.734-.017-1.614-.065-2.595-.119-3.029-.17-7.074-.4-8.4.137a16.691,16.691,0,0,1-2.058.673c-.367.093-.737.17-1.112.239l-.2,9.349a8.32,8.32,0,0,1,4.18,1.666,7.663,7.663,0,0,0,3.814,1.5c.311-1.38,1.5-1.96,3.017-2.165a16.586,16.586,0,0,1,3.289.009c.477.035.929.068,1.236.072a.306.306,0,0,0,.051-.116,1.2,1.2,0,0,0,.056-.337,1.279,1.279,0,0,0-.056-.383c-.042-.144-.1-.265-.167-.286a.61.61,0,0,1-.128-.009l-2.169-.251a1.2,1.2,0,0,1,.272-2.387l2.062.244a.863.863,0,0,0,.042-.111,1.205,1.205,0,0,0,.056-.337,1.25,1.25,0,0,0-.056-.379c-.042-.149-.107-.272-.17-.29H51.01l-2.169-.128a1.2,1.2,0,0,1,.128-2.395l2.139.123a.307.307,0,0,0,.081-.144.921.921,0,0,0,.056-.311,1.018,1.018,0,0,0-.051-.328.485.485,0,0,0-.337-.316l-2.118-.009a1.2,1.2,0,0,1,0-2.4l1.756,0a1.267,1.267,0,0,1,.251-.021l.159.011Zm5.118,7.934A5.972,5.972,0,0,1,66.4,68.407c.014.021.021.042.035.065a5.971,5.971,0,0,1-2.22,8.1c-.021.014-.042.021-.065.035a5.964,5.964,0,0,1-8.092-2.22C56.049,74.361,56.036,74.34,56.023,74.317Zm1.47-3.923a3.858,3.858,0,0,0,.353,2.889.42.42,0,0,0,.03.047,3.841,3.841,0,0,0,2.353,1.807,3.89,3.89,0,0,0,2.864-.341,1.294,1.294,0,0,1,.132-.081,3.869,3.869,0,0,0,1.4-5.182L64.55,69.4a3.866,3.866,0,0,0-7.056.989Z" transform="translate(0 0)"/>
    </g>
  </g>
</svg>
