<svg xmlns="http://www.w3.org/2000/svg" xmlns:xlink="http://www.w3.org/1999/xlink" width="113" height="113" viewBox="0 0 113 113">
  <defs>
    <filter id="Trazado_982547" x="0" y="0" width="113" height="113" filterUnits="userSpaceOnUse">
      <feOffset dy="3" input="SourceAlpha"/>
      <feGaussianBlur stdDeviation="3" result="blur"/>
      <feFlood flood-opacity="0.161"/>
      <feComposite operator="in" in2="blur"/>
      <feComposite in="SourceGraphic"/>
    </filter>
  </defs>
  <g id="Grupo_1226210" data-name="Grupo 1226210" transform="translate(-1131 -1262)">
    <g id="Grupo_1225547" data-name="Grupo 1225547" transform="translate(1140 1268)">
      <g id="Grupo_1225263" data-name="Grupo 1225263" transform="translate(0 0)">
        <g id="Grupo_1224577" data-name="Grupo 1224577">
          <g id="Grupo_1224450" data-name="Grupo 1224450" transform="translate(0)">
            <g id="Grupo_1224085" data-name="Grupo 1224085">
              <g id="Grupo_1223184" data-name="Grupo 1223184">
                <g id="Grupo_1211216" data-name="Grupo 1211216">
                  <g id="Grupo_1210737" data-name="Grupo 1210737">
                    <g id="Grupo_1210537" data-name="Grupo 1210537">
                      <g id="Grupo_1164202" data-name="Grupo 1164202">
                        <g id="Grupo_1158168" data-name="Grupo 1158168">
                          <g id="Grupo_1152576" data-name="Grupo 1152576">
                            <g id="Grupo_1148633" data-name="Grupo 1148633">
                              <g id="Grupo_1148525" data-name="Grupo 1148525">
                                <g transform="matrix(1, 0, 0, 1, -9, -6)" filter="url(#Trazado_982547)">
                                  <g id="Trazado_982547-2" data-name="Trazado 982547" transform="translate(9 6)" fill="#fef9e5">
                                    <path d="M 47.49999237060547 93.49999237060547 C 41.28937911987305 93.49999237060547 35.26532745361328 92.28396606445312 29.59519195556641 89.88569641113281 C 24.11772537231445 87.56892395019531 19.19813919067383 84.251953125 14.97309875488281 80.02690124511719 C 10.74804592132568 75.80185699462891 7.431072235107422 70.88227081298828 5.114298820495605 65.40480804443359 C 2.716032266616821 59.73465728759766 1.500005722045898 53.71060562133789 1.500005722045898 47.49999237060547 C 1.500005722045898 41.28937911987305 2.716032266616821 35.26532745361328 5.114298820495605 29.59517860412598 C 7.431072235107422 24.11771202087402 10.74804592132568 19.1981258392334 14.97309875488281 14.97308540344238 C 19.19813919067383 10.74804592132568 24.11772537231445 7.431072235107422 29.59519195556641 5.114298820495605 C 35.26532745361328 2.716032266616821 41.28937911987305 1.500005722045898 47.49999237060547 1.500005722045898 C 53.71062088012695 1.500005722045898 59.73465728759766 2.716032266616821 65.40480804443359 5.114298820495605 C 70.88227081298828 7.431072235107422 75.80185699462891 10.74804592132568 80.02690124511719 14.97308540344238 C 84.251953125 19.1981258392334 87.56892395019531 24.11771202087402 89.88569641113281 29.59517860412598 C 92.28396606445312 35.26532745361328 93.49999237060547 41.28937911987305 93.49999237060547 47.49999237060547 C 93.49999237060547 53.71062088012695 92.28396606445312 59.73465728759766 89.88569641113281 65.40480804443359 C 87.56892395019531 70.88227081298828 84.251953125 75.80185699462891 80.02690124511719 80.02690124511719 C 75.80185699462891 84.251953125 70.88227081298828 87.56892395019531 65.40480804443359 89.88569641113281 C 59.73465728759766 92.28396606445312 53.71062088012695 93.49999237060547 47.49999237060547 93.49999237060547 Z" stroke="none"/>
                                    <path d="M 47.49999237060547 2.999992370605469 C 41.49120712280273 2.999992370605469 35.66376113891602 4.1761474609375 30.17951202392578 6.49578857421875 C 24.88083648681641 8.736946105957031 20.12151336669922 11.94597625732422 16.03374481201172 16.03374481201172 C 11.94597625732422 20.12151336669922 8.736946105957031 24.88083648681641 6.49578857421875 30.17949676513672 C 4.1761474609375 35.66376113891602 2.999992370605469 41.49120712280273 2.999992370605469 47.49999237060547 C 2.999992370605469 53.5087776184082 4.1761474609375 59.33622360229492 6.49578857421875 64.82046508789062 C 8.736946105957031 70.11914825439453 11.94597625732422 74.87847137451172 16.03374481201172 78.96623992919922 C 20.12151336669922 83.05400848388672 24.88083648681641 86.26303863525391 30.17951202392578 88.50418090820312 C 35.66376113891602 90.82382202148438 41.49120712280273 91.99997711181641 47.49999237060547 91.99997711181641 C 53.5087776184082 91.99997711181641 59.33622360229492 90.82382202148438 64.82046508789062 88.50418090820312 C 70.11914825439453 86.26303863525391 74.87847137451172 83.05400848388672 78.96623992919922 78.96623992919922 C 83.05400848388672 74.87847137451172 86.26303863525391 70.11914825439453 88.50418090820312 64.82046508789062 C 90.82382202148438 59.33622360229492 91.99997711181641 53.5087776184082 91.99997711181641 47.49999237060547 C 91.99997711181641 41.49120712280273 90.82382202148438 35.66376113891602 88.50418090820312 30.17949676513672 C 86.26303863525391 24.88083648681641 83.05400848388672 20.12151336669922 78.96623992919922 16.03374481201172 C 74.87847137451172 11.94597625732422 70.11914825439453 8.736946105957031 64.82046508789062 6.49578857421875 C 59.33622360229492 4.1761474609375 53.5087776184082 2.999992370605469 47.49999237060547 2.999992370605469 M 47.49999237060547 -7.62939453125e-06 C 73.73351287841797 -7.62939453125e-06 94.99997711181641 21.26647186279297 94.99997711181641 47.49999237060547 C 94.99997711181641 73.73351287841797 73.73351287841797 94.99997711181641 47.49999237060547 94.99997711181641 C 21.26648712158203 94.99997711181641 -7.62939453125e-06 73.73351287841797 -7.62939453125e-06 47.49999237060547 C -7.62939453125e-06 21.26647186279297 21.26648712158203 -7.62939453125e-06 47.49999237060547 -7.62939453125e-06 Z" stroke="none" fill="#f6c810"/>
                                  </g>
                                </g>
                              </g>
                            </g>
                          </g>
                        </g>
                      </g>
                    </g>
                  </g>
                </g>
              </g>
            </g>
          </g>
        </g>
      </g>
    </g>
    <g id="automation_3417700" transform="translate(1158 1286)">
      <circle id="Elipse_13367" data-name="Elipse 13367" cx="9.5" cy="9.5" r="9.5" transform="translate(38 39)" fill="#b5b5b5"/>
      <path id="Trazado_1055059" data-name="Trazado 1055059" d="M50.166,42.01A9.33,9.33,0,0,0,44.732,58.8,15.591,15.591,0,0,0,50.166,42.01Z" transform="translate(-2.622 -2.688)" fill="#ccc"/>
      <path id="Trazado_1055060" data-name="Trazado 1055060" d="M16.951,6.672V24.427H2V2H12.279Z" transform="translate(-0.066 -0.066)" fill="#ddd"/>
      <path id="Trazado_1055061" data-name="Trazado 1055061" d="M13,2V6.672h4.672" transform="translate(-0.787 -0.066)" fill="#ccc"/>
      <g id="Grupo_1226208" data-name="Grupo 1226208" transform="translate(4.737 4.738)">
        <path id="Trazado_1055062" data-name="Trazado 1055062" d="M7,5H9.8V6.869H7Z" transform="translate(-5.13 -5)" fill="#b5b5b5"/>
        <path id="Trazado_1055063" data-name="Trazado 1055063" d="M5,9h9.344v1.869H5Z" transform="translate(-4.999 -5.262)" fill="#b5b5b5"/>
        <path id="Trazado_1055064" data-name="Trazado 1055064" d="M5,13h9.344v1.869H5Z" transform="translate(-4.999 -5.524)" fill="#b5b5b5"/>
        <path id="Trazado_1055065" data-name="Trazado 1055065" d="M5,17h7.475v1.869H5Z" transform="translate(-4.999 -5.787)" fill="#b5b5b5"/>
        <path id="Trazado_1055066" data-name="Trazado 1055066" d="M31.951,42.672V60.427H17V38H27.279Z" transform="translate(-5.786 -7.163)" fill="#b5b5b5"/>
      </g>
      <path id="Trazado_1055067" data-name="Trazado 1055067" d="M28,38v4.672h4.672" transform="translate(-1.77 -2.425)" fill="#ccc"/>
      <g id="Grupo_1226209" data-name="Grupo 1226209" transform="translate(1.934 35.575)">
        <path id="Trazado_1055068" data-name="Trazado 1055068" d="M22,41h2.8v1.869H22Z" transform="translate(-3.311 -38.197)" fill="#ddd"/>
        <path id="Trazado_1055069" data-name="Trazado 1055069" d="M20,45h9.344v1.869H20Z" transform="translate(-3.18 -38.459)" fill="#ddd"/>
        <path id="Trazado_1055070" data-name="Trazado 1055070" d="M20,49h9.344v1.869H20Z" transform="translate(-3.18 -38.721)" fill="#ddd"/>
        <path id="Trazado_1055071" data-name="Trazado 1055071" d="M20,53h9.344v1.869H20Z" transform="translate(-3.18 -38.983)" fill="#ddd"/>
        <path id="Trazado_1055072" data-name="Trazado 1055072" d="M16.951,42.672V60.427H2V38H12.279Z" transform="translate(-2 -38)" fill="#ddd"/>
      </g>
      <path id="Trazado_1055073" data-name="Trazado 1055073" d="M13,38v4.672h4.672" transform="translate(-0.787 -2.425)" fill="#ccc"/>
      <path id="Trazado_1055074" data-name="Trazado 1055074" d="M60.558,14.148V10.41H58.473a8.357,8.357,0,0,0-1.08-2.6l1.475-1.475L56.226,3.689,54.75,5.165a8.357,8.357,0,0,0-2.6-1.08V2H48.41V4.085a8.357,8.357,0,0,0-2.6,1.08L44.332,3.689,41.689,6.332l1.475,1.475a8.357,8.357,0,0,0-1.08,2.6H40v3.738h2.085a8.357,8.357,0,0,0,1.08,2.6l-1.475,1.475,2.643,2.643,1.475-1.475a8.357,8.357,0,0,0,2.6,1.08v2.085h3.738V20.473a8.357,8.357,0,0,0,2.6-1.08l1.475,1.475,2.643-2.643L57.393,16.75a8.357,8.357,0,0,0,1.08-2.6Zm-10.279,2.8a4.672,4.672,0,1,1,4.672-4.672A4.672,4.672,0,0,1,50.279,16.951Z" transform="translate(-2.556 -0.066)" fill="#474747"/>
      <circle id="Elipse_13368" data-name="Elipse 13368" cx="7.5" cy="7.5" r="7.5" transform="translate(11 17)" fill="#213d68"/>
      <path id="Trazado_1055075" data-name="Trazado 1055075" d="M7,41H9.8v1.869H7Z" transform="translate(-0.393 -2.622)" fill="#b5b5b5"/>
      <path id="Trazado_1055076" data-name="Trazado 1055076" d="M5,45h9.344v1.869H5Z" transform="translate(-0.262 -2.884)" fill="#b5b5b5"/>
      <path id="Trazado_1055077" data-name="Trazado 1055077" d="M5,49h9.344v1.869H5Z" transform="translate(-0.262 -3.146)" fill="#b5b5b5"/>
      <path id="Trazado_1055078" data-name="Trazado 1055078" d="M5,53h9.344v1.869H5Z" transform="translate(-0.262 -3.409)" fill="#b5b5b5"/>
      <path id="Trazado_1055079" data-name="Trazado 1055079" d="M24.607,26.672H19.934A.934.934,0,0,1,19,25.738V22h1.869v2.8h3.738Z" transform="translate(-1.18 -1.377)" fill="#ccc"/>
      <path id="Trazado_1055080" data-name="Trazado 1055080" d="M29.476,8l5.607,4.672-5.607,4.672v-2.8H22V10.8h7.476Z" transform="translate(-1.377 -0.459)" fill="#559b2d"/>
      <path id="Trazado_1055081" data-name="Trazado 1055081" d="M55.345,32.607l-4.672,5.607L46,32.607h2.8V27h3.738v5.607Z" transform="translate(-2.95 -1.704)" fill="#559b2d"/>
      <path id="Trazado_1055082" data-name="Trazado 1055082" d="M44,52.607l4.672,4.672L56.148,49.8l-2.8-2.8-4.672,4.672L46.8,49.8Z" transform="translate(-2.819 -3.015)" fill="#4d8c28"/>
      <path id="Trazado_1055083" data-name="Trazado 1055083" d="M7,26H8.867V37.213H7Z" transform="translate(-0.393 -1.639)" fill="#559b2d"/>
      <path id="Trazado_1055084" data-name="Trazado 1055084" d="M47.726,56.515a15.562,15.562,0,0,0,3.013-6.728l-2.066,2.068L46.8,49.986l-2.8,2.8Z" transform="translate(-2.819 -3.198)" fill="#559b2d"/>
      <path id="Trazado_1055085" data-name="Trazado 1055085" d="M60.492,9.41H59.122A9.212,9.212,0,0,0,58.493,7.9l.972-.97a.934.934,0,0,0,0-1.322L56.82,2.962a.963.963,0,0,0-1.322,0l-.969.97A9.207,9.207,0,0,0,53.017,3.3V1.934A.934.934,0,0,0,52.082,1H48.345a.934.934,0,0,0-.934.934V3.3a9.269,9.269,0,0,0-1.514.629l-.969-.97a.934.934,0,0,0-1.322,0L40.962,5.6a.934.934,0,0,0,0,1.322l.97.969A9.251,9.251,0,0,0,41.3,9.41H39.934a.934.934,0,0,0-.934.934v3.738a.934.934,0,0,0,.934.934H41.3a9.251,9.251,0,0,0,.629,1.514l-.97.968a.934.934,0,0,0,0,1.322L43.6,21.464a.934.934,0,0,0,1.322,0l.969-.97a9.269,9.269,0,0,0,1.514.629v1.369a.934.934,0,0,0,.934.934h3.738a.934.934,0,0,0,.934-.934V21.122a9.207,9.207,0,0,0,1.513-.628l.968.971a.934.934,0,0,0,1.321,0l2.645-2.644a.934.934,0,0,0,0-1.322l-.972-.97a9.212,9.212,0,0,0,.629-1.512h1.371a.934.934,0,0,0,.934-.934V10.345a.934.934,0,0,0-.934-.934Zm-.934,3.738H58.407a.934.934,0,0,0-.911.728,7.394,7.394,0,0,1-.96,2.311.934.934,0,0,0,.13,1.16l.815.815-1.321,1.32-.815-.815a.934.934,0,0,0-1.159-.129,7.41,7.41,0,0,1-2.312.959.934.934,0,0,0-.727.912v1.149H49.279V20.409a.934.934,0,0,0-.728-.912,7.388,7.388,0,0,1-2.312-.959.934.934,0,0,0-1.159.129l-.814.815L42.945,18.16l.815-.814a.934.934,0,0,0,.129-1.16,7.394,7.394,0,0,1-.96-2.311.934.934,0,0,0-.911-.728H40.869V11.279h1.149a.934.934,0,0,0,.911-.728,7.394,7.394,0,0,1,.96-2.311.934.934,0,0,0-.129-1.16l-.815-.815,1.32-1.321.815.815a.934.934,0,0,0,1.159.13,7.41,7.41,0,0,1,2.312-.959.934.934,0,0,0,.728-.912V2.869h1.869V4.018a.934.934,0,0,0,.727.912,7.41,7.41,0,0,1,2.312.959.934.934,0,0,0,1.159-.13l.815-.815,1.321,1.321-.815.815a.934.934,0,0,0-.13,1.16,7.394,7.394,0,0,1,.96,2.311.934.934,0,0,0,.911.728h1.15Z" transform="translate(-2.491 0)"/>
      <path id="Trazado_1055086" data-name="Trazado 1055086" d="M50.607,7a5.607,5.607,0,1,0,5.607,5.607A5.607,5.607,0,0,0,50.607,7Zm0,9.345a3.738,3.738,0,1,1,3.738-3.738A3.738,3.738,0,0,1,50.607,16.345Z" transform="translate(-2.884 -0.393)"/>
      <path id="Trazado_1055087" data-name="Trazado 1055087" d="M7,5H9.8V6.869H7Z" transform="translate(-0.393 -0.262)"/>
      <path id="Trazado_1055088" data-name="Trazado 1055088" d="M5,9h9.344v1.869H5Z" transform="translate(-0.262 -0.524)"/>
      <path id="Trazado_1055089" data-name="Trazado 1055089" d="M5,13h9.344v1.869H5Z" transform="translate(-0.262 -0.787)"/>
      <path id="Trazado_1055090" data-name="Trazado 1055090" d="M5,17h7.475v1.869H5Z" transform="translate(-0.262 -1.049)"/>
      <path id="Trazado_1055091" data-name="Trazado 1055091" d="M7,41H9.8v1.869H7Z" transform="translate(-0.393 -2.622)"/>
      <path id="Trazado_1055092" data-name="Trazado 1055092" d="M5,45h9.344v1.869H5Z" transform="translate(-0.262 -2.884)"/>
      <path id="Trazado_1055093" data-name="Trazado 1055093" d="M5,49h9.344v1.869H5Z" transform="translate(-0.262 -3.146)"/>
      <path id="Trazado_1055094" data-name="Trazado 1055094" d="M5,53h9.344v1.869H5Z" transform="translate(-0.262 -3.409)"/>
      <path id="Trazado_1055095" data-name="Trazado 1055095" d="M31.562,39.585,26.89,34.913a.934.934,0,0,0-.66-.273H15.951a.934.934,0,0,0-.934.934v1.482l-2.144-2.144a.934.934,0,0,0-.66-.273H8.476V25.3H10.4a8.432,8.432,0,1,0,7.419-9.289v-9.4a.934.934,0,0,0-.273-.662L12.875,1.273A.934.934,0,0,0,12.213,1H1.934A.934.934,0,0,0,1,1.934V24.361a.934.934,0,0,0,.934.934H6.607V34.64H1.934A.934.934,0,0,0,1,35.575V58a.934.934,0,0,0,.934.934H30.9A.934.934,0,0,0,31.837,58V40.247a.934.934,0,0,0-.275-.661ZM25.3,24.361a6.541,6.541,0,1,1-6.541-6.541A6.541,6.541,0,0,1,25.3,24.361ZM13.148,4.191l1.479,1.481H13.148ZM2.869,2.869h8.41V6.607a.934.934,0,0,0,.934.934h3.738v8.9A8.424,8.424,0,0,0,10.4,23.427H2.869Zm24.3,34.962,1.48,1.482h-1.48Zm-14.017,0,1.48,1.482h-1.48ZM2.869,57.067V36.509h8.41v3.738a.934.934,0,0,0,.934.934h3.738V57.067Zm14.951,0V40.247a.934.934,0,0,0-.273-.661l-.662-.661V36.509H25.3v3.738a.934.934,0,0,0,.934.934h3.738V57.067Z"/>
      <path id="Trazado_1055096" data-name="Trazado 1055096" d="M22,41h2.8v1.869H22Z" transform="translate(-1.376 -2.622)"/>
      <path id="Trazado_1055097" data-name="Trazado 1055097" d="M20,45h9.344v1.869H20Z" transform="translate(-1.245 -2.884)"/>
      <path id="Trazado_1055098" data-name="Trazado 1055098" d="M20,49h9.344v1.869H20Z" transform="translate(-1.245 -3.146)"/>
      <path id="Trazado_1055099" data-name="Trazado 1055099" d="M20,53h9.344v1.869H20Z" transform="translate(-1.245 -3.409)"/>
      <path id="Trazado_1055100" data-name="Trazado 1055100" d="M19.934,26.672h4.672V24.8H20.869V22H19v3.738A.934.934,0,0,0,19.934,26.672Z" transform="translate(-1.18 -1.377)" fill="#fff"/>
      <path id="Trazado_1055101" data-name="Trazado 1055101" d="M30.008,7.216a.934.934,0,0,0-1.532.719V9.8H21.934a.934.934,0,0,0-.934.934v3.738a.934.934,0,0,0,.934.934h6.541v1.869A.934.934,0,0,0,30.008,18l5.607-4.672a.934.934,0,0,0,0-1.436Zm.336,8.067v-.807a.934.934,0,0,0-.934-.934H22.869V11.672H29.41a.934.934,0,0,0,.934-.934V9.929l3.212,2.677Z" transform="translate(-1.311 -0.393)"/>
      <path id="Trazado_1055102" data-name="Trazado 1055102" d="M53.136,26.273A.934.934,0,0,0,52.476,26H48.738a.934.934,0,0,0-.934.934v4.672H45.934a.934.934,0,0,0-.719,1.532l4.672,5.607a.934.934,0,0,0,1.436,0L56,33.139a.934.934,0,0,0-.718-1.532H53.41V26.934a.934.934,0,0,0-.274-.662Zm-2.53,10.415-2.677-3.213h.808a.934.934,0,0,0,.934-.934V27.869h1.869v4.672a.934.934,0,0,0,.934.934h.808Z" transform="translate(-2.884 -1.639)"/>
      <path id="Trazado_1055103" data-name="Trazado 1055103" d="M50.279,41A10.279,10.279,0,1,0,60.558,51.279,10.279,10.279,0,0,0,50.279,41Zm0,18.689a8.41,8.41,0,1,1,8.41-8.41A8.41,8.41,0,0,1,50.279,59.689Z" transform="translate(-2.556 -2.622)"/>
      <path id="Trazado_1055104" data-name="Trazado 1055104" d="M52.616,46.273l-4.01,4.012L47.4,49.076a.934.934,0,0,0-1.322,0l-2.8,2.8a.934.934,0,0,0,0,1.322l4.672,4.672a.934.934,0,0,0,1.322,0L56.743,50.4a.934.934,0,0,0,0-1.322l-2.8-2.8a.934.934,0,0,0-1.323,0Zm-4.01,9.618-3.352-3.35,1.483-1.482,1.207,1.208a.934.934,0,0,0,1.322,0l4.012-4.012,1.48,1.482Z" transform="translate(-2.753 -2.95)"/>
    </g>
  </g>
</svg>
