<svg xmlns="http://www.w3.org/2000/svg" xmlns:xlink="http://www.w3.org/1999/xlink" width="113" height="113" viewBox="0 0 113 113">
  <defs>
    <filter id="Trazado_982547" x="0" y="0" width="113" height="113" filterUnits="userSpaceOnUse">
      <feOffset dy="3" input="SourceAlpha"/>
      <feGaussianBlur stdDeviation="3" result="blur"/>
      <feFlood flood-opacity="0.161"/>
      <feComposite operator="in" in2="blur"/>
      <feComposite in="SourceGraphic"/>
    </filter>
  </defs>
  <g id="Grupo_1226192" data-name="Grupo 1226192" transform="translate(-1163.5 -2067.296)">
    <g id="Grupo_1226086" data-name="Grupo 1226086" transform="translate(1172.5 2073.296)">
      <g id="Grupo_1225173" data-name="Grupo 1225173">
        <g id="Grupo_1224643" data-name="Grupo 1224643">
          <g id="Grupo_1224291" data-name="Grupo 1224291">
            <g id="Grupo_1224091" data-name="Grupo 1224091">
              <g id="Grupo_1223183" data-name="Grupo 1223183" transform="translate(0)">
                <g id="Grupo_1211217" data-name="Grupo 1211217">
                  <g id="Grupo_1210736" data-name="Grupo 1210736">
                    <g id="Grupo_1210537" data-name="Grupo 1210537">
                      <g id="Grupo_1164202" data-name="Grupo 1164202">
                        <g id="Grupo_1158168" data-name="Grupo 1158168">
                          <g id="Grupo_1152576" data-name="Grupo 1152576">
                            <g id="Grupo_1148633" data-name="Grupo 1148633">
                              <g id="Grupo_1148525" data-name="Grupo 1148525">
                                <g transform="matrix(1, 0, 0, 1, -9, -6)" filter="url(#Trazado_982547)">
                                  <g id="Trazado_982547-2" data-name="Trazado 982547" transform="translate(9 6)" fill="#fdfbec">
                                    <path d="M 47.49999618530273 93.5 C 41.28936767578125 93.5 35.26533126831055 92.28396606445312 29.59518241882324 89.88570404052734 C 24.11771583557129 87.56893157958984 19.19812965393066 84.251953125 14.97308921813965 80.02690124511719 C 10.74803638458252 75.80186462402344 7.431062698364258 70.88227844238281 5.114289283752441 65.40480804443359 C 2.716022968292236 59.73466110229492 1.499996185302734 53.71062469482422 1.499996185302734 47.49999618530273 C 1.499996185302734 41.28936767578125 2.716022968292236 35.26533126831055 5.114289283752441 29.59518241882324 C 7.431062698364258 24.11771583557129 10.74803638458252 19.19812965393066 14.97308921813965 14.97308921813965 C 19.19812965393066 10.74803638458252 24.11771583557129 7.431062698364258 29.59518241882324 5.114289283752441 C 35.26533126831055 2.716022968292236 41.28936767578125 1.499996185302734 47.49999618530273 1.499996185302734 C 53.71062469482422 1.499996185302734 59.73466110229492 2.716022968292236 65.40480804443359 5.114289283752441 C 70.88227844238281 7.431062698364258 75.80186462402344 10.74803638458252 80.02690124511719 14.97308921813965 C 84.251953125 19.19812965393066 87.56893157958984 24.11771583557129 89.88570404052734 29.59518241882324 C 92.28396606445312 35.26533126831055 93.5 41.28936767578125 93.5 47.49999618530273 C 93.5 53.71062469482422 92.28396606445312 59.73466110229492 89.88570404052734 65.40480804443359 C 87.56893157958984 70.88227844238281 84.251953125 75.80186462402344 80.02690124511719 80.02690124511719 C 75.80186462402344 84.251953125 70.88227844238281 87.56893157958984 65.40480804443359 89.88570404052734 C 59.73466110229492 92.28396606445312 53.71062469482422 93.5 47.49999618530273 93.5 Z" stroke="none"/>
                                    <path d="M 47.49999618530273 2.999992370605469 C 41.4912109375 2.999992370605469 35.66376495361328 4.1761474609375 30.17950439453125 6.495796203613281 C 24.88084411621094 8.736953735351562 20.12152099609375 11.94598388671875 16.03375244140625 16.03375244140625 C 11.94598388671875 20.12152099609375 8.736953735351562 24.88084411621094 6.495796203613281 30.17950439453125 C 4.1761474609375 35.66376495361328 2.999992370605469 41.4912109375 2.999992370605469 47.49999618530273 C 2.999992370605469 53.50878143310547 4.1761474609375 59.33622741699219 6.495796203613281 64.82048797607422 C 8.736953735351562 70.11914825439453 11.94598388671875 74.87847137451172 16.03375244140625 78.96623992919922 C 20.12152099609375 83.05400848388672 24.88084411621094 86.26304626464844 30.17950439453125 88.50419616699219 C 35.66376495361328 90.82384490966797 41.4912109375 92 47.49999618530273 92 C 53.50878143310547 92 59.33622741699219 90.82384490966797 64.82048797607422 88.50419616699219 C 70.11914825439453 86.26304626464844 74.87847137451172 83.05400848388672 78.96623992919922 78.96623992919922 C 83.05400848388672 74.87847137451172 86.26304626464844 70.11914825439453 88.50419616699219 64.82048797607422 C 90.82384490966797 59.33622741699219 92 53.50878143310547 92 47.49999618530273 C 92 41.4912109375 90.82384490966797 35.66376495361328 88.50419616699219 30.17950439453125 C 86.26304626464844 24.88084411621094 83.05400848388672 20.12152099609375 78.96623992919922 16.03375244140625 C 74.87847137451172 11.94598388671875 70.11914825439453 8.736953735351562 64.82048797607422 6.495796203613281 C 59.33622741699219 4.1761474609375 53.50878143310547 2.999992370605469 47.49999618530273 2.999992370605469 M 47.49999618530273 -7.62939453125e-06 C 73.7335205078125 -7.62939453125e-06 95 21.26647186279297 95 47.49999618530273 C 95 73.7335205078125 73.7335205078125 95 47.49999618530273 95 C 21.26647186279297 95 -7.62939453125e-06 73.7335205078125 -7.62939453125e-06 47.49999618530273 C -7.62939453125e-06 21.26647186279297 21.26647186279297 -7.62939453125e-06 47.49999618530273 -7.62939453125e-06 Z" stroke="none" fill="#83793c"/>
                                  </g>
                                </g>
                              </g>
                            </g>
                          </g>
                        </g>
                      </g>
                    </g>
                  </g>
                </g>
              </g>
            </g>
          </g>
        </g>
      </g>
    </g>
    <g id="testing_10061823" transform="translate(1184.081 2037.481)">
      <path id="Trazado_1054994" data-name="Trazado 1054994" d="M133.017,130.19v-1.059l.232-.044a.656.656,0,0,0,.536-.646v-2.3l.189-.055a12.1,12.1,0,0,0,2.424-1l.173-.095,1.623,1.623a.658.658,0,0,0,.84.075,14.894,14.894,0,0,0,3.74-3.74.657.657,0,0,0-.075-.84l-1.622-1.625.1-.173a11.853,11.853,0,0,0,1-2.421l.055-.19h2.295a.658.658,0,0,0,.647-.54,14.835,14.835,0,0,0,0-5.294.657.657,0,0,0-.647-.54h-2.3l-.055-.189a12,12,0,0,0-1-2.42l-.1-.173,1.622-1.622a.658.658,0,0,0,.076-.84,14.853,14.853,0,0,0-3.74-3.744.658.658,0,0,0-.841.075l-1.623,1.623-.173-.095a12.09,12.09,0,0,0-2.424-1l-.189-.055v-2.3a.658.658,0,0,0-.54-.647l-.228-.044v-1.57h44.74V130.19Zm19.308-14.463a.658.658,0,0,0-.658.658v10.5a.659.659,0,0,0,.658.658h10.5a.658.658,0,0,0,.658-.658v-10.5a.659.659,0,0,0-.658-.658Zm23.311,5.409V119.82h-9.6v1.316Zm0-4.093v-1.316h-9.6v1.316Zm-23.311-16.077a.658.658,0,0,0-.658.658v10.508a.659.659,0,0,0,.658.658h10.5a.658.658,0,0,0,.658-.658V101.623a.659.659,0,0,0-.658-.658Zm23.311,5.409v-1.316h-9.6v1.316Zm0-4.093v-1.316h-9.6v1.316Z" transform="translate(-115.522 -33.666)" fill="#e9e9ff"/>
      <path id="Trazado_1054995" data-name="Trazado 1054995" d="M271.007,377.421h8.444v2.513h-8.444Z" transform="translate(-235.366 -276.062)" fill="#445ea0"/>
      <path id="Trazado_1054996" data-name="Trazado 1054996" d="M108.079,110.468a1.823,1.823,0,0,1-1.821-1.821v-2.6l.278.015c.285.016.562.024.824.024s.539-.008.824-.024l.278-.015v1.562a.659.659,0,0,0,.658.658h46.056a.659.659,0,0,0,.658-.658V74.423a.659.659,0,0,0-.658-.658H109.119a.658.658,0,0,0-.658.658V76.5l-.277-.015c-.274-.015-.552-.023-.827-.023s-.55.008-.822.022l-.277.015V73.383a1.823,1.823,0,0,1,1.821-1.821h48.136a1.823,1.823,0,0,1,1.821,1.821v35.264a1.823,1.823,0,0,1-1.821,1.821Z" transform="translate(-92.282 -10.425)" fill="#445ea0"/>
      <path id="Trazado_1054997" data-name="Trazado 1054997" d="M211.763,410.993v-2.227a2.234,2.234,0,0,1,2.231-2.231h19.567a2.234,2.234,0,0,1,2.231,2.231v2.227Z" transform="translate(-183.913 -301.346)" fill="#293d7c"/>
      <path id="Trazado_1054998" data-name="Trazado 1054998" d="M67.3,181.278a7.165,7.165,0,1,1,7.163-7.163A7.173,7.173,0,0,1,67.3,181.278Zm-.444-2.965,2.155-8.055-1.271-.34-2.155,8.055Zm-5.5-4.659a.658.658,0,0,0,0,.931l2.657,2.653.929-.931-2.192-2.188,2.192-2.192-.93-.93Zm9.233,3.576,2.653-2.657a.658.658,0,0,0,0-.93l-2.653-2.653-.93.93,2.188,2.189L69.663,176.3Z" transform="translate(-52.227 -93.267)" fill="#e9e9ff"/>
      <path id="Trazado_1054999" data-name="Trazado 1054999" d="M25.5,145.783a13.576,13.576,0,0,1-1.64-.1l-.231-.028V143.4a.654.654,0,0,0-.512-.641,10.756,10.756,0,0,1-3.338-1.384.658.658,0,0,0-.815.092l-1.592,1.592-.183-.143a13.551,13.551,0,0,1-2.321-2.319l-.143-.183,1.592-1.6a.654.654,0,0,0,.091-.816,10.694,10.694,0,0,1-1.384-3.337.654.654,0,0,0-.641-.512H12.131l-.028-.232a13.921,13.921,0,0,1,0-3.28l.028-.232h2.252a.654.654,0,0,0,.641-.512,10.755,10.755,0,0,1,1.384-3.338.654.654,0,0,0-.092-.815l-1.592-1.592.143-.183a13.506,13.506,0,0,1,2.322-2.322l.183-.143,1.592,1.592a.658.658,0,0,0,.815.092,10.751,10.751,0,0,1,3.337-1.384.655.655,0,0,0,.512-.641v-2.252l.231-.028a13.582,13.582,0,0,1,3.281,0l.231.028v2.252a.654.654,0,0,0,.512.641,10.763,10.763,0,0,1,3.341,1.384.658.658,0,0,0,.815-.092l1.592-1.591.183.144a13.556,13.556,0,0,1,2.318,2.321l.143.183-1.592,1.592a.654.654,0,0,0-.091.817,10.666,10.666,0,0,1,1.384,3.336.654.654,0,0,0,.641.512h2.252l.028.231a13.528,13.528,0,0,1,0,3.281l-.028.231H36.619a.654.654,0,0,0-.642.513A10.521,10.521,0,0,1,34.594,138a.654.654,0,0,0,.09.817l1.592,1.6-.143.183a13.591,13.591,0,0,1-2.318,2.318l-.183.144-1.591-1.592a.657.657,0,0,0-.815-.092,10.763,10.763,0,0,1-3.341,1.384.654.654,0,0,0-.512.641v2.252l-.231.028A13.537,13.537,0,0,1,25.5,145.783Zm0-21.978a8.48,8.48,0,1,0,8.479,8.482A8.492,8.492,0,0,0,25.5,123.8Z" transform="translate(-10.425 -51.439)" fill="#0cb4fb"/>
      <path id="Trazado_1055000" data-name="Trazado 1055000" d="M284.84,137.619v-9.193h9.189v9.193Zm2.889-2.1a.655.655,0,0,0,.5.26h.025a.658.658,0,0,0,.492-.221l4.16-4.693-.984-.873-3.629,4.093-1.274-1.678-1.048.8Z" transform="translate(-247.38 -59.811)" fill="#43cb8e"/>
      <path id="Trazado_1055001" data-name="Trazado 1055001" d="M284.84,249.867v-9.189h9.189v9.189Zm2.813-1.883,1.782-1.782,1.782,1.782.93-.93-1.782-1.782,1.782-1.782-.93-.93-1.782,1.782-1.782-1.782-.93.93,1.782,1.782-1.782,1.782Z" transform="translate(-247.38 -157.301)" fill="#ed524e"/>
      <path id="Trazado_1055002" data-name="Trazado 1055002" d="M23.819,80.848a8.743,8.743,0,1,0-8.742,8.742A8.753,8.753,0,0,0,23.819,80.848Zm-15.645,0a6.9,6.9,0,1,1,6.9,6.9A6.912,6.912,0,0,1,8.174,80.848Zm52.2-11.97H50.252V67.037H60.377Zm3.556-9.319H15.8a3.4,3.4,0,0,0-3.4,3.4v3.05l-.016,0a.921.921,0,0,0-.756.906v2.1a12.31,12.31,0,0,0-2.473,1.026L7.67,68.559a.921.921,0,0,0-1.176-.106,15.071,15.071,0,0,0-3.811,3.811.921.921,0,0,0,.106,1.176l1.484,1.483A12.3,12.3,0,0,0,3.246,77.4h-2.1a.921.921,0,0,0-.906.756,15.339,15.339,0,0,0,0,5.388.921.921,0,0,0,.906.756h2.1A12.256,12.256,0,0,0,4.272,86.77L2.788,88.257a.92.92,0,0,0-.1,1.176,15.108,15.108,0,0,0,3.81,3.806.92.92,0,0,0,1.176-.106L9.153,91.65a12.308,12.308,0,0,0,2.473,1.026v2.1a.921.921,0,0,0,.756.906l.016,0v2.539a3.4,3.4,0,0,0,3.4,3.4H34.063v1.987H30.082a3.814,3.814,0,0,0-3.81,3.81V110.3a.921.921,0,0,0,.921.921H52.537a.921.921,0,0,0,.921-.921v-2.885a3.814,3.814,0,0,0-3.81-3.81H45.663v-1.987H63.933a3.4,3.4,0,0,0,3.4-3.4V62.959a3.4,3.4,0,0,0-3.4-3.4ZM12.751,91.066A10.487,10.487,0,0,1,9.5,89.715a.921.921,0,0,0-1.141.128L6.927,91.271A13.256,13.256,0,0,1,4.651,89l1.428-1.43a.921.921,0,0,0,.127-1.142,10.437,10.437,0,0,1-1.35-3.255.921.921,0,0,0-.9-.716H1.939a13.654,13.654,0,0,1,0-3.217H3.958a.921.921,0,0,0,.9-.716,10.487,10.487,0,0,1,1.351-3.256.921.921,0,0,0-.129-1.141L4.65,72.7A13.21,13.21,0,0,1,6.927,70.42l1.427,1.427a.921.921,0,0,0,1.141.128,10.492,10.492,0,0,1,3.256-1.351.921.921,0,0,0,.716-.9v-2.02a13.324,13.324,0,0,1,3.217,0v2.02a.921.921,0,0,0,.716.9,10.5,10.5,0,0,1,3.26,1.351.921.921,0,0,0,1.141-.128l1.427-1.427A13.258,13.258,0,0,1,25.5,72.7l-1.427,1.427a.921.921,0,0,0-.127,1.143A10.4,10.4,0,0,1,25.3,78.521a.921.921,0,0,0,.9.716h2.019a13.262,13.262,0,0,1,0,3.217h-2.02a.921.921,0,0,0-.9.719,10.26,10.26,0,0,1-1.348,3.25.921.921,0,0,0,.126,1.144L25.5,89a13.3,13.3,0,0,1-2.273,2.273L21.8,89.844a.921.921,0,0,0-1.141-.128,10.5,10.5,0,0,1-3.26,1.351.921.921,0,0,0-.716.9v2.02a13.324,13.324,0,0,1-3.217,0v-2.02A.92.92,0,0,0,12.751,91.066Zm14.612-2.809-1.483-1.485A12.085,12.085,0,0,0,26.907,84.3H29a.921.921,0,0,0,.906-.756,15.1,15.1,0,0,0,0-5.388A.921.921,0,0,0,29,77.4h-2.1a12.232,12.232,0,0,0-1.025-2.474l1.482-1.482a.921.921,0,0,0,.106-1.176,15.116,15.116,0,0,0-3.806-3.81.92.92,0,0,0-1.177.1L21,70.042a12.324,12.324,0,0,0-2.477-1.026v-2.1a.921.921,0,0,0-.756-.906l-.012,0v-1.09H61.972V96.262H17.758v-.579l.012,0a.921.921,0,0,0,.756-.906v-2.1A12.32,12.32,0,0,0,21,91.649l1.484,1.483a.921.921,0,0,0,1.177.1,15.154,15.154,0,0,0,3.805-3.805A.92.92,0,0,0,27.364,88.257Zm22.285,17.194a1.97,1.97,0,0,1,1.968,1.968v1.964h-23.5v-1.964a1.97,1.97,0,0,1,1.968-1.968H49.648ZM35.9,103.609v-1.987h7.918v1.987Zm29.587-5.387a1.56,1.56,0,0,1-1.558,1.558H15.8a1.56,1.56,0,0,1-1.558-1.558V95.9c.279.016.559.024.839.024s.559-.009.839-.024v1.284a.921.921,0,0,0,.921.921H62.893a.921.921,0,0,0,.921-.921V64a.921.921,0,0,0-.921-.921H16.837a.921.921,0,0,0-.921.921v1.8a15.282,15.282,0,0,0-1.677,0V62.959A1.56,1.56,0,0,1,15.8,61.4H63.933a1.56,1.56,0,0,1,1.558,1.558V98.223ZM17.111,76.8,14.82,85.367l-1.779-.476,2.291-8.563Zm-4.019,6.234-1.3,1.3L8.948,81.5a.921.921,0,0,1,0-1.3l2.843-2.843,1.3,1.3L10.9,80.851Zm3.971-4.386,1.3-1.3L21.2,80.189a.921.921,0,0,1,0,1.3l-2.839,2.843-1.3-1.3,2.189-2.192Zm19.739.734h10.5a.921.921,0,0,0,.921-.921V67.958a.921.921,0,0,0-.921-.921H36.8a.921.921,0,0,0-.921.921V78.466A.921.921,0,0,0,36.8,79.387Zm.921-10.508h8.663v8.667H37.723Zm22.653,4.093H50.252V71.13H60.377ZM36.8,94.145h10.5a.921.921,0,0,0,.921-.921v-10.5a.921.921,0,0,0-.921-.921H36.8a.921.921,0,0,0-.921.921v10.5A.921.921,0,0,0,36.8,94.145Zm.921-10.5h8.663V92.3H37.723Zm7.416,2.55-1.782,1.782,1.782,1.782-1.3,1.3-1.782-1.782-1.782,1.782-1.3-1.3,1.782-1.782L38.971,86.19l1.3-1.3,1.782,1.782,1.782-1.782Zm15.238-2.55H50.252V81.8H60.377Zm0,4.093H50.252V85.891H60.377ZM44.519,69.811,45.9,71.033l-4.335,4.89a.921.921,0,0,1-.689.31h-.035a.921.921,0,0,1-.7-.363l-1.917-2.526,1.467-1.113,1.239,1.633Z"/>
    </g>
  </g>
</svg>
