<svg xmlns="http://www.w3.org/2000/svg" xmlns:xlink="http://www.w3.org/1999/xlink" width="113" height="113" viewBox="0 0 113 113">
  <defs>
    <filter id="Trazado_982547" x="0" y="0" width="113" height="113" filterUnits="userSpaceOnUse">
      <feOffset dy="3" input="SourceAlpha"/>
      <feGaussianBlur stdDeviation="3" result="blur"/>
      <feFlood flood-opacity="0.161"/>
      <feComposite operator="in" in2="blur"/>
      <feComposite in="SourceGraphic"/>
    </filter>
  </defs>
  <g id="Grupo_1226119" data-name="Grupo 1226119" transform="translate(-271 -2877.76)">
    <g id="Grupo_1225490" data-name="Grupo 1225490" transform="translate(0 1582.418)">
      <g id="Grupo_1225173" data-name="Grupo 1225173" transform="translate(0 -3445.654)">
        <g id="Grupo_1224643" data-name="Grupo 1224643" transform="translate(0 1927)">
          <g id="Grupo_1224291" data-name="Grupo 1224291" transform="translate(0 859.245)">
            <g id="Grupo_1224091" data-name="Grupo 1224091" transform="translate(-84.49 -2620.317)">
              <g id="Grupo_1223183" data-name="Grupo 1223183" transform="translate(364.49 4581.069)">
                <g id="Grupo_1211217" data-name="Grupo 1211217" transform="translate(0)">
                  <g id="Grupo_1210736" data-name="Grupo 1210736">
                    <g id="Grupo_1210537" data-name="Grupo 1210537">
                      <g id="Grupo_1164202" data-name="Grupo 1164202">
                        <g id="Grupo_1158168" data-name="Grupo 1158168">
                          <g id="Grupo_1152576" data-name="Grupo 1152576">
                            <g id="Grupo_1148633" data-name="Grupo 1148633">
                              <g id="Grupo_1148525" data-name="Grupo 1148525">
                                <g transform="matrix(1, 0, 0, 1, -9, -6)" filter="url(#Trazado_982547)">
                                  <g id="Trazado_982547-2" data-name="Trazado 982547" transform="translate(9 6)" fill="#fdfbec">
                                    <path d="M 47.49999618530273 93.5 C 41.28936767578125 93.5 35.26533126831055 92.28396606445312 29.59518241882324 89.88570404052734 C 24.11771583557129 87.56893157958984 19.19812965393066 84.251953125 14.97308921813965 80.02690124511719 C 10.74803638458252 75.80186462402344 7.431062698364258 70.88227844238281 5.114289283752441 65.40480804443359 C 2.716022968292236 59.73466110229492 1.499996185302734 53.71062469482422 1.499996185302734 47.49999618530273 C 1.499996185302734 41.28936767578125 2.716022968292236 35.26533126831055 5.114289283752441 29.59518241882324 C 7.431062698364258 24.11771583557129 10.74803638458252 19.19812965393066 14.97308921813965 14.97308921813965 C 19.19812965393066 10.74803638458252 24.11771583557129 7.431062698364258 29.59518241882324 5.114289283752441 C 35.26533126831055 2.716022968292236 41.28936767578125 1.499996185302734 47.49999618530273 1.499996185302734 C 53.71062469482422 1.499996185302734 59.73466110229492 2.716022968292236 65.40480804443359 5.114289283752441 C 70.88227844238281 7.431062698364258 75.80186462402344 10.74803638458252 80.02690124511719 14.97308921813965 C 84.251953125 19.19812965393066 87.56893157958984 24.11771583557129 89.88570404052734 29.59518241882324 C 92.28396606445312 35.26533126831055 93.5 41.28936767578125 93.5 47.49999618530273 C 93.5 53.71062469482422 92.28396606445312 59.73466110229492 89.88570404052734 65.40480804443359 C 87.56893157958984 70.88227844238281 84.251953125 75.80186462402344 80.02690124511719 80.02690124511719 C 75.80186462402344 84.251953125 70.88227844238281 87.56893157958984 65.40480804443359 89.88570404052734 C 59.73466110229492 92.28396606445312 53.71062469482422 93.5 47.49999618530273 93.5 Z" stroke="none"/>
                                    <path d="M 47.49999618530273 2.999992370605469 C 41.4912109375 2.999992370605469 35.66376495361328 4.1761474609375 30.17950439453125 6.495796203613281 C 24.88084411621094 8.736953735351562 20.12152099609375 11.94598388671875 16.03375244140625 16.03375244140625 C 11.94598388671875 20.12152099609375 8.736953735351562 24.88084411621094 6.495796203613281 30.17950439453125 C 4.1761474609375 35.66376495361328 2.999992370605469 41.4912109375 2.999992370605469 47.49999618530273 C 2.999992370605469 53.50878143310547 4.1761474609375 59.33622741699219 6.495796203613281 64.82048797607422 C 8.736953735351562 70.11914825439453 11.94598388671875 74.87847137451172 16.03375244140625 78.96623992919922 C 20.12152099609375 83.05400848388672 24.88084411621094 86.26304626464844 30.17950439453125 88.50419616699219 C 35.66376495361328 90.82384490966797 41.4912109375 92 47.49999618530273 92 C 53.50878143310547 92 59.33622741699219 90.82384490966797 64.82048797607422 88.50419616699219 C 70.11914825439453 86.26304626464844 74.87847137451172 83.05400848388672 78.96623992919922 78.96623992919922 C 83.05400848388672 74.87847137451172 86.26304626464844 70.11914825439453 88.50419616699219 64.82048797607422 C 90.82384490966797 59.33622741699219 92 53.50878143310547 92 47.49999618530273 C 92 41.4912109375 90.82384490966797 35.66376495361328 88.50419616699219 30.17950439453125 C 86.26304626464844 24.88084411621094 83.05400848388672 20.12152099609375 78.96623992919922 16.03375244140625 C 74.87847137451172 11.94598388671875 70.11914825439453 8.736953735351562 64.82048797607422 6.495796203613281 C 59.33622741699219 4.1761474609375 53.50878143310547 2.999992370605469 47.49999618530273 2.999992370605469 M 47.49999618530273 -7.62939453125e-06 C 73.7335205078125 -7.62939453125e-06 95 21.26647186279297 95 47.49999618530273 C 95 73.7335205078125 73.7335205078125 95 47.49999618530273 95 C 21.26647186279297 95 -7.62939453125e-06 73.7335205078125 -7.62939453125e-06 47.49999618530273 C -7.62939453125e-06 21.26647186279297 21.26647186279297 -7.62939453125e-06 47.49999618530273 -7.62939453125e-06 Z" stroke="none" fill="#83793c"/>
                                  </g>
                                </g>
                              </g>
                            </g>
                          </g>
                        </g>
                      </g>
                    </g>
                  </g>
                </g>
              </g>
            </g>
          </g>
        </g>
      </g>
    </g>
    <g id="file_412499" transform="translate(298.541 2899.532)">
      <path id="Trazado_1054455" data-name="Trazado 1054455" d="M144.684,11l-1.377-3.079h-8.96v6.16h27.989V11Z" transform="translate(-118.892 -6.729)" fill="#ddb201"/>
      <g id="Grupo_1226113" data-name="Grupo 1226113" transform="translate(15.455 1.19)">
        <rect id="Rectángulo_422337" data-name="Rectángulo 422337" width="2.014" height="6.16" fill="#cba400"/>
        <rect id="Rectángulo_422338" data-name="Rectángulo 422338" width="2.014" height="3.083" transform="translate(25.975 3.077)" fill="#cba400"/>
      </g>
      <rect id="Rectángulo_422339" data-name="Rectángulo 422339" width="27.989" height="15.65" transform="translate(15.455 7.35)" fill="#fed322"/>
      <g id="Grupo_1226114" data-name="Grupo 1226114" transform="translate(15.455 7.35)">
        <rect id="Rectángulo_422340" data-name="Rectángulo 422340" width="2.014" height="15.65" fill="#eebf00"/>
        <rect id="Rectángulo_422341" data-name="Rectángulo 422341" width="2.014" height="15.65" transform="translate(25.975)" fill="#eebf00"/>
      </g>
      <g id="Grupo_1226115" data-name="Grupo 1226115" transform="translate(0.875 35.839)">
        <path id="Trazado_1054456" data-name="Trazado 1054456" d="M195.387,309.122H184.23v22.427h16.512V314.477Z" transform="translate(-163.912 -309.122)" fill="#acabb1"/>
        <path id="Trazado_1054457" data-name="Trazado 1054457" d="M372.013,309.122H360.856v22.427h16.512V314.477Z" transform="translate(-320.22 -309.122)" fill="#acabb1"/>
        <path id="Trazado_1054458" data-name="Trazado 1054458" d="M18.761,309.122H7.6v22.427H24.116V314.477Z" transform="translate(-7.604 -309.122)" fill="#acabb1"/>
      </g>
      <g id="Grupo_1226116" data-name="Grupo 1226116" transform="translate(12.032 35.839)">
        <path id="Trazado_1054459" data-name="Trazado 1054459" d="M104.592,309.122v5.355h5.355Z" transform="translate(-104.592 -309.122)" fill="#77767e"/>
        <path id="Trazado_1054460" data-name="Trazado 1054460" d="M281.218,309.122v5.355h5.355Z" transform="translate(-260.9 -309.122)" fill="#77767e"/>
        <path id="Trazado_1054461" data-name="Trazado 1054461" d="M457.844,309.122v5.355H463.2Z" transform="translate(-417.208 -309.122)" fill="#77767e"/>
      </g>
      <g id="Grupo_1226117" data-name="Grupo 1226117" transform="translate(3.082 45.224)">
        <path id="Trazado_1054462" data-name="Trazado 1054462" d="M29.626,390.949v3.2h-.879V392.9H27.675v1.253H26.8v-3.2h.879v1.181h1.073v-1.181Z" transform="translate(-26.796 -390.922)" fill="#fff"/>
        <path id="Trazado_1054463" data-name="Trazado 1054463" d="M56.9,391.716h-.919v2.434h-.879v-2.434h-.924v-.766H56.9v.766Z" transform="translate(-51.032 -390.923)" fill="#fff"/>
        <path id="Trazado_1054464" data-name="Trazado 1054464" d="M83.047,394.149v-1.686l-.536,1.185h-.469l-.536-1.185v1.686h-.879v-3.2h.96l.69,1.505.694-1.505h.955v3.2h-.879Z" transform="translate(-74.435 -390.922)" fill="#fff"/>
        <path id="Trazado_1054465" data-name="Trazado 1054465" d="M114.088,394.149v-3.2h.879v2.434h1.451v.766Z" transform="translate(-104.046 -390.922)" fill="#fff"/>
        <path id="Trazado_1054466" data-name="Trazado 1054466" d="M219.151,392.383a1.6,1.6,0,0,1,.433-1.086,1.608,1.608,0,0,1,1.2-.5,1.614,1.614,0,0,1,.8.192,1.247,1.247,0,0,1,.507.507l-.672.478a.567.567,0,0,0-.119-.194.6.6,0,0,0-.164-.122.706.706,0,0,0-.187-.063,1.027,1.027,0,0,0-.187-.018.657.657,0,0,0-.552.268.84.84,0,0,0-.131.27,1.1,1.1,0,0,0-.043.3,1.03,1.03,0,0,0,.05.32.834.834,0,0,0,.144.27.7.7,0,0,0,.232.187.67.67,0,0,0,.309.07.885.885,0,0,0,.185-.02.686.686,0,0,0,.183-.068.626.626,0,0,0,.158-.122.539.539,0,0,0,.11-.183l.717.428a.911.911,0,0,1-.219.315,1.389,1.389,0,0,1-.334.234,1.772,1.772,0,0,1-.4.144,1.846,1.846,0,0,1-.417.05,1.484,1.484,0,0,1-.651-.142,1.65,1.65,0,0,1-.509-.376,1.709,1.709,0,0,1-.331-.532A1.64,1.64,0,0,1,219.151,392.383Z" transform="translate(-197.023 -390.783)" fill="#fff"/>
        <path id="Trazado_1054467" data-name="Trazado 1054467" d="M248.026,391.786a2.472,2.472,0,0,0-.279-.144,2.6,2.6,0,0,0-.273-.1.982.982,0,0,0-.3-.047.41.41,0,0,0-.187.036.126.126,0,0,0-.07.122.14.14,0,0,0,.041.1.386.386,0,0,0,.117.074,1.459,1.459,0,0,0,.187.065q.11.031.25.077a3.285,3.285,0,0,1,.4.149,1.233,1.233,0,0,1,.3.192.736.736,0,0,1,.194.268.972.972,0,0,1,.068.383,1.01,1.01,0,0,1-.106.485.866.866,0,0,1-.279.313,1.179,1.179,0,0,1-.392.169,1.9,1.9,0,0,1-.44.052,2.488,2.488,0,0,1-.361-.027,3.1,3.1,0,0,1-.367-.077,3.228,3.228,0,0,1-.352-.117,2.233,2.233,0,0,1-.313-.153l.379-.771a2.642,2.642,0,0,0,.329.176,2.311,2.311,0,0,0,.327.122,1.3,1.3,0,0,0,.372.054.377.377,0,0,0,.2-.038.117.117,0,0,0,.056-.1.145.145,0,0,0-.056-.115.517.517,0,0,0-.155-.083q-.1-.036-.228-.072t-.273-.086a2.346,2.346,0,0,1-.365-.156.993.993,0,0,1-.252-.189.673.673,0,0,1-.146-.241.937.937,0,0,1-.047-.311,1.075,1.075,0,0,1,.1-.469.962.962,0,0,1,.264-.338,1.177,1.177,0,0,1,.381-.2,1.453,1.453,0,0,1,.453-.07,1.72,1.72,0,0,1,.343.034,2.754,2.754,0,0,1,.322.086q.155.052.291.113t.243.115Z" transform="translate(-220.671 -390.713)" fill="#fff"/>
        <path id="Trazado_1054468" data-name="Trazado 1054468" d="M272.2,391.786a2.492,2.492,0,0,0-.279-.144,2.585,2.585,0,0,0-.273-.1.982.982,0,0,0-.3-.047.41.41,0,0,0-.187.036.126.126,0,0,0-.07.122.14.14,0,0,0,.041.1.385.385,0,0,0,.117.074,1.478,1.478,0,0,0,.187.065q.11.031.25.077a3.292,3.292,0,0,1,.4.149,1.23,1.23,0,0,1,.3.192.737.737,0,0,1,.194.268.973.973,0,0,1,.068.383,1.009,1.009,0,0,1-.106.485.868.868,0,0,1-.279.313,1.18,1.18,0,0,1-.392.169,1.9,1.9,0,0,1-.439.052,2.49,2.49,0,0,1-.361-.027,3.1,3.1,0,0,1-.367-.077,3.229,3.229,0,0,1-.352-.117,2.234,2.234,0,0,1-.313-.153l.379-.771a2.652,2.652,0,0,0,.329.176,2.309,2.309,0,0,0,.327.122,1.3,1.3,0,0,0,.372.054.378.378,0,0,0,.2-.038.117.117,0,0,0,.056-.1.145.145,0,0,0-.056-.115.518.518,0,0,0-.156-.083q-.1-.036-.228-.072t-.273-.086a2.342,2.342,0,0,1-.365-.156.99.99,0,0,1-.252-.189.675.675,0,0,1-.147-.241.937.937,0,0,1-.047-.311,1.073,1.073,0,0,1,.1-.469.962.962,0,0,1,.264-.338,1.174,1.174,0,0,1,.381-.2,1.454,1.454,0,0,1,.453-.07,1.72,1.72,0,0,1,.343.034,2.75,2.75,0,0,1,.322.086q.156.052.291.113t.243.115Z" transform="translate(-242.062 -390.713)" fill="#fff"/>
        <path id="Trazado_1054469" data-name="Trazado 1054469" d="M411.007,393.285a.637.637,0,0,0,.059.032.847.847,0,0,0,.113.045,1.364,1.364,0,0,0,.155.041.9.9,0,0,0,.183.018.485.485,0,0,0,.225-.045.293.293,0,0,0,.131-.146.824.824,0,0,0,.059-.261q.013-.16.013-.39V390.95h.879v1.627a4.982,4.982,0,0,1-.041.665,1.249,1.249,0,0,1-.176.512.884.884,0,0,1-.394.329,1.719,1.719,0,0,1-.7.117,1.193,1.193,0,0,1-.694-.2Z" transform="translate(-366.646 -390.923)" fill="#fff"/>
        <path id="Trazado_1054470" data-name="Trazado 1054470" d="M432.959,391.786a2.468,2.468,0,0,0-.279-.144,2.594,2.594,0,0,0-.273-.1.982.982,0,0,0-.3-.047.41.41,0,0,0-.187.036.126.126,0,0,0-.07.122.14.14,0,0,0,.041.1.386.386,0,0,0,.117.074,1.473,1.473,0,0,0,.187.065q.11.031.25.077a3.292,3.292,0,0,1,.4.149,1.233,1.233,0,0,1,.3.192.735.735,0,0,1,.194.268.971.971,0,0,1,.068.383,1.01,1.01,0,0,1-.106.485.866.866,0,0,1-.279.313,1.179,1.179,0,0,1-.392.169,1.9,1.9,0,0,1-.44.052,2.488,2.488,0,0,1-.361-.027,3.1,3.1,0,0,1-.367-.077,3.211,3.211,0,0,1-.352-.117,2.234,2.234,0,0,1-.313-.153l.379-.771a2.655,2.655,0,0,0,.329.176,2.316,2.316,0,0,0,.327.122,1.3,1.3,0,0,0,.372.054.377.377,0,0,0,.2-.038.117.117,0,0,0,.056-.1.145.145,0,0,0-.056-.115.518.518,0,0,0-.155-.083q-.1-.036-.228-.072t-.273-.086a2.345,2.345,0,0,1-.365-.156.993.993,0,0,1-.252-.189.675.675,0,0,1-.146-.241.938.938,0,0,1-.047-.311,1.076,1.076,0,0,1,.1-.469.963.963,0,0,1,.264-.338,1.176,1.176,0,0,1,.381-.2,1.454,1.454,0,0,1,.453-.07,1.72,1.72,0,0,1,.343.034,2.751,2.751,0,0,1,.322.086q.156.052.291.113t.243.115Z" transform="translate(-384.33 -390.713)" fill="#fff"/>
      </g>
      <g id="Grupo_1226118" data-name="Grupo 1226118" transform="translate(0 0.315)">
        <path id="Trazado_1054471" data-name="Trazado 1054471" d="M10.006,287.611V285.8H8.256v1.808H0v24.176H18.262V293.478l-5.868-5.868H10.006Zm2.9,2.986,2.369,2.369H12.906ZM1.749,310.038V289.36h9.408v5.355h5.355v15.322Z" transform="translate(0 -252.962)" fill="#010101"/>
        <path id="Trazado_1054472" data-name="Trazado 1054472" d="M186.461,285.816v-2.041h-1.749v2.041h-8.086v24.176h18.262V291.684l-5.868-5.868h-2.559Zm3.071,2.986,2.369,2.369h-2.369Zm-11.157,19.441V287.566h9.408v5.355h5.355v15.322Z" transform="translate(-156.308 -251.167)" fill="#010101"/>
        <path id="Trazado_1054473" data-name="Trazado 1054473" d="M365.646,287.611h-2.763V285.8h-1.749v1.808h-7.882v24.176h18.262V293.478Zm.512,2.986,2.369,2.369h-2.369ZM355,310.038V289.36h9.408v5.355h5.355v15.322Z" transform="translate(-312.616 -252.962)" fill="#010101"/>
        <path id="Trazado_1054474" data-name="Trazado 1054474" d="M126.74,23.874h13.824v2.041h1.749V23.874h14.165V3.394h-17.96L137.142.315h-10.4v6.16h0Zm27.989-1.749H128.49V8.224h26.24v13.9ZM128.49,2.064h7.518l1.377,3.079h17.345V6.475H128.49Z" transform="translate(-112.16 -0.315)" fill="#010101"/>
        <path id="Trazado_1054475" data-name="Trazado 1054475" d="M73.519,248.748h2.041V247H71.77v3.79h1.749Z" transform="translate(-63.514 -218.622)" fill="#010101"/>
        <rect id="Rectángulo_422342" data-name="Rectángulo 422342" width="5.297" height="1.749" transform="translate(38.531 28.377)" fill="#010101"/>
        <rect id="Rectángulo_422343" data-name="Rectángulo 422343" width="5.03" height="1.749" transform="translate(30.853 28.377)" fill="#010101"/>
        <rect id="Rectángulo_422344" data-name="Rectángulo 422344" width="5.297" height="1.749" transform="translate(14.695 28.377)" fill="#010101"/>
        <rect id="Rectángulo_422345" data-name="Rectángulo 422345" width="5.064" height="1.749" transform="translate(22.64 28.377)" fill="#010101"/>
        <path id="Trazado_1054476" data-name="Trazado 1054476" d="M406.065,250.789h1.749V247h-3.79v1.749h2.041Z" transform="translate(-357.547 -218.622)" fill="#010101"/>
        <rect id="Rectángulo_422346" data-name="Rectángulo 422346" width="1.749" height="3.504" transform="translate(28.404 27.352)" fill="#010101"/>
        <rect id="Rectángulo_422347" data-name="Rectángulo 422347" width="9.953" height="1.749" transform="translate(26.216 18.519) rotate(-60.133)" fill="#010101"/>
      </g>
    </g>
  </g>
</svg>
