<svg xmlns="http://www.w3.org/2000/svg" xmlns:xlink="http://www.w3.org/1999/xlink" width="113" height="113" viewBox="0 0 113 113">
  <defs>
    <filter id="Trazado_982547" x="0" y="0" width="113" height="113" filterUnits="userSpaceOnUse">
      <feOffset dy="3" input="SourceAlpha"/>
      <feGaussianBlur stdDeviation="3" result="blur"/>
      <feFlood flood-opacity="0.161"/>
      <feComposite operator="in" in2="blur"/>
      <feComposite in="SourceGraphic"/>
    </filter>
  </defs>
  <g id="Grupo_1226211" data-name="Grupo 1226211" transform="translate(-7685.51 -1262.135)">
    <g id="Grupo_1226089" data-name="Grupo 1226089" transform="translate(7694.51 1268.135)">
      <g id="Grupo_1225264" data-name="Grupo 1225264" transform="translate(0 0)">
        <g id="Grupo_1224575" data-name="Grupo 1224575">
          <g id="Grupo_1224449" data-name="Grupo 1224449" transform="translate(0)">
            <g id="Grupo_1224084" data-name="Grupo 1224084">
              <g id="Grupo_1223183" data-name="Grupo 1223183">
                <g id="Grupo_1211217" data-name="Grupo 1211217">
                  <g id="Grupo_1210736" data-name="Grupo 1210736">
                    <g id="Grupo_1210537" data-name="Grupo 1210537">
                      <g id="Grupo_1164202" data-name="Grupo 1164202">
                        <g id="Grupo_1158168" data-name="Grupo 1158168">
                          <g id="Grupo_1152576" data-name="Grupo 1152576">
                            <g id="Grupo_1148633" data-name="Grupo 1148633">
                              <g id="Grupo_1148525" data-name="Grupo 1148525">
                                <g transform="matrix(1, 0, 0, 1, -9, -6)" filter="url(#Trazado_982547)">
                                  <g id="Trazado_982547-2" data-name="Trazado 982547" transform="translate(9 6)" fill="#fef9e5">
                                    <path d="M 47.49999237060547 93.49999237060547 C 41.28937911987305 93.49999237060547 35.26532745361328 92.28396606445312 29.59519195556641 89.88569641113281 C 24.11772537231445 87.56892395019531 19.19813919067383 84.251953125 14.97309875488281 80.02690124511719 C 10.74804592132568 75.80185699462891 7.431072235107422 70.88227081298828 5.114298820495605 65.40480804443359 C 2.716032266616821 59.73465728759766 1.500005722045898 53.71060562133789 1.500005722045898 47.49999237060547 C 1.500005722045898 41.28937911987305 2.716032266616821 35.26532745361328 5.114298820495605 29.59517860412598 C 7.431072235107422 24.11771202087402 10.74804592132568 19.1981258392334 14.97309875488281 14.97308540344238 C 19.19813919067383 10.74804592132568 24.11772537231445 7.431072235107422 29.59519195556641 5.114298820495605 C 35.26532745361328 2.716032266616821 41.28937911987305 1.500005722045898 47.49999237060547 1.500005722045898 C 53.71062088012695 1.500005722045898 59.73465728759766 2.716032266616821 65.40480804443359 5.114298820495605 C 70.88227081298828 7.431072235107422 75.80185699462891 10.74804592132568 80.02690124511719 14.97308540344238 C 84.251953125 19.1981258392334 87.56892395019531 24.11771202087402 89.88569641113281 29.59517860412598 C 92.28396606445312 35.26532745361328 93.49999237060547 41.28937911987305 93.49999237060547 47.49999237060547 C 93.49999237060547 53.71062088012695 92.28396606445312 59.73465728759766 89.88569641113281 65.40480804443359 C 87.56892395019531 70.88227081298828 84.251953125 75.80185699462891 80.02690124511719 80.02690124511719 C 75.80185699462891 84.251953125 70.88227081298828 87.56892395019531 65.40480804443359 89.88569641113281 C 59.73465728759766 92.28396606445312 53.71062088012695 93.49999237060547 47.49999237060547 93.49999237060547 Z" stroke="none"/>
                                    <path d="M 47.49999237060547 2.999992370605469 C 41.49120712280273 2.999992370605469 35.66376113891602 4.1761474609375 30.17951202392578 6.49578857421875 C 24.88083648681641 8.736946105957031 20.12151336669922 11.94597625732422 16.03374481201172 16.03374481201172 C 11.94597625732422 20.12151336669922 8.736946105957031 24.88083648681641 6.49578857421875 30.17949676513672 C 4.1761474609375 35.66376113891602 2.999992370605469 41.49120712280273 2.999992370605469 47.49999237060547 C 2.999992370605469 53.5087776184082 4.1761474609375 59.33622360229492 6.49578857421875 64.82046508789062 C 8.736946105957031 70.11914825439453 11.94597625732422 74.87847137451172 16.03374481201172 78.96623992919922 C 20.12151336669922 83.05400848388672 24.88083648681641 86.26303863525391 30.17951202392578 88.50418090820312 C 35.66376113891602 90.82382202148438 41.49120712280273 91.99997711181641 47.49999237060547 91.99997711181641 C 53.5087776184082 91.99997711181641 59.33622360229492 90.82382202148438 64.82046508789062 88.50418090820312 C 70.11914825439453 86.26303863525391 74.87847137451172 83.05400848388672 78.96623992919922 78.96623992919922 C 83.05400848388672 74.87847137451172 86.26303863525391 70.11914825439453 88.50418090820312 64.82046508789062 C 90.82382202148438 59.33622360229492 91.99997711181641 53.5087776184082 91.99997711181641 47.49999237060547 C 91.99997711181641 41.49120712280273 90.82382202148438 35.66376113891602 88.50418090820312 30.17949676513672 C 86.26303863525391 24.88083648681641 83.05400848388672 20.12151336669922 78.96623992919922 16.03374481201172 C 74.87847137451172 11.94597625732422 70.11914825439453 8.736946105957031 64.82046508789062 6.49578857421875 C 59.33622360229492 4.1761474609375 53.5087776184082 2.999992370605469 47.49999237060547 2.999992370605469 M 47.49999237060547 -7.62939453125e-06 C 73.73351287841797 -7.62939453125e-06 94.99997711181641 21.26647186279297 94.99997711181641 47.49999237060547 C 94.99997711181641 73.73351287841797 73.73351287841797 94.99997711181641 47.49999237060547 94.99997711181641 C 21.26648712158203 94.99997711181641 -7.62939453125e-06 73.73351287841797 -7.62939453125e-06 47.49999237060547 C -7.62939453125e-06 21.26647186279297 21.26648712158203 -7.62939453125e-06 47.49999237060547 -7.62939453125e-06 Z" stroke="none" fill="#f6c810"/>
                                  </g>
                                </g>
                              </g>
                            </g>
                          </g>
                        </g>
                      </g>
                    </g>
                  </g>
                </g>
              </g>
            </g>
          </g>
        </g>
      </g>
    </g>
    <g id="personalization_9097243" transform="translate(7700.517 1266.726)">
      <path id="Trazado_1055105" data-name="Trazado 1055105" d="M106.243,92.352H94.211a1.825,1.825,0,0,1-.348.48l-1.125,1.115a1.785,1.785,0,0,0,0,2.555l1.125,1.118a1.78,1.78,0,0,1,.283,2.193l-1.715,2.859a1.952,1.952,0,0,1-2.119.86l-1.568-.379a1.94,1.94,0,0,0-2.3,1.279l-.442,1.5a1.9,1.9,0,0,1-1.835,1.333H80.733a1.941,1.941,0,0,1-1.353-.543v21.061a3.083,3.083,0,0,0,3.083,3.083H130.4a3.083,3.083,0,0,0,3.083-3.083V95.435a3.083,3.083,0,0,0-3.083-3.083H106.243Z" transform="translate(-60.498 -62.393)" fill="#61a2ff"/>
      <path id="Trazado_1055106" data-name="Trazado 1055106" d="M106.243,92.352H94.211a1.825,1.825,0,0,1-.348.48l-1.125,1.115a1.785,1.785,0,0,0,0,2.555l1.125,1.118a1.78,1.78,0,0,1,.283,2.193l-1.715,2.859a1.952,1.952,0,0,1-2.119.86l-1.568-.379a1.94,1.94,0,0,0-2.3,1.279l-.442,1.5a1.9,1.9,0,0,1-1.835,1.333H80.733a1.941,1.941,0,0,1-1.353-.543v21.061a3.083,3.083,0,0,0,3.083,3.083H130.4a3.083,3.083,0,0,0,3.083-3.083V95.435a3.083,3.083,0,0,0-3.083-3.083H117.507" transform="translate(-60.498 -62.393)" fill="none" stroke="#000" stroke-linecap="round" stroke-linejoin="round" stroke-miterlimit="10" stroke-width="1.2"/>
      <path id="Trazado_1055107" data-name="Trazado 1055107" d="M32.24,34.109a1.784,1.784,0,0,1,0-2.554l1.125-1.115a1.782,1.782,0,0,0,.283-2.195l-1.715-2.857a1.942,1.942,0,0,0-2.119-.862l-1.569.379a1.916,1.916,0,0,1-2.3-1.278l-.442-1.5A1.9,1.9,0,0,0,23.669,20.8H20.236A1.9,1.9,0,0,0,18.4,22.131l-.441,1.5a1.916,1.916,0,0,1-2.3,1.278l-1.57-.379a1.94,1.94,0,0,0-2.118.862l-1.714,2.857a1.779,1.779,0,0,0,.281,2.195l1.126,1.115a1.786,1.786,0,0,1,0,2.554l-1.126,1.117a1.779,1.779,0,0,0-.281,2.195l1.714,2.857a1.938,1.938,0,0,0,2.118.861l1.57-.38a1.92,1.92,0,0,1,2.3,1.279l.441,1.5a1.9,1.9,0,0,0,1.836,1.333h3.433A1.9,1.9,0,0,0,25.5,43.534l.442-1.5a1.92,1.92,0,0,1,2.3-1.279l1.569.38a1.94,1.94,0,0,0,2.119-.861l1.715-2.857a1.782,1.782,0,0,0-.283-2.195Zm-10.288,3.2a4.48,4.48,0,1,1,4.48-4.48A4.543,4.543,0,0,1,21.952,37.313Z" transform="translate(0)" fill="#e0e7ef"/>
      <path id="Trazado_1055108" data-name="Trazado 1055108" d="M32.24,34.111a1.785,1.785,0,0,1,0-2.555l1.126-1.116a1.781,1.781,0,0,0,.282-2.194l-1.715-2.858a1.94,1.94,0,0,0-2.118-.862l-1.569.379a1.917,1.917,0,0,1-2.3-1.278l-.442-1.5A1.9,1.9,0,0,0,23.669,20.8H20.236A1.9,1.9,0,0,0,18.4,22.133l-.441,1.5a1.918,1.918,0,0,1-2.3,1.278l-1.569-.379a1.939,1.939,0,0,0-2.117.862l-1.715,2.858a1.78,1.78,0,0,0,.282,2.194l1.126,1.116a1.786,1.786,0,0,1,0,2.555l-1.126,1.117a1.78,1.78,0,0,0-.282,2.194l1.715,2.858a1.939,1.939,0,0,0,2.117.862l1.569-.38a1.919,1.919,0,0,1,2.3,1.279l.441,1.5a1.9,1.9,0,0,0,1.836,1.332h3.433A1.9,1.9,0,0,0,25.5,43.536l.442-1.5a1.918,1.918,0,0,1,2.3-1.279l1.569.38a1.94,1.94,0,0,0,2.118-.862l1.715-2.858a1.781,1.781,0,0,0-.282-2.194Z" transform="translate(0 -0.002)" fill="none" stroke="#000" stroke-linecap="round" stroke-linejoin="round" stroke-miterlimit="10" stroke-width="1.2"/>
      <circle id="Elipse_13369" data-name="Elipse 13369" cx="4.48" cy="4.48" r="4.48" transform="translate(15.616 32.833) rotate(-45)" fill="none" stroke="#000" stroke-linecap="round" stroke-linejoin="round" stroke-miterlimit="10" stroke-width="1.2"/>
      <path id="Trazado_1055109" data-name="Trazado 1055109" d="M272.508,239.876l-3.229,3.286,3.229,3.286" transform="translate(-226.086 -191.031)" fill="none" stroke="#000" stroke-linecap="round" stroke-linejoin="round" stroke-miterlimit="10" stroke-width="1.2"/>
      <path id="Trazado_1055110" data-name="Trazado 1055110" d="M290.955,148.2l3.229-3.286-3.229-3.286" transform="translate(-244.987 -105.36)" fill="none" stroke="#000" stroke-linecap="round" stroke-linejoin="round" stroke-miterlimit="10" stroke-width="1.2"/>
      <line id="Línea_2675" data-name="Línea 2675" transform="translate(51.373 29.959)" fill="none" stroke="#000" stroke-linecap="round" stroke-linejoin="round" stroke-miterlimit="10" stroke-width="1.2"/>
      <path id="Trazado_1055111" data-name="Trazado 1055111" d="M218.682,454.715h-18.5a2.678,2.678,0,0,1-2.678-2.678h0a2.678,2.678,0,0,1,2.678-2.678h18.5a2.678,2.678,0,0,1,2.678,2.678h0A2.678,2.678,0,0,1,218.682,454.715Z" transform="translate(-163.496 -373.695)" fill="#e0e7ef"/>
      <path id="Trazado_1055112" data-name="Trazado 1055112" d="M251.449,393.152H241.88l-1.679,7.2h12.927Z" transform="translate(-200.731 -324.684)" fill="#b7bcce"/>
      <line id="Línea_2676" data-name="Línea 2676" y1="1.048" transform="translate(18.882 59.551)" fill="none" stroke="#000" stroke-linecap="round" stroke-linejoin="round" stroke-miterlimit="10" stroke-width="1.2"/>
      <path id="Trazado_1055113" data-name="Trazado 1055113" d="M133.484,331.692v4.785a3.083,3.083,0,0,1-3.083,3.083H82.463a3.083,3.083,0,0,1-3.083-3.083v-4.785Z" transform="translate(-60.498 -271.092)" fill="#e0e7ef"/>
      <path id="Trazado_1055114" data-name="Trazado 1055114" d="M218.682,454.715h-18.5a2.678,2.678,0,0,1-2.678-2.678h0a2.678,2.678,0,0,1,2.678-2.678h18.5a2.678,2.678,0,0,1,2.678,2.678h0A2.678,2.678,0,0,1,218.682,454.715Z" transform="translate(-163.496 -373.695)" fill="none" stroke="#000" stroke-linecap="round" stroke-linejoin="round" stroke-miterlimit="10" stroke-width="1.2"/>
      <path id="Trazado_1055115" data-name="Trazado 1055115" d="M251.449,393.152H241.88l-1.679,7.2h12.927Z" transform="translate(-200.731 -324.684)" fill="none" stroke="#000" stroke-linecap="round" stroke-linejoin="round" stroke-miterlimit="10" stroke-width="1.2"/>
      <path id="Trazado_1055116" data-name="Trazado 1055116" d="M133.484,331.692v4.785a3.083,3.083,0,0,1-3.083,3.083H82.463a3.083,3.083,0,0,1-3.083-3.083v-4.785Z" transform="translate(-60.498 -271.092)" fill="none" stroke="#000" stroke-linecap="round" stroke-linejoin="round" stroke-miterlimit="10" stroke-width="1.2"/>
      <rect id="Rectángulo_422354" data-name="Rectángulo 422354" width="9.127" height="5.506" transform="translate(27.783 48.95)" fill="#ffce62"/>
      <rect id="Rectángulo_422355" data-name="Rectángulo 422355" width="9.313" height="5.506" transform="translate(55.461 36.801)" fill="#ff7e96"/>
      <rect id="Rectángulo_422356" data-name="Rectángulo 422356" width="9.127" height="5.506" transform="translate(27.783 48.95)" fill="none" stroke="#000" stroke-linecap="round" stroke-linejoin="round" stroke-miterlimit="10" stroke-width="1.2"/>
      <rect id="Rectángulo_422357" data-name="Rectángulo 422357" width="9.313" height="5.506" transform="translate(55.461 36.801)" fill="none" stroke="#000" stroke-linecap="round" stroke-linejoin="round" stroke-miterlimit="10" stroke-width="1.2"/>
      <path id="Trazado_1055117" data-name="Trazado 1055117" d="M292.633,229.961v4.555h-15.98" transform="translate(-232.516 -182.385)" fill="none" stroke="#000" stroke-linecap="round" stroke-linejoin="round" stroke-miterlimit="10" stroke-width="1.2"/>
      <line id="Línea_2677" data-name="Línea 2677" x2="8.726" transform="translate(39.356 39.553)" fill="none" stroke="#000" stroke-linecap="round" stroke-linejoin="round" stroke-miterlimit="10" stroke-width="1.2"/>
    </g>
  </g>
</svg>
