<svg xmlns="http://www.w3.org/2000/svg" xmlns:xlink="http://www.w3.org/1999/xlink" width="113" height="113" viewBox="0 0 113 113">
  <defs>
    <filter id="Trazado_982547" x="0" y="0" width="113" height="113" filterUnits="userSpaceOnUse">
      <feOffset dy="3" input="SourceAlpha"/>
      <feGaussianBlur stdDeviation="3" result="blur"/>
      <feFlood flood-opacity="0.161"/>
      <feComposite operator="in" in2="blur"/>
      <feComposite in="SourceGraphic"/>
    </filter>
  </defs>
  <g id="Grupo_1226121" data-name="Grupo 1226121" transform="translate(-585.509 -2877.76)">
    <g id="Grupo_1225492" data-name="Grupo 1225492" transform="translate(0 1582.418)">
      <g id="Grupo_1225176" data-name="Grupo 1225176" transform="translate(0 -3445.654)">
        <g id="Grupo_1224647" data-name="Grupo 1224647" transform="translate(0 1927)">
          <g id="Grupo_1224292" data-name="Grupo 1224292" transform="translate(0 859.245)">
            <g id="Grupo_1224092" data-name="Grupo 1224092" transform="translate(-88.49 -2620.317)">
              <g id="Grupo_1223184" data-name="Grupo 1223184" transform="translate(683 4581.069)">
                <g id="Grupo_1211216" data-name="Grupo 1211216" transform="translate(0)">
                  <g id="Grupo_1210737" data-name="Grupo 1210737">
                    <g id="Grupo_1210537" data-name="Grupo 1210537">
                      <g id="Grupo_1164202" data-name="Grupo 1164202">
                        <g id="Grupo_1158168" data-name="Grupo 1158168">
                          <g id="Grupo_1152576" data-name="Grupo 1152576">
                            <g id="Grupo_1148633" data-name="Grupo 1148633">
                              <g id="Grupo_1148525" data-name="Grupo 1148525">
                                <g transform="matrix(1, 0, 0, 1, -9, -6)" filter="url(#Trazado_982547)">
                                  <g id="Trazado_982547-2" data-name="Trazado 982547" transform="translate(9 6)" fill="#fdfbec">
                                    <path d="M 47.49999618530273 93.5 C 41.28936767578125 93.5 35.26533126831055 92.28396606445312 29.59518241882324 89.88570404052734 C 24.11771583557129 87.56893157958984 19.19812965393066 84.251953125 14.97308921813965 80.02690124511719 C 10.74803638458252 75.80186462402344 7.431062698364258 70.88227844238281 5.114289283752441 65.40480804443359 C 2.716022968292236 59.73466110229492 1.499996185302734 53.71062469482422 1.499996185302734 47.49999618530273 C 1.499996185302734 41.28936767578125 2.716022968292236 35.26533126831055 5.114289283752441 29.59518241882324 C 7.431062698364258 24.11771583557129 10.74803638458252 19.19812965393066 14.97308921813965 14.97308921813965 C 19.19812965393066 10.74803638458252 24.11771583557129 7.431062698364258 29.59518241882324 5.114289283752441 C 35.26533126831055 2.716022968292236 41.28936767578125 1.499996185302734 47.49999618530273 1.499996185302734 C 53.71062469482422 1.499996185302734 59.73466110229492 2.716022968292236 65.40480804443359 5.114289283752441 C 70.88227844238281 7.431062698364258 75.80186462402344 10.74803638458252 80.02690124511719 14.97308921813965 C 84.251953125 19.19812965393066 87.56893157958984 24.11771583557129 89.88570404052734 29.59518241882324 C 92.28396606445312 35.26533126831055 93.5 41.28936767578125 93.5 47.49999618530273 C 93.5 53.71062469482422 92.28396606445312 59.73466110229492 89.88570404052734 65.40480804443359 C 87.56893157958984 70.88227844238281 84.251953125 75.80186462402344 80.02690124511719 80.02690124511719 C 75.80186462402344 84.251953125 70.88227844238281 87.56893157958984 65.40480804443359 89.88570404052734 C 59.73466110229492 92.28396606445312 53.71062469482422 93.5 47.49999618530273 93.5 Z" stroke="none"/>
                                    <path d="M 47.49999618530273 2.999992370605469 C 41.4912109375 2.999992370605469 35.66376495361328 4.1761474609375 30.17950439453125 6.495796203613281 C 24.88084411621094 8.736953735351562 20.12152099609375 11.94598388671875 16.03375244140625 16.03375244140625 C 11.94598388671875 20.12152099609375 8.736953735351562 24.88084411621094 6.495796203613281 30.17950439453125 C 4.1761474609375 35.66376495361328 2.999992370605469 41.4912109375 2.999992370605469 47.49999618530273 C 2.999992370605469 53.50878143310547 4.1761474609375 59.33622741699219 6.495796203613281 64.82048797607422 C 8.736953735351562 70.11914825439453 11.94598388671875 74.87847137451172 16.03375244140625 78.96623992919922 C 20.12152099609375 83.05400848388672 24.88084411621094 86.26304626464844 30.17950439453125 88.50419616699219 C 35.66376495361328 90.82384490966797 41.4912109375 92 47.49999618530273 92 C 53.50878143310547 92 59.33622741699219 90.82384490966797 64.82048797607422 88.50419616699219 C 70.11914825439453 86.26304626464844 74.87847137451172 83.05400848388672 78.96623992919922 78.96623992919922 C 83.05400848388672 74.87847137451172 86.26304626464844 70.11914825439453 88.50419616699219 64.82048797607422 C 90.82384490966797 59.33622741699219 92 53.50878143310547 92 47.49999618530273 C 92 41.4912109375 90.82384490966797 35.66376495361328 88.50419616699219 30.17950439453125 C 86.26304626464844 24.88084411621094 83.05400848388672 20.12152099609375 78.96623992919922 16.03375244140625 C 74.87847137451172 11.94598388671875 70.11914825439453 8.736953735351562 64.82048797607422 6.495796203613281 C 59.33622741699219 4.1761474609375 53.50878143310547 2.999992370605469 47.49999618530273 2.999992370605469 M 47.49999618530273 -7.62939453125e-06 C 73.7335205078125 -7.62939453125e-06 95 21.26647186279297 95 47.49999618530273 C 95 73.7335205078125 73.7335205078125 95 47.49999618530273 95 C 21.26647186279297 95 -7.62939453125e-06 73.7335205078125 -7.62939453125e-06 47.49999618530273 C -7.62939453125e-06 21.26647186279297 21.26647186279297 -7.62939453125e-06 47.49999618530273 -7.62939453125e-06 Z" stroke="none" fill="#83793c"/>
                                  </g>
                                </g>
                              </g>
                            </g>
                          </g>
                        </g>
                      </g>
                    </g>
                  </g>
                </g>
              </g>
            </g>
          </g>
        </g>
      </g>
    </g>
    <g id="data-processing_18712614" transform="translate(594.527 2873.926)">
      <path id="Trazado_1054477" data-name="Trazado 1054477" d="M69.465,60.509l1.5-1.427a.851.851,0,0,1,.586-.233h1.713a.847.847,0,0,1,.606.254l1.881,1.881A.849.849,0,0,1,76,61.66V63.3a.845.845,0,0,1-.248.6L74.3,65.35a13.748,13.748,0,0,1,1.54,3.717l2.112.039a.847.847,0,0,1,.586.249l1.16,1.16a.847.847,0,0,1,.249.6v2.665a.847.847,0,0,1-.254.606l-1.2,1.2a.853.853,0,0,1-.6.249H75.833a13.7,13.7,0,0,1-1.536,3.7l1.454,1.452a.855.855,0,0,1,.249.6v1.713a.845.845,0,0,1-.254.606L73.868,85.8a.846.846,0,0,1-.6.249H71.559a.849.849,0,0,1-.608-.254L69.5,84.344a13.8,13.8,0,0,1-3.7,1.536v2.052a.847.847,0,0,1-.254.606l-1.2,1.207a.853.853,0,0,1-.6.249H61.076a.847.847,0,0,1-.606-.254l-1.207-1.207a.85.85,0,0,1-.249-.6V85.881A13.748,13.748,0,0,1,55.3,84.344L53.851,85.8a.845.845,0,0,1-.6.249H51.535a.85.85,0,0,1-.608-.254l-1.885-1.88a.847.847,0,0,1-.249-.6V81.6a.851.851,0,0,1,.253-.606l1.448-1.448c-.055-.092-.109-.184-.161-.277h-30.8A3.536,3.536,0,0,1,16,75.736V69.651a3.536,3.536,0,0,1,3.528-3.528h1.6V61.048h-1.6A3.536,3.536,0,0,1,16,57.52V51.435a3.536,3.536,0,0,1,3.528-3.528h1.6V42.831h-1.6A3.536,3.536,0,0,1,16,39.3V33.218a3.536,3.536,0,0,1,3.529-3.528H58.39a3.536,3.536,0,0,1,3.528,3.528V39.3a3.536,3.536,0,0,1-3.528,3.528h-1.6v5.076h1.6a3.536,3.536,0,0,1,3.528,3.528v3.457h1.816a.845.845,0,0,1,.606.254l1.207,1.206a.847.847,0,0,1,.249.6V59A13.261,13.261,0,0,1,69.465,60.509Z" fill-rule="evenodd"/>
      <path id="Trazado_1054478" data-name="Trazado 1054478" d="M69.467,42.47H30.607A1.833,1.833,0,0,0,28.78,44.3V50.38a1.833,1.833,0,0,0,1.827,1.827H69.467a1.835,1.835,0,0,0,1.827-1.827V44.3a1.835,1.835,0,0,0-1.827-1.825Zm-35,5.72a.851.851,0,0,1,0-1.7h9.52a.851.851,0,0,1,0,1.7Zm18.307-3.279a2.428,2.428,0,1,1-2.428,2.426,2.428,2.428,0,0,1,2.428-2.426Zm6.81,0a2.428,2.428,0,1,1-2.426,2.427,2.428,2.428,0,0,1,2.426-2.427Zm6.811,0a2.428,2.428,0,1,1-2.428,2.426A2.428,2.428,0,0,1,66.4,44.911Z" transform="translate(-11.077 -11.077)" fill="#fff" fill-rule="evenodd"/>
      <path id="Trazado_1054479" data-name="Trazado 1054479" d="M67.24,128.32H99.5v5.075H67.24Z" transform="translate(-44.413 -85.489)" fill="#3d7dbd"/>
      <g id="Grupo_1226120" data-name="Grupo 1226120" transform="translate(17.703 49.609)">
        <path id="Trazado_1054480" data-name="Trazado 1054480" d="M34.468,184.91a.851.851,0,1,1,0-1.7h9.52a.851.851,0,1,1,0,1.7Zm18.307-3.278a2.428,2.428,0,1,1-2.428,2.426A2.428,2.428,0,0,1,52.774,181.632Zm6.81,0a2.426,2.426,0,1,1-1.715.71,2.428,2.428,0,0,1,1.715-.71Zm6.811,0a2.428,2.428,0,1,1-2.428,2.426A2.428,2.428,0,0,1,66.4,181.632Zm-.013,8.492a13.7,13.7,0,0,1,3.7-1.536v-2.052a.849.849,0,0,1,.254-.608l.958-.957v-3.956a1.835,1.835,0,0,0-1.827-1.827H30.607a1.833,1.833,0,0,0-1.827,1.827V187.1a1.833,1.833,0,0,0,1.827,1.825H61.754c.266-.266.448-.5.858-.5h1.713a.847.847,0,0,1,.606.254Z" transform="translate(-28.78 -179.19)" fill="#3d7dbd" fill-rule="evenodd"/>
        <path id="Trazado_1054481" data-name="Trazado 1054481" d="M34.468,321.638a.851.851,0,1,1,0-1.7h9.52a.851.851,0,0,1,0,1.7Zm18.307-3.278a2.428,2.428,0,1,1-2.428,2.428A2.428,2.428,0,0,1,52.774,318.361Zm7.267-1.219q.158-.623.369-1.222h-29.8a1.833,1.833,0,0,0-1.827,1.825v6.085a1.833,1.833,0,0,0,1.827,1.827H60.6a13.827,13.827,0,0,1-.558-1.723H57.988a.847.847,0,0,1-.606-.254l-1.207-1.207a.85.85,0,0,1-.249-.6v-2.665a.85.85,0,0,1,.254-.608l1.208-1.2a.845.845,0,0,1,.6-.249Z" transform="translate(-28.78 -297.703)" fill="#3d7dbd" fill-rule="evenodd"/>
        <path id="Trazado_1054482" data-name="Trazado 1054482" d="M94.481,270.082c.133-.267.28-.524.432-.778l-1.458-1.452a.847.847,0,0,1-.249-.6v-1.716A.851.851,0,0,1,93.39,265H67.24v5.075Z" transform="translate(-62.116 -253.567)" fill="#fff" fill-rule="evenodd"/>
        <path id="Trazado_1054483" data-name="Trazado 1054483" d="M315.258,289.62a8.451,8.451,0,1,0,0,11.953A8.451,8.451,0,0,0,315.258,289.62Zm-.105,11.059a.85.85,0,0,1-1.7.127l-.021-.284a6.4,6.4,0,0,1-7.69.421.849.849,0,0,1,.945-1.41,4.713,4.713,0,0,0,5.416-.121l-.26.021a.85.85,0,1,1-.127-1.7l2.34-.183a.851.851,0,0,1,.911.785Zm-4.385-12.637a.85.85,0,1,1,.958,1.4l-.23.157a6.4,6.4,0,0,1,4.2,6.451.849.849,0,0,1-1.695-.107,4.71,4.71,0,0,0-2.81-4.63l.145.212a.85.85,0,0,1-1.4.958l-1.3-1.887a.847.847,0,0,1,.234-1.259l1.891-1.3Zm-8.751,10.114a.848.848,0,0,1,.731-1.53l.257.123a6.4,6.4,0,0,1,3.485-6.871.847.847,0,1,1,.745,1.522,4.71,4.71,0,0,0-2.6,4.751l.111-.232a.848.848,0,1,1,1.53.731l-.99,2.068a.846.846,0,0,1-1.2.424Z" transform="translate(-264.585 -272.762)" fill="#fff" fill-rule="evenodd"/>
        <path id="Trazado_1054484" data-name="Trazado 1054484" d="M268.914,237.239a.849.849,0,0,1-1.085.072,11.981,11.981,0,0,0-4.253-1.732.851.851,0,0,1-.723-.841v-2.376l-.713-.713h-1.963l-.713.713v2.38a.851.851,0,0,1-.725.841,11.928,11.928,0,0,0-2.232.681,12.064,12.064,0,0,0-2.046,1.081.851.851,0,0,1-1.128-.067l-1.683-1.683h-1.009l-1.387,1.387v1.009l1.683,1.683A.85.85,0,0,1,251,240.8a12.355,12.355,0,0,0-1.085,2.044,12.041,12.041,0,0,0-.68,2.233.853.853,0,0,1-.842.723h-2.376l-.713.713v1.963l.713.713H248.4a.853.853,0,0,1,.842.725,12.5,12.5,0,0,0,1.085,3.11,12.276,12.276,0,0,0,.68,1.166.851.851,0,0,1-.067,1.129L249.258,257v1.009l1.387,1.387h1.009l1.683-1.683a.851.851,0,0,1,1.128-.067,12.162,12.162,0,0,0,2.044,1.085,12.028,12.028,0,0,0,2.232.68.851.851,0,0,1,.725.842v2.378l.713.713h1.963l.713-.713v-2.378a.851.851,0,0,1,.723-.842,12.042,12.042,0,0,0,2.233-.68,12.212,12.212,0,0,0,2.044-1.085.85.85,0,0,1,1.127.067l1.683,1.683h1.009l1.387-1.387V257l-1.676-1.683a.851.851,0,0,1-.067-1.129,12.136,12.136,0,0,0,1.765-4.276.851.851,0,0,1,.841-.725h2.38l.713-.713v-1.963l-.666-.666-2.373-.043a.851.851,0,0,1-.882-.686,11.991,11.991,0,0,0-.687-2.265,12.115,12.115,0,0,0-1.085-2.044.85.85,0,0,1,.067-1.127L273.075,238v-1l-1.391-1.39h-1.025l-1.732,1.644Zm-7.756.1A10.154,10.154,0,1,1,251.006,247.5a10.154,10.154,0,0,1,10.153-10.153Z" transform="translate(-216.46 -224.66)" fill="#3d7dbd" fill-rule="evenodd"/>
      </g>
    </g>
  </g>
</svg>
