<svg xmlns="http://www.w3.org/2000/svg" xmlns:xlink="http://www.w3.org/1999/xlink" width="113" height="113" viewBox="0 0 113 113">
  <defs>
    <filter id="Trazado_982547" x="0" y="0" width="113" height="113" filterUnits="userSpaceOnUse">
      <feOffset dy="3" input="SourceAlpha"/>
      <feGaussianBlur stdDeviation="3" result="blur"/>
      <feFlood flood-opacity="0.161"/>
      <feComposite operator="in" in2="blur"/>
      <feComposite in="SourceGraphic"/>
    </filter>
  </defs>
  <g id="Grupo_1226124" data-name="Grupo 1226124" transform="translate(9 6)">
    <g id="Grupo_1225517" data-name="Grupo 1225517" transform="translate(0)">
      <g id="Grupo_1225179" data-name="Grupo 1225179">
        <g id="Grupo_1224650" data-name="Grupo 1224650">
          <g id="Grupo_1224294" data-name="Grupo 1224294">
            <g id="Grupo_1224094" data-name="Grupo 1224094">
              <g id="Grupo_1223184" data-name="Grupo 1223184" transform="translate(0)">
                <g id="Grupo_1211216" data-name="Grupo 1211216">
                  <g id="Grupo_1210737" data-name="Grupo 1210737">
                    <g id="Grupo_1210537" data-name="Grupo 1210537">
                      <g id="Grupo_1164202" data-name="Grupo 1164202">
                        <g id="Grupo_1158168" data-name="Grupo 1158168">
                          <g id="Grupo_1152576" data-name="Grupo 1152576">
                            <g id="Grupo_1148633" data-name="Grupo 1148633">
                              <g id="Grupo_1148525" data-name="Grupo 1148525">
                                <g transform="matrix(1, 0, 0, 1, -9, -6)" filter="url(#Trazado_982547)">
                                  <g id="Trazado_982547-2" data-name="Trazado 982547" transform="translate(9 6)" fill="#fdfbec">
                                    <path d="M 47.5 93.5 C 41.28937149047852 93.5 35.26533508300781 92.28397369384766 29.59518623352051 89.88570404052734 C 24.11771965026855 87.56893157958984 19.19813346862793 84.25196075439453 14.97309303283691 80.02691650390625 C 10.74804019927979 75.80186462402344 7.431066513061523 70.88229370117188 5.114293098449707 65.40481567382812 C 2.716026782989502 59.73468017578125 1.5 53.71062850952148 1.5 47.5 C 1.5 41.28937149047852 2.716026782989502 35.26533508300781 5.114293098449707 29.59518623352051 C 7.431066513061523 24.11771965026855 10.74804019927979 19.19813346862793 14.97309303283691 14.97309303283691 C 19.19813346862793 10.74804019927979 24.11771965026855 7.431066513061523 29.59518623352051 5.114293098449707 C 35.26533508300781 2.716026782989502 41.28937149047852 1.5 47.5 1.5 C 53.71062850952148 1.5 59.73468017578125 2.716026782989502 65.40481567382812 5.114293098449707 C 70.88229370117188 7.431066513061523 75.80186462402344 10.74804019927979 80.02691650390625 14.97309303283691 C 84.25196075439453 19.19813346862793 87.56893157958984 24.11771965026855 89.88570404052734 29.59518623352051 C 92.28397369384766 35.26533508300781 93.5 41.28937149047852 93.5 47.5 C 93.5 53.71062850952148 92.28397369384766 59.73468017578125 89.88570404052734 65.40481567382812 C 87.56893157958984 70.88229370117188 84.25196075439453 75.80186462402344 80.02691650390625 80.02691650390625 C 75.80186462402344 84.25196075439453 70.88229370117188 87.56893157958984 65.40481567382812 89.88570404052734 C 59.73468017578125 92.28397369384766 53.71062850952148 93.5 47.5 93.5 Z" stroke="none"/>
                                    <path d="M 47.5 3 C 41.49121475219727 3 35.66376876831055 4.176155090332031 30.17950439453125 6.495796203613281 C 24.88084411621094 8.736953735351562 20.12152099609375 11.94598388671875 16.03375244140625 16.03375244140625 C 11.94598388671875 20.12152099609375 8.736953735351562 24.88084411621094 6.495796203613281 30.17950439453125 C 4.176155090332031 35.66376876831055 3 41.49121475219727 3 47.5 C 3 53.50878524780273 4.176155090332031 59.33623123168945 6.495796203613281 64.82049560546875 C 8.736953735351562 70.11915588378906 11.94598388671875 74.87847900390625 16.03375244140625 78.96624755859375 C 20.12152099609375 83.05401611328125 24.88084411621094 86.26304626464844 30.17950439453125 88.50419616699219 C 35.66376876831055 90.82384490966797 41.49121475219727 92 47.5 92 C 53.50878524780273 92 59.33623123168945 90.82384490966797 64.82049560546875 88.50419616699219 C 70.11915588378906 86.26304626464844 74.87847900390625 83.05401611328125 78.96624755859375 78.96624755859375 C 83.05401611328125 74.87847900390625 86.26304626464844 70.11915588378906 88.50419616699219 64.82049560546875 C 90.82384490966797 59.33623123168945 92 53.50878524780273 92 47.5 C 92 41.49121475219727 90.82384490966797 35.66376876831055 88.50419616699219 30.17950439453125 C 86.26304626464844 24.88084411621094 83.05401611328125 20.12152099609375 78.96624755859375 16.03375244140625 C 74.87847900390625 11.94598388671875 70.11915588378906 8.736953735351562 64.82049560546875 6.495796203613281 C 59.33623123168945 4.176155090332031 53.50878524780273 3 47.5 3 M 47.5 0 C 73.7335205078125 0 95 21.2664794921875 95 47.5 C 95 73.7335205078125 73.7335205078125 95 47.5 95 C 21.2664794921875 95 0 73.7335205078125 0 47.5 C 0 21.2664794921875 21.2664794921875 0 47.5 0 Z" stroke="none" fill="#83793c"/>
                                  </g>
                                </g>
                              </g>
                            </g>
                          </g>
                        </g>
                      </g>
                    </g>
                  </g>
                </g>
              </g>
            </g>
          </g>
        </g>
      </g>
    </g>
    <g id="compliance_17729745" transform="translate(17.151 16.673)">
      <g id="Grupo_1226123" data-name="Grupo 1226123" transform="translate(6.52 0.931)">
        <path id="Trazado_1054515" data-name="Trazado 1054515" d="M89.64,225.42h40.234a2.453,2.453,0,0,1,2.5,2.4v22.77H117.239l-2.77,4.61h-9.677l-2.77-4.61H87.14v-22.77A2.456,2.456,0,0,1,89.64,225.42Z" transform="translate(-85.429 -199.611)" fill="#5677fc" fill-rule="evenodd"/>
        <path id="Trazado_1054516" data-name="Trazado 1054516" d="M118.75,255.24h36.826v21.2h-10.93l-2.77,4.61H132.2l-2.77-4.61H118.75Z" transform="translate(-112.835 -225.466)" fill="#7986cc" fill-rule="evenodd"/>
        <path id="Trazado_1054517" data-name="Trazado 1054517" d="M118.75,255.24h35.519c-.008,10.464-23.159,22.255-35.519,16.584Z" transform="translate(-112.835 -225.466)" fill="#e8eaf6" fill-rule="evenodd"/>
        <path id="Trazado_1054518" data-name="Trazado 1054518" d="M150.367,144.09h24.712a2.143,2.143,0,0,1,2.137,2.137v39.714H148.23V146.227A2.143,2.143,0,0,1,150.367,144.09Z" transform="translate(-138.395 -129.096)" fill="#a6cfe2" fill-rule="evenodd"/>
        <path id="Trazado_1054519" data-name="Trazado 1054519" d="M171.094,144.09h23.325a2.143,2.143,0,0,1,2.137,2.137v30.068a13.737,13.737,0,0,1-6.887.787c-10.271-1.383-18.836-13.268-19.126-26.551A29.452,29.452,0,0,1,171.094,144.09Z" transform="translate(-157.735 -129.096)" fill="#c5f3ff" fill-rule="evenodd"/>
        <path id="Trazado_1054520" data-name="Trazado 1054520" d="M74.27,414.69H91.612l2.5,3.686h8.738l2.5-3.686H122.92v5.044c0,2.077-1.995,3.774-4.433,3.774H78.707c-2.439,0-4.436-1.7-4.436-3.774V414.69Z" transform="translate(-74.27 -363.713)" fill="#5677fc" fill-rule="evenodd"/>
        <path id="Trazado_1054521" data-name="Trazado 1054521" d="M74.27,414.69H91.612l2.5,3.686h8.738l2.5-3.686h13.871v2.447c0,2.077-2,3.776-4.436,3.776H75.013c-.181,0-.354-.011-.528-.027a3.225,3.225,0,0,1-.215-1.153Z" transform="translate(-74.27 -363.713)" fill="#7691fc" fill-rule="evenodd"/>
        <path id="Trazado_1054522" data-name="Trazado 1054522" d="M179.6,31.33h1.745a.926.926,0,0,1,.927.927v.678a.917.917,0,0,0,.69.894,9.472,9.472,0,0,1,2.307.957.912.912,0,0,0,1.12-.148l.483-.479a.925.925,0,0,1,1.308,0l1.237,1.233a.928.928,0,0,1,0,1.311l-.479.483a.909.909,0,0,0-.148,1.116,9.7,9.7,0,0,1,.953,2.311.923.923,0,0,0,.9.69h.678a.928.928,0,0,1,.927.923v1.749a.928.928,0,0,1-.927.923h-.678a.925.925,0,0,0-.9.69,9.719,9.719,0,0,1-.953,2.311.913.913,0,0,0,.148,1.12l.479.479a.928.928,0,0,1,0,1.311l-1.237,1.233a.925.925,0,0,1-1.308,0l-.483-.479a.914.914,0,0,0-1.12-.148,9.472,9.472,0,0,1-2.307.957.915.915,0,0,0-.69.894v.678a.927.927,0,0,1-.927.927H179.6a.928.928,0,0,1-.927-.927v-.678a.913.913,0,0,0-.686-.894,9.5,9.5,0,0,1-2.311-.957.913.913,0,0,0-1.12.148l-.479.479a.928.928,0,0,1-1.311,0l-1.233-1.233a.928.928,0,0,1,0-1.311l.479-.479a.915.915,0,0,0,.148-1.12,9.5,9.5,0,0,1-.957-2.311.915.915,0,0,0-.894-.69h-.678a.925.925,0,0,1-.927-.923V42.226a.925.925,0,0,1,.927-.923h.678a.917.917,0,0,0,.894-.69,9.567,9.567,0,0,1,.957-2.311.907.907,0,0,0-.148-1.116l-.479-.483a.928.928,0,0,1,0-1.311l1.233-1.233a.928.928,0,0,1,1.311,0l.479.479a.915.915,0,0,0,1.12.148,9.5,9.5,0,0,1,2.311-.957.913.913,0,0,0,.686-.894v-.678a.929.929,0,0,1,.927-.927Z" transform="translate(-156.143 -31.33)" fill="gray" fill-rule="evenodd"/>
        <path id="Trazado_1054523" data-name="Trazado 1054523" d="M214.3,70.05a6.6,6.6,0,1,1-6.6,6.6A6.6,6.6,0,0,1,214.3,70.05Z" transform="translate(-189.957 -64.901)" fill="#b3b3b3" fill-rule="evenodd"/>
        <path id="Trazado_1054524" data-name="Trazado 1054524" d="M226.792,84.413A6.6,6.6,0,0,1,215.685,91.3a6.6,6.6,0,0,1,11.107-6.883Z" transform="translate(-196.399 -75.306)" fill="#e6e6e6" fill-rule="evenodd"/>
        <path id="Trazado_1054525" data-name="Trazado 1054525" d="M272.554,96.39a1.674,1.674,0,1,1-1.674,1.674A1.676,1.676,0,0,1,272.554,96.39Z" transform="translate(-244.736 -87.739)" fill="#fff" fill-rule="evenodd"/>
        <path id="Trazado_1054526" data-name="Trazado 1054526" d="M297.853,66.71a.771.771,0,1,1-.773.773A.768.768,0,0,1,297.853,66.71Z" transform="translate(-267.452 -62.005)" fill="#b3b3b3" fill-rule="evenodd"/>
        <path id="Trazado_1054527" data-name="Trazado 1054527" d="M174.73,243.5h6.905v6.529H174.73Z" transform="translate(-161.371 -215.287)" fill="#fff3b7" fill-rule="evenodd"/>
        <path id="Trazado_1054528" data-name="Trazado 1054528" d="M174.73,336.65h6.905v6.529H174.73Z" transform="translate(-161.371 -296.05)" fill="#fff3b7" fill-rule="evenodd"/>
      </g>
      <path id="Trazado_1054529" data-name="Trazado 1054529" d="M46.612,68.767a.931.931,0,1,1,1.319-1.315l.882.882.976-1.541H46.049v4.666H51.1V68.2c-.2.312-1.311,2.126-1.463,2.273a.925.925,0,0,1-1.315,0Zm4.354-3.838.923-1.463a.927.927,0,1,1,1.568.988l-.61.969a.893.893,0,0,1,.109.437v6.529a.931.931,0,0,1-.931.931H45.118a.933.933,0,0,1-.931-.931V65.862a.931.931,0,0,1,.931-.931h5.847Zm-4.354-8.292a.931.931,0,1,1,1.319-1.315l.832.832.968-1.749H46.049v4.666H51.1v-3.3l-1.274,2.291a.925.925,0,0,1-1.5.275Zm4.15-4.094.739-1.331a.927.927,0,0,1,1.621.9l-.407.735a.927.927,0,0,1,.241.626V60a.931.931,0,0,1-.931.931H45.12A.933.933,0,0,1,44.189,60V53.475a.934.934,0,0,1,.931-.931h5.642ZM61.727,67.851a.931.931,0,0,1,0-1.862h5.3a.931.931,0,0,1,0,1.862ZM55.97,71.511a.931.931,0,1,1,0-1.862H67.026a.931.931,0,1,1,0,1.862Zm0-3.659a.931.931,0,1,1,0-1.862h3.336a.931.931,0,1,1,0,1.862Zm5.756-12.119a.931.931,0,1,1,0-1.862h5.3a.931.931,0,1,1,0,1.862ZM55.97,59.393a.931.931,0,0,1,0-1.862H67.026a.931.931,0,1,1,0,1.862Zm0-3.661a.931.931,0,1,1,0-1.862h3.336a.931.931,0,1,1,0,1.862ZM56.1,29.479A7.532,7.532,0,1,1,48.57,37.01,7.532,7.532,0,0,1,56.1,29.479ZM60.112,33a5.67,5.67,0,1,0,0,8.021A5.671,5.671,0,0,0,60.112,33Zm-4.9-8.67h1.745a1.859,1.859,0,0,1,1.855,1.859v.674a10.627,10.627,0,0,1,2.529,1.048c.543-.543.927-1.021,1.794-1.021a1.848,1.848,0,0,1,1.311.543l1.237,1.237a1.862,1.862,0,0,1,0,2.628l-.479.479A10.626,10.626,0,0,1,66.256,34.3a2.363,2.363,0,0,1,1.991.543,1.849,1.849,0,0,1,.543,1.311V37.9a1.848,1.848,0,0,1-.547,1.311l0,0c-.037.037-.08.072-.117.105h.312a3.076,3.076,0,0,1,3.068,3.068v7.746H76.2a3.39,3.39,0,0,1,3.427,3.328V65.025h3.943a.931.931,0,1,1,0,1.862H79.629V75.3h.785a.931.931,0,0,1,.931.931v5.044c0,2.737-2.6,4.7-5.368,4.7H36.2c-2.767,0-5.364-1.968-5.364-4.7V76.235a.928.928,0,0,1,.931-.931h.781V66.887H28.606a.931.931,0,1,1,0-1.862h3.939V53.465a3.389,3.389,0,0,1,3.427-3.328h4.693V42.391a3.076,3.076,0,0,1,3.068-3.068h.316a1.857,1.857,0,0,1-.664-1.421V36.157A1.864,1.864,0,0,1,45.242,34.3h.678a10.4,10.4,0,0,1,1.048-2.529c-.543-.543-1.025-.927-1.025-1.794a1.85,1.85,0,0,1,.547-1.311h0l1.237-1.237a1.862,1.862,0,0,1,2.628,0l.479.479a10.587,10.587,0,0,1,2.533-1.048v-.674h0a1.863,1.863,0,0,1,1.859-1.858ZM65.764,41.186a11.434,11.434,0,0,1-.555,1.105c.543.543,1.021.923,1.021,1.794a1.857,1.857,0,0,1-.547,1.311h0l-1.237,1.233a1.853,1.853,0,0,1-2.673-.049l-.43-.43A10.707,10.707,0,0,1,58.82,47.2a2.348,2.348,0,0,1-.555,1.991,1.845,1.845,0,0,1-1.3.543H55.216a1.866,1.866,0,0,1-1.858-1.858V47.2a10.57,10.57,0,0,1-2.529-1.052c-.543.543-.923,1.025-1.794,1.025a1.848,1.848,0,0,1-1.311-.543L46.492,45.4a1.855,1.855,0,0,1,0-2.628l.479-.479a10.453,10.453,0,0,1-.554-1.105H43.731a1.215,1.215,0,0,0-1.206,1.206V75.306H49.1a.927.927,0,0,1,.818.483l2.175,3.2h7.762l2.223-3.275a.919.919,0,0,1,.765-.407v0h6.8V42.392a1.212,1.212,0,0,0-1.206-1.206ZM56.958,26.192H55.216v.674h0a1.854,1.854,0,0,1-1.379,1.794,8.732,8.732,0,0,0-2.085.859,1.849,1.849,0,0,1-2.243-.29l-.479-.479-1.229,1.229.479.479a1.854,1.854,0,0,1,.294,2.243,8.47,8.47,0,0,0-.863,2.085,1.852,1.852,0,0,1-1.794,1.376h-.674V37.9a2.538,2.538,0,0,1,1.806.384c.656.5.622,1.025.848,1.6a8.334,8.334,0,0,0,.678,1.477,1.855,1.855,0,0,1-.294,2.243l-.479.479,1.229,1.229a2.546,2.546,0,0,1,1.553-1.007c.882-.117,1.3.392,2.137.717l1.116.38A1.854,1.854,0,0,1,55.22,47.2v.674h1.738a2.556,2.556,0,0,1,.38-1.806c.547-.713,1.2-.641,2.024-1.007l1.056-.52a1.859,1.859,0,0,1,2.239.29l.483.483,1.229-1.229-.479-.479,0,0a1.838,1.838,0,0,1-.294-2.239,8.745,8.745,0,0,0,.5-1.015h0l.358-1.07a1.855,1.855,0,0,1,1.794-1.38v0h.674V36.159a2.546,2.546,0,0,1-1.8-.38,1.848,1.848,0,0,1-.668-.995A8.666,8.666,0,0,0,63.6,32.7a1.854,1.854,0,0,1,.29-2.243l.479-.479-1.229-1.229a2.548,2.548,0,0,1-1.549,1.007,1.823,1.823,0,0,1-1.173-.238,8.612,8.612,0,0,0-2.085-.859,1.852,1.852,0,0,1-1.376-1.794v-.673ZM66.931,37.9s0,0,0,0v0l0,0ZM55.216,47.877Zm-6.6,29.292H32.694v4.113c0,1.7,1.745,2.842,3.5,2.842H75.978c1.757,0,3.505-1.146,3.505-2.842V77.169H63.336l-2.175,3.2a.934.934,0,0,1-.818.483H51.6v0a.919.919,0,0,1-.765-.407Zm-7.953-1.862V55.966H38.605V75.307Zm0-21.2V52H35.971a1.519,1.519,0,0,0-1.564,1.467v12.2a.949.949,0,0,1,.045.294.9.9,0,0,1-.045.29v9.058h2.336V55.035a.933.933,0,0,1,.931-.931ZM71.511,52v2.1H74.5a.931.931,0,0,1,.931.931V75.307h2.34V53.467A1.52,1.52,0,0,0,76.2,52Zm0,3.965V75.307h2.058V55.966ZM27.1,63.524a.931.931,0,0,1-1.862,0V59.514a.931.931,0,0,1,1.862,0Zm0-9.165a.931.931,0,1,1-1.862,0v-5.4a.931.931,0,1,1,1.862,0Zm0-10.55a.931.931,0,0,1-1.862,0V39.8a.931.931,0,1,1,1.862,0Zm1.5-5.51a.931.931,0,1,1,0-1.862h5.3a.931.931,0,0,1,0,1.862Zm50.565,0a.931.931,0,0,1,0-1.862h4.4a.931.931,0,0,1,0,1.862Zm5.907,1.5a.931.931,0,1,1,1.862,0v4.007a.931.931,0,1,1-1.862,0Zm0,9.159a.931.931,0,1,1,1.862,0v5.4a.931.931,0,1,1-1.862,0Zm0,10.55a.931.931,0,1,1,1.862,0v4.01a.931.931,0,1,1-1.862,0Z" transform="translate(-25.24 -24.33)"/>
    </g>
  </g>
</svg>
