<svg xmlns="http://www.w3.org/2000/svg" xmlns:xlink="http://www.w3.org/1999/xlink" width="113" height="113" viewBox="0 0 113 113">
  <defs>
    <filter id="Trazado_982547" x="0" y="0" width="113" height="113" filterUnits="userSpaceOnUse">
      <feOffset dy="3" input="SourceAlpha"/>
      <feGaussianBlur stdDeviation="3" result="blur"/>
      <feFlood flood-opacity="0.161"/>
      <feComposite operator="in" in2="blur"/>
      <feComposite in="SourceGraphic"/>
    </filter>
  </defs>
  <g id="Grupo_1226122" data-name="Grupo 1226122" transform="translate(9 6)">
    <g id="Grupo_1225515" data-name="Grupo 1225515" transform="translate(0)">
      <g id="Grupo_1225177" data-name="Grupo 1225177">
        <g id="Grupo_1224648" data-name="Grupo 1224648">
          <g id="Grupo_1224293" data-name="Grupo 1224293">
            <g id="Grupo_1224093" data-name="Grupo 1224093">
              <g id="Grupo_1223184" data-name="Grupo 1223184" transform="translate(0)">
                <g id="Grupo_1211216" data-name="Grupo 1211216">
                  <g id="Grupo_1210737" data-name="Grupo 1210737">
                    <g id="Grupo_1210537" data-name="Grupo 1210537">
                      <g id="Grupo_1164202" data-name="Grupo 1164202">
                        <g id="Grupo_1158168" data-name="Grupo 1158168">
                          <g id="Grupo_1152576" data-name="Grupo 1152576">
                            <g id="Grupo_1148633" data-name="Grupo 1148633">
                              <g id="Grupo_1148525" data-name="Grupo 1148525">
                                <g transform="matrix(1, 0, 0, 1, -9, -6)" filter="url(#Trazado_982547)">
                                  <g id="Trazado_982547-2" data-name="Trazado 982547" transform="translate(9 6)" fill="#fdfbec">
                                    <path d="M 47.5 93.5 C 41.28937149047852 93.5 35.26533508300781 92.28397369384766 29.59518623352051 89.88570404052734 C 24.11771965026855 87.56893157958984 19.19813346862793 84.25196075439453 14.97309303283691 80.02691650390625 C 10.74804019927979 75.80186462402344 7.431066513061523 70.88229370117188 5.114293098449707 65.40481567382812 C 2.716026782989502 59.73468017578125 1.5 53.71062850952148 1.5 47.5 C 1.5 41.28937149047852 2.716026782989502 35.26533508300781 5.114293098449707 29.59518623352051 C 7.431066513061523 24.11771965026855 10.74804019927979 19.19813346862793 14.97309303283691 14.97309303283691 C 19.19813346862793 10.74804019927979 24.11771965026855 7.431066513061523 29.59518623352051 5.114293098449707 C 35.26533508300781 2.716026782989502 41.28937149047852 1.5 47.5 1.5 C 53.71062850952148 1.5 59.73468017578125 2.716026782989502 65.40481567382812 5.114293098449707 C 70.88229370117188 7.431066513061523 75.80186462402344 10.74804019927979 80.02691650390625 14.97309303283691 C 84.25196075439453 19.19813346862793 87.56893157958984 24.11771965026855 89.88570404052734 29.59518623352051 C 92.28397369384766 35.26533508300781 93.5 41.28937149047852 93.5 47.5 C 93.5 53.71062850952148 92.28397369384766 59.73468017578125 89.88570404052734 65.40481567382812 C 87.56893157958984 70.88229370117188 84.25196075439453 75.80186462402344 80.02691650390625 80.02691650390625 C 75.80186462402344 84.25196075439453 70.88229370117188 87.56893157958984 65.40481567382812 89.88570404052734 C 59.73468017578125 92.28397369384766 53.71062850952148 93.5 47.5 93.5 Z" stroke="none"/>
                                    <path d="M 47.5 3 C 41.49121475219727 3 35.66376876831055 4.176155090332031 30.17950439453125 6.495796203613281 C 24.88084411621094 8.736953735351562 20.12152099609375 11.94598388671875 16.03375244140625 16.03375244140625 C 11.94598388671875 20.12152099609375 8.736953735351562 24.88084411621094 6.495796203613281 30.17950439453125 C 4.176155090332031 35.66376876831055 3 41.49121475219727 3 47.5 C 3 53.50878524780273 4.176155090332031 59.33623123168945 6.495796203613281 64.82049560546875 C 8.736953735351562 70.11915588378906 11.94598388671875 74.87847900390625 16.03375244140625 78.96624755859375 C 20.12152099609375 83.05401611328125 24.88084411621094 86.26304626464844 30.17950439453125 88.50419616699219 C 35.66376876831055 90.82384490966797 41.49121475219727 92 47.5 92 C 53.50878524780273 92 59.33623123168945 90.82384490966797 64.82049560546875 88.50419616699219 C 70.11915588378906 86.26304626464844 74.87847900390625 83.05401611328125 78.96624755859375 78.96624755859375 C 83.05401611328125 74.87847900390625 86.26304626464844 70.11915588378906 88.50419616699219 64.82049560546875 C 90.82384490966797 59.33623123168945 92 53.50878524780273 92 47.5 C 92 41.49121475219727 90.82384490966797 35.66376876831055 88.50419616699219 30.17950439453125 C 86.26304626464844 24.88084411621094 83.05401611328125 20.12152099609375 78.96624755859375 16.03375244140625 C 74.87847900390625 11.94598388671875 70.11915588378906 8.736953735351562 64.82049560546875 6.495796203613281 C 59.33623123168945 4.176155090332031 53.50878524780273 3 47.5 3 M 47.5 0 C 73.7335205078125 0 95 21.2664794921875 95 47.5 C 95 73.7335205078125 73.7335205078125 95 47.5 95 C 21.2664794921875 95 0 73.7335205078125 0 47.5 C 0 21.2664794921875 21.2664794921875 0 47.5 0 Z" stroke="none" fill="#83793c"/>
                                  </g>
                                </g>
                              </g>
                            </g>
                          </g>
                        </g>
                      </g>
                    </g>
                  </g>
                </g>
              </g>
            </g>
          </g>
        </g>
      </g>
    </g>
    <g id="Layer_x0020_1" transform="translate(19.724 15.182)">
      <path id="Trazado_1054485" data-name="Trazado 1054485" d="M100.05,295.7H72.6a3.572,3.572,0,0,1-3.6-3.6V253.559A3.564,3.564,0,0,1,72.6,250H100.05a3.588,3.588,0,0,1,3.6,3.559v38.547A3.6,3.6,0,0,1,100.05,295.7ZM72.6,251.477a2.077,2.077,0,0,0-2.083,2.083v38.547a2.053,2.053,0,0,0,2.083,2.083H100.05a2.077,2.077,0,0,0,2.083-2.083V253.559a2.1,2.1,0,0,0-2.083-2.083Z" transform="translate(-69 -240.534)" fill="#212121" fill-rule="evenodd"/>
      <path id="Trazado_1054486" data-name="Trazado 1054486" d="M958.141,461.148h-9.012a.76.76,0,0,1-.757-.757v-5.528c-.227-.114-.417-.227-.606-.341l-2.991,1.742a.788.788,0,0,1-1.06-.265.8.8,0,0,1,.3-1.06l3.408-1.969a.847.847,0,0,1,.8.038,7.862,7.862,0,0,0,1.212.719.748.748,0,0,1,.454.682v5.225h7.5v-5.225a.715.715,0,0,1,.417-.682,7.854,7.854,0,0,0,1.212-.719.925.925,0,0,1,.833-.038l4.506,2.651,3.749-6.513-4.506-2.613a.714.714,0,0,1-.379-.719v-1.4a.714.714,0,0,1,.379-.719l4.506-2.613-3.749-6.513-4.506,2.613a.745.745,0,0,1-.833-.038,7.631,7.631,0,0,0-1.212-.682.8.8,0,0,1-.417-.682v-5.225h-7.5v5.225a.84.84,0,0,1-.454.682,7.639,7.639,0,0,0-1.212.682.684.684,0,0,1-.8.038l-3.408-1.969a.746.746,0,0,1-.3-1.022.755.755,0,0,1,1.06-.265l2.991,1.7c.189-.114.379-.227.606-.341v-5.49a.76.76,0,0,1,.757-.757h9.012a.76.76,0,0,1,.757.757v5.49l.568.341,4.809-2.726a.72.72,0,0,1,1.022.265l4.506,7.8a.757.757,0,0,1,.076.568.705.705,0,0,1-.341.454l-4.809,2.764c0,.114.038.227.038.341s-.038.227-.038.341l4.809,2.764a.788.788,0,0,1,.265,1.06l-4.506,7.8a.751.751,0,0,1-1.022.265l-4.809-2.764-.568.341v5.528A.76.76,0,0,1,958.141,461.148Z" transform="translate(-910.507 -412.756)" fill="#212121" fill-rule="evenodd"/>
      <path id="Trazado_1054487" data-name="Trazado 1054487" d="M1057.6,717.17a5.585,5.585,0,1,1,5.566-5.6A5.591,5.591,0,0,1,1057.6,717.17Zm0-9.428a3.824,3.824,0,1,0,3.824,3.824A3.838,3.838,0,0,0,1057.6,707.742Z" transform="translate(-1014.778 -679.267)" fill="#212121" fill-rule="evenodd"/>
      <path id="Trazado_1054488" data-name="Trazado 1054488" d="M527.394,1338.5H506.757a.76.76,0,0,1-.757-.757v-9.466a.757.757,0,1,1,1.515,0v8.709h19.879a3.975,3.975,0,0,0,3.976-3.976v-8.255a.757.757,0,0,1,1.515,0v8.255A5.494,5.494,0,0,1,527.394,1338.5Z" transform="translate(-489.453 -1273.866)" fill="#212121" fill-rule="evenodd"/>
      <path id="Trazado_1054489" data-name="Trazado 1054489" d="M1107.044,1330.286a.744.744,0,0,1-.644-.341l-2.2-3.711-2.2,3.711a.773.773,0,0,1-1.325-.8l2.878-4.771a.733.733,0,0,1,.644-.379.781.781,0,0,1,.644.379l2.84,4.771a.755.755,0,0,1-.265,1.06A1.122,1.122,0,0,1,1107.044,1330.286Z" transform="translate(-1061.53 -1273.866)" fill="#212121" fill-rule="evenodd"/>
      <path id="Trazado_1054490" data-name="Trazado 1054490" d="M1104.2,222.465a.733.733,0,0,1-.644-.379l-2.878-4.771a.826.826,0,0,1,.265-1.06.787.787,0,0,1,1.06.265l2.2,3.711,2.2-3.711a.757.757,0,1,1,1.287.8l-2.84,4.771A.781.781,0,0,1,1104.2,222.465Z" transform="translate(-1061.53 -207.963)" fill="#212121" fill-rule="evenodd"/>
      <path id="Trazado_1054491" data-name="Trazado 1054491" d="M532.127,14.5a.76.76,0,0,1-.757-.757V5.49a3.975,3.975,0,0,0-3.976-3.976H507.515v8.671a.757.757,0,1,1-1.515,0V.757A.76.76,0,0,1,506.757,0h20.637a5.494,5.494,0,0,1,5.49,5.49v8.255A.76.76,0,0,1,532.127,14.5Z" transform="translate(-489.453)" fill="#212121" fill-rule="evenodd"/>
      <path id="Trazado_1054492" data-name="Trazado 1054492" d="M186.921,162.515h-9.163a.757.757,0,0,1,0-1.515h9.163a.757.757,0,1,1,0,1.515Z" transform="translate(-172.911 -154.904)" fill="#212121" fill-rule="evenodd"/>
      <path id="Trazado_1054493" data-name="Trazado 1054493" d="M303.339,54.515h-4.582a.757.757,0,1,1,0-1.515h4.582a.757.757,0,1,1,0,1.515Z" transform="translate(-289.329 -50.993)" fill="#212121" fill-rule="evenodd"/>
      <path id="Trazado_1054494" data-name="Trazado 1054494" d="M201.921,1501.515h-9.163a.757.757,0,1,1,0-1.515h9.163a.757.757,0,1,1,0,1.515Z" transform="translate(-187.343 -1443.202)" fill="#212121" fill-rule="evenodd"/>
      <path id="Trazado_1054495" data-name="Trazado 1054495" d="M318.339,1608.515h-4.582a.757.757,0,0,1,0-1.515h4.582a.757.757,0,0,1,0,1.515Z" transform="translate(-303.761 -1546.151)" fill="#212121" fill-rule="evenodd"/>
      <path id="Trazado_1054496" data-name="Trazado 1054496" d="M603.148,1499.515h-9.391a.757.757,0,1,1,0-1.515h9.391a.757.757,0,1,1,0,1.515Z" transform="translate(-573.159 -1441.278)" fill="#212121" fill-rule="evenodd"/>
      <path id="Trazado_1054497" data-name="Trazado 1054497" d="M607.275,1574.515H593.757a.757.757,0,0,1,0-1.515h13.518a.757.757,0,0,1,0,1.515Z" transform="translate(-573.159 -1513.438)" fill="#212121" fill-rule="evenodd"/>
      <path id="Trazado_1054498" data-name="Trazado 1054498" d="M143.974,437.391h-8.217a.76.76,0,0,1-.757-.757v-7.876a.76.76,0,0,1,.757-.757h8.217a.76.76,0,0,1,.757.757v7.876A.76.76,0,0,1,143.974,437.391Zm-7.459-1.515h6.7v-6.361h-6.7Z" transform="translate(-132.501 -411.794)" fill="#212121" fill-rule="evenodd"/>
      <path id="Trazado_1054499" data-name="Trazado 1054499" d="M470.095,637.515H459.757a.757.757,0,1,1,0-1.515h10.337a.757.757,0,0,1,0,1.515Z" transform="translate(-444.233 -611.918)" fill="#212121" fill-rule="evenodd"/>
      <path id="Trazado_1054500" data-name="Trazado 1054500" d="M465.929,558.515h-6.172a.757.757,0,1,1,0-1.515h6.172a.757.757,0,1,1,0,1.515Z" transform="translate(-444.233 -535.909)" fill="#212121" fill-rule="evenodd"/>
      <path id="Trazado_1054501" data-name="Trazado 1054501" d="M202.628,504.862a.748.748,0,0,1-.53-.227l-.871-.871a.75.75,0,0,1,1.06-1.06l.341.3,1.818-1.78a.75.75,0,0,1,1.06,1.06l-2.348,2.348A.748.748,0,0,1,202.628,504.862Z" transform="translate(-196.002 -482.03)" fill="#212121" fill-rule="evenodd"/>
      <path id="Trazado_1054502" data-name="Trazado 1054502" d="M470.095,913.515H459.757a.757.757,0,0,1,0-1.515h10.337a.757.757,0,0,1,0,1.515Z" transform="translate(-444.233 -877.467)" fill="#212121" fill-rule="evenodd"/>
      <path id="Trazado_1054503" data-name="Trazado 1054503" d="M465.929,834.515h-6.172a.757.757,0,1,1,0-1.515h6.172a.757.757,0,1,1,0,1.515Z" transform="translate(-444.233 -801.458)" fill="#212121" fill-rule="evenodd"/>
      <path id="Trazado_1054504" data-name="Trazado 1054504" d="M470.095,1190.515H459.757a.757.757,0,1,1,0-1.515h10.337a.757.757,0,1,1,0,1.515Z" transform="translate(-444.233 -1143.978)" fill="#212121" fill-rule="evenodd"/>
      <path id="Trazado_1054505" data-name="Trazado 1054505" d="M465.929,1111.515h-6.172a.757.757,0,0,1,0-1.515h6.172a.757.757,0,0,1,0,1.515Z" transform="translate(-444.233 -1067.97)" fill="#212121" fill-rule="evenodd"/>
      <path id="Trazado_1054506" data-name="Trazado 1054506" d="M143.974,713.391h-8.217a.76.76,0,0,1-.757-.757v-7.876a.76.76,0,0,1,.757-.757h8.217a.76.76,0,0,1,.757.757v7.876A.76.76,0,0,1,143.974,713.391Zm-7.459-1.515h6.7v-6.361h-6.7Z" transform="translate(-132.501 -677.343)" fill="#212121" fill-rule="evenodd"/>
      <path id="Trazado_1054507" data-name="Trazado 1054507" d="M143.974,989.428h-8.217a.76.76,0,0,1-.757-.757v-7.914a.759.759,0,0,1,.757-.757h8.217a.759.759,0,0,1,.757.757v7.914A.76.76,0,0,1,143.974,989.428Zm-7.459-1.515h6.7v-6.4h-6.7Z" transform="translate(-132.501 -942.892)" fill="#212121" fill-rule="evenodd"/>
      <path id="Trazado_1054508" data-name="Trazado 1054508" d="M202.628,780.862a.747.747,0,0,1-.53-.227l-.871-.871a.75.75,0,0,1,1.06-1.06l.341.341,1.818-1.818a.732.732,0,0,1,1.06,0,.777.777,0,0,1,0,1.1l-2.348,2.31A.747.747,0,0,1,202.628,780.862Z" transform="translate(-196.002 -747.579)" fill="#212121" fill-rule="evenodd"/>
      <path id="Trazado_1054509" data-name="Trazado 1054509" d="M202.628,1057.824a.9.9,0,0,1-.53-.189l-.871-.871a.777.777,0,0,1,0-1.1.806.806,0,0,1,1.06,0l.341.341,1.818-1.78a.75.75,0,0,1,1.06,1.06l-2.348,2.348A.9.9,0,0,1,202.628,1057.824Z" transform="translate(-196.002 -1014.09)" fill="#212121" fill-rule="evenodd"/>
      <path id="Trazado_1054510" data-name="Trazado 1054510" d="M140.617,320.883v-29.8A2.1,2.1,0,0,0,138.535,289H111.083A2.076,2.076,0,0,0,109,291.083v38.547a2.053,2.053,0,0,0,2.083,2.083h27.452a2.077,2.077,0,0,0,2.083-2.083v-8.747Zm-20.9-4.96v7.914a.76.76,0,0,1-.757.757h-8.217a.76.76,0,0,1-.757-.757v-7.914a.76.76,0,0,1,.757-.757h8.217A.76.76,0,0,1,119.716,315.922Zm9.466,4.165a.757.757,0,1,1,0,1.515H123.01a.757.757,0,1,1,0-1.515Zm4.165-5.983H123.01a.757.757,0,1,1,0-1.515h10.337a.757.757,0,1,1,0,1.515Zm-13.631-8.633v7.876a.76.76,0,0,1-.757.757h-8.217a.76.76,0,0,1-.757-.757v-7.876a.76.76,0,0,1,.757-.757h8.217A.76.76,0,0,1,119.716,305.471Zm3.294,17.607h10.337a.757.757,0,1,1,0,1.515H123.01a.757.757,0,1,1,0-1.515Zm6.172-11.965H123.01a.757.757,0,1,1,0-1.515h6.172a.757.757,0,1,1,0,1.515Zm-10.224-7.459h-8.217a.76.76,0,0,1-.757-.757v-7.876a.76.76,0,0,1,.757-.757h8.217a.76.76,0,0,1,.757.757V302.9A.76.76,0,0,1,118.959,303.654Zm14.389,0H123.01a.757.757,0,1,1,0-1.515h10.337a.757.757,0,1,1,0,1.515Zm-4.165-2.991H123.01a.757.757,0,1,1,0-1.515h6.172a.757.757,0,1,1,0,1.515Z" transform="translate(-107.485 -278.057)" fill="#d6e3ff" fill-rule="evenodd"/>
      <path id="Trazado_1054511" data-name="Trazado 1054511" d="M181.7,1026.4V1020H175v6.4Zm-1.212-3.824-2.348,2.348a.837.837,0,0,1-1.06,0l-.871-.871a.777.777,0,0,1,0-1.1.806.806,0,0,1,1.06,0l.341.341,1.818-1.78a.75.75,0,1,1,1.06,1.06Z" transform="translate(-170.986 -981.377)" fill="#4cc949" fill-rule="evenodd"/>
      <path id="Trazado_1054512" data-name="Trazado 1054512" d="M175,750.361h6.7V744H175Zm2.613-1.25a.748.748,0,0,1-.53-.227l-.871-.871a.75.75,0,1,1,1.06-1.06l.341.341,1.818-1.818a.732.732,0,0,1,1.06,0,.777.777,0,0,1,0,1.1l-2.348,2.31A.748.748,0,0,1,177.613,749.112Z" transform="translate(-170.986 -715.828)" fill="#4cc949" fill-rule="evenodd"/>
      <path id="Trazado_1054513" data-name="Trazado 1054513" d="M175,474.361h6.7V468H175Zm3.143-1.477a.732.732,0,0,1-1.06,0l-.871-.871a.75.75,0,1,1,1.06-1.06l.341.3,1.818-1.78a.75.75,0,1,1,1.06,1.06Z" transform="translate(-170.986 -450.279)" fill="#4cc949" fill-rule="evenodd"/>
      <path id="Trazado_1054514" data-name="Trazado 1054514" d="M984,474.339v18.44l2.272-1.325a.847.847,0,0,1,.8.038,7.858,7.858,0,0,0,1.212.719.748.748,0,0,1,.454.682v5.225h7.5v-5.225a.715.715,0,0,1,.417-.682,7.851,7.851,0,0,0,1.212-.719.925.925,0,0,1,.833-.038l4.506,2.651,3.749-6.513-4.506-2.613a.714.714,0,0,1-.379-.719v-1.4a.714.714,0,0,1,.379-.719l4.506-2.613-3.749-6.513-4.506,2.613a.745.745,0,0,1-.833-.038,7.636,7.636,0,0,0-1.212-.682.8.8,0,0,1-.417-.682V469h-7.5v5.225a.84.84,0,0,1-.454.682,7.643,7.643,0,0,0-1.212.682.684.684,0,0,1-.8.038Zm8.179,14.805a5.585,5.585,0,1,1,5.566-5.6A5.591,5.591,0,0,1,992.179,489.144Z" transform="translate(-949.353 -451.241)" fill="#4a5254" fill-rule="evenodd"/>
    </g>
  </g>
</svg>
